ply
format ascii 1.0
comment Created by Open3D
element vertex 693
property double x
property double y
property double z
element face 1227
property list uchar uint vertex_indices
end_header
-0.0144629 -0.0219735 -0.0219892
-0.0136999 -0.0221401 -0.0225208
-0.0143877 -0.0218288 -0.0229134
-0.00106605 -0.0232386 -0.0247437
-0.000649357 -0.0234061 -0.0243473
-0.000249491 -0.0230318 -0.0251192
-0.011338 -0.0208609 -0.0105677
-0.0121866 -0.0208398 -0.0110869
-0.0122266 -0.0204847 -0.0103604
0.0195491 -0.0177064 -0.0121537
0.0186625 -0.01795 -0.0118022
0.0193721 -0.0179214 -0.011292
0.000570816 -0.0224736 -0.0259774
0.00135033 -0.0226626 -0.0254937
0.00133875 -0.0222528 -0.0261642
-0.0035095 -0.0235247 -0.0237931
-0.00379643 -0.0237098 -0.0230982
-0.00305415 -0.0238008 -0.0228907
0.0140638 -0.0183818 -0.022032
0.0132921 -0.0188122 -0.0222227
0.0134554 -0.0189286 -0.0214569
0.0149654 -0.0183657 -0.0192655
0.0148897 -0.0185412 -0.0186205
0.0154836 -0.0180916 -0.018768
-0.0103481 -0.0225104 -0.0132027
-0.010254 -0.0228236 -0.0140061
-0.0109535 -0.0224196 -0.013673
-0.0142115 -0.0217079 -0.0237235
-0.0148582 -0.0214545 -0.0242725
-0.0150927 -0.021569 -0.0233962
-0.014402 -0.0213816 -0.0249841
-0.0150519 -0.0213064 -0.0251448
-0.0074199 -0.0213508 -0.0281261
-0.00717041 -0.020962 -0.0288836
-0.00792249 -0.0209973 -0.0287374
0.0167176 -0.0174085 -0.0184989
0.0168519 -0.0174234 -0.017686
0.0175114 -0.0170568 -0.0185201
-0.00361538 -0.0225084 -0.0264511
-0.00365671 -0.0230076 -0.0254231
-0.00284978 -0.0227542 -0.0260289
0.0118572 -0.0195355 -0.0227229
0.0116224 -0.0194005 -0.0234184
0.0111275 -0.0198972 -0.0229371
-0.00758187 -0.0217431 -0.0273215
-0.00682377 -0.0216468 -0.0276484
0.0137535 -0.0176233 -0.0241811
0.0142882 -0.0171408 -0.0246058
0.0134376 -0.0171908 -0.0252767
-0.00308295 -0.0220899 -0.027196
-0.00231091 -0.0220936 -0.0271342
-0.00257978 -0.0216988 -0.0278189
-0.0062099 -0.0214778 -0.02813
-0.00648342 -0.0210215 -0.0289398
-0.00681592 -0.0212758 -0.0283241
0.0182937 -0.0168093 -0.0195866
0.0180059 -0.0169046 -0.0189817
0.0186353 -0.0168228 -0.0184344
0.0120838 -0.0198469 -0.0212997
0.0113731 -0.0202184 -0.0215905
0.0113743 -0.0205225 -0.0207545
-0.0151767 -0.021526 -0.0159979
-0.0149067 -0.0213893 -0.0151048
-0.0144982 -0.0217418 -0.0157809
-0.00611228 -0.0219129 -0.0272808
-0.00687868 -0.0220801 -0.0268179
-0.00564561 -0.0234525 -0.0238583
-0.00646105 -0.0234701 -0.023479
-0.00576921 -0.0236462 -0.0230128
-0.00794607 -0.0229757 -0.0244197
-0.00772867 -0.0227402 -0.0251241
-0.00850697 -0.022736 -0.0249716
0.0124353 -0.018966 -0.0232816
0.0119759 -0.0189756 -0.0238726
0.0125818 -0.0191856 -0.0224705
-0.0101809 -0.0205782 -0.00924936
-0.0095776 -0.020888 -0.00931718
-0.00997924 -0.0210123 -0.00990786
-0.00913685 -0.0214386 -0.0098505
-0.00902929 -0.0209296 -0.00887641
-0.00523743 -0.0239033 -0.0215639
-0.0043303 -0.0239837 -0.0218029
-0.00508639 -0.0237708 -0.0224635
0.00914002 -0.0203283 -0.0245167
0.00870378 -0.0201507 -0.0252245
0.00850615 -0.0205263 -0.0247229
0.00805585 -0.0204795 -0.0251937
0.00817905 -0.0200376 -0.0258315
-0.0160146 -0.0213915 -0.0163021
-0.0153084 -0.0216374 -0.0168339
-0.0145645 -0.0218693 -0.0164885
-0.00191849 -0.0234037 -0.0243598
-0.00272153 -0.0234871 -0.0239804
-0.00213951 -0.0236474 -0.0235032
0.0137991 -0.0192127 -0.0192947
0.0138835 -0.0189886 -0.0199417
0.0133127 -0.0194611 -0.0197747
0.0127973 -0.0194509 -0.0210079
0.0122188 -0.0199611 -0.0207035
0.0127612 -0.019698 -0.0202856
0.00871735 -0.0184035 -0.0274792
0.00837303 -0.0181002 -0.0280865
0.00791614 -0.0187199 -0.0276024
0.00261767 -0.0213409 -0.0271292
0.0031056 -0.0207439 -0.027679
0.00223845 -0.0209654 -0.0277472
-0.00319492 -0.0233025 -0.0246254
-0.0136757 -0.0206115 -0.0119099
-0.0134112 -0.0204226 -0.0111122
-0.0129115 -0.0207529 -0.0115207
-0.0138463 -0.0202368 -0.0105654
-0.0142242 -0.0203389 -0.0113829
0.0103254 -0.0180278 -0.0268418
0.0105011 -0.0176765 -0.0271829
0.00992654 -0.0177829 -0.0274659
-0.0109384 -0.0203077 -0.00911911
-0.0107345 -0.0206901 -0.00984759
-0.0114941 -0.0223943 -0.0142462
-0.0116739 -0.0220882 -0.0134355
-0.00864874 -0.0236565 -0.0212203
-0.00805349 -0.0236501 -0.0218563
-0.00879019 -0.0235319 -0.021921
-0.00120222 -0.0235013 -0.0241017
0.0188723 -0.0169246 -0.0170587
0.0187529 -0.0168815 -0.0177695
0.0179888 -0.0169928 -0.0175785
0.0140907 -0.019431 -0.0180058
0.0144655 -0.0190248 -0.0182471
0.0137015 -0.0196062 -0.0184888
0.0109219 -0.018031 -0.0262999
0.010107 -0.0186221 -0.0262232
-0.0125198 -0.0201908 -0.00951297
-0.0131727 -0.0201806 -0.00886679
-0.0124687 -0.0200693 -0.0086697
-0.0112089 -0.0198089 -0.00458528
-0.0115147 -0.0198003 -0.00525527
-0.0119365 -0.0200668 -0.0047112
-0.0108832 -0.0195968 -0.00573381
-0.0107533 -0.0195801 -0.00493486
0.0107772 -0.0204781 -0.0218974
0.011297 -0.0200335 -0.0222644
0.0145319 -0.0174325 -0.0237056
-0.0138918 -0.0220524 -0.0160649
-0.0140278 -0.0218123 -0.0152392
-0.0125321 -0.0225572 -0.0163329
-0.0116696 -0.0228439 -0.0165862
-0.0121726 -0.022817 -0.0173105
-0.0101193 -0.0218455 -0.0115561
-0.0109146 -0.0217089 -0.0118798
-0.010701 -0.0213739 -0.0110791
-0.0110763 -0.0230568 -0.0224473
-0.0116957 -0.0228083 -0.0226989
-0.0117551 -0.0229323 -0.022079
-0.0121153 -0.0225169 -0.0233136
-0.0112143 -0.02283 -0.0232466
-0.0140144 -0.0223228 -0.0204257
-0.0132614 -0.0225886 -0.0207
-0.0139 -0.0222774 -0.0212465
-0.00777112 -0.0221536 -0.0264893
0.00916672 -0.0190674 -0.0263808
0.00943168 -0.0183864 -0.0270047
0.02093 -0.0182643 -0.00859509
0.020005 -0.0184247 -0.00908284
0.020172 -0.0185741 -0.00829869
-0.00563199 -0.0212285 -0.0288356
0.00737582 -0.0183545 -0.0284188
0.00721147 -0.0187069 -0.0280632
0.0077251 -0.0184693 -0.0280427
-0.000835655 -0.0217437 -0.0275048
-0.00124024 -0.0212887 -0.0282865
-0.00176226 -0.0217108 -0.0276947
-0.0100462 -0.0195601 -0.00619812
-0.0110223 -0.0196675 -0.00663123
-0.015732 -0.0217465 -0.0210539
-0.0163794 -0.0216678 -0.0217174
-0.0165464 -0.0216882 -0.0209802
-0.00708636 -0.022946 -0.0247599
-0.00727349 -0.023249 -0.0238456
-0.0106118 -0.0196386 -0.00419686
-0.0135524 -0.0202436 -0.00759385
-0.0129294 -0.0201198 -0.00810718
-0.01373 -0.0202491 -0.00823955
0.00360881 -0.0218936 -0.0258773
0.00428752 -0.0219147 -0.0254579
0.00448036 -0.021538 -0.0260244
-0.00985633 -0.0215021 -0.0106582
-0.0125019 -0.0228448 -0.020988
-0.0126107 -0.0228785 -0.0201729
-0.011728 -0.0231502 -0.0204907
0.0132418 -0.0182784 -0.0235874
0.013015 -0.0178958 -0.0245082
0.0125072 -0.0185075 -0.0240827
0.0120466 -0.0202967 -0.0201479
-0.0140678 -0.0223541 -0.0195717
-0.0133585 -0.0226011 -0.019888
-0.015853 -0.0212577 -0.0154107
-0.00908659 -0.0236556 -0.0179956
-0.00997061 -0.0234814 -0.0180785
-0.00959241 -0.0235025 -0.0173251
-0.015474 -0.021735 -0.0217851
0.00855028 -0.0189039 -0.0269855
-0.0087204 -0.0236931 -0.0172303
-0.00925679 -0.0234941 -0.0165117
-0.00836534 -0.0236975 -0.0164787
-0.00843334 -0.0217837 -0.0270594
-0.00869339 -0.0221441 -0.0262785
0.00927198 -0.0179125 -0.0277421
-0.0111132 -0.0200131 -0.00834052
-0.0105299 -0.0199419 -0.00788692
-0.0103375 -0.0202062 -0.00852333
-0.00436997 -0.0237611 -0.022793
-0.00498391 -0.0236068 -0.023348
-0.0107981 -0.0227013 -0.014531
0.019759 -0.0182333 -0.00998509
0.0191608 -0.0188534 -0.009386
-0.0142734 -0.0214402 -0.0144223
-0.0119976 -0.0223991 -0.0148534
-0.0113377 -0.0226516 -0.0151096
-0.0129283 -0.0217993 -0.0138808
-0.0123736 -0.0217757 -0.0132758
-0.0121896 -0.0221078 -0.0140396
0.0101614 -0.0194464 -0.0250707
0.010597 -0.0195946 -0.0243674
0.0109867 -0.0189991 -0.0249451
0.012712 -0.017672 -0.0251992
0.0123227 -0.0181622 -0.0248327
0.0143364 -0.0185844 -0.0203846
0.013538 -0.0190673 -0.0205761
-0.00930588 -0.021784 -0.0268315
0.0143558 -0.0188711 -0.0189158
0.0147406 -0.0177238 -0.0227734
0.0154752 -0.0174928 -0.0221131
0.0157987 -0.0172684 -0.0229291
-0.00609934 -0.0240742 -0.0192721
-0.00574825 -0.0240567 -0.0198102
-0.0064956 -0.0239934 -0.0196423
-5.12378e-05 -0.0219406 -0.0270405
0.00063717 -0.0221128 -0.0266225
0.000752216 -0.0216186 -0.0273445
-0.00818807 -0.0238346 -0.0179006
0.0151451 -0.0184688 -0.0179416
0.0149702 -0.019007 -0.0170308
0.0158585 -0.0180193 -0.0173445
-0.014797 -0.0220036 -0.0210133
0.0182524 -0.0173937 -0.0142603
0.0185595 -0.0174778 -0.0136533
0.0189996 -0.0172503 -0.014385
0.0148066 -0.0179683 -0.0217285
-0.0100634 -0.0230392 -0.014827
-0.009552 -0.0231709 -0.0142861
0.000986356 -0.0203207 -0.0295855
0.00021965 -0.0204838 -0.0296575
0.000720538 -0.0206697 -0.028792
0.0118211 -0.0187186 -0.0245072
-0.00975336 -0.0229359 -0.0240102
-0.010191 -0.0226211 -0.0246913
-0.0106496 -0.0227727 -0.0239644
-0.0134727 -0.0201851 -0.00972024
0.0113449 -0.0192564 -0.0241265
-0.0117557 -0.0230592 -0.0181215
-0.0125957 -0.0228054 -0.0180867
-0.00944563 -0.023491 -0.0215052
-0.00932914 -0.0236003 -0.0207066
-0.00401603 -0.0233378 -0.0244751
-0.0118609 -0.0198292 -0.00701399
-0.0126834 -0.0200531 -0.00733642
-0.0124975 -0.020017 -0.00649869
-0.0146679 -0.0219597 -0.0173152
-0.0148896 -0.0219801 -0.018253
-0.01536 -0.0217259 -0.0175729
0.0206194 -0.0180163 -0.0105161
0.020624 -0.0179685 -0.0112717
0.0199791 -0.017982 -0.0108694
-0.00412801 -0.0217252 -0.0278747
-0.00477099 -0.0215596 -0.0282355
-0.00468486 -0.0219195 -0.0274488
-0.0054508 -0.0217066 -0.0277982
-0.00481458 -0.0212826 -0.0288653
0.00392821 -0.021372 -0.0265871
0.00477389 -0.0209699 -0.0267259
-0.0161571 -0.0214907 -0.0172347
0.00132658 -0.021011 -0.028016
0.000385812 -0.021137 -0.0281092
0.0172231 -0.0174327 -0.016174
0.0180837 -0.0170477 -0.0166981
0.0173213 -0.0172735 -0.0169907
0.0201673 -0.0178284 -0.011677
-0.00998332 -0.0235231 -0.0201775
-0.0101583 -0.0234405 -0.0209628
0.0170437 -0.0171086 -0.0201289
0.0172819 -0.0170156 -0.0210205
0.0165105 -0.0172523 -0.0207822
-0.00931464 -0.0195572 -0.00549799
-0.00917201 -0.0196541 -0.00613649
0.00452982 -0.0205662 -0.0273134
0.00460147 -0.0201129 -0.0277669
0.00391799 -0.0205569 -0.0275588
-0.00887835 -0.0194715 -0.00390551
-0.009471 -0.0195132 -0.00469748
-0.00984302 -0.0195473 -0.00399404
-0.00855364 -0.019555 -0.00485131
-0.00650471 -0.0240866 -0.01867
-0.00765889 -0.0239278 -0.0186164
-0.00723957 -0.0240302 -0.0177661
0.0132364 -0.0198471 -0.0190257
-0.00822302 -0.023199 -0.0236068
0.0103668 -0.0189799 -0.0255515
0.0109046 -0.0185167 -0.0256843
0.00667993 -0.0203969 -0.0263568
0.00612649 -0.0210118 -0.0258876
0.0068293 -0.0208688 -0.0255517
0.00744113 -0.0208548 -0.0250474
0.00800536 -0.0208402 -0.0245328
-0.00534844 -0.0221384 -0.0269476
-0.00529261 -0.0225333 -0.0261741
-0.00454694 -0.0223358 -0.0266778
0.00747213 -0.0204444 -0.0257584
0.0167832 -0.0171233 -0.0216612
0.0159978 -0.0173819 -0.0214831
-0.00235048 -0.0209259 -0.0294921
-0.00152337 -0.0210072 -0.0290634
-0.00168324 -0.0208224 -0.0295778
-0.0124506 -0.0211476 -0.0273713
-0.0125106 -0.0213598 -0.0262653
-0.0116286 -0.021364 -0.0268033
-0.00249992 -0.0232883 -0.0246774
0.0154258 -0.0172455 -0.0234116
0.0179138 -0.0182702 -0.0119553
0.0182115 -0.0179037 -0.0124169
0.0175746 -0.018225 -0.0126328
0.00219947 -0.0228716 -0.0248736
0.0029441 -0.0223569 -0.0253782
0.00211519 -0.0223558 -0.0257204
-0.00960414 -0.0205061 -0.00865383
-0.00890364 -0.020518 -0.00805584
-0.0111696 -0.0228686 -0.0159541
-0.0118674 -0.0226259 -0.015714
-0.0131273 -0.0225303 -0.0173066
-0.00215953 -0.0224856 -0.0264716
-0.00153181 -0.0221478 -0.0269556
-0.000707778 -0.0222459 -0.026685
-0.00134767 -0.0225663 -0.0262212
0.0189069 -0.0175929 -0.0127975
-0.000779885 -0.0209072 -0.0289303
0.0120835 -0.0178254 -0.025552
-0.00784231 -0.0238904 -0.0171052
-0.0133039 -0.0223332 -0.0164324
-0.0131724 -0.0222033 -0.0155377
-0.00946259 -0.0236228 -0.0187208
0.00379504 -0.0194212 -0.0291883
0.00297506 -0.0199401 -0.0288585
0.00376676 -0.0199755 -0.0283208
0.0145374 -0.0192455 -0.017522
-0.0144278 -0.0212237 -0.0258303
-0.0137222 -0.0214348 -0.0252445
-0.00271237 -0.0230711 -0.025283
0.00572705 -0.0207109 -0.0266049
0.00606435 -0.0200825 -0.0271255
-0.0111961 -0.0231583 -0.0217786
-0.011778 -0.0230478 -0.0213678
0.0213411 -0.0181587 -0.0102291
0.0206569 -0.0181755 -0.00959552
-0.0108086 -0.0233732 -0.0203673
-0.0110135 -0.0232871 -0.0211404
0.003047 -0.0196882 -0.0292871
0.00531585 -0.0212621 -0.026024
0.00497509 -0.0217061 -0.0253986
0.00573538 -0.0214436 -0.0253473
-0.00425067 -0.0235555 -0.0236318
0.0077289 -0.0193254 -0.0270178
0.00755823 -0.019916 -0.0264252
0.00834745 -0.0194962 -0.0264294
-0.0103012 -0.022173 -0.0123855
-0.00972928 -0.0226707 -0.0128708
-0.00849146 -0.0197068 -0.00574134
-0.00854703 -0.0198779 -0.00634307
-2.31249e-06 -0.0223015 -0.0264429
0.0165579 -0.0176765 -0.0167961
0.0163754 -0.0179211 -0.016069
-0.0109426 -0.0224057 -0.0247393
-0.0104832 -0.0223267 -0.0252377
-0.0110265 -0.0220502 -0.0255083
0.0192969 -0.0181976 -0.0105845
0.018575 -0.0184632 -0.0108598
-0.0134699 -0.0218395 -0.0145713
-0.00840837 -0.02342 -0.022683
-0.00752319 -0.0235831 -0.0225526
-0.00332568 -0.0210692 -0.0293112
-0.00293277 -0.0213258 -0.0285739
0.0180565 -0.0178161 -0.0130777
0.0177848 -0.0177504 -0.0137774
-0.013294 -0.0211222 -0.026815
-0.013458 -0.0212655 -0.0259827
0.00691226 -0.0197328 -0.0270412
0.0192218 -0.0170456 -0.0157188
0.0182249 -0.0171105 -0.0158991
0.0184376 -0.0171818 -0.0150223
-0.0146409 -0.0203477 -0.0107228
0.0158316 -0.0186198 -0.0154813
0.0157915 -0.0182913 -0.0165021
0.0153575 -0.0188028 -0.0163304
-4.58905e-05 -0.0207992 -0.0288557
-0.0117328 -0.0197925 -0.00610643
-0.00941363 -0.0197973 -0.00682471
-0.0117655 -0.0201207 -0.00890003
-0.011572 -0.0204071 -0.00972841
-0.00624807 -0.0239468 -0.0204163
-0.00537062 -0.0240368 -0.0203887
-0.00600132 -0.0238828 -0.0212568
-0.0155036 -0.0213641 -0.0244793
-0.00939908 -0.0233596 -0.0223869
0.00941919 -0.0198174 -0.0251744
0.0114525 -0.0180377 -0.025829
0.01161 -0.0183811 -0.0252234
-0.0112655 -0.0199521 -0.00386484
0.00198408 -0.0206393 -0.0282988
0.00269938 -0.0204238 -0.0282608
0.00219347 -0.0202411 -0.0288166
0.0163559 -0.0184473 -0.0147397
0.0170064 -0.0182515 -0.013936
0.0169999 -0.0178695 -0.0147637
0.012706 -0.020077 -0.0195188
-0.012508 -0.0201339 -0.00555628
-0.00883317 -0.0229729 -0.0241957
0.0160487 -0.017805 -0.0181969
-0.0126882 -0.0221543 -0.0147037
-0.006496 -0.0237991 -0.0218093
-0.00679335 -0.0238532 -0.0210983
0.00608814 -0.0218063 -0.0242415
0.00569085 -0.022147 -0.0238887
0.00646524 -0.0219055 -0.023663
0.0189284 -0.0186822 -0.0101121
-0.00729247 -0.0239368 -0.0194138
-0.00707465 -0.0238994 -0.0202575
-0.0122623 -0.0216836 -0.025504
-0.0129284 -0.021522 -0.0254405
-0.012528 -0.0218529 -0.0248675
0.00545617 -0.0197846 -0.027727
0.00573188 -0.0192393 -0.0282396
0.00486039 -0.0195273 -0.0283224
0.00649092 -0.018983 -0.028143
0.00629761 -0.0194914 -0.0276489
-0.01623 -0.0216302 -0.0223586
-0.0152661 -0.0216535 -0.0225857
0.0140011 -0.017852 -0.02341
0.0137481 -0.018295 -0.0228125
-0.0105052 -0.0210842 -0.0104186
-0.00984272 -0.0224229 -0.0253819
-0.00956115 -0.0221279 -0.0260841
-0.010341 -0.0220739 -0.025857
0.00441666 -0.0192174 -0.0290775
-0.0117388 -0.0220583 -0.0249725
-0.0122548 -0.02219 -0.0241953
-0.0114919 -0.0224934 -0.0240673
-0.000425655 -0.0212318 -0.0282019
-3.98933e-05 -0.0215435 -0.0276348
0.00308121 -0.0216389 -0.026539
0.0027694 -0.0220443 -0.0259974
-0.0103607 -0.0233046 -0.0218901
0.0110633 -0.0175657 -0.0268545
-0.0120047 -0.0231009 -0.0196033
0.00130628 -0.0219032 -0.0267666
0.00212808 -0.0218904 -0.0264982
-0.0135895 -0.0220071 -0.0232916
-0.0129504 -0.0223277 -0.0229021
-0.0128571 -0.022158 -0.0236692
-0.0130956 -0.0214132 -0.013073
0.00546957 -0.021872 -0.0246605
-0.000349578 -0.0226394 -0.0259007
0.00380018 -0.022251 -0.0251135
0.00318329 -0.0226768 -0.0247062
-0.00206549 -0.0213116 -0.0284779
-0.0139381 -0.0211698 -0.0263044
-0.00771213 -0.0233971 -0.0231702
-0.00895917 -0.0237272 -0.0193099
-0.00858768 -0.0237812 -0.0186441
0.0177043 -0.0169236 -0.0204658
0.0175709 -0.0169739 -0.0194631
0.00709341 -0.0191566 -0.0275849
-0.0169224 -0.0216179 -0.0180802
-0.0158151 -0.021624 -0.0181684
0.00462277 -0.0221091 -0.0248582
-0.0134357 -0.021863 -0.0240336
-0.0139646 -0.0215871 -0.0244897
0.0161924 -0.0176283 -0.0190155
0.0168963 -0.0172443 -0.0192268
0.0163185 -0.0174398 -0.0198751
-0.00340454 -0.0217154 -0.0278765
-0.0111214 -0.0220431 -0.0127653
0.0161694 -0.0172333 -0.0224473
-0.00879887 -0.0210696 -0.028539
-0.0090817 -0.0214259 -0.0276496
-0.00820525 -0.0213807 -0.0278814
0.00147075 -0.0204708 -0.0287908
-0.00534989 -0.0228766 -0.0254358
-0.00597883 -0.0226504 -0.0257725
-0.00620931 -0.0229061 -0.0251096
0.00345905 -0.0211096 -0.0271053
0.0156731 -0.0176822 -0.0205696
-0.0156963 -0.0210375 -0.0145186
0.00618646 -0.0215221 -0.024775
0.00669775 -0.021557 -0.0242146
0.00681964 -0.0212099 -0.0248708
-0.00896477 -0.0234673 -0.0155848
-0.00983028 -0.0232418 -0.0157369
-0.0100895 -0.0233 -0.0166489
-0.0116767 -0.021692 -0.0259026
0.0050806 -0.022319 -0.0240818
-0.0162405 -0.0216187 -0.0188042
0.0072644 -0.0216616 -0.0234226
-0.011154 -0.0198181 -0.00751569
-0.0119997 -0.0199485 -0.00798562
0.000557949 -0.0228413 -0.0253618
-0.0160373 -0.0215348 -0.0231232
0.0182371 -0.0183351 -0.0114181
-0.00939394 -0.0220223 -0.0112595
-0.00923166 -0.0217491 -0.0105143
0.0127169 -0.0193172 -0.0217408
-0.0118741 -0.0217897 -0.012812
0.0194228 -0.0174251 -0.013716
0.0199021 -0.0173916 -0.0145241
-0.0139443 -0.0209148 -0.0128332
-0.01458 -0.0205358 -0.0121231
-0.0131509 -0.0225357 -0.0214547
-0.0130571 -0.0224471 -0.0221617
-0.0136725 -0.0222737 -0.0218751
-0.00608595 -0.0223367 -0.026447
-0.00697881 -0.0225484 -0.0257719
0.0166648 -0.0178963 -0.0154051
-0.0128436 -0.0219627 -0.0243018
-0.01322 -0.0217012 -0.0247333
-0.00391986 -0.0213953 -0.0285457
-0.0153001 -0.021882 -0.0204627
-0.0113063 -0.0230725 -0.0173918
-0.010877 -0.023081 -0.0167056
-0.0124283 -0.0214684 -0.0125506
0.0130792 -0.0187229 -0.022871
-0.0102361 -0.0231137 -0.0230393
-0.00586567 -0.0237866 -0.022147
-0.00919413 -0.0236748 -0.019974
-0.00976952 -0.0235813 -0.0194379
-0.0168532 -0.0216746 -0.0192308
-0.0160938 -0.021684 -0.0195591
0.010906 -0.0197552 -0.02364
-0.0147168 -0.0221005 -0.0200893
0.0117492 -0.0174305 -0.0264032
0.0125826 -0.0172964 -0.0258591
0.00987602 -0.0199515 -0.0245186
0.00964358 -0.0203054 -0.0240165
0.0102151 -0.0200673 -0.0238567
-0.0155199 -0.0218019 -0.0189702
0.00520443 -0.0203605 -0.0272382
-0.010601 -0.0234253 -0.0196055
-0.0113149 -0.0232594 -0.0189881
-0.0103437 -0.0234563 -0.018832
0.00412644 -0.0209107 -0.0270839
-0.0163635 -0.0210361 -0.0137694
-0.015967 -0.0208244 -0.012791
-0.0154234 -0.0208348 -0.0136828
0.0104247 -0.0202207 -0.0231643
-0.0109328 -0.0217077 -0.0263073
0.00918415 -0.0206364 -0.0237519
-0.0150962 -0.0204805 -0.011473
-0.0123224 -0.0211601 -0.0118227
-0.00968063 -0.0200618 -0.00778602
-0.00870363 -0.0201568 -0.00715728
-0.00663089 -0.0236748 -0.0225933
0.00977562 -0.0204733 -0.0234203
-0.00854903 -0.0237863 -0.0198006
-0.00102454 -0.0207139 -0.0296394
0.00664699 -0.0185738 -0.0285982
0.00596863 -0.0187806 -0.0287483
-0.0129014 -0.0201718 -0.00617248
-0.00483511 -0.0234107 -0.0241971
-0.00464078 -0.0231165 -0.025031
0.0174839 -0.0174322 -0.0152937
-0.0104494 -0.0232936 -0.0173986
0.00172468 -0.0214916 -0.0272409
0.0150322 -0.0171872 -0.0238858
0.019854 -0.0175746 -0.0130139
-0.00711916 -0.0234876 -0.0231416
0.00993158 -0.0209813 -0.0218518
0.0105833 -0.0203874 -0.0224648
0.00989375 -0.0206835 -0.0227014
-0.00450889 -0.0227481 -0.0258697
-0.0106338 -0.0229298 -0.0153871
-0.010528 -0.0230856 -0.0161082
0.0212602 -0.0180743 -0.0112393
0.0210557 -0.0179519 -0.0121187
-0.0147774 -0.0220909 -0.0192304
-0.0158227 -0.021436 -0.0238075
-0.0115315 -0.0212552 -0.0114199
-0.0101102 -0.0195052 -0.00528636
-0.0130779 -0.0210505 -0.0122798
-0.0117102 -0.0215737 -0.012182
-0.00925499 -0.0233383 -0.015013
0.00634591 -0.0212182 -0.0252952
0.00417503 -0.0225006 -0.0244134
-0.0107725 -0.0214052 -0.0271766
0.0106532 -0.020759 -0.0213272
-0.00959225 -0.0223353 -0.0120932
-0.0103234 -0.0197638 -0.00716587
0.0143961 -0.0186885 -0.0196464
0.0073799 -0.0212174 -0.0243144
-0.0165748 -0.0211984 -0.0147586
-0.0167323 -0.0213472 -0.0157044
0.00927733 -0.0208765 -0.0230428
0.00935826 -0.0211369 -0.022276
-0.0072048 -0.0237491 -0.021822
0.0142059 -0.0185088 -0.0211801
-0.015377 -0.0218728 -0.0197817
-0.0124405 -0.022758 -0.0217518
-0.0123408 -0.0226423 -0.022477
-0.013427 -0.022583 -0.0190822
-0.0140941 -0.0223221 -0.0186985
-0.0137206 -0.021417 -0.0137252
-0.0145409 -0.0210136 -0.0136614
-0.00389715 -0.0220614 -0.0272514
-0.00280127 -0.0224024 -0.0266569
0.01538 -0.017703 -0.021355
0.0149134 -0.018099 -0.0208824
0.0085905 -0.0207607 -0.0241187
0.0176247 -0.0175749 -0.0144971
-0.00204759 -0.0228461 -0.025776
-0.00116724 -0.0229182 -0.025485
-0.0128825 -0.0227711 -0.0187181
-0.0133632 -0.0225653 -0.0182761
-0.00636138 -0.0232102 -0.0242935
-0.0104597 -0.0197536 -0.00324148
-0.0140098 -0.0222767 -0.0177936
-0.0113053 -0.0232891 -0.0198111
-0.00550351 -0.0231853 -0.0246674
0.0202525 -0.0175606 -0.0139502
0.0149946 -0.0182056 -0.0200578
0.0156127 -0.0178866 -0.0195908
-0.0101494 -0.019519 -0.00462305
-0.0077429 -0.0238 -0.0209569
-0.0132686 -0.0202129 -0.00684395
-0.00477208 -0.024008 -0.0212474
-0.0124377 -0.0224006 -0.0154229
-0.0108651 -0.0232895 -0.0181408
-0.0168423 -0.0214663 -0.0165317
-0.00811289 -0.0224787 -0.0256993
-0.0130359 -0.0203027 -0.0103561
-0.00414518 -0.0211875 -0.0290841
0.00891383 -0.0196523 -0.0258204
-0.015555 -0.0206462 -0.0121426
-0.0149921 -0.0206706 -0.0129219
-0.0101459 -0.0217535 -0.0266026
0.00867251 -0.0210253 -0.0234102
-0.00788909 -0.0238538 -0.0200203
-0.00815471 -0.0238517 -0.0192968
0.0195198 -0.0171977 -0.0151478
-0.0127614 -0.0228419 -0.0193726
-0.00914724 -0.023184 -0.0233202
-0.0139126 -0.0221898 -0.0169049
0.00801949 -0.0211593 -0.0238059
-0.0149599 -0.0211129 -0.014286
0.000704504 -0.0231748 -0.0248214
0.00968798 -0.0192782 -0.0257336
-0.00950413 -0.0195389 -0.0033101
-0.0143209 -0.0202821 -0.0100585
-0.0168913 -0.0215369 -0.0171348
0.0206724 -0.0177575 -0.0131434
-0.016714 -0.0216972 -0.0201623
-0.00190827 -0.0231399 -0.0250695
-0.00993535 -0.0214155 -0.0274228
-0.00971207 -0.0229703 -0.0136045
-0.0104833 -0.0212082 -0.0281696
-0.00982785 -0.0211615 -0.0283142
-0.0159498 -0.0217329 -0.0203377
-0.0122295 -0.0229977 -0.0188089
-0.00901863 -0.0224632 -0.025546
-0.00855528 -0.0237538 -0.0204378
0.00168381 -0.0201467 -0.0294857
-0.012757 -0.0205392 -0.0108865
0.00241538 -0.0199121 -0.0293672
-0.00377705 -0.0239209 -0.0223548
0.0119927 -0.0196793 -0.0220088
-0.0115023 -0.0212057 -0.0278511
0.0202726 -0.0177389 -0.0124171
0.0194418 -0.0188627 -0.00874489
0.0212325 -0.0182111 -0.00924232
0.0173296 -0.0182129 -0.0132887
0.0189904 -0.0169514 -0.0164197
0.00877488 -0.0212736 -0.0227053
0.00818162 -0.0214129 -0.0230613
-9.6874e-05 -0.0233111 -0.0245923
-0.000394624 -0.0206045 -0.0296759
0.00134841 -0.0230549 -0.0249049
0.00535094 -0.0189557 -0.0288832
-0.00937076 -0.022715 -0.0248068
-0.0139402 -0.0202484 -0.00901503
3 0 1 2
3 3 4 5
3 6 7 8
3 9 10 11
3 12 13 14
3 15 16 17
3 18 19 20
3 21 22 23
3 24 25 26
3 27 28 29
3 30 31 28
3 32 33 34
3 35 36 37
3 38 39 40
3 41 42 43
3 32 44 45
3 46 47 48
3 49 50 51
3 52 53 54
3 55 56 57
3 58 59 60
3 61 62 63
3 64 45 65
3 66 67 68
3 69 70 71
3 42 72 73
3 74 72 41
3 75 76 77
3 78 76 79
3 80 81 82
3 83 84 85
3 86 84 87
3 88 61 89
3 90 61 63
3 91 92 93
3 94 95 96
3 97 98 99
3 100 101 102
3 103 104 105
3 106 15 92
3 107 108 109
3 110 108 111
3 112 113 114
3 115 75 116
3 117 118 26
3 119 120 121
3 3 91 122
3 123 124 125
3 126 127 128
3 129 112 130
3 131 132 133
3 134 135 136
3 137 135 138
3 139 59 140
3 47 46 141
3 142 63 143
3 144 145 146
3 147 148 149
3 150 151 152
3 153 151 154
3 155 156 157
3 65 44 158
3 159 130 160
3 161 162 163
3 52 164 53
3 165 166 167
3 168 169 170
3 137 171 172
3 173 174 175
3 176 69 177
3 134 178 138
3 179 180 181
3 134 138 135
3 182 183 184
3 185 77 78
3 186 187 188
3 189 190 191
3 60 98 58
3 99 98 192
3 193 194 155
3 88 195 61
3 196 197 198
3 173 199 174
3 159 160 200
3 201 202 203
3 158 204 205
3 101 100 206
3 207 208 209
3 82 210 211
3 26 25 212
3 213 214 162
3 215 143 62
3 216 117 217
3 218 219 220
3 221 222 223
3 224 225 190
3 226 227 95
3 204 228 205
3 229 128 127
3 230 231 232
3 233 234 235
3 236 237 238
3 196 201 239
3 240 241 242
3 243 0 199
3 244 245 246
3 247 231 230
3 248 25 249
3 250 251 252
3 225 253 191
3 254 255 256
3 131 257 132
3 258 253 223
3 259 260 146
3 37 57 56
3 261 262 119
3 106 263 15
3 264 265 266
3 267 268 269
3 270 271 272
3 273 274 275
3 275 274 276
3 164 274 277
3 278 184 279
3 22 127 240
3 280 88 89
3 281 282 238
3 283 284 285
3 286 272 271
3 287 262 288
3 289 290 291
3 171 292 293
3 294 295 296
3 297 298 299
3 292 298 300
3 301 302 303
3 96 304 94
3 305 177 69
3 130 306 307
3 308 309 310
3 86 311 312
3 313 314 315
3 86 316 311
3 317 318 291
3 319 320 321
3 322 323 324
3 91 325 92
3 326 141 230
3 327 328 329
3 291 290 317
3 330 331 332
3 333 334 79
3 335 336 217
3 260 337 146
3 338 339 50
3 340 339 341
3 10 342 328
3 343 320 169
3 344 225 224
3 201 198 202
3 239 201 345
3 54 32 45
3 144 346 347
3 196 348 197
3 349 350 351
3 352 240 127
3 353 30 354
3 106 355 39
3 356 308 357
3 358 152 359
3 360 270 361
3 362 363 188
3 364 350 349
3 365 366 367
3 191 190 225
3 211 210 368
3 369 370 371
3 24 372 373
3 374 375 293
3 12 237 376
3 283 377 378
3 379 380 381
3 382 11 383
3 347 143 384
3 385 120 386
3 387 388 319
3 389 245 390
3 323 391 392
3 370 393 308
3 394 395 396
3 110 111 397
3 398 399 400
3 252 401 282
3 112 114 160
3 266 402 264
3 186 156 187
3 293 375 403
3 131 404 405
3 40 39 355
3 406 407 408
3 409 28 31
3 121 410 261
3 83 411 84
3 412 307 413
3 136 414 134
3 415 416 417
3 418 419 420
3 421 99 192
3 207 115 404
3 323 322 391
3 266 422 402
3 71 423 69
3 424 242 36
3 384 218 425
3 426 427 408
3 428 429 430
3 406 235 234
3 214 213 431
3 432 235 433
3 434 435 436
3 437 438 439
3 440 438 441
3 442 199 443
3 444 445 230
3 446 149 6
3 447 448 449
3 351 450 349
3 125 36 285
3 451 452 453
3 454 168 455
3 142 90 63
3 456 457 182
3 261 458 288
3 113 112 459
3 2 443 0
3 188 187 460
3 461 14 462
3 233 235 301
3 463 464 465
3 328 342 389
3 230 445 18
3 288 363 362
3 218 466 219
3 94 128 229
3 428 467 429
3 340 468 376
3 469 331 470
3 124 57 125
3 471 169 320
3 472 392 391
3 473 177 305
3 97 99 227
3 180 179 265
3 474 348 475
3 55 476 477
3 393 369 478
3 282 454 455
3 86 87 316
3 479 280 480
3 366 481 467
3 27 482 483
3 484 485 486
3 469 481 183
3 16 368 210
3 451 436 452
3 487 49 51
3 488 26 118
3 318 489 231
3 490 491 492
3 415 493 281
3 415 105 416
3 404 131 133
3 494 495 496
3 103 497 104
3 359 188 363
3 498 291 318
3 100 160 206
3 62 195 499
3 413 344 412
3 106 39 263
3 500 501 502
3 203 202 503
3 504 202 505
3 323 434 506
3 507 429 467
3 508 479 480
3 509 501 430
3 510 207 511
3 512 13 12
3 443 29 513
3 514 383 10
3 442 443 513
3 515 185 516
3 517 97 20
3 118 219 518
3 519 520 246
3 517 19 74
3 196 475 348
3 444 141 46
3 374 293 292
3 107 521 522
3 62 143 63
3 523 524 525
3 486 291 498
3 279 365 356
3 526 527 495
3 283 378 528
3 529 436 530
3 531 388 387
3 204 158 44
3 532 243 173
3 533 145 534
3 153 453 452
3 219 535 518
3 130 307 129
3 221 223 306
3 189 445 444
3 195 62 61
3 536 189 72
3 483 482 530
3 150 537 154
3 68 538 82
3 539 540 474
3 541 508 542
3 543 43 42
3 399 242 241
3 241 400 399
3 532 544 243
3 545 344 546
3 547 548 549
3 453 154 256
3 245 244 390
3 542 508 550
3 294 551 295
3 552 553 554
3 340 376 236
3 36 377 285
3 278 555 497
3 556 557 558
3 280 269 480
3 496 495 527
3 543 559 43
3 269 89 267
3 278 279 555
3 449 560 381
3 561 548 83
3 182 457 331
3 111 562 397
3 354 435 392
3 305 385 473
3 333 75 209
3 7 563 109
3 334 564 565
3 116 77 446
3 566 538 68
3 93 122 91
3 567 548 561
3 568 539 474
3 540 287 552
3 321 320 569
3 219 118 220
3 185 78 516
3 277 274 531
3 514 10 327
3 440 570 571
3 572 422 266
3 145 533 146
3 211 368 573
3 200 369 371
3 574 573 263
3 395 283 575
3 534 576 533
3 577 462 103
3 578 47 141
3 342 9 579
3 177 580 67
3 581 582 583
3 184 278 182
3 213 361 270
3 39 584 574
3 585 586 335
3 529 452 436
3 236 238 455
3 424 36 35
3 281 105 415
3 166 440 478
3 587 588 271
3 483 530 354
3 446 185 149
3 132 180 133
3 204 44 492
3 559 583 582
3 193 544 589
3 72 74 536
3 55 477 56
3 100 200 160
3 482 27 463
3 590 513 29
3 591 149 148
3 150 152 358
3 292 592 298
3 555 296 497
3 593 535 466
3 518 535 594
3 462 14 332
3 120 385 121
3 204 491 228
3 406 427 433
3 471 170 169
3 248 249 595
3 309 596 310
3 597 469 470
3 203 345 201
3 109 563 593
3 401 343 454
3 560 598 324
3 65 527 526
3 296 351 104
3 102 369 200
3 425 220 216
3 123 125 284
3 48 546 224
3 60 59 599
3 515 600 147
3 172 171 601
3 43 140 41
3 286 271 588
3 97 58 98
3 157 525 0
3 243 157 0
3 602 94 229
3 501 603 502
3 604 195 605
3 551 356 357
3 351 350 416
3 606 607 583
3 608 386 120
3 609 247 18
3 213 272 382
3 550 610 542
3 477 476 289
3 611 152 612
3 468 340 341
3 401 252 251
3 381 506 451
3 613 193 614
3 412 129 307
3 485 477 289
3 521 615 616
3 566 68 67
3 275 617 273
3 570 166 165
3 155 544 193
3 507 481 597
3 132 181 180
3 6 591 7
3 102 167 166
3 38 40 618
3 498 619 620
3 83 85 621
3 96 421 304
3 225 344 413
3 428 430 501
3 220 425 218
3 424 484 23
3 313 526 314
3 504 595 503
3 622 244 396
3 139 599 59
3 623 624 341
3 485 35 37
3 171 403 601
3 625 613 626
3 575 420 622
3 275 276 313
3 564 601 403
3 49 617 38
3 149 185 147
3 489 232 231
3 463 2 1
3 92 325 106
3 369 393 370
3 43 582 140
3 627 177 67
3 511 265 264
3 299 178 628
3 614 268 629
3 471 319 388
3 176 627 496
3 337 260 626
3 630 188 460
3 102 200 100
3 223 253 413
3 153 465 464
3 525 157 523
3 365 279 184
3 79 76 333
3 631 627 66
3 289 476 290
3 109 593 107
3 283 285 377
3 366 184 183
3 457 462 332
3 519 579 632
3 633 634 498
3 310 316 308
3 592 138 635
3 259 146 533
3 617 315 38
3 427 636 433
3 411 83 547
3 596 502 310
3 160 130 112
3 637 266 265
3 407 638 80
3 216 639 425
3 640 576 197
3 493 250 252
3 280 641 88
3 610 544 532
3 243 544 155
3 505 202 198
3 8 405 6
3 589 614 193
3 642 71 70
3 103 462 456
3 517 20 19
3 496 631 494
3 643 257 131
3 341 624 468
3 540 348 474
3 358 359 363
3 593 466 521
3 531 387 644
3 259 533 640
3 264 402 172
3 267 629 268
3 87 370 316
3 502 596 500
3 623 338 40
3 260 625 626
3 463 1 464
3 12 376 468
3 64 526 313
3 236 168 340
3 12 14 237
3 6 405 116
3 432 301 235
3 645 87 84
3 315 617 275
3 262 287 539
3 445 189 536
3 316 370 308
3 46 189 444
3 389 329 328
3 219 466 535
3 236 455 168
3 185 446 77
3 107 111 108
3 603 312 311
3 645 159 371
3 633 602 21
3 471 51 170
3 148 372 488
3 3 5 624
3 557 646 647
3 560 648 598
3 649 606 561
3 46 48 190
3 451 379 381
3 346 144 337
3 81 210 82
3 104 497 296
3 32 54 33
3 485 37 477
3 489 318 317
3 367 309 365
3 189 46 190
3 261 410 458
3 269 280 89
3 343 169 454
3 426 408 538
3 650 651 432
3 302 432 651
3 586 505 534
3 620 633 498
3 385 410 121
3 344 224 546
3 72 191 73
3 309 356 365
3 420 528 418
3 54 53 33
3 246 520 652
3 502 311 310
3 567 561 606
3 65 526 64
3 467 367 366
3 585 212 248
3 226 633 620
3 402 422 135
3 351 439 450
3 438 437 441
3 625 653 613
3 566 67 580
3 410 385 654
3 603 501 509
3 267 655 629
3 165 167 101
3 65 45 44
3 92 17 93
3 278 497 456
3 226 602 633
3 586 534 335
3 246 396 244
3 64 276 52
3 42 41 72
3 240 23 22
3 560 324 506
3 428 500 467
3 197 576 198
3 578 141 326
3 107 522 111
3 524 612 464
3 50 170 51
3 312 603 656
3 65 158 527
3 523 611 524
3 536 19 445
3 215 62 657
3 215 384 143
3 312 656 621
3 614 626 613
3 85 312 621
3 581 599 139
3 139 582 581
3 466 615 521
3 658 512 5
3 221 306 659
3 351 296 295
3 611 523 186
3 456 182 278
3 147 600 372
3 642 527 158
3 642 70 527
3 299 628 660
3 86 85 84
3 110 661 257
3 522 647 646
3 394 396 652
3 479 662 280
3 94 304 128
3 579 663 632
3 542 664 541
3 444 230 141
3 665 325 91
3 196 239 475
3 553 630 460
3 288 362 287
3 354 392 353
3 420 419 622
3 553 640 554
3 228 491 666
3 667 249 25
3 668 666 669
3 666 598 648
3 323 506 324
3 380 447 449
3 379 453 256
3 452 529 465
3 463 465 482
3 243 155 157
3 150 154 151
3 153 612 151
3 119 121 261
3 494 314 495
3 353 31 30
3 435 434 323
3 451 506 434
3 506 381 560
3 110 643 108
3 457 332 331
3 598 666 668
3 603 311 502
3 612 153 464
3 436 435 530
3 354 530 435
3 292 300 374
3 494 584 314
3 347 384 425
3 28 483 30
3 483 354 30
3 29 28 590
3 2 29 443
3 199 0 443
3 199 442 174
3 604 499 195
3 581 583 607
3 670 610 532
3 542 610 670
3 550 589 610
3 3 624 665
3 614 589 268
3 556 558 499
3 2 463 27
3 270 360 587
3 395 284 283
3 38 315 584
3 522 521 647
3 260 671 625
3 259 671 260
3 288 458 363
3 537 150 458
3 256 154 537
3 475 302 651
3 505 576 534
3 672 448 447
3 448 228 648
3 216 217 336
3 54 45 52
3 144 347 639
3 496 527 176
3 21 229 22
3 21 23 634
3 319 471 320
3 471 388 51
3 270 587 271
3 617 487 273
3 528 398 418
3 71 642 672
3 487 51 388
3 552 287 362
3 630 553 552
3 23 240 424
3 475 651 474
3 474 651 568
3 262 539 673
3 144 336 145
3 221 547 222
3 636 608 120
3 525 524 1
3 436 451 434
3 496 627 631
3 340 168 339
3 493 674 250
3 675 109 108
3 80 82 538
3 417 674 493
3 15 368 16
3 17 92 15
3 225 413 253
3 245 389 342
3 338 341 339
3 469 597 481
3 64 313 276
3 493 252 281
3 20 227 609
3 282 401 454
3 172 402 137
3 417 676 674
3 49 38 618
3 440 571 438
3 166 570 440
3 393 478 441
3 478 102 166
3 102 478 369
3 357 393 441
3 488 24 26
3 279 551 294
3 555 279 294
3 664 670 175
3 34 492 32
3 137 402 135
3 577 238 461
3 457 456 462
3 38 584 39
3 200 371 159
3 12 468 512
3 645 371 87
3 96 227 99
3 596 309 367
3 342 579 519
3 16 210 677
3 411 645 84
3 646 562 522
3 221 659 411
3 191 72 189
3 102 101 167
3 412 545 129
3 307 306 223
3 553 259 640
3 130 659 306
3 547 221 411
3 407 80 408
3 258 223 222
3 222 547 549
3 567 559 549
3 567 606 583
3 561 621 649
3 629 655 337
3 139 140 582
3 678 74 41
3 125 37 36
3 665 355 325
3 24 667 25
3 227 96 95
3 230 232 326
3 107 593 521
3 634 633 21
3 226 620 609
3 229 127 22
3 42 258 543
3 58 517 678
3 58 97 517
3 305 654 385
3 468 624 5
3 405 8 131
3 640 533 576
3 258 73 253
3 365 184 366
3 99 421 96
3 212 117 26
3 142 655 90
3 619 247 620
3 540 539 287
3 247 619 231
3 343 569 320
3 126 352 127
3 612 524 611
3 42 73 258
3 285 284 125
3 118 518 488
3 268 589 550
3 74 678 517
3 156 155 194
3 598 679 324
3 415 417 493
3 242 424 240
3 482 529 530
3 377 399 378
3 491 204 492
3 377 242 399
3 591 6 149
3 3 665 91
3 420 575 528
3 346 655 142
3 622 396 575
3 528 575 283
3 575 396 395
3 519 632 520
3 313 315 275
3 622 390 244
3 390 622 419
3 229 21 602
3 382 431 213
3 482 465 529
3 579 680 663
3 286 680 9
3 358 363 458
3 213 270 272
3 382 383 431
3 114 206 160
3 117 220 118
3 681 162 214
3 163 162 681
3 209 564 333
3 682 360 361
3 361 161 682
3 161 361 162
3 458 150 358
3 473 580 177
3 508 480 550
3 213 162 361
3 459 129 545
3 351 295 439
3 111 522 562
3 507 467 481
3 9 680 579
3 351 416 104
3 40 355 623
3 10 383 11
3 382 272 11
3 616 615 215
3 11 286 9
3 272 286 11
3 94 602 95
3 379 256 255
3 331 469 182
3 10 9 342
3 247 230 18
3 588 680 286
3 588 663 680
3 73 191 253
3 519 245 342
3 329 389 683
3 227 20 97
3 519 246 245
3 173 175 670
3 394 684 395
3 338 623 341
3 684 284 395
3 284 684 123
3 399 398 378
3 147 372 148
3 318 231 619
3 37 125 57
3 305 69 423
3 390 419 683
3 119 636 120
3 486 289 291
3 289 486 485
3 484 35 485
3 212 217 117
3 508 541 479
3 196 198 201
3 357 441 437
3 69 176 70
3 240 352 241
3 328 327 10
3 486 634 484
3 528 378 398
3 377 36 242
3 35 484 424
3 498 318 619
3 60 192 98
3 156 194 187
3 423 254 654
3 536 74 19
3 504 585 248
3 227 226 609
3 609 620 247
3 392 472 353
3 23 484 634
3 486 498 634
3 152 151 612
3 281 238 577
3 104 416 105
3 62 499 657
3 545 412 344
3 80 538 408
3 140 678 41
3 58 678 59
3 312 85 86
3 582 43 559
3 559 543 549
3 559 567 583
3 345 303 239
3 137 592 171
3 606 685 607
3 561 83 621
3 246 652 396
3 82 211 68
3 32 492 44
3 656 603 509
3 509 686 656
3 649 621 656
3 685 649 686
3 18 445 19
3 548 547 83
3 258 222 543
3 308 393 357
3 129 459 112
3 64 52 45
3 159 659 130
3 411 659 645
3 551 279 356
3 311 316 310
3 500 428 501
3 5 687 658
3 5 512 468
3 248 595 504
3 208 564 209
3 50 339 170
3 480 269 268
3 401 688 343
3 236 376 237
3 13 332 14
3 330 13 689
3 330 332 13
3 182 469 183
3 653 460 187
3 627 67 66
3 461 237 14
3 577 103 105
3 105 281 577
3 491 490 669
3 675 643 8
3 690 439 438
3 690 438 571
3 205 642 158
3 223 413 307
3 676 417 350
3 281 252 282
3 136 135 422
3 218 384 615
3 75 77 116
3 618 40 338
3 665 623 355
3 574 263 39
3 106 325 355
3 81 677 210
3 568 673 539
3 406 408 427
3 616 215 657
3 677 17 16
3 215 615 384
3 80 638 81
3 538 566 426
3 426 608 427
3 650 433 636
3 673 119 262
3 119 673 636
3 650 636 673
3 673 568 650
3 651 650 568
3 301 432 302
3 239 303 302
3 586 504 505
3 585 217 212
3 220 117 216
3 437 551 357
3 512 689 13
3 687 5 4
3 140 59 678
3 401 251 688
3 454 169 168
3 657 499 558
3 653 187 194
3 268 550 480
3 629 626 614
3 337 626 629
3 146 337 144
3 267 90 655
3 90 89 61
3 347 142 143
3 142 347 346
3 37 56 477
3 567 549 548
3 487 617 49
3 335 534 145
3 259 553 671
3 456 497 103
3 348 554 197
3 217 585 335
3 347 425 639
3 216 336 639
3 297 299 660
3 336 144 639
3 335 145 336
3 224 190 48
3 487 531 273
3 27 483 28
3 254 691 255
3 88 605 195
3 267 89 90
3 346 337 655
3 194 613 653
3 664 542 670
3 322 324 679
3 186 359 611
3 605 88 641
3 657 558 616
3 616 558 647
3 616 647 521
3 465 153 452
3 148 488 594
3 372 24 488
3 654 305 423
3 333 564 334
3 78 77 76
3 75 333 76
3 299 635 178
3 297 300 298
3 299 298 635
3 628 178 414
3 282 455 238
3 510 264 172
3 264 510 511
3 643 110 257
3 675 108 643
3 675 7 109
3 594 563 591
3 591 148 594
3 691 254 423
3 7 591 563
3 675 8 7
3 609 18 20
3 549 543 222
3 131 8 643
3 505 198 576
3 511 404 133
3 207 510 208
3 209 115 207
3 537 254 256
3 403 565 564
3 205 228 448
3 171 592 292
3 556 499 604
3 293 403 171
3 406 433 235
3 137 138 592
3 172 601 510
3 208 510 601
3 564 208 601
3 115 209 75
3 115 116 405
3 494 631 574
3 615 466 218
3 168 170 339
3 404 511 207
3 405 404 115
3 159 645 659
3 593 563 535
3 661 110 397
3 257 692 132
3 692 181 132
3 180 511 133
3 511 180 265
3 635 138 178
3 635 298 592
3 584 494 574
3 6 116 446
3 565 403 375
3 515 147 185
3 600 373 372
3 248 212 25
3 24 373 667
3 389 390 683
3 518 594 488
3 563 594 535
3 640 197 554
3 585 504 586
3 504 503 202
3 475 239 302
3 3 122 4
3 226 95 602
3 623 665 624
3 330 470 331
3 366 183 481
3 500 367 467
3 500 596 367
3 308 356 309
3 371 370 87
3 437 295 551
3 577 461 462
3 237 461 238
3 555 294 296
3 439 295 437
3 439 690 450
3 686 649 656
3 676 350 364
3 416 350 417
3 554 348 540
3 569 343 688
3 338 50 618
3 584 315 314
3 495 314 526
3 574 631 573
3 263 573 368
3 15 263 368
3 211 66 68
3 211 573 66
3 573 631 66
3 637 265 179
3 177 627 176
3 49 618 50
3 426 566 608
3 427 608 636
3 566 386 608
3 566 580 386
3 580 473 386
3 386 473 385
3 554 540 552
3 362 630 552
3 362 188 630
3 261 288 262
3 537 458 410
3 410 654 537
3 537 654 254
3 649 685 606
3 650 432 433
3 527 70 176
3 487 388 531
3 441 478 440
3 273 531 274
3 658 689 512
3 164 276 274
3 276 164 52
3 644 277 531
3 492 34 490
3 205 672 642
3 672 205 448
3 449 648 560
3 648 449 448
3 691 447 255
3 691 672 447
3 672 691 71
3 71 691 423
3 380 255 447
3 671 553 460
3 653 671 460
3 671 653 625
3 186 188 359
3 152 611 359
3 156 186 523
3 1 524 464
3 0 525 1
3 173 243 199
3 523 157 156
3 193 613 194
3 544 610 589
3 173 670 532
3 2 27 29
3 453 153 154
3 453 379 451
3 255 380 379
3 449 381 380
3 669 666 491
3 648 228 666
3 598 668 679
3 392 435 323
3 409 590 28
3 641 280 662
3 406 234 407
3 558 557 647
3 661 692 257
3 572 266 637
3 134 414 178
