ply
format ascii 1.0
comment Created by Open3D
element vertex 704
property double x
property double y
property double z
element face 1243
property list uchar uint vertex_indices
end_header
0.00136986 -0.0210436 0.0335507
0.00220868 -0.0213012 0.0332354
0.00129227 -0.0214657 0.033079
0.0148467 -0.0175161 0.0309084
0.0141883 -0.0177107 0.0308214
0.0144338 -0.0173895 0.031481
0.0052866 -0.0181867 0.0352819
0.00608688 -0.018053 0.0351099
0.00571167 -0.0186756 0.0346604
-0.00816871 -0.0162035 0.0138471
-0.00756429 -0.0166969 0.0140728
-0.00750117 -0.0161943 0.0134481
0.00210901 -0.0206841 0.0338407
0.00131847 -0.0205632 0.0341172
-0.011163 -0.0174442 0.0169839
-0.0117364 -0.0172864 0.0168833
-0.0119741 -0.0175613 0.017345
-0.00389498 -0.0211015 0.0326366
-0.00433047 -0.0211996 0.0322027
-0.00459774 -0.0209782 0.032721
-0.00439506 -0.0213853 0.0315895
-0.00371855 -0.0213672 0.0319685
0.010691 -0.0199037 0.0295424
0.0106142 -0.0201209 0.0287106
0.0101608 -0.020246 0.029222
0.0115023 -0.0197049 0.0283921
0.0114036 -0.0195954 0.0291598
-0.00599954 -0.0215462 0.0287363
-0.00523835 -0.0217051 0.0285949
-0.00564074 -0.0216662 0.0278375
0.012514 -0.0195419 0.0257089
0.0131447 -0.0190537 0.0255771
0.0127168 -0.0194815 0.0248045
-0.00488354 -0.0166384 0.0117472
-0.0045633 -0.0166359 0.0112509
-0.00511057 -0.015821 0.0114073
0.00206737 -0.020151 0.0344101
0.00275061 -0.0195968 0.034788
0.00283784 -0.0202584 0.0341328
0.00358074 -0.0198245 0.0343588
0.00992804 -0.0166816 0.0350878
0.0102671 -0.0162551 0.035463
0.0105908 -0.0166448 0.0347495
-0.00928517 -0.0153561 0.0127986
-0.0088361 -0.0157301 0.0134976
-0.0083353 -0.0154504 0.0127492
-0.0107546 -0.016855 0.0158929
-0.0112399 -0.0167647 0.0159372
-0.0115038 -0.0170056 0.0164142
-0.00592256 -0.0198003 0.0349409
-0.00538161 -0.0196322 0.0354676
-0.00509505 -0.0198136 0.0349203
0.0101398 -0.0201032 0.029917
-0.0115227 -0.0178547 0.0182012
-0.0109863 -0.0177614 0.0176758
-0.00654978 -0.0214921 0.0260327
-0.00600941 -0.0215814 0.0254653
-0.00674525 -0.0213885 0.0252574
0.015647 -0.0175617 0.0306456
0.0160211 -0.0176898 0.0299967
0.0154775 -0.0177314 0.0296998
-0.00468695 -0.0195241 0.0355812
-0.0038343 -0.0195164 0.035613
-0.0042729 -0.0198507 0.0350028
6.10656e-05 -0.0186529 0.0363218
0.000798104 -0.0185107 0.0362439
0.000454053 -0.0190271 0.0358394
-0.00741276 -0.0212685 0.0284109
-0.00655495 -0.0214698 0.0281108
-0.0071548 -0.0213707 0.027505
0.00669601 -0.0197333 0.0331909
0.0059704 -0.0203192 0.0328601
0.0057048 -0.0197959 0.033542
-0.00903488 -0.0207888 0.0263453
-0.00844976 -0.0209973 0.026994
-0.00826311 -0.0210685 0.0261558
-0.0110046 -0.0198479 0.0252109
-0.0102189 -0.0201994 0.024854
-0.0110234 -0.0197725 0.024397
0.0128599 -0.0199645 0.0153464
0.0131866 -0.0202764 0.014748
0.0123295 -0.0201498 0.0147137
-0.0102774 -0.0166071 0.0152907
-0.00964384 -0.0167595 0.0152305
-0.00972467 -0.0163109 0.0146417
-0.00562128 -0.0201499 0.034198
-0.00658645 -0.0200577 0.0342874
-0.00710307 -0.0204012 0.0203447
-0.00629321 -0.0208993 0.0199918
-0.00668821 -0.0203597 0.0196786
-0.00485481 -0.0207003 0.0333259
-0.00504152 -0.0204116 0.0338506
-0.00438324 -0.0205104 0.0338713
-0.00557769 -0.0205413 0.0334291
0.00267844 -0.017629 0.0368361
0.00337812 -0.0175542 0.0367658
0.00253909 -0.0180035 0.0364014
0.0157384 -0.0193263 0.0178825
0.0158788 -0.0191649 0.0185306
0.0164084 -0.0195402 0.0179372
0.0163104 -0.0189282 0.0204745
0.0169144 -0.0189862 0.0209733
0.0173461 -0.0193779 0.0201275
-0.0114383 -0.019285 0.0223774
-0.0106594 -0.019448 0.0216256
-0.0115695 -0.0189853 0.0215207
0.01398 -0.0186523 0.025411
0.0135861 -0.0187512 0.0262537
0.0143449 -0.018449 0.0262152
0.0128543 -0.0191522 0.0263728
-0.00698476 -0.0209747 0.0311606
-0.00643691 -0.0211808 0.0307887
-0.00695181 -0.0211525 0.0302576
-0.00974612 -0.020193 0.0228568
-0.010546 -0.0197435 0.0224998
-0.0104639 -0.01992 0.0232351
0.0151672 -0.0173856 0.031396
0.0135949 -0.0176307 0.031597
0.0134738 -0.0181003 0.0308022
0.00890059 -0.0196725 0.0322624
0.00822794 -0.0198485 0.0323277
0.00832213 -0.0194348 0.0328791
0.00762108 -0.0197685 0.0327567
0.00777174 -0.0202274 0.0320363
0.00596054 -0.0171095 0.0363357
0.00685868 -0.0168787 0.0361982
0.00644657 -0.0174454 0.0356359
0.00722502 -0.0172128 0.0355475
0.00765353 -0.01667 0.036078
-0.00904152 -0.020331 0.0222162
-0.00986534 -0.0199267 0.0219888
-0.00920121 -0.0200339 0.0214457
-0.00825403 -0.0204216 0.0215647
-0.0123579 -0.018172 0.0194604
-0.0128525 -0.018196 0.0193964
-0.0130889 -0.0183022 0.0199506
-0.00982654 -0.0156132 0.013425
-0.0077594 -0.0153185 0.0120444
-0.00703547 -0.0155126 0.0122323
-0.00714713 -0.0151838 0.0114297
-0.00857281 -0.0151832 0.0119366
-0.0107896 -0.0200265 0.0305603
-0.0101745 -0.0201883 0.0305824
-0.0103661 -0.0201022 0.0298685
-0.00970556 -0.0202596 0.0310337
-0.0103972 -0.0201856 0.0313005
-0.00104947 -0.0218239 0.0322385
-0.00122007 -0.0214371 0.0327869
-0.000334864 -0.0217567 0.0326787
-0.00075158 -0.0211853 0.033332
-0.00144417 -0.0210919 0.0333054
-0.00961215 -0.0203251 0.0301449
-0.00919992 -0.0205271 0.0294506
-0.00990496 -0.0202905 0.0292828
-0.00874523 -0.0207656 0.0288889
-0.00851783 -0.0207608 0.0296443
-0.00604432 -0.0164189 0.0127719
-0.00680107 -0.0161088 0.0129651
-0.00633299 -0.0167372 0.0133183
-0.011672 -0.0196253 0.0255396
-0.0116433 -0.0196947 0.0261083
-0.0110736 -0.0198558 0.0259629
-0.0119776 -0.0195698 0.0265324
-0.0122092 -0.0195429 0.0259008
0.00907788 -0.0191307 0.0328584
0.00849993 -0.0188716 0.033439
0.00922511 -0.0185907 0.0333987
-0.003613 -0.0205979 0.0338225
-0.00391154 -0.0202477 0.034443
-0.00306887 -0.0203545 0.0343871
-0.00844903 -0.0202931 0.0327066
-0.00835789 -0.0201331 0.0334855
-0.00771025 -0.0202892 0.0332566
-0.00556612 -0.0215254 0.0237
-0.00516206 -0.0216453 0.0233083
-0.00597367 -0.021359 0.0229497
0.0121731 -0.0169903 0.0333633
0.0129007 -0.0168982 0.0330964
0.0124645 -0.0173928 0.0327273
-0.00749653 -0.0174668 0.0154938
-0.00723115 -0.0178384 0.0161552
-0.00671193 -0.0176605 0.0155689
-0.00527123 -0.0214919 0.0304389
-0.0058759 -0.0212823 0.0308431
-0.00530802 -0.0212945 0.0313294
-0.00614459 -0.0214787 0.0247199
-0.00545101 -0.0217153 0.0248899
0.00896501 -0.0178647 0.0342466
0.00874659 -0.0183039 0.0338956
0.00840708 -0.0179283 0.0344078
-0.00975395 -0.0203785 0.0241612
-0.010412 -0.0200317 0.023966
0.0101146 -0.0177322 0.0337993
0.00945657 -0.0175467 0.0343442
0.0100352 -0.0171229 0.0344894
0.0127535 -0.0184602 0.0308531
0.0129829 -0.0180765 0.0313983
0.0120586 -0.0188521 0.0309563
0.0124527 -0.0188462 0.0302276
0.0140156 -0.0190178 0.0202276
0.0142679 -0.0190447 0.0192412
0.0134211 -0.0192321 0.0193641
-0.00740331 -0.021285 0.0258999
0.00684899 -0.019056 0.0338718
0.00760527 -0.019143 0.0334923
-0.00469816 -0.0218763 0.0279558
-0.00490575 -0.0218693 0.0271377
0.016908 -0.0185404 0.0253686
0.0175374 -0.018836 0.0248696
0.0168401 -0.01861 0.0246237
-0.0124362 -0.0192418 0.0235629
-0.0129269 -0.0193684 0.0237668
-0.0127788 -0.0194768 0.0243838
-0.00837469 -0.017233 0.0153494
-0.00884454 -0.0175611 0.0162157
-0.00800904 -0.0176785 0.0161391
0.00424576 -0.0210485 0.033085
0.00364189 -0.0205192 0.0337168
0.00451456 -0.0204638 0.0334281
-0.00539877 -0.0214972 0.0226164
-0.00541308 -0.0215988 0.0294842
-0.00439747 -0.0218733 0.0288871
-0.0097262 -0.0204405 0.0279269
-0.00923241 -0.0206811 0.0272535
-0.0100969 -0.0203068 0.0272077
-0.00658343 -0.0195076 0.0183672
-0.00576304 -0.0197041 0.017872
-0.00649946 -0.0190213 0.0176313
-0.00786568 -0.0151163 0.0110688
-0.00180825 -0.0219067 0.0316425
-0.00230062 -0.0216941 0.0318246
-0.0018043 -0.0215844 0.0322906
-0.00294438 -0.0215716 0.0318009
-0.00242593 -0.0219771 0.0310268
-0.00405277 -0.0160457 0.0103717
-0.00383162 -0.0157306 0.00974231
-0.00442268 -0.0153638 0.0101978
0.0163928 -0.0181712 0.027277
0.0163979 -0.0182824 0.0266427
0.0158053 -0.0181275 0.0268894
0.00854582 -0.0201624 0.0316557
0.00801632 -0.0206533 0.0311721
0.00948441 -0.019894 0.0314479
0.00883296 -0.0205733 0.0305932
0.00491359 -0.0187683 0.0348657
0.00530061 -0.0192864 0.0342371
-0.00424058 -0.016639 0.010753
-0.00363606 -0.0165874 0.00994372
0.0137222 -0.0168002 0.0328759
0.0140529 -0.0171727 0.0321582
0.0132426 -0.0172466 0.0324076
0.0145268 -0.0168909 0.0325366
0.0148013 -0.017151 0.0320123
-0.0093074 -0.0190346 0.0191965
-0.00945573 -0.0185484 0.0183983
-0.0100215 -0.0187619 0.019257
-0.0106353 -0.0162453 0.0148037
-0.000622586 -0.020415 0.0345364
-0.000164652 -0.0200038 0.0350149
0.000415054 -0.0204256 0.0344558
0.000123593 -0.0195153 0.0354614
-0.000712678 -0.0195626 0.0355246
0.0153617 -0.0178182 0.028795
0.0146734 -0.0179382 0.0293205
0.0122989 -0.0191596 0.0287452
0.012013 -0.0191946 0.0296459
0.0127972 -0.0188074 0.0294838
0.0112514 -0.0195278 0.0299446
-0.00926952 -0.0171514 0.0156219
-0.00412188 -0.0208074 0.033264
-0.00496475 -0.0153186 0.0106275
-0.00453174 -0.0159531 0.0108012
0.00282465 -0.0207998 0.0336561
-0.00744362 -0.0189939 0.0180605
0.0135403 -0.0200034 0.0154555
0.0138443 -0.0197573 0.0161854
0.0142995 -0.02019 0.01555
0.000592734 -0.0209237 0.033778
0.000732597 -0.0212883 0.0333313
4.78853e-05 -0.0212753 0.0333256
0.00980286 -0.0200944 0.0305447
0.00949679 -0.0204301 0.0299528
0.0105448 -0.0198057 0.0302774
0.0093871 -0.0180629 0.0338528
0.00937801 -0.0170078 0.0349434
-0.0063479 -0.0203657 0.033566
0.013007 -0.0197005 0.0160509
0.012202 -0.0197798 0.0157551
0.00970198 -0.0193373 0.0322491
0.00982365 -0.0187762 0.0328863
-0.00362053 -0.0218677 0.0303001
-0.0031018 -0.0220572 0.0300174
-0.00338255 -0.0220865 0.0294248
0.00933436 -0.0163034 0.0357512
-0.00642866 -0.0185445 0.0169268
-0.00717153 -0.0185313 0.0172616
-0.00562886 -0.0214498 0.0220349
-0.00621204 -0.0212286 0.0220596
-0.00671585 -0.0209644 0.0216444
-0.00596865 -0.0213487 0.0212625
-0.0119272 -0.0180247 0.018844
-0.011605 -0.018267 0.0195132
-0.012616 -0.0180897 0.0188417
0.0151513 -0.0193366 0.0174847
0.0161155 -0.0196833 0.0173539
0.00613591 -0.0191941 0.0339962
0.00650763 -0.0185728 0.0344662
0.0165373 -0.0187326 0.0227862
0.0174438 -0.0190735 0.0222682
0.0167176 -0.0188678 0.0218018
-0.00600419 -0.0201867 0.018496
-0.00663664 -0.0199979 0.0190556
0.016937 -0.0184835 0.0261956
0.0170689 -0.0183719 0.0272591
0.0158626 -0.0182341 0.0263043
0.0132175 -0.0194694 0.0168801
0.0163295 -0.0183264 0.0258925
0.0160803 -0.0188149 0.0212601
-0.00862133 -0.0199953 0.0207367
-0.0085611 -0.0196852 0.0199584
-0.00911104 -0.0196339 0.0203312
-0.00318388 -0.0212485 0.0324931
-0.0068597 -0.0166858 0.0136854
-0.00603386 -0.0172203 0.0139709
0.0121165 -0.0194214 0.0278232
0.0119253 -0.0197835 0.027064
0.0114999 -0.0199111 0.0276674
0.0167224 -0.0187202 0.0237932
0.0174727 -0.0189826 0.0231614
0.0152293 -0.017989 0.0279324
0.0160296 -0.0178907 0.028366
0.0159033 -0.0180089 0.0275913
0.0164279 -0.0190878 0.019726
-0.00563876 -0.0215699 0.0242711
-0.00496666 -0.0218691 0.0240361
0.0124357 -0.0196006 0.0175893
0.0135138 -0.0193279 0.017735
0.0160735 -0.0184893 0.024385
0.0175255 -0.0188961 0.0242294
-0.00126738 -0.0207534 0.0339578
-0.00219921 -0.0205059 0.0342258
-0.00153148 -0.0202603 0.034722
0.00329826 -0.0211811 0.0332798
-0.00732434 -0.0206046 0.0212175
-0.00746295 -0.0207722 0.0220431
0.00169539 -0.0182803 0.0362599
0.00137068 -0.0189428 0.0357125
0.0152341 -0.0197675 0.016785
0.0157679 -0.0200242 0.0167518
0.0153402 -0.0204405 0.0161201
-0.00897627 -0.0201756 0.0327922
-0.00524605 -0.019399 0.0361138
-0.00598526 -0.0195942 0.0357293
-0.0106227 -0.020049 0.0290845
-0.011138 -0.0198773 0.0295825
-0.00889984 -0.0162274 0.0142265
-0.00950057 -0.0159522 0.0139743
-0.00645645 -0.0151551 0.0110002
-0.00658876 -0.0153513 0.0117161
-0.00628225 -0.0206361 0.0193386
0.0163608 -0.0192332 0.0190913
0.0156968 -0.0190269 0.0193233
-0.00324925 -0.0161158 0.00922337
-0.00447881 -0.0150881 0.00941852
-0.00779863 -0.0209627 0.0299272
-0.00770349 -0.0208519 0.0307625
0.0114992 -0.018881 0.0315752
0.0114629 -0.0191565 0.0309953
0.0108913 -0.0193109 0.031377
0.0174456 -0.0193008 0.0208087
0.01517 -0.01825 0.0263777
0.0156393 -0.0183009 0.0257122
0.0148575 -0.0183756 0.0255751
-0.0105636 -0.0172802 0.0164234
-0.00677576 -0.0210333 0.022499
0.0117069 -0.0175417 0.0330461
0.0119561 -0.0166228 0.033956
0.011465 -0.0170783 0.033674
0.0151047 -0.0191385 0.0182162
0.0143891 -0.0191972 0.0179216
-0.0117457 -0.0195306 0.0247931
-0.0124603 -0.0195447 0.0252797
0.0174296 -0.0191835 0.0214838
0.0154541 -0.0188227 0.0207605
0.0149123 -0.0188717 0.0203372
0.014622 -0.0188404 0.0209619
0.0134044 -0.0189547 0.0249244
-0.0117139 -0.0196562 0.0274309
-0.0110625 -0.0198906 0.0278301
-0.0108519 -0.0199756 0.0272418
0.0167882 -0.0181642 0.0280068
0.00727605 -0.018529 0.0342336
-0.00650552 -0.0180804 0.0162552
-0.00576767 -0.0185347 0.0164261
-0.00594948 -0.0179577 0.0156536
-0.00894723 -0.0205473 0.0300745
-0.0083923 -0.0206909 0.0303909
-0.0122963 -0.0186981 0.0213628
-0.0131984 -0.0187997 0.0214526
-0.0123029 -0.0188753 0.0220159
-0.00246347 -0.0200567 0.0349359
-0.00280126 -0.0220146 0.0305206
-0.0104479 -0.020135 0.02784
0.0146823 -0.0199835 0.016182
0.0149925 -0.0206329 0.0156016
0.012274 -0.0161494 0.0347256
0.0126129 -0.016549 0.0337891
-0.0109762 -0.0165238 0.0154604
-0.005642 -0.0152192 0.0107736
-0.00621944 -0.0151084 0.0100646
0.00659268 -0.0203459 0.0324928
0.00706261 -0.0207358 0.0317306
0.00613193 -0.0208124 0.0322254
0.0131453 -0.0162827 0.0341827
0.01386 -0.0164559 0.0335453
0.0132509 -0.0165908 0.0334997
-0.00443767 -0.0215885 0.0307868
0.00524148 -0.0203703 0.0331627
0.00549146 -0.0208806 0.0325669
0.0119937 -0.0179601 0.0323979
0.0115322 -0.0184716 0.0321353
0.0112127 -0.0181472 0.0327251
0.00115075 -0.0179521 0.0367184
0.00205646 -0.0177097 0.0367475
-0.00946825 -0.0196937 0.0208323
0.00439812 -0.0193914 0.0344816
0.0042003 -0.0200181 0.0339651
0.0138365 -0.0191852 0.0185654
0.0145124 -0.019095 0.0185843
0.0163358 -0.0178462 0.0292956
-0.00799838 -0.0210147 0.0290967
-0.00827466 -0.0209985 0.0283133
0.0048911 -0.0198877 0.0338092
-0.0109854 -0.019004 0.0208485
-0.0102018 -0.0193711 0.0208331
-0.00972658 -0.019102 0.0197243
-0.00658918 -0.0208714 0.0208393
-0.00620736 -0.0211313 0.020552
-0.00505871 -0.0218509 0.0263778
-0.00444056 -0.0220575 0.0258831
-0.00524422 -0.0218005 0.0256562
0.0106765 -0.0188794 0.0322474
-0.00428911 -0.0220794 0.0264538
-0.0111732 -0.0181396 0.018855
-0.0104157 -0.018343 0.0187121
-0.0108546 -0.0180221 0.0182987
0.0102274 -0.0194739 0.0316893
0.0103355 -0.0197035 0.0310108
0.0110283 -0.0200144 0.0282304
0.0088407 -0.0174631 0.0347023
0.0130555 -0.0192751 0.0215289
0.0132782 -0.0192135 0.0208183
0.0125422 -0.0195685 0.0209313
0.0152215 -0.018755 0.0215041
0.0104299 -0.0182683 0.0330826
-0.00409045 -0.0220941 0.0272177
-0.0110561 -0.0196768 0.0236202
-0.00828751 -0.0167295 0.0144813
0.00696807 -0.0178949 0.0349499
0.00772964 -0.0179696 0.0346093
0.00979943 -0.0182975 0.0334072
-0.00671775 -0.0213939 0.0288267
-0.00692227 -0.0214211 0.0267096
0.0107413 -0.0171319 0.0340573
0.0130258 -0.0193375 0.0201564
0.0124791 -0.019598 0.0194319
0.012496 -0.0195888 0.0201431
-0.0126439 -0.0184087 0.0207951
0.0154572 -0.0183879 0.0249697
0.0162111 -0.0184088 0.0251525
-0.0110372 -0.0196011 0.022977
-0.0083901 -0.020565 0.0311649
0.0149101 -0.0189455 0.0196878
0.00867788 -0.0169512 0.0352914
0.00794546 -0.0170329 0.0354736
0.00842483 -0.0164731 0.0359538
-0.00559545 -0.0160879 0.0121169
-0.00542917 -0.0168363 0.0126099
0.0156124 -0.018907 0.0200464
-0.00611866 -0.0174489 0.0148001
-0.00686856 -0.0170955 0.0143778
-0.00696898 -0.0173388 0.0150052
0.0144584 -0.0186354 0.0235069
0.013931 -0.0187619 0.0238499
0.0145708 -0.018553 0.0240663
-0.00578222 -0.0170567 0.013283
-0.00443671 -0.0217507 0.0298981
0.0165692 -0.0180041 0.0286421
0.00314733 -0.0182366 0.0359808
-0.00960699 -0.0205272 0.0256354
-0.00883636 -0.0208494 0.0254848
-0.00937065 -0.0206006 0.0248234
0.000175627 -0.018246 0.0367678
0.00484835 -0.0177687 0.0359119
0.0043928 -0.017409 0.0365882
0.00526605 -0.0172595 0.0364457
-0.000630013 -0.0183909 0.0368302
-0.00364329 -0.0220969 0.0287308
-0.0038765 -0.0220976 0.027993
0.00759403 -0.0175123 0.0351017
0.014248 -0.0166267 0.033049
0.00195853 -0.0197121 0.034874
0.00139816 -0.019542 0.0351725
0.00213618 -0.0192112 0.0353006
-0.00995218 -0.0202097 0.023555
0.0142977 -0.020721 0.0145618
0.0136059 -0.0207228 0.0139931
0.0139512 -0.0203938 0.0148824
-0.00639763 -0.0213947 0.0294919
-0.00606612 -0.0213604 0.0302289
-0.00757176 -0.0156808 0.0128182
-0.00902581 -0.0167394 0.0148935
0.0139707 -0.0187109 0.0245496
0.0133244 -0.0190087 0.0242868
-0.00247709 -0.0214012 0.0323808
-0.00684062 -0.0197921 0.0350706
-0.00340212 -0.019921 0.035019
-0.00844316 -0.0187593 0.0181411
-0.00878837 -0.0189914 0.0187421
-0.00809639 -0.0192261 0.0187351
-0.0122796 -0.0178792 0.0180761
-0.00378821 -0.0153348 0.00909974
-0.00622809 -0.0210958 0.0313926
-0.00681329 -0.0207948 0.0320774
-0.00582804 -0.0209951 0.0320917
-0.0102355 -0.0180539 0.0179946
-0.00223746 -0.0191073 0.0361683
-0.00266886 -0.0188918 0.0368144
-0.00201196 -0.0186643 0.0368698
0.0148071 -0.017678 0.0302032
0.0175497 -0.018776 0.02551
-0.00616632 -0.0206897 0.0328233
-0.00698204 -0.0204943 0.0329749
-0.00886194 -0.0182702 0.0175728
-0.00843866 -0.0179793 0.0168496
-0.00926887 -0.0178352 0.016975
-0.000270334 -0.020855 0.0339153
-0.0131556 -0.01908 0.0223578
-0.0130753 -0.0192602 0.0231501
-0.0123259 -0.0190697 0.0227955
0.00493341 -0.0209414 0.032832
-0.00768261 -0.0207013 0.0316018
-0.00846434 -0.0204163 0.0319586
0.0130122 -0.0194005 0.0185085
0.0124691 -0.0196074 0.018359
-0.00989714 -0.019703 0.0213433
0.00803442 -0.0184729 0.0340214
-0.00347031 -0.0192846 0.0361144
-0.00292458 -0.0191642 0.0362707
-0.00286158 -0.0195219 0.0356453
-0.00498403 -0.0211293 0.0321179
0.0158805 -0.0185804 0.0235913
-0.00864829 -0.0193475 0.0192952
0.012246 -0.0183768 0.0316375
0.0152931 -0.0184763 0.0242203
0.0150805 -0.0185494 0.0235274
0.012762 -0.0177766 0.0320378
-0.00338501 -0.0190757 0.0366683
-0.0072354 -0.019968 0.0195858
-0.00632999 -0.0157482 0.0122725
-0.0102104 -0.0177013 0.0171597
-0.00750887 -0.0209042 0.0228761
-0.00822161 -0.0206649 0.0224845
-0.00816416 -0.0208195 0.0232602
0.00818626 -0.0174739 0.0349352
-0.00807774 -0.0209481 0.0239728
-0.0076091 -0.0209841 0.0235412
-0.00707096 -0.0202554 0.0336741
-0.00349063 -0.0216879 0.03114
-0.00856788 -0.0209309 0.0276741
-0.00792736 -0.0211624 0.0276309
0.00564249 -0.0176132 0.0357663
0.0140157 -0.0185146 0.026904
0.0132889 -0.0188224 0.0270479
0.0138268 -0.0185159 0.027672
0.0139833 -0.0181045 0.0299598
0.0139391 -0.0183062 0.0290335
-0.0105709 -0.0200984 0.0265469
-0.0103719 -0.0201706 0.0257797
-0.00981203 -0.0204464 0.0264672
0.0110477 -0.0194659 0.0306668
0.0139873 -0.0187862 0.0231891
0.0133265 -0.0190365 0.0235859
-0.00899586 -0.0207294 0.0281248
-0.00534903 -0.0208544 0.0327578
-0.00918041 -0.019374 0.0197989
-0.00712994 -0.0151042 0.0104254
0.0146216 -0.0183034 0.026812
0.0151877 -0.0181346 0.0271655
0.00361813 -0.0191657 0.0349506
0.00132548 -0.0200585 0.0346816
-0.00769615 -0.021242 0.0268269
-0.00338019 -0.0209326 0.0331666
0.0150436 -0.0190246 0.0189353
0.0142896 -0.0194406 0.0169875
0.0171222 -0.0194217 0.0193973
-0.0062759 -0.021565 0.0266407
-0.00581167 -0.0216624 0.0261875
0.0109423 -0.0176599 0.0333922
-0.00472572 -0.02017 0.0343987
-0.0096987 -0.0174557 0.0163613
-0.00429672 -0.0192144 0.0364205
-0.0120884 -0.0182988 0.0201675
-0.00567711 -0.0216942 0.0269278
-0.0112916 -0.0197943 0.0266333
-0.00282349 -0.0207298 0.0337108
0.00230498 -0.0185895 0.0358351
-0.00793594 -0.021058 0.0245919
-0.00742179 -0.021208 0.0249451
-0.00745616 -0.0211031 0.0241582
-0.00680952 -0.0212755 0.0244231
-0.00616236 -0.0213715 0.0239319
-0.00688853 -0.021133 0.0234818
-0.00194057 -0.0212377 0.0328853
-0.00205056 -0.0208962 0.0335321
-0.00264366 -0.0210721 0.0330298
-0.0117924 -0.0186381 0.0208323
-0.00764335 -0.0180947 0.0167592
-0.00800161 -0.0184356 0.0174386
0.00424078 -0.0188184 0.0350579
-0.00171062 -0.0196656 0.0354719
-0.00937562 -0.0204797 0.0235786
-0.010302 -0.0159744 0.0141595
-0.010806 -0.0185015 0.0194443
-0.00760889 -0.0171126 0.0147794
-0.00783976 -0.0202992 0.0208126
0.0155134 -0.0186285 0.0228598
-0.0117546 -0.0194314 0.0239947
0.0133754 -0.0190407 0.0228408
0.0141503 -0.0187852 0.0224931
0.0135455 -0.0190214 0.0220396
-0.0100258 -0.0170275 0.0157947
0.000671548 -0.0198635 0.0350455
0.00081121 -0.0194031 0.0354365
-0.00787273 -0.0200044 0.0201468
0.0125335 -0.0192452 0.0271238
0.0130009 -0.0188884 0.0279432
-0.00808994 -0.0210789 0.0252889
-0.00731193 -0.019538 0.0188636
-0.00794452 -0.0196385 0.0194198
-0.00721597 -0.02122 0.029345
0.0134563 -0.0184783 0.0294678
0.0131885 -0.0184897 0.0301215
-0.0112684 -0.0185938 0.0201665
-0.0103961 -0.0189634 0.0200808
-0.010845 -0.0199689 0.0283992
-0.0101617 -0.0202281 0.0285196
0.000387028 -0.0216504 0.0329378
-0.00128199 -0.0189707 0.0362073
0.0167235 -0.0194759 0.0185457
0.0144602 -0.0181663 0.0283511
0.00450835 -0.0183179 0.0354379
0.00400264 -0.0179509 0.0360245
0.0143789 -0.0187988 0.0217404
-0.00766529 -0.0200317 0.0342808
0.00713963 -0.0201528 0.0324519
0.0138041 -0.0189824 0.0212188
-0.00805481 -0.015796 0.0132991
0.0146809 -0.0184746 0.0247935
0.0112511 -0.0161654 0.0351438
0.0113487 -0.016583 0.0343486
0.015845 -0.0187238 0.0220728
-0.00888162 -0.0205662 0.0230109
-0.00871432 -0.0207483 0.0237538
-0.00914988 -0.0203241 0.0315228
-0.00901883 -0.020437 0.0307254
0.0117375 -0.019189 0.0303976
-0.000343642 -0.019031 0.035999
-0.00769078 -0.0205044 0.0324301
0.0126012 -0.0195415 0.0216897
0.0126634 -0.0195133 0.0224678
-0.0116674 -0.0193608 0.023215
-0.0096932 -0.0193607 0.0202724
-0.00945691 -0.020501 0.0286881
0.0037439 -0.0185394 0.0354818
0.0132246 -0.0186864 0.0288264
-0.00637633 -0.021535 0.0273006
-0.0114902 -0.0197397 0.0282774
-0.013225 -0.0185373 0.0207514
-0.00594258 -0.0154512 0.0115828
-0.00860866 -0.0208844 0.0245851
-0.00916962 -0.0206426 0.0241799
0.0145355 -0.0182612 0.0274598
-0.00959521 -0.018075 0.0176287
-0.0052492 -0.0150761 0.00975362
0.0149684 -0.0186918 0.0222616
0.00295339 -0.0188819 0.0353997
0.0146976 -0.0186311 0.0229585
0.0127271 -0.0194855 0.0233447
0.0127563 -0.0194717 0.0240907
-0.00134355 -0.0184944 0.0368593
0.013704 -0.0185043 0.0283576
-0.0113249 -0.019803 0.0289074
-0.000938835 -0.0200217 0.0350708
0.0122101 -0.019667 0.0265166
0.0173704 -0.0185963 0.0264882
-0.0056994 -0.019093 0.0171261
-0.00465968 -0.0220118 0.0251107
0.0146537 -0.0206959 0.015087
-0.00951027 -0.0202759 0.0323494
0.0127831 -0.0205303 0.0141084
0.0123363 -0.0196172 0.0167672
-0.00699631 -0.0181932 0.0166854
-0.00994557 -0.0202916 0.0319121
3 0 1 2
3 3 4 5
3 6 7 8
3 9 10 11
3 12 0 13
3 14 15 16
3 17 18 19
3 20 18 21
3 22 23 24
3 25 23 26
3 27 28 29
3 30 31 32
3 33 34 35
3 36 37 38
3 39 38 37
3 40 41 42
3 43 44 45
3 46 47 48
3 49 50 51
3 52 22 24
3 16 53 54
3 55 56 57
3 58 59 60
3 61 62 63
3 64 65 66
3 67 68 69
3 70 71 72
3 73 74 75
3 76 77 78
3 79 80 81
3 82 83 84
3 49 85 86
3 87 88 89
3 90 91 92
3 85 91 93
3 94 95 96
3 97 98 99
3 100 101 102
3 103 104 105
3 106 107 108
3 109 107 31
3 110 111 112
3 113 114 115
3 3 5 116
3 117 4 118
3 119 120 121
3 122 120 123
3 124 125 126
3 127 125 128
3 106 31 107
3 113 129 130
3 131 129 132
3 133 134 135
3 43 136 44
3 137 138 139
3 45 137 140
3 141 142 143
3 144 142 145
3 146 147 148
3 149 147 150
3 151 152 153
3 154 152 155
3 156 157 158
3 159 160 161
3 162 160 163
3 164 165 166
3 167 168 169
3 170 171 172
3 173 174 175
3 176 177 178
3 179 180 181
3 182 183 184
3 185 56 186
3 187 188 189
3 165 188 166
3 77 190 191
3 192 193 194
3 118 195 196
3 197 195 198
3 199 200 201
3 55 57 202
3 203 204 70
3 29 205 206
3 207 208 209
3 210 211 212
3 213 214 215
3 216 217 218
3 219 175 174
3 28 220 221
3 222 223 224
3 225 226 227
3 228 140 137
3 229 230 231
3 232 230 233
3 234 235 236
3 237 238 239
3 123 240 241
3 240 242 243
3 244 8 245
3 234 246 247
3 248 249 250
3 249 251 252
3 253 254 255
3 82 84 256
3 257 258 259
3 260 258 261
3 262 263 60
3 264 265 266
3 267 265 26
3 213 268 214
3 92 167 269
3 270 271 236
3 12 272 1
3 273 225 227
3 274 275 276
3 277 278 279
3 280 52 281
3 52 282 22
3 187 193 283
3 194 193 284
3 86 85 285
3 286 79 287
3 288 164 289
3 290 291 292
3 293 40 284
3 294 295 227
3 296 297 175
3 298 297 299
3 300 133 301
3 133 302 134
3 303 97 304
3 305 8 306
3 234 271 246
3 307 308 309
3 310 225 311
3 312 238 313
3 239 238 314
3 315 275 286
3 305 72 245
3 314 238 316
3 309 101 317
3 318 319 320
3 321 232 21
3 158 322 323
3 324 325 326
3 307 327 328
3 329 330 331
3 102 332 100
3 333 334 173
3 300 302 133
3 315 335 336
3 209 327 337
3 328 327 338
3 264 26 265
3 339 340 341
3 217 216 342
3 343 132 344
3 293 41 40
3 333 186 334
3 65 345 346
3 347 348 349
3 170 350 171
3 164 121 165
3 351 50 352
3 51 50 61
3 353 143 153
3 141 143 354
3 84 355 356
3 357 139 358
3 353 354 143
3 359 311 89
3 332 360 361
3 362 235 247
3 236 235 363
3 364 365 112
3 366 367 368
3 369 102 101
3 370 371 372
3 239 314 370
3 14 373 48
3 374 175 297
3 176 178 375
3 376 176 377
3 378 303 379
3 159 380 381
3 309 382 101
3 383 384 385
3 386 31 106
3 387 388 389
3 330 390 331
3 391 203 306
3 237 331 390
3 217 342 272
3 392 393 394
3 155 395 396
3 397 398 399
3 375 377 176
3 151 395 152
3 400 341 340
3 401 291 290
3 389 388 402
3 249 252 5
3 276 403 404
3 376 405 406
3 82 407 46
3 357 408 409
3 410 411 412
3 103 105 399
3 413 414 415
3 416 182 184
3 417 71 418
3 419 420 421
3 422 423 345
3 318 320 424
3 39 425 426
3 427 428 379
3 429 262 60
3 430 431 154
3 417 432 72
3 433 104 434
3 253 255 435
3 274 286 275
3 280 243 242
3 88 436 437
3 430 67 431
3 436 88 87
3 259 13 277
3 438 439 440
3 333 185 186
3 441 288 289
3 342 1 272
3 439 438 442
3 443 444 445
3 446 368 447
3 242 446 447
3 448 25 326
3 441 446 288
3 284 193 449
3 450 451 452
3 383 385 453
3 454 421 441
3 205 455 206
3 456 191 115
3 9 355 457
3 53 300 443
3 432 245 72
3 458 459 391
3 192 460 283
3 442 206 455
3 68 461 27
3 202 462 55
3 192 454 460
3 463 192 194
3 447 282 280
3 464 465 466
3 460 454 289
3 467 398 397
3 468 371 469
3 114 103 470
3 471 365 396
3 199 472 200
3 473 474 475
3 33 476 477
3 332 478 100
3 479 480 481
3 332 361 478
3 482 483 484
3 485 156 158
3 410 412 71
3 290 486 416
3 189 449 187
3 487 390 330
3 488 96 95
3 489 490 491
3 422 65 492
3 493 494 495
3 64 496 492
3 497 498 221
3 382 369 101
3 487 330 429
3 127 499 458
3 500 251 248
3 501 502 503
3 113 115 504
3 376 406 176
3 505 506 507
3 220 508 509
3 510 157 138
3 373 46 48
3 234 247 235
3 213 511 268
3 479 323 480
3 386 512 513
3 199 201 464
3 397 399 105
3 514 231 230
3 352 49 515
3 446 242 288
3 212 381 380
3 169 168 516
3 517 518 519
3 300 53 520
3 220 28 27
3 308 382 309
3 362 521 235
3 359 89 88
3 522 523 524
3 510 11 157
3 316 207 469
3 231 146 229
3 459 458 499
3 306 458 391
3 254 525 444
3 526 527 528
3 3 58 529
3 530 208 207
3 417 218 432
3 531 523 532
3 533 534 535
3 529 60 263
3 149 536 279
3 537 538 539
3 216 218 540
3 242 240 119
3 541 471 542
3 543 544 465
3 545 424 434
3 192 283 193
3 355 84 511
3 204 546 165
3 547 548 549
3 321 514 232
3 425 245 432
3 184 550 20
3 307 551 327
3 84 83 511
3 519 518 552
3 497 221 292
3 197 553 195
3 484 554 555
3 117 196 556
3 527 548 557
3 89 558 87
3 103 114 104
3 138 157 559
3 14 560 373
3 419 178 556
3 250 178 177
3 35 271 270
3 259 277 536
3 561 562 563
3 449 564 473
3 565 566 563
3 285 532 567
3 564 459 499
3 298 299 436
3 346 503 502
3 348 347 304
3 73 75 490
3 330 262 429
3 131 130 129
3 290 292 486
3 21 568 20
3 569 570 74
3 386 32 31
3 127 458 126
3 495 124 571
3 572 573 574
3 575 263 576
3 267 22 282
3 577 578 161
3 577 579 578
3 67 570 431
3 447 368 580
3 581 582 483
3 366 420 553
3 519 273 517
3 223 583 569
3 90 93 91
3 584 93 90
3 577 389 224
3 319 585 320
3 357 409 586
3 307 328 308
3 54 560 14
3 17 21 18
3 123 120 240
3 587 588 370
3 39 37 589
3 197 366 553
3 36 590 501
3 591 74 570
3 592 17 269
3 210 538 211
3 239 370 588
3 27 29 68
3 149 150 339
3 183 111 522
3 361 98 593
3 155 430 154
3 315 594 275
3 332 595 360
3 596 597 55
3 75 591 202
3 117 556 250
3 598 375 421
3 549 548 526
3 575 118 4
3 49 51 85
3 85 51 599
3 214 268 600
3 61 351 601
3 135 602 133
3 570 67 69
3 22 26 23
3 603 438 597
3 501 503 37
3 115 470 456
3 180 392 181
3 577 161 604
3 534 215 214
3 167 169 605
3 428 200 593
3 577 224 579
3 220 27 508
3 345 606 346
3 607 608 609
3 417 540 218
3 610 611 612
3 613 614 150
3 513 483 582
3 592 605 615
3 616 105 433
3 575 529 263
3 112 111 509
3 374 344 561
3 295 617 618
3 592 167 605
3 425 619 244
3 347 594 303
3 377 598 463
3 13 590 36
3 620 400 549
3 223 73 579
3 190 621 504
3 622 84 356
3 150 147 613
3 443 301 623
3 624 481 480
3 544 543 335
3 625 132 343
3 264 25 26
3 307 626 551
3 615 605 614
3 400 620 341
3 456 627 78
3 628 629 630
3 486 221 220
3 269 90 92
3 82 631 83
3 565 609 566
3 425 244 245
3 242 119 288
3 632 260 633
3 607 609 565
3 295 618 273
3 242 447 280
3 319 318 634
3 475 293 473
3 7 126 458
3 573 635 636
3 75 202 637
3 558 638 639
3 412 418 71
3 67 640 461
3 378 593 98
3 471 541 365
3 52 280 282
3 79 286 274
3 547 557 548
3 641 642 575
3 612 609 610
3 205 221 498
3 443 300 301
3 415 177 406
3 643 433 644
3 634 558 639
3 183 509 111
3 112 640 364
3 608 607 637
3 645 353 646
3 584 531 93
3 215 617 180
3 159 163 160
3 415 414 248
3 2 647 278
3 648 526 528
3 360 649 98
3 599 63 168
3 481 624 179
3 592 269 167
3 29 28 205
3 301 643 623
3 650 576 263
3 651 652 493
3 630 629 653
3 567 172 654
3 566 612 561
3 473 284 449
3 86 567 654
3 655 123 411
3 53 443 445
3 20 416 184
3 514 615 613
3 25 448 23
3 498 455 205
3 98 97 378
3 346 606 503
3 225 310 226
3 10 457 624
3 374 612 175
3 656 199 451
3 657 45 44
3 106 658 512
3 446 441 368
3 651 493 6
3 109 573 107
3 659 660 42
3 661 309 317
3 639 319 634
3 494 652 95
3 551 555 554
3 166 283 460
3 391 459 546
3 563 662 663
3 110 522 111
3 664 471 665
3 65 422 345
3 222 402 646
3 110 523 522
3 197 198 666
3 648 496 667
3 127 128 474
3 194 284 40
3 20 550 18
3 590 632 502
3 532 668 172
3 459 189 546
3 669 670 450
3 210 627 671
3 122 70 204
3 378 379 428
3 77 489 491
3 644 435 255
3 108 572 587
3 480 323 322
3 318 424 131
3 131 424 545
3 202 608 637
3 141 145 142
3 426 432 218
3 501 590 502
3 28 221 205
3 320 585 672
3 358 139 138
3 115 191 504
3 583 673 154
3 233 401 568
3 651 674 652
3 207 209 469
3 66 65 346
3 597 56 55
3 671 470 103
3 561 563 566
3 368 367 580
3 457 213 624
3 127 126 125
3 661 307 309
3 266 675 264
3 371 314 316
3 376 377 660
3 407 82 256
3 161 76 159
3 671 456 470
3 126 571 124
3 486 292 221
3 54 445 525
3 365 541 110
3 447 580 282
3 596 462 676
3 462 69 676
3 336 543 427
3 147 231 613
3 388 387 677
3 678 398 467
3 647 148 279
3 564 499 474
3 476 679 559
3 593 378 428
3 115 114 470
3 645 402 388
3 587 370 108
3 435 644 672
3 186 56 440
3 623 644 255
3 3 116 58
3 420 366 441
3 622 256 84
3 305 306 203
3 373 560 600
3 290 416 568
3 373 600 631
3 10 322 11
3 110 541 523
3 260 667 66
3 491 680 681
3 117 118 196
3 504 191 190
3 453 317 383
3 97 99 304
3 163 159 381
3 682 588 587
3 78 380 76
3 659 42 41
3 39 589 425
3 82 46 631
3 435 672 585
3 655 411 410
3 626 307 661
3 535 683 533
3 682 574 650
3 682 572 574
3 68 29 676
3 534 617 215
3 489 578 579
3 552 639 519
3 324 635 325
3 684 236 363
3 530 207 312
3 66 346 633
3 558 89 311
3 110 112 365
3 638 273 519
3 419 556 553
3 346 502 633
3 552 585 319
3 632 258 260
3 222 673 583
3 83 268 511
3 653 629 685
3 184 524 550
3 199 384 472
3 602 616 643
3 478 383 100
3 156 476 559
3 522 524 184
3 531 524 523
3 220 182 486
3 516 63 62
3 453 661 317
3 425 589 619
3 619 651 244
3 460 289 166
3 0 12 1
3 37 503 686
3 635 573 109
3 190 681 621
3 127 474 499
3 6 8 244
3 583 431 569
3 339 150 614
3 482 484 555
3 305 203 70
3 629 581 687
3 166 188 283
3 36 12 13
3 513 32 386
3 464 451 199
3 187 283 188
3 688 689 582
3 464 466 452
3 513 689 32
3 608 57 610
3 484 658 554
3 185 57 56
3 636 264 675
3 575 576 641
3 675 266 641
3 479 481 181
3 603 29 206
3 555 551 626
3 454 598 421
3 534 533 618
3 191 78 77
3 673 646 153
3 583 154 431
3 468 658 372
3 19 584 90
3 468 469 337
3 612 611 175
3 338 209 208
3 209 338 327
3 468 337 554
3 511 457 355
3 182 509 183
3 465 201 543
3 648 528 690
3 364 640 430
3 557 547 601
3 254 533 683
3 691 675 576
3 433 105 104
3 472 478 361
3 383 478 384
3 418 540 417
3 542 668 541
3 172 668 170
3 685 687 626
3 484 512 658
3 582 581 628
3 596 55 462
3 493 571 6
3 571 493 495
3 450 630 656
3 643 301 602
3 100 383 317
3 622 356 136
3 415 248 177
3 305 245 8
3 155 396 364
3 370 372 108
3 354 353 692
3 29 603 676
3 280 281 243
3 610 57 185
3 434 672 644
3 204 391 546
3 77 491 190
3 25 324 326
3 35 408 679
3 42 194 40
3 375 598 377
3 674 589 686
3 463 660 377
3 27 461 508
3 14 16 54
3 609 612 566
3 324 264 636
3 516 549 400
3 228 139 586
3 669 450 452
3 571 126 7
3 513 582 689
3 7 458 306
3 6 571 7
3 474 128 475
3 259 632 590
3 672 434 424
3 155 364 430
3 401 290 568
3 534 618 617
3 94 96 423
3 341 620 693
3 341 257 339
3 403 276 275
3 206 442 438
3 545 434 104
3 483 482 581
3 562 344 132
3 567 532 172
3 691 574 636
3 652 488 95
3 199 385 384
3 484 483 512
3 395 155 152
3 624 480 10
3 325 635 694
3 176 406 177
3 14 48 15
3 130 104 114
3 409 408 684
3 58 60 529
3 100 317 101
3 436 87 343
3 260 66 633
3 649 360 595
3 336 335 543
3 679 476 35
3 610 185 611
3 489 73 490
3 138 137 510
3 693 261 258
3 357 586 139
3 408 35 270
3 676 603 596
3 106 512 386
3 635 109 694
3 380 627 212
3 131 132 318
3 408 270 684
3 684 270 236
3 138 559 358
3 679 358 559
3 524 531 584
3 357 679 408
3 357 358 679
3 650 263 262
3 210 212 627
3 321 615 514
3 630 450 670
3 555 626 687
3 268 631 600
3 331 237 239
3 511 213 457
3 9 457 10
3 9 11 657
3 11 510 657
3 527 526 548
3 158 157 322
3 67 461 68
3 444 255 254
3 648 620 526
3 10 480 322
3 137 139 228
3 323 485 158
3 402 222 224
3 179 624 213
3 237 313 238
3 313 695 312
3 85 599 91
3 253 435 585
3 294 393 392
3 373 631 46
3 393 294 696
3 426 218 217
3 638 558 311
3 552 319 639
3 434 644 433
3 303 378 97
3 517 254 518
3 671 103 539
3 454 192 598
3 537 399 398
3 582 628 688
3 130 545 104
3 662 113 621
3 663 662 621
3 254 517 533
3 129 562 132
3 359 310 311
3 546 189 188
3 562 561 344
3 662 563 562
3 663 565 563
3 680 663 681
3 565 663 680
3 77 76 578
3 303 304 347
3 389 604 387
3 579 224 223
3 153 646 353
3 154 673 152
3 579 73 489
3 637 490 75
3 240 243 241
3 219 296 175
3 296 299 297
3 645 677 692
3 249 5 117
3 463 194 42
3 650 262 329
3 440 697 186
3 440 439 697
3 440 597 438
3 333 611 185
3 300 520 302
3 276 404 698
3 169 340 605
3 403 594 347
3 202 57 608
3 462 202 591
3 74 591 75
3 64 667 496
3 508 640 112
3 113 130 114
3 396 365 364
3 664 665 144
3 12 38 272
3 170 542 699
3 532 523 668
3 232 568 21
3 36 38 12
3 19 18 550
3 584 550 524
3 267 580 666
3 19 269 17
3 17 321 21
3 677 645 388
3 606 96 488
3 229 233 230
3 147 146 231
3 613 231 514
3 615 321 592
3 321 17 592
3 620 549 526
3 149 148 147
3 356 44 136
3 647 279 278
3 277 0 278
3 161 578 76
3 696 294 227
3 693 258 257
3 0 277 13
3 38 217 272
3 417 72 71
3 376 660 405
3 217 39 426
3 426 425 432
3 674 686 488
3 36 501 37
3 344 374 298
3 174 173 334
3 392 394 181
3 488 652 674
3 306 8 7
3 189 459 564
3 391 204 203
3 521 363 235
3 70 410 71
3 486 182 416
3 122 121 120
3 119 121 164
3 166 289 164
3 535 560 683
3 700 81 80
3 508 112 509
3 130 131 545
3 682 329 588
3 670 688 628
3 450 656 451
3 201 200 427
3 633 502 632
3 315 701 335
3 623 255 444
3 618 517 273
3 506 700 80
3 340 169 400
3 80 507 506
3 274 507 80
3 259 536 257
3 79 274 80
3 416 20 568
3 413 415 406
3 594 403 275
3 349 403 347
3 349 404 403
3 625 318 132
3 634 87 558
3 361 360 98
3 593 200 472
3 482 687 581
3 366 197 367
3 695 530 312
3 390 313 237
3 574 573 636
3 626 661 685
3 329 262 330
3 572 108 107
3 289 454 441
3 259 258 632
3 248 251 249
3 671 539 210
3 662 562 129
3 34 246 271
3 694 109 30
3 44 356 355
3 343 298 436
3 200 428 427
3 336 594 315
3 594 336 379
3 472 361 593
3 531 285 93
3 478 472 384
3 676 69 68
3 24 281 52
3 465 464 201
3 660 463 42
3 151 143 142
3 517 618 533
3 337 469 209
3 170 699 350
3 316 312 207
3 198 266 265
3 312 316 238
3 239 588 331
3 568 232 233
3 636 675 691
3 429 60 59
3 575 4 529
3 642 266 198
3 30 109 31
3 656 385 199
3 385 656 653
3 379 303 594
3 653 656 630
3 167 92 168
3 106 108 372
3 106 372 658
3 468 554 658
3 555 687 482
3 469 371 316
3 685 629 687
3 685 453 653
3 542 170 668
3 16 520 53
3 380 78 627
3 629 628 581
3 672 424 320
3 572 107 573
3 187 449 193
3 367 666 580
3 443 623 444
3 333 173 611
3 463 598 192
3 375 178 419
3 419 553 420
3 178 250 556
3 665 395 151
3 250 249 117
3 569 431 570
3 516 62 549
3 553 556 196
3 419 421 375
3 420 441 421
3 666 367 197
3 476 33 35
3 368 441 366
3 464 452 451
3 118 642 195
3 575 642 118
3 196 195 553
3 642 198 195
3 267 666 265
3 198 265 666
3 286 287 701
3 266 642 641
3 156 559 157
3 3 529 4
3 576 650 691
3 385 653 453
3 641 576 675
3 682 650 329
3 682 587 572
3 282 580 267
3 371 370 314
3 551 337 327
3 554 337 551
3 79 81 287
3 86 515 49
3 180 617 702
3 189 564 449
3 661 453 685
3 93 285 85
3 379 336 427
3 670 628 630
3 144 145 703
3 616 397 105
3 324 636 635
3 25 264 324
3 22 267 26
3 702 294 392
3 121 204 165
3 204 121 122
3 655 122 123
3 86 285 567
3 165 546 188
3 474 473 564
3 643 616 433
3 102 595 332
3 232 514 230
3 477 476 156
3 273 227 295
3 500 248 414
3 659 405 660
3 512 483 513
3 664 699 542
3 493 652 494
3 284 473 293
3 345 96 606
3 117 5 4
3 175 611 173
3 560 525 683
3 252 116 5
3 271 35 34
3 99 98 649
3 250 177 248
3 507 274 276
3 507 276 698
3 468 372 371
3 427 543 201
3 119 240 120
3 288 119 164
3 241 411 123
3 410 70 655
3 305 70 72
3 655 70 122
3 6 244 651
3 619 674 651
3 589 674 619
3 606 686 503
3 686 606 488
3 640 67 430
3 519 639 638
3 345 423 96
3 496 648 690
3 261 620 648
3 2 278 0
3 620 261 693
3 261 667 260
3 39 217 38
3 467 602 135
3 406 405 413
3 590 13 259
3 261 648 667
3 667 64 66
3 37 686 589
3 171 654 172
3 339 614 340
3 507 698 505
3 329 331 588
3 277 279 536
3 341 693 257
3 257 536 339
3 149 339 536
3 279 148 149
3 614 605 340
3 516 400 169
3 547 62 601
3 140 43 45
3 650 574 691
3 61 50 351
3 634 625 87
3 49 352 50
3 63 599 51
3 61 63 51
3 61 601 62
3 63 516 168
3 614 613 615
3 77 578 489
3 269 19 90
3 168 92 599
3 599 92 91
3 532 285 531
3 584 19 550
3 184 183 522
3 523 541 668
3 54 53 445
3 395 665 396
3 151 144 665
3 153 152 673
3 569 74 223
3 645 646 402
3 645 692 353
3 151 153 143
3 144 151 142
3 703 664 144
3 664 703 699
3 471 664 542
3 665 471 396
3 640 508 461
3 509 182 220
3 206 438 603
3 597 596 603
3 570 69 591
3 462 591 69
3 73 223 74
3 597 440 56
3 697 334 186
3 436 299 437
3 298 374 297
3 374 561 612
3 610 609 608
3 680 637 607
3 490 637 680
3 604 389 577
3 673 222 646
3 402 224 389
3 162 604 160
3 76 380 159
3 456 78 191
3 490 680 491
3 607 565 680
3 467 135 678
3 625 343 87
3 625 634 318
3 64 492 65
3 343 344 298
3 113 662 129
3 621 681 663
3 504 621 113
3 681 190 491
3 627 456 671
3 510 45 657
3 210 539 538
3 103 399 539
3 539 399 537
3 179 215 180
3 253 518 254
3 702 392 180
3 295 702 617
3 702 295 294
3 273 638 225
3 602 301 133
3 467 616 602
3 616 467 397
3 644 623 643
3 214 535 534
3 600 535 214
3 535 600 560
3 54 525 560
3 254 683 525
3 445 444 525
3 552 253 585
3 253 552 518
3 638 311 225
3 696 227 226
3 394 479 181
3 481 179 181
3 215 179 213
3 485 477 156
3 11 322 157
3 45 510 137
3 9 657 44
3 9 44 355
3 268 83 631
3 286 701 315
3 234 236 271
3 583 223 222
3 46 407 47
3 161 160 604
3 162 387 604
3 654 515 86
3 547 549 62
