ply
format ascii 1.0
comment Created by Open3D
element vertex 738
property double x
property double y
property double z
element face 1228
property list uchar uint vertex_indices
end_header
0.0166663 -0.0207765 0.0288876
0.0167637 -0.0207396 0.0281235
0.0172618 -0.0202528 0.028587
-0.00325973 -0.0162886 0.00949689
-0.00346184 -0.0162567 0.00986253
-0.00365013 -0.0168166 0.009489
-0.00440815 -0.0168015 0.0106832
-0.00395227 -0.0163184 0.0105468
-0.00421668 -0.0163934 0.0108711
-0.00442883 -0.0237829 0.035937
-0.00516154 -0.0237662 0.0360354
-0.00491518 -0.0238093 0.0353176
0.00300823 -0.0222983 0.0350769
0.00312399 -0.0224989 0.0358523
0.00230491 -0.0224719 0.0354798
0.0154066 -0.0209229 0.0277666
0.0159472 -0.0209698 0.0282438
0.0151086 -0.0209597 0.0283878
-0.0110603 -0.0224685 0.0191228
-0.0115713 -0.0222961 0.0195406
-0.0115701 -0.0220785 0.0188498
0.0106598 -0.0211548 0.0315336
0.0112407 -0.021389 0.0320772
0.0106405 -0.0214655 0.0325238
0.0119172 -0.0214767 0.0321617
0.0115628 -0.0212289 0.031401
-0.00869833 -0.0236868 0.0293317
-0.00812645 -0.0235061 0.0285848
-0.00776767 -0.0235027 0.0294155
-0.00834605 -0.0235189 0.0277823
-0.00890506 -0.0236821 0.0283802
-0.00860699 -0.0216374 0.0176796
-0.00825829 -0.0212613 0.0171887
-0.00792039 -0.0213574 0.0178847
0.0140513 -0.0210429 0.0294198
0.0147425 -0.0211604 0.029914
0.0140395 -0.0211932 0.0302311
0.0137801 -0.0205554 0.0263871
0.0139751 -0.0205064 0.0253618
0.0146826 -0.0206427 0.0259009
-0.00575515 -0.0182462 0.00941276
-0.00650541 -0.0186046 0.00956569
-0.00623247 -0.0185979 0.00878326
-0.00546155 -0.018335 0.00861794
-0.0049724 -0.0179081 0.00927066
-0.00548858 -0.0215568 0.0223103
-0.00616667 -0.0220347 0.0224057
-0.00567746 -0.0214495 0.0218841
0.0134935 -0.0212209 0.0305643
0.0128144 -0.0211699 0.0305406
0.0133157 -0.0210667 0.0298618
-0.00877861 -0.0206407 0.0145903
-0.00909771 -0.0206755 0.0138865
-0.00841441 -0.0202967 0.0140238
0.0158216 -0.020832 0.0239319
0.014977 -0.0206845 0.0241486
0.0152548 -0.0207638 0.0232599
0.0142714 -0.0205204 0.0233593
0.0141432 -0.0205001 0.0244056
0.0170262 -0.0204912 0.0203823
0.0170023 -0.0205298 0.0211713
0.0163052 -0.0208077 0.020675
-0.00156086 -0.0232228 0.0352457
-0.000656367 -0.0229551 0.0351201
-0.000968963 -0.0232291 0.035902
0.0146613 -0.0207094 0.0267626
0.0146165 -0.0208099 0.0276817
0.0154134 -0.0208395 0.0270999
0.0118656 -0.0203138 0.0264603
0.0127828 -0.0204541 0.0264785
0.0125144 -0.0204916 0.0270907
-0.00995999 -0.0209188 0.0137409
-0.00953628 -0.0210172 0.0145371
-0.0103884 -0.0211481 0.0146106
-0.00208917 -0.0220407 0.0316017
-0.00208448 -0.022254 0.0322454
-0.00281207 -0.0224245 0.031938
0.0109337 -0.0206341 0.0292336
0.0104768 -0.0204131 0.0286613
0.0112228 -0.020546 0.0285557
-0.00400863 -0.0235037 0.0340559
-0.00478178 -0.0235592 0.0335555
-0.00410159 -0.0232529 0.033129
0.00795535 -0.0215998 0.0370317
0.00773364 -0.0219078 0.0360852
0.00859075 -0.0217197 0.0362435
-0.00472881 -0.022837 0.0311532
-0.00431607 -0.0228482 0.0316822
-0.00486909 -0.0230927 0.0318851
-0.00744326 -0.0193268 0.0134715
-0.00695724 -0.019039 0.0142319
-0.00769719 -0.019738 0.0142772
0.0132499 -0.0205844 0.0271939
0.0139936 -0.0206722 0.0272152
0.013655 -0.0207333 0.027924
0.006196 -0.0220781 0.0367897
0.00598152 -0.0219168 0.0376247
0.00530061 -0.0222583 0.037022
0.0123525 -0.0209408 0.0296375
0.0162916 -0.020876 0.0267539
0.0169133 -0.0206727 0.0273515
0.0161045 -0.02093 0.0275227
-0.00247602 -0.0220722 0.0310913
0.0131942 -0.020857 0.0288588
0.0142303 -0.0209102 0.0285724
0.016117 -0.0208598 0.0230882
0.0163505 -0.0208141 0.0222941
0.0169974 -0.0206856 0.0228451
0.0145353 -0.020649 0.021229
0.0147571 -0.0207697 0.0204403
0.0154703 -0.0208427 0.0210859
0.0135834 -0.020263 0.0215365
0.0143803 -0.020573 0.0218911
0.0121486 -0.0203398 0.0260168
0.0124252 -0.0203335 0.0254712
0.013024 -0.0204084 0.0256133
0.0126408 -0.0206172 0.0278859
0.0116876 -0.0205066 0.0279731
0.011912 -0.0204306 0.0273279
-0.0036875 -0.0237131 0.0360793
-0.00349388 -0.0236681 0.0369935
-0.00417313 -0.0236942 0.0366895
-0.0105881 -0.0236485 0.02585
-0.0113015 -0.0234589 0.0252873
-0.0105487 -0.0236415 0.0249466
0.0119508 -0.0216145 0.0342702
0.011297 -0.0216543 0.0344876
0.0116619 -0.021715 0.0336399
0.0076331 -0.0211145 0.0322703
0.00691089 -0.0209647 0.0320684
0.00735179 -0.0209209 0.031826
0.00614808 -0.0210546 0.0324656
0.00687477 -0.0211525 0.0325685
0.00660262 -0.0213899 0.0332243
0.00745882 -0.0213838 0.033087
-0.00709299 -0.0237672 0.033789
-0.00688328 -0.0237433 0.0331455
-0.00628905 -0.0237642 0.0336762
-0.00665204 -0.0215341 0.0205231
-0.00727595 -0.0218487 0.0202173
-0.0068499 -0.0214028 0.0197802
-0.00731657 -0.0237496 0.0324787
-0.007585 -0.0237763 0.0330842
-0.00783441 -0.0237952 0.0327248
-0.00700826 -0.0193751 0.0149697
-0.00631557 -0.0190309 0.0154668
-0.00683295 -0.0196301 0.0156994
-0.0055968 -0.0238414 0.0347901
-0.00564374 -0.023802 0.0355997
0.0022082 -0.0215631 0.0334477
0.00272348 -0.0215337 0.0334931
0.00251638 -0.0217901 0.0338939
-0.011061 -0.0235175 0.026494
-0.0112339 -0.0234793 0.0257714
0.0124478 -0.0216173 0.0337903
0.01251 -0.0214147 0.0345041
0.003491 -0.0225815 0.0366786
0.00252513 -0.0226788 0.0364747
0.0140851 -0.0207322 0.0185538
0.0142906 -0.0207346 0.0192328
0.0134087 -0.0203208 0.0193096
0.0155614 -0.0207905 0.0224669
-0.0104665 -0.020516 0.0127175
-0.00998068 -0.0206125 0.0128194
-0.0106636 -0.0207526 0.0133198
-0.00635805 -0.0236199 0.0324836
0.0141199 -0.0205925 0.0199173
0.014916 -0.0208721 0.0196035
0.00979439 -0.0205819 0.0299353
0.0102842 -0.0208662 0.0306649
0.00965859 -0.0207704 0.0306398
-0.00985277 -0.0224096 0.0186304
-0.00929626 -0.0220473 0.0179637
-0.00900899 -0.0222189 0.0188574
-0.0106828 -0.0235739 0.0240679
-0.011398 -0.0232587 0.0235482
-0.0105286 -0.0234179 0.0232338
-0.00868546 -0.0203561 0.0134274
0.0116228 -0.020756 0.029184
-0.0078582 -0.0207429 0.0165304
-0.00880225 -0.0212817 0.016531
-0.0109543 -0.021161 0.0150113
-0.0109017 -0.0210442 0.0144592
0.0130705 -0.0215182 0.033111
0.0121884 -0.0216657 0.0329557
-0.00283841 -0.0236262 0.0362785
-0.00222194 -0.0235349 0.0368319
-0.00300075 -0.0236353 0.0371605
-0.00594728 -0.0177514 0.0123218
-0.00547328 -0.0173978 0.011602
-0.00536145 -0.0169911 0.0125149
0.0158073 -0.0208042 0.0170483
0.0154241 -0.0208918 0.0173265
0.0154851 -0.0208318 0.0165684
0.0146896 -0.021016 0.0169343
0.0147734 -0.0209527 0.0179045
0.0136687 -0.0208232 0.0169101
0.0143125 -0.0210482 0.0161396
0.0114342 -0.0208648 0.0298556
-0.00845238 -0.0218007 0.0183322
0.0151413 -0.0208256 0.0159868
-0.00642401 -0.0187375 0.0148858
-0.0058818 -0.0183262 0.0153447
0.00392524 -0.0224619 0.0360491
0.00359874 -0.022355 0.0354364
0.00428661 -0.0222918 0.0353758
0.0172029 -0.02054 0.0265547
-0.0109168 -0.0227526 0.0203962
-0.0110484 -0.0228972 0.0210832
-0.0115169 -0.0226665 0.0207768
0.00436037 -0.0224788 0.036883
-0.0110704 -0.0232614 0.0229148
0.0106261 -0.0207346 0.0299286
0.010177 -0.0204804 0.0292411
-0.00891958 -0.0198259 0.0115208
-0.00827578 -0.0195307 0.0112558
-0.00842372 -0.0198428 0.0120759
-0.00250289 -0.0230199 0.0338056
-0.00311276 -0.0234273 0.034558
-0.00331127 -0.0231549 0.033517
0.0138889 -0.0203994 0.0224271
0.0147506 -0.0206616 0.0225301
0.00134773 -0.0224499 0.034995
0.00163213 -0.0226813 0.0359555
0.000761637 -0.0227807 0.0357264
0.00310239 -0.0219907 0.0342979
0.00319184 -0.0214888 0.0334806
-0.0101761 -0.0202237 0.0121497
0.0047652 -0.0223678 0.0361025
-0.0102199 -0.0236666 0.027262
-0.00978319 -0.0236883 0.0280484
-0.0105699 -0.0235518 0.0279621
-0.0030962 -0.0163604 0.00911263
-0.00336683 -0.0170154 0.00872389
0.0110943 -0.0209867 0.0306544
-0.00812073 -0.0199248 0.013439
-0.00792476 -0.0196133 0.0127503
-0.00724923 -0.0190142 0.0127243
-0.007745 -0.0193247 0.0120348
0.00881641 -0.0217932 0.0344987
0.00901965 -0.0215891 0.033447
0.00976426 -0.021784 0.0340114
0.0091655 -0.0210516 0.0316407
0.00900955 -0.0207493 0.0307996
0.00979593 -0.0209835 0.0312446
0.0169942 -0.0204523 0.0190853
0.0171756 -0.0203771 0.0195544
0.0166216 -0.0206334 0.0191993
-0.00594114 -0.0230553 0.0302887
-0.00555444 -0.0231207 0.0312308
-0.00652251 -0.0233437 0.0309017
-0.00626564 -0.0237219 0.0330849
-0.00562897 -0.0236067 0.0330845
0.00848018 -0.0211094 0.0319857
0.00854498 -0.020806 0.0311126
-0.00592169 -0.0213484 0.0213088
-0.00633001 -0.0215916 0.0212056
-0.00609744 -0.0212735 0.0208414
0.0157379 -0.0208208 0.0181228
0.0167048 -0.0205577 0.0184729
0.0158679 -0.0208917 0.0191315
0.0171606 -0.0205225 0.02202
0.0163502 -0.0207876 0.0215167
0.0133761 -0.0202211 0.0229856
0.0129103 -0.0198768 0.0223281
0.0110453 -0.0215029 0.0353227
0.0114599 -0.0214951 0.0350955
-0.00447165 -0.0173238 0.00994239
-0.00414879 -0.017553 0.00905981
-0.0114962 -0.0228042 0.0213238
-0.0114825 -0.0229018 0.0217282
0.00162901 -0.0219794 0.0340152
0.00155786 -0.0215949 0.0333219
-0.00612266 -0.0196346 0.0169071
-0.00568923 -0.0190044 0.0167477
-0.00568299 -0.0192739 0.0172246
0.0133823 -0.0202289 0.0201806
0.01276 -0.0198554 0.0198674
-0.0106116 -0.0217753 0.01669
-0.00996425 -0.02201 0.0172777
-0.0109536 -0.0219767 0.017499
-0.00637758 -0.0238032 0.0347669
-0.006073 -0.0237784 0.0343121
0.00229928 -0.0221833 0.0346167
0.011184 -0.0203256 0.0274603
-0.00908555 -0.0209573 0.0152359
-0.00988492 -0.0212603 0.0152442
-0.00186538 -0.0234969 0.0374332
-0.00252108 -0.0235784 0.0372904
0.013086 -0.0203606 0.0175603
0.0129658 -0.0203867 0.0168243
0.0132514 -0.0207629 0.0161616
0.0125603 -0.0202377 0.0163502
0.00915287 -0.0213378 0.0325252
0.00987733 -0.0215511 0.0330377
-0.00835898 -0.0205453 0.0152303
-0.00586854 -0.0226838 0.026336
-0.00649666 -0.022901 0.0269855
-0.00665347 -0.0228969 0.0262911
-0.0102776 -0.0230214 0.0207481
-0.00514183 -0.0228106 0.0304001
0.0126356 -0.0202895 0.024811
-0.0025798 -0.0226993 0.0328975
-0.00175875 -0.0223558 0.0327656
-0.00142465 -0.0220017 0.0322699
-0.00969421 -0.0216807 0.0165613
-0.0105353 -0.0233444 0.0224449
-0.0114637 -0.0230299 0.0223128
-0.010632 -0.0231654 0.0216229
0.0148758 -0.0210687 0.0291439
0.0157226 -0.0210556 0.0289681
-0.00392495 -0.0166498 0.0101243
-0.00369616 -0.0162692 0.0102113
-0.00554915 -0.0233657 0.0321819
-0.00484588 -0.0233207 0.0326936
0.00490191 -0.0212164 0.0330499
0.00472409 -0.0215573 0.0336692
0.0044849 -0.0212958 0.0332052
-0.00635244 -0.0184214 0.0143163
-0.0108091 -0.0223487 0.0184539
-0.0107119 -0.0235521 0.0275686
-0.00823936 -0.0232145 0.0248402
-0.00760957 -0.0229878 0.0245628
-0.00779653 -0.023136 0.0253218
0.0164005 -0.0206542 0.0179367
0.0160529 -0.0207527 0.0173957
0.0149352 -0.020935 0.0187528
-0.00400438 -0.0237341 0.0351173
-0.00547739 -0.0224899 0.0254538
-0.00640616 -0.0227748 0.0256316
-0.00614843 -0.0234065 0.0317074
-0.00549844 -0.0237583 0.0339705
-0.0114293 -0.0231708 0.023041
-0.00451714 -0.0179895 0.00754564
-0.00372379 -0.0176432 0.00731917
-0.00388415 -0.0177245 0.00823225
-0.00952235 -0.0237125 0.0289297
-0.00495521 -0.0225241 0.0274048
-0.00472802 -0.0224543 0.0280917
-0.00546507 -0.0226847 0.02806
-0.00510964 -0.0226254 0.0288227
-0.00437569 -0.0223997 0.0287431
-0.00411202 -0.0222557 0.028061
-0.0102306 -0.0227503 0.019959
-0.0115454 -0.0224973 0.0201892
-0.0109457 -0.0226423 0.0197251
-0.00469626 -0.0180558 0.00844058
-0.0114775 -0.0217052 0.0176408
-0.011404 -0.0215821 0.0171879
0.012884 -0.0198366 0.0218398
0.0158606 -0.0207997 0.0308091
0.0160665 -0.0208673 0.0301959
0.0164651 -0.020501 0.0305123
-0.00856614 -0.0208918 0.0158777
-0.00984914 -0.0236966 0.0264095
-0.00958242 -0.0236381 0.0254185
0.017541 -0.0201335 0.0273157
0.0176516 -0.0200891 0.0267141
-0.00322616 -0.0223676 0.0312097
-0.00353549 -0.0223353 0.0305067
-0.00277896 -0.022106 0.0306637
0.00564592 -0.0213905 0.03327
0.005693 -0.0211065 0.0326918
0.0114836 -0.0203088 0.027017
-0.00728666 -0.0208072 0.0174704
-0.00630422 -0.0201387 0.0175812
-0.00659062 -0.0206591 0.018283
0.0164227 -0.0207563 0.0198235
-0.00794085 -0.0204755 0.0157908
-0.00729465 -0.0201643 0.0160634
0.0138994 -0.020776 0.017719
0.000548089 -0.0217143 0.0330909
4.23227e-06 -0.022173 0.0336068
-0.000178368 -0.0218414 0.03291
-0.0115281 -0.0218586 0.0181379
-0.00392254 -0.0222685 0.0287137
-0.00688347 -0.023605 0.0317366
-0.00666265 -0.0237867 0.0343868
0.0163684 -0.0208388 0.0245362
0.0166858 -0.0207724 0.0236735
0.0173155 -0.0205616 0.0242269
-0.0048288 -0.0220396 0.024602
-0.00473516 -0.0221531 0.0251538
-0.00531985 -0.0222867 0.0246609
0.0142134 -0.020819 0.0332454
0.0137644 -0.0210039 0.0336786
0.013925 -0.0212312 0.0327952
-0.00590963 -0.0228594 0.0287734
-0.00635156 -0.0229226 0.0279196
0.00793723 -0.0208685 0.0314877
0.0148617 -0.0208342 0.0154773
0.014054 -0.0210556 0.0153821
-0.0102575 -0.0235502 0.0288214
-0.0100098 -0.0235612 0.0294632
-0.00347029 -0.0173193 0.0068823
-0.00310785 -0.0170303 0.00725282
0.010322 -0.0216861 0.0353152
0.00979724 -0.0216842 0.0356308
0.00971175 -0.0218315 0.0349266
0.000634159 -0.0223226 0.0342591
0.000270547 -0.0226906 0.0350198
0.00156242 -0.0228712 0.038012
0.00219701 -0.0227714 0.0374364
0.00216537 -0.0226733 0.0381338
-0.00579899 -0.0185706 0.015861
-0.00612331 -0.0192447 0.0161725
0.0104834 -0.0218139 0.0346311
0.0107159 -0.0217558 0.0335661
-0.00889131 -0.023393 0.0247088
-0.00859599 -0.0233931 0.0254457
-0.0043501 -0.0225733 0.030466
-0.00460855 -0.0225489 0.0295859
0.0054363 -0.0218287 0.034207
-0.00810007 -0.0190954 0.00933441
-0.00739752 -0.0189803 0.00978943
-0.00814616 -0.0192094 0.00998036
-0.00511804 -0.0225059 0.0267091
-0.00515055 -0.0224517 0.0260656
0.0125776 -0.0201407 0.0167561
0.0126027 -0.0200586 0.017177
0.00134093 -0.0229188 0.037265
-0.001881 -0.0234527 0.0360581
-0.00246592 -0.0234651 0.0353606
-0.00444626 -0.0223063 0.0269147
0.00629914 -0.0217099 0.0340518
0.00599285 -0.0220482 0.0350382
0.0121327 -0.0207175 0.0286843
-0.00902403 -0.023214 0.0231568
-0.00828718 -0.0230265 0.0234528
-0.0089702 -0.0233205 0.0239336
-0.00761933 -0.0227256 0.0229324
-0.00752956 -0.0228495 0.0237655
-0.00613652 -0.0226182 0.0248178
-0.00392597 -0.0223779 0.0298979
-0.0037493 -0.0222415 0.0291115
0.0178067 -0.020115 0.0226566
0.000411616 -0.0230997 0.0371796
-0.000681415 -0.0233372 0.0376023
-0.000362519 -0.0232097 0.0365584
-0.00859824 -0.0201413 0.0128016
-0.00890544 -0.0227905 0.0212162
-0.00967084 -0.023039 0.0212788
-0.00938989 -0.0227524 0.0204042
-0.00873739 -0.019346 0.0104002
-0.00851996 -0.0192778 0.0100553
0.0133899 -0.0203 0.0237734
0.0133406 -0.0203714 0.0246839
-0.00571296 -0.0220454 0.0230674
0.00564305 -0.022238 0.0360303
0.00646168 -0.0220942 0.0359582
0.00900055 -0.0214928 0.0365767
0.00950619 -0.021506 0.0362322
-0.00596273 -0.0176467 0.0140248
-0.00616455 -0.0179816 0.0138315
-0.00584816 -0.01739 0.0135367
0.0133103 -0.0201386 0.0208072
0.0139508 -0.0204639 0.0206847
-0.00703261 -0.0224083 0.0223174
-0.00737945 -0.0223372 0.0215343
-0.00656458 -0.0220194 0.0216944
-0.00704891 -0.0188456 0.00895637
0.000365659 -0.023002 0.0363062
-9.47682e-05 -0.0229886 0.0357413
0.0131733 -0.0212427 0.0341173
-0.0105345 -0.0213205 0.0152828
-0.00798698 -0.0221247 0.0199587
-0.00822663 -0.0219651 0.0191356
-0.00749121 -0.0216897 0.0194182
-0.0067866 -0.0227201 0.0242202
-0.00290276 -0.0167543 0.00776334
-0.00322457 -0.017213 0.00794099
-0.00516664 -0.0180025 0.00681159
-0.00442427 -0.0178051 0.00673234
-0.00527239 -0.0182921 0.0077279
0.0135047 -0.0211423 0.0146422
0.0130717 -0.0208386 0.0153839
-0.0105023 -0.0236408 0.0266363
0.0124838 -0.0213391 0.0314696
-0.0072678 -0.0211092 0.01821
-0.00695045 -0.0211622 0.0189551
-0.00956928 -0.0225779 0.0194408
-0.00910197 -0.0216859 0.0171754
0.00464007 -0.0220196 0.0345777
0.0125607 -0.0203606 0.0159108
-0.00601726 -0.0238112 0.035198
-0.0013013 -0.0234102 0.0368262
-0.00785934 -0.022643 0.022129
-0.0081519 -0.0225739 0.0213569
-0.00817918 -0.0202405 0.0146617
-0.00386902 -0.0176102 0.00673944
0.000894516 -0.0230435 0.0378617
0.00374636 -0.0221548 0.0347987
0.00390391 -0.0217977 0.0340174
0.00178059 -0.022803 0.0367016
-0.00421674 -0.0230196 0.0323151
-0.00988745 -0.0199902 0.0117579
-0.00934741 -0.0201889 0.0121762
0.0173296 -0.0204807 0.0257275
0.017564 -0.0203624 0.0249638
0.0178469 -0.0200494 0.0255782
-0.00488689 -0.0169297 0.0113121
-0.00479873 -0.0166361 0.0115979
-0.00512066 -0.0168317 0.0120783
0.0146831 -0.0212577 0.0307128
0.0153111 -0.0209587 0.0311723
0.0146981 -0.0211117 0.0316766
0.0148841 -0.0206372 0.0324896
0.0145425 -0.0207127 0.0328823
0.0144196 -0.0210661 0.032341
-0.00763366 -0.020013 0.0152383
-0.00847708 -0.0225 0.0205661
-0.00770896 -0.022248 0.0207607
0.015508 -0.0211192 0.0296873
-0.00571448 -0.0226999 0.0272445
-0.00825271 -0.0231358 0.0242086
-0.00907506 -0.0194866 0.0108617
0.0177213 -0.0201335 0.0221646
-0.0104278 -0.0235515 0.0283558
-0.00789677 -0.0189927 0.00897278
-0.00600889 -0.018511 0.00793533
-0.00675456 -0.0186963 0.00820121
-0.00656933 -0.0183953 0.00735116
0.0179918 -0.020095 0.0242484
0.010935 -0.0203516 0.0278682
-0.00664912 -0.0224876 0.0232257
-0.0057866 -0.0223274 0.0239406
0.00986582 -0.0215136 0.0359925
0.00852391 -0.021513 0.0368292
-0.00477256 -0.0237396 0.0344553
-0.00505115 -0.0218676 0.0236397
-0.00494745 -0.0219399 0.0240561
0.00510087 -0.0222079 0.0353027
-0.00610861 -0.0178985 0.0131166
-0.00560704 -0.017148 0.0129842
-0.00759264 -0.0188354 0.00845835
-0.00713897 -0.0186236 0.00784518
-0.00770228 -0.0215256 0.0186226
0.0155447 -0.0207931 0.0247782
-0.0093723 -0.0237123 0.0270874
-0.00899259 -0.0235717 0.0262466
-0.00858925 -0.0235295 0.0270103
0.0174334 -0.0202484 0.0204954
0.0175181 -0.0201994 0.0209566
-0.00031762 -0.0226186 0.0343829
0.0153158 -0.0207544 0.0254851
0.0155523 -0.0208181 0.0261979
0.0156062 -0.0208868 0.0201199
-0.0108556 -0.0235437 0.0271562
-0.00659634 -0.0232261 0.0300591
-0.00785201 -0.0192024 0.0105928
0.0162978 -0.0208443 0.0296006
0.0168864 -0.0204026 0.0297229
0.0166907 -0.0204572 0.0301281
-0.0095457 -0.0197623 0.0113833
-0.0045705 -0.0223014 0.0262963
-0.00346226 -0.0228784 0.0326156
-0.00368425 -0.0226908 0.0318317
-0.00505802 -0.0173644 0.0107355
0.0125954 -0.0215508 0.0323528
-0.00103286 -0.0219693 0.0325395
-0.000676475 -0.0221624 0.0331625
-0.00135575 -0.0224471 0.0332633
0.00709087 -0.0220063 0.0358749
0.0067762 -0.0220274 0.0353765
-0.00970969 -0.0235772 0.0244416
-0.0097513 -0.0234665 0.0236098
0.0113967 -0.0216097 0.0328064
-0.00698313 -0.0219547 0.0209775
0.00106497 -0.022895 0.036495
-0.0097611 -0.0233588 0.0228121
-0.00911194 -0.0231026 0.0224014
-0.00212039 -0.0231774 0.0345658
-0.00808374 -0.0238186 0.0323641
-0.00769017 -0.0237732 0.0318219
0.0127047 -0.0207181 0.0148412
0.0127996 -0.0208677 0.0144346
-0.00301873 -0.0221369 0.0303005
-0.00336105 -0.0221779 0.0297654
-0.00122578 -0.0229079 0.0345074
-0.00170696 -0.0228204 0.0338946
-0.000888003 -0.0225487 0.0338122
-0.00670869 -0.0185737 0.0102182
-0.00609241 -0.0182119 0.0101485
-0.00573167 -0.0187836 0.0163106
0.0157428 -0.0205597 0.0314752
0.0140218 -0.0213161 0.0310249
0.0153603 -0.0205832 0.0319301
0.00268389 -0.0224885 0.0381555
0.0127869 -0.0201895 0.0241231
-0.00707569 -0.0187784 0.0120267
-0.00703941 -0.0231495 0.0281472
-0.00764344 -0.0233246 0.0279611
-0.00710902 -0.0231149 0.0274646
-0.00733893 -0.0237718 0.0334367
-0.00551678 -0.0228144 0.0295711
-0.00628278 -0.0230478 0.0294768
0.016036 -0.0208513 0.0253682
0.0168762 -0.0207342 0.0251387
-0.00322558 -0.0236369 0.0354748
0.013945 -0.0213799 0.0318532
0.0132275 -0.02147 0.0321298
0.0133233 -0.0213435 0.0312474
-0.00840329 -0.0229251 0.0226762
0.00396976 -0.0213851 0.0333533
0.00810661 -0.0215937 0.0337278
0.00719404 -0.0216222 0.0338978
0.0083283 -0.0213663 0.0328482
-0.0112978 -0.0215079 0.0167466
0.0146656 -0.0208653 0.0151089
0.0144638 -0.0209205 0.0147331
-0.00651931 -0.0182985 0.0119772
-0.00658887 -0.0183972 0.0126041
0.0147834 -0.0206363 0.0250422
-0.00662343 -0.0198192 0.0163157
-0.0068941 -0.020257 0.0167964
-0.00572453 -0.0195099 0.0175675
-0.0113592 -0.0234318 0.0246257
-0.00592871 -0.0181262 0.0149436
-0.00597485 -0.0179261 0.0145442
-0.00667922 -0.0186092 0.0134641
0.000912206 -0.0219094 0.0335885
-0.00578315 -0.0178318 0.010804
-0.00646255 -0.0183086 0.0108082
-0.00723987 -0.0234487 0.0301925
-0.00817254 -0.0236981 0.030358
-0.00743053 -0.0236272 0.0310463
-0.00591847 -0.0200966 0.0182989
0.0174542 -0.0204228 0.0233594
0.0106861 -0.0203776 0.028276
0.00652949 -0.0210097 0.032267
-0.00938237 -0.0213042 0.0158933
-0.00643907 -0.0209745 0.0195268
-0.00467369 -0.0222303 0.0255895
-0.0071167 -0.0187861 0.0107139
-0.00748239 -0.0190473 0.0113521
-0.00681953 -0.0185359 0.0114106
-0.00524781 -0.0217273 0.0229585
-0.00876201 -0.0223735 0.0197207
0.017874 -0.020109 0.0230741
0.0179597 -0.020102 0.0236712
-0.00940405 -0.0237146 0.0295817
-0.00720403 -0.0230172 0.0258581
0.0132919 -0.0203694 0.018376
0.0126676 -0.0199288 0.0182037
-0.00400081 -0.0225953 0.0311591
-0.00920277 -0.023002 0.0217704
-0.00980361 -0.0232133 0.0220336
-0.00699622 -0.0232679 0.0294206
-0.00898769 -0.0236685 0.0276514
0.00310432 -0.0225922 0.0374704
0.00391982 -0.0224631 0.0374879
-0.00859676 -0.0228418 0.0219298
-0.00200336 -0.0226908 0.0333367
-0.00617035 -0.0180202 0.0114907
-0.00858624 -0.0238534 0.0316353
-0.00818122 -0.023789 0.0313258
-0.00833309 -0.023842 0.0320035
-0.00737927 -0.0233113 0.0286981
-0.00700427 -0.0228795 0.0250621
9.34788e-05 -0.0232059 0.0377145
0.0119562 -0.0210911 0.0305751
-0.00891916 -0.0238384 0.0311623
-0.00903229 -0.0237538 0.0301804
0.0165867 -0.0208073 0.0259626
0.0176064 -0.020164 0.0214936
0.015074 -0.0207683 0.0218231
0.0173909 -0.0201986 0.0280475
-0.0066695 -0.0230895 0.0287345
0.00990209 -0.0212641 0.0321018
0.0102482 -0.0215122 0.0357711
-0.009241 -0.0205736 0.0131047
-0.00060998 -0.021915 0.0327516
0.00742327 -0.0219329 0.0353268
0.0173223 -0.0203085 0.0200273
0.00528757 -0.0220338 0.0347702
0.0106307 -0.0215107 0.0355498
0.00706773 -0.0219253 0.0366332
0.00731938 -0.0217081 0.0372266
0.01285 -0.0201087 0.023704
-0.0101626 -0.0222744 0.0179449
0.0127366 -0.0198683 0.0194427
-0.0113818 -0.0233575 0.0240462
0.0128904 -0.0200236 0.023265
0.0160889 -0.020539 0.031037
-0.00804324 -0.0233006 0.0262276
-0.00723438 -0.0230919 0.0266568
-0.00783368 -0.0233155 0.0271681
0.0126309 -0.0199934 0.0176126
0.00529731 -0.0211616 0.0328712
0.0179532 -0.0200751 0.0248425
-0.0103836 -0.0226352 0.0191816
-0.00121898 -0.0234201 0.037533
0.0157578 -0.0208618 0.0218274
0.0127933 -0.0198403 0.0204588
0.0128381 -0.0198274 0.021175
0.0046518 -0.0221722 0.0378843
0.00421023 -0.022239 0.0379431
0.0053517 -0.0220372 0.037767
0.00668576 -0.0218056 0.0374261
0.00824649 -0.021875 0.0353667
0.00691135 -0.0218682 0.0347093
0.00778297 -0.021788 0.0345819
0.00112362 -0.0216303 0.0332206
-0.00576564 -0.0197456 0.0179109
-0.0044718 -0.016485 0.0111798
-0.00431581 -0.0222875 0.0273628
-0.00588979 -0.0181815 0.00700668
-0.00297595 -0.0164623 0.00871252
-0.0053543 -0.0178046 0.0100539
0.00936362 -0.0206874 0.0304925
-0.00290353 -0.016578 0.00831126
-0.0110144 -0.0213132 0.0155697
-0.0103361 -0.0214676 0.0159297
-0.00972303 -0.0236294 0.0300553
0.0127041 -0.0198895 0.0188516
0.00049399 -0.0231247 0.0377881
-0.00469382 -0.0237248 0.036384
-0.00177601 -0.0220228 0.0319512
0.0177566 -0.0200576 0.026117
-0.00630822 -0.0211418 0.0201585
-0.00638619 -0.0207533 0.0190287
-0.00830755 -0.0191936 0.00969817
0.0171059 -0.0203186 0.0291135
-0.0108285 -0.0209516 0.0140436
-0.0111397 -0.0214337 0.0161515
0.0118612 -0.0214778 0.0348671
0.00366421 -0.0223067 0.0380175
0.00319974 -0.0223705 0.0380883
-0.00929116 -0.0237656 0.0306684
-0.00614179 -0.020426 0.0186254
0.0129096 -0.0199501 0.0228396
0.0153713 -0.0211316 0.030407
0.0139282 -0.0211261 0.0139239
0.0142565 -0.0209959 0.0143691
0.0126095 -0.0205683 0.0152479
0.0130535 -0.021081 0.0139546
0.0134293 -0.0212042 0.0137194
0.00911812 -0.0218402 0.0355128
3 0 1 2
3 3 4 5
3 6 7 8
3 9 10 11
3 12 13 14
3 15 16 17
3 18 19 20
3 21 22 23
3 24 22 25
3 26 27 28
3 29 27 30
3 31 32 33
3 34 35 36
3 37 38 39
3 40 41 42
3 40 43 44
3 45 46 47
3 48 49 50
3 51 52 53
3 54 55 56
3 57 55 58
3 59 60 61
3 62 63 64
3 39 65 37
3 66 65 67
3 68 69 70
3 71 72 73
3 74 75 76
3 77 78 79
3 80 81 82
3 83 84 85
3 86 87 88
3 89 90 91
3 92 93 94
3 95 96 97
3 50 49 98
3 99 100 101
3 76 102 74
3 103 104 34
3 105 106 107
3 108 109 110
3 111 108 112
3 113 114 115
3 116 117 118
3 119 120 121
3 122 123 124
3 125 126 127
3 128 129 130
3 131 132 133
3 134 132 128
3 135 136 137
3 138 139 140
3 141 142 143
3 144 145 146
3 147 11 148
3 149 150 151
3 152 153 122
3 125 154 155
3 156 157 13
3 158 159 160
3 161 105 56
3 10 148 11
3 162 163 164
3 165 136 141
3 166 167 109
3 168 169 170
3 171 172 173
3 174 175 176
3 53 52 177
3 79 178 77
3 179 32 180
3 181 182 73
3 183 154 184
3 185 186 187
3 188 189 190
3 191 192 193
3 194 192 195
3 196 197 194
3 198 77 178
3 199 31 33
3 197 200 194
3 201 202 145
3 203 204 205
3 206 100 99
3 207 208 209
3 210 156 203
3 175 211 176
3 212 213 77
3 214 215 216
3 217 218 219
3 57 220 221
3 222 223 224
3 225 151 226
3 227 163 162
3 203 228 210
3 229 230 231
3 232 5 233
3 21 169 234
3 235 236 89
3 237 236 238
3 239 240 241
3 242 243 244
3 245 246 247
3 248 249 250
3 251 165 252
3 242 253 254
3 255 256 257
3 258 259 260
3 261 262 60
3 263 264 220
3 265 126 266
3 267 268 5
3 269 208 270
3 149 271 272
3 273 274 275
3 160 276 277
3 278 279 280
3 147 281 282
3 283 271 151
3 118 117 284
3 285 286 72
3 287 288 186
3 289 290 196
3 291 290 292
3 293 294 240
3 285 51 295
3 296 297 298
3 173 172 199
3 207 299 208
3 249 300 86
3 161 106 105
3 114 301 115
3 76 75 302
3 303 75 304
3 278 305 279
3 255 47 256
3 306 307 308
3 309 17 310
3 7 311 312
3 212 77 198
3 313 314 252
3 315 316 317
3 318 201 90
3 319 18 20
3 320 229 231
3 321 322 323
3 258 324 259
3 324 258 325
3 195 258 326
3 327 80 218
3 328 296 329
3 258 192 325
3 313 165 330
3 137 252 331
3 138 257 256
3 332 211 175
3 333 334 335
3 230 30 336
3 337 338 339
3 339 338 340
3 341 338 342
3 299 207 343
3 207 344 345
3 346 335 268
3 136 165 251
3 347 348 280
3 264 349 111
3 150 226 151
3 350 351 352
3 285 295 353
3 354 122 355
3 356 206 357
3 358 359 360
3 361 362 131
3 284 363 118
3 364 365 366
3 59 367 246
3 179 368 369
3 194 370 196
3 371 372 373
3 374 280 319
3 342 375 341
3 250 330 376
3 282 377 137
3 378 379 380
3 381 382 383
3 384 385 386
3 66 93 65
3 339 387 388
3 128 130 389
3 390 197 391
3 392 336 393
3 334 394 395
3 396 397 398
3 399 222 400
3 401 402 403
3 145 404 405
3 406 241 407
3 408 321 409
3 410 300 411
3 412 316 361
3 413 414 415
3 416 296 417
3 418 290 419
3 81 331 252
3 402 401 420
3 82 81 314
3 62 421 422
3 423 337 416
3 424 425 412
3 178 426 98
3 262 61 60
3 427 428 429
3 428 430 431
3 432 328 329
3 433 411 434
3 261 435 107
3 436 437 438
3 439 216 236
3 440 441 442
3 443 444 415
3 445 58 446
3 165 376 330
3 447 46 45
3 95 448 449
3 450 85 451
3 452 453 454
3 111 455 456
3 457 458 459
3 37 93 92
3 414 460 41
3 461 438 462
3 105 107 379
3 385 463 183
3 181 73 464
3 98 198 178
3 465 466 467
3 431 468 322
3 329 296 298
3 395 469 470
3 333 471 472
3 333 473 471
3 474 391 475
3 467 140 139
3 354 476 122
3 410 86 300
3 340 341 411
3 446 115 301
3 477 24 25
3 478 366 479
3 343 480 442
3 418 292 290
3 172 481 31
3 166 160 159
3 412 482 316
3 483 475 291
3 147 484 281
3 485 287 186
3 458 486 487
3 53 488 51
3 472 489 334
3 401 490 420
3 482 491 492
3 493 157 402
3 82 314 494
3 227 495 496
3 355 408 409
3 233 5 268
3 310 17 16
3 497 498 499
3 285 72 51
3 500 501 502
3 503 504 505
3 506 507 508
3 144 509 91
3 282 281 377
3 221 220 112
3 487 510 511
3 309 310 512
3 337 339 513
3 322 514 431
3 194 195 370
3 443 215 515
3 516 435 261
3 392 517 230
3 33 364 478
3 413 518 414
3 519 520 521
3 522 498 380
3 487 440 510
3 336 30 26
3 191 325 192
3 523 117 79
3 67 15 66
3 346 44 43
3 468 524 525
3 526 451 397
3 485 438 437
3 527 85 450
3 528 147 331
3 100 1 101
3 529 530 525
3 502 190 189
3 205 482 531
3 316 482 492
3 532 533 454
3 534 535 520
3 536 478 479
3 537 55 54
3 249 313 330
3 185 422 421
3 538 539 540
3 302 217 219
3 59 541 542
3 400 63 543
3 39 544 545
3 169 21 244
3 394 334 489
3 438 461 436
3 167 260 546
3 320 547 229
3 402 420 493
3 5 311 267
3 313 249 88
3 524 468 431
3 248 250 548
3 415 549 443
3 12 225 491
3 550 551 552
3 448 95 97
3 553 515 214
3 417 554 416
3 76 555 556
3 500 189 557
3 184 558 183
3 559 560 561
3 562 449 563
3 564 174 565
3 127 407 566
3 459 567 256
3 436 568 420
3 569 570 427
3 571 422 218
3 525 447 529
3 327 119 9
3 310 16 0
3 141 572 573
3 574 575 474
3 576 359 577
3 494 556 555
3 578 579 580
3 581 41 582
3 370 289 196
3 274 405 583
3 350 584 504
3 36 585 48
3 505 504 586
3 403 402 587
3 177 235 53
3 353 179 180
3 154 125 127
3 446 301 588
3 237 238 589
3 369 509 146
3 355 122 124
3 590 591 592
3 364 366 478
3 1 0 16
3 496 163 227
3 593 136 135
3 355 564 408
3 594 248 595
3 596 378 597
3 156 13 203
3 448 425 449
3 327 598 119
3 184 154 127
3 304 559 303
3 440 442 510
3 425 448 531
3 210 228 97
3 599 600 601
3 427 602 428
3 603 492 226
3 238 236 216
3 539 354 355
3 134 604 605
3 606 134 128
3 607 280 348
3 39 545 65
3 513 416 337
3 608 391 609
3 610 611 589
3 407 294 23
3 19 345 344
3 286 73 72
3 612 58 55
3 369 613 614
3 275 615 273
3 404 583 405
3 145 405 146
3 616 124 123
3 383 382 328
3 412 361 424
3 543 580 372
3 617 318 618
3 567 139 138
3 80 82 219
3 453 619 532
3 485 64 438
3 372 371 620
3 436 461 568
3 612 537 544
3 582 621 622
3 40 582 41
3 623 624 28
3 624 623 625
3 476 152 122
3 139 465 467
3 626 366 365
3 596 537 378
3 380 379 627
3 502 189 500
3 64 63 462
3 131 133 361
3 328 417 296
3 78 628 79
3 598 422 185
3 131 629 132
3 536 467 466
3 630 180 305
3 479 631 140
3 327 218 598
3 382 632 328
3 633 634 549
3 589 634 635
3 45 636 447
3 622 633 581
3 166 109 456
3 546 109 167
3 173 637 480
3 31 481 32
3 321 323 409
3 12 491 204
3 638 639 627
3 237 589 611
3 336 640 393
3 372 399 543
3 329 298 641
3 642 643 289
3 86 410 644
3 645 570 646
3 120 119 185
3 623 647 548
3 341 434 411
3 642 289 370
3 600 477 601
3 540 29 648
3 229 354 538
3 313 252 165
3 649 156 650
3 321 514 322
3 263 57 445
3 646 441 645
3 249 248 300
3 46 524 457
3 651 440 487
3 548 647 595
3 111 112 220
3 579 561 580
3 561 652 303
3 653 189 188
3 90 144 91
3 654 655 656
3 556 644 358
3 579 578 571
3 179 614 364
3 259 247 260
3 619 453 318
3 289 419 290
3 66 94 93
3 368 179 353
3 271 620 272
3 573 655 625
3 225 12 283
3 647 28 657
3 308 646 306
3 33 32 364
3 432 329 658
3 94 103 116
3 242 293 253
3 66 17 104
3 436 659 437
3 156 649 157
3 660 98 49
3 139 511 465
3 92 70 69
3 624 661 662
3 663 497 206
3 664 516 261
3 116 103 426
3 184 24 558
3 112 108 665
3 265 406 126
3 179 364 32
3 445 446 588
3 57 56 55
3 406 398 241
3 100 666 1
3 319 20 374
3 647 657 667
3 573 625 376
3 88 494 314
3 59 542 60
3 668 242 244
3 76 358 102
3 88 87 494
3 326 158 195
3 402 649 587
3 400 462 63
3 396 669 397
3 496 670 163
3 330 250 249
3 671 560 559
3 465 510 637
3 389 254 253
3 66 15 17
3 232 3 5
3 26 30 27
3 400 222 224
3 84 562 672
3 116 92 94
3 59 673 541
3 183 463 154
3 252 137 251
3 425 674 412
3 596 545 544
3 669 396 675
3 165 141 376
3 168 212 169
3 250 625 623
3 361 133 424
3 283 222 271
3 621 653 622
3 645 651 570
3 15 67 101
3 565 569 427
3 86 644 87
3 633 622 635
3 260 247 367
3 21 668 244
3 339 340 387
3 408 564 429
3 217 302 652
3 203 205 228
3 676 83 677
3 34 36 50
3 286 464 73
3 421 64 485
3 280 374 347
3 479 140 467
3 565 174 176
3 76 302 555
3 58 38 446
3 196 291 197
3 23 566 407
3 199 536 466
3 26 28 624
3 333 472 334
3 59 61 367
3 600 558 477
3 475 391 291
3 474 475 574
3 170 169 244
3 445 588 678
3 113 115 69
3 302 219 555
3 26 640 336
3 547 152 476
3 243 242 254
3 103 98 426
3 309 104 17
3 627 379 107
3 679 280 279
3 642 370 158
3 6 311 7
3 235 91 53
3 25 660 477
3 571 62 422
3 238 215 634
3 427 570 602
3 359 410 433
3 486 458 457
3 411 433 410
3 213 212 168
3 157 493 223
3 680 160 277
3 466 637 173
3 46 447 524
3 34 309 35
3 174 616 681
3 230 336 392
3 225 283 151
3 590 667 657
3 523 79 628
3 399 271 222
3 439 235 177
3 167 166 159
3 667 388 387
3 365 364 614
3 477 660 49
3 29 591 27
3 567 459 458
3 228 448 97
3 426 79 117
3 625 250 376
3 536 199 33
3 225 226 492
3 34 50 103
3 30 648 29
3 555 82 494
3 315 361 316
3 660 234 198
3 300 594 411
3 556 494 87
3 657 28 27
3 429 514 408
3 682 445 678
3 6 557 267
3 613 146 405
3 216 496 214
3 513 339 388
3 590 592 388
3 370 195 158
3 116 70 92
3 141 573 376
3 263 445 682
3 221 665 161
3 57 263 220
3 528 331 81
3 538 540 648
3 350 352 683
3 684 685 686
3 235 89 91
3 479 467 536
3 606 128 253
3 419 289 687
3 332 307 211
3 297 513 388
3 482 205 491
3 261 106 262
3 166 456 276
3 387 594 595
3 685 641 298
3 688 362 361
3 498 522 689
3 653 621 189
3 101 67 99
3 220 264 111
3 262 110 61
3 579 652 561
3 259 245 247
3 23 668 21
3 103 50 98
3 523 284 117
3 571 218 217
3 476 354 229
3 428 431 514
3 645 440 651
3 180 32 481
3 37 115 38
3 577 433 434
3 343 345 690
3 657 27 591
3 537 54 378
3 486 430 602
3 265 675 396
3 49 48 601
3 421 485 186
3 610 635 653
3 6 267 311
3 367 247 246
3 440 645 441
3 238 216 215
3 603 317 316
3 9 119 121
3 508 507 386
3 691 287 485
3 323 658 641
3 204 203 13
3 341 340 338
3 601 585 599
3 594 387 340
3 298 297 685
3 313 88 314
3 592 591 686
3 379 54 105
3 161 665 692
3 98 660 198
3 160 166 276
3 651 486 602
3 459 256 47
3 56 221 161
3 540 686 29
3 267 44 268
3 552 352 351
3 147 148 484
3 110 262 692
3 41 581 414
3 482 412 674
3 592 686 685
3 693 455 694
3 695 696 650
3 124 564 355
3 97 697 695
3 95 698 96
3 562 676 449
3 699 84 672
3 563 700 672
3 672 700 701
3 699 672 701
3 133 605 424
3 111 456 108
3 68 70 118
3 129 128 132
3 629 129 132
3 409 539 355
3 237 611 619
3 371 702 620
3 372 560 373
3 89 619 90
3 505 508 599
3 615 703 365
3 335 233 268
3 201 617 202
3 618 318 453
3 554 423 416
3 135 137 377
3 501 500 704
3 423 705 337
3 101 16 15
3 311 5 4
3 107 435 627
3 701 604 239
3 706 471 473
3 335 346 333
3 185 421 186
3 470 334 395
3 232 233 707
3 539 684 540
3 270 308 307
3 485 437 691
3 44 708 40
3 43 42 519
3 128 389 253
3 582 40 708
3 170 243 709
3 710 707 233
3 276 456 455
3 188 190 533
3 653 635 622
3 549 415 414
3 549 634 215
3 443 549 215
3 495 553 496
3 439 496 216
3 235 439 236
3 136 251 137
3 118 70 116
3 179 369 614
3 214 515 215
3 694 111 349
3 633 635 634
3 610 589 635
3 52 670 177
3 171 319 679
3 711 464 712
3 258 260 326
3 464 286 712
3 293 668 294
3 12 204 13
3 158 160 642
3 326 167 159
3 172 679 279
3 319 171 690
3 679 319 280
3 110 692 665
3 508 386 599
3 174 681 175
3 161 692 106
3 564 124 174
3 569 565 176
3 288 187 186
3 565 429 564
3 184 127 566
3 647 623 28
3 548 595 248
3 248 594 300
3 26 624 662
3 661 624 655
3 649 402 157
3 560 372 580
3 663 597 497
3 229 538 230
3 56 105 54
3 713 393 640
3 572 141 143
3 573 656 655
3 596 544 537
3 482 674 531
3 404 145 202
3 250 623 548
3 363 68 118
3 84 676 562
3 458 487 511
3 77 213 78
3 714 160 680
3 274 273 405
3 424 700 425
3 528 327 11
3 188 532 611
3 381 383 530
3 659 436 715
3 121 716 9
3 493 568 223
3 425 531 674
3 225 492 491
3 306 211 307
3 69 68 113
3 372 620 399
3 580 561 560
3 302 303 652
3 74 717 75
3 718 206 497
3 359 358 644
3 340 411 594
3 496 439 670
3 342 338 705
3 525 524 447
3 417 328 632
3 520 460 534
3 719 257 138
3 631 719 140
3 631 479 720
3 558 600 183
3 436 420 490
3 488 509 295
3 509 368 295
3 630 285 353
3 409 684 539
3 532 454 453
3 1 666 2
3 690 171 480
3 343 690 480
3 624 625 655
3 613 405 273
3 269 209 208
3 646 569 306
3 308 441 646
3 441 308 299
3 6 8 704
3 413 415 721
3 343 207 345
3 299 308 208
3 209 344 207
3 722 551 0
3 417 632 554
3 572 656 573
3 173 480 171
3 511 139 567
3 491 205 204
3 459 47 46
3 46 457 459
3 563 425 700
3 42 41 460
3 634 589 238
3 457 430 486
3 565 427 429
3 658 322 468
3 86 88 249
3 684 409 323
3 38 612 39
3 323 641 684
3 29 686 591
3 684 641 685
3 297 388 592
3 388 667 590
3 590 657 591
3 222 14 223
3 540 684 686
3 514 429 428
3 432 658 468
3 432 383 328
3 525 383 432
3 584 586 504
3 23 294 668
3 586 506 505
3 176 306 569
3 569 646 570
3 602 570 651
3 532 188 533
3 430 457 524
3 430 428 602
3 182 723 73
3 406 407 126
3 511 567 458
3 465 511 510
3 442 637 510
3 299 343 442
3 441 299 442
3 19 18 345
3 177 670 439
3 71 73 723
3 618 453 452
3 365 273 615
3 67 65 545
3 488 91 509
3 54 379 378
3 262 106 692
3 367 546 260
3 201 145 144
3 144 90 201
3 613 369 146
3 273 614 613
3 614 273 365
3 390 391 608
3 33 478 536
3 199 172 31
3 305 481 279
3 630 305 712
3 285 630 286
3 368 353 295
3 353 180 630
3 170 244 243
3 194 200 193
3 488 53 91
3 693 276 455
3 698 676 677
3 611 610 188
3 350 683 584
3 611 532 619
3 721 415 444
3 95 449 676
3 626 365 703
3 713 640 662
3 466 173 199
3 224 568 461
3 276 693 277
3 644 556 87
3 59 246 673
3 432 468 525
3 80 219 218
3 724 711 712
3 530 383 525
3 598 185 119
3 142 141 136
3 318 617 201
3 64 462 438
3 231 230 517
3 82 555 219
3 76 556 358
3 271 399 620
3 14 222 283
3 648 230 538
3 568 224 223
3 205 531 228
3 380 639 522
3 582 708 621
3 652 579 217
3 579 571 217
3 578 580 543
3 400 224 462
3 62 578 63
3 223 14 157
3 308 270 208
3 253 293 606
3 380 627 639
3 157 14 13
3 643 687 289
3 30 230 648
3 621 557 189
3 283 12 14
3 194 193 192
3 385 183 386
3 252 314 81
3 720 479 366
3 125 155 725
3 701 239 699
3 658 323 322
3 144 146 509
3 431 430 524
3 278 712 305
3 359 644 410
3 576 360 359
3 303 302 75
3 717 304 75
3 702 272 620
3 261 107 106
3 605 700 424
3 563 449 425
3 726 650 696
3 650 726 649
3 83 676 84
3 329 641 658
3 306 176 211
3 727 587 649
3 400 543 399
3 436 490 715
3 493 420 568
3 550 552 351
3 727 649 726
3 695 650 210
3 210 97 695
3 448 228 531
3 210 650 156
3 481 305 180
3 234 660 25
3 603 316 492
3 10 9 716
3 592 685 297
3 528 11 147
3 108 110 665
3 62 571 578
3 434 341 375
3 291 391 197
3 137 331 282
3 593 142 136
3 21 234 25
3 728 713 662
3 116 426 117
3 52 71 670
3 26 662 640
3 476 229 547
3 147 282 331
3 122 153 123
3 337 705 338
3 174 124 616
3 89 237 619
3 728 662 661
3 661 655 654
3 397 669 526
3 0 551 550
3 638 627 435
3 647 667 595
3 258 195 192
3 539 538 354
3 62 64 421
3 171 679 172
3 239 604 240
3 278 607 724
3 278 724 712
3 711 181 464
3 630 712 286
3 71 164 163
3 71 723 164
3 553 214 496
3 71 52 72
3 52 51 72
3 295 51 488
3 505 585 503
3 163 670 71
3 416 513 296
3 110 546 61
3 237 89 236
3 319 690 18
3 636 529 447
3 462 224 461
3 549 414 633
3 557 621 708
3 327 528 80
3 486 651 487
3 414 518 460
3 366 626 729
3 633 414 581
3 378 380 597
3 149 151 271
3 520 42 460
3 534 460 518
3 520 519 42
3 40 42 43
3 708 44 267
3 268 44 346
3 470 335 334
3 233 335 470
3 233 470 710
3 710 470 469
3 333 346 473
3 346 43 473
3 473 43 519
3 706 473 519
3 519 521 706
3 535 521 520
3 18 690 345
3 730 264 263
3 408 514 321
3 4 312 311
3 688 361 315
3 90 619 318
3 366 729 720
3 433 577 359
3 358 360 102
3 560 671 373
3 80 528 81
3 25 22 21
3 242 668 293
3 24 566 22
3 558 24 477
3 296 513 297
3 350 731 351
3 731 512 351
3 310 0 550
3 0 2 722
3 356 666 100
3 689 499 498
3 708 267 557
3 542 664 60
3 34 104 309
3 732 733 474
3 483 734 475
3 643 642 714
3 326 159 158
3 609 474 733
3 642 160 714
3 291 196 290
3 732 474 735
3 732 735 736
3 108 456 109
3 212 234 169
3 578 543 63
3 16 101 1
3 637 442 480
3 585 36 503
3 503 731 504
3 731 503 35
3 197 390 200
3 601 48 585
3 36 35 503
3 731 35 512
3 309 512 35
3 582 622 581
3 653 188 610
3 512 550 351
3 550 512 310
3 206 356 100
3 561 303 559
3 499 718 497
3 266 126 725
3 261 60 664
3 37 69 115
3 138 140 719
3 682 730 263
3 445 57 58
3 596 663 545
3 497 597 498
3 384 386 507
3 597 663 596
3 498 597 380
3 185 187 120
3 61 546 367
3 600 386 183
3 37 92 69
3 178 79 426
3 103 94 104
3 212 198 234
3 94 66 104
3 37 65 93
3 545 99 67
3 663 99 545
3 99 663 206
3 612 55 537
3 39 612 544
3 612 38 58
3 57 221 56
3 605 701 700
3 280 607 278
3 6 500 557
3 637 466 465
3 446 38 115
3 387 595 667
3 48 50 36
3 170 709 168
3 111 694 455
3 138 256 567
3 110 109 546
3 735 474 575
3 167 326 260
3 474 609 391
3 483 291 292
3 206 718 357
3 600 599 386
3 125 725 126
3 241 398 239
3 240 604 606
3 699 737 85
3 737 397 451
3 239 398 737
3 85 737 451
3 85 84 699
3 83 85 527
3 676 698 95
3 397 737 398
3 406 396 398
3 737 699 239
3 701 605 604
3 133 134 605
3 606 604 134
3 240 606 293
3 294 241 240
3 294 407 241
3 396 406 265
3 9 11 327
3 407 127 126
3 463 155 154
3 508 505 506
3 731 350 504
3 422 598 218
3 505 599 585
3 601 477 49
3 184 566 24
3 566 23 22
3 134 133 132
3 563 672 562
3 96 697 97
3 368 509 369
3 665 221 112
3 172 279 481
3 475 734 574
3 704 500 6
