ply
format ascii 1.0
comment Created by Open3D
element vertex 717
property double x
property double y
property double z
element face 1273
property list uchar uint vertex_indices
end_header
0.0221515 -0.0204618 -0.0149805
0.0223097 -0.0205492 -0.014295
0.0215557 -0.0203111 -0.0143611
0.0211362 -0.0200294 -0.0136291
0.0215797 -0.0201358 -0.0129237
0.0208181 -0.0197437 -0.0127341
0.0214802 -0.0199801 -0.0121582
0.0221192 -0.0202928 -0.0123608
-0.00745922 -0.0251135 -0.027968
-0.00755571 -0.0248948 -0.0286022
-0.00672478 -0.025247 -0.0281086
-0.0132896 -0.0239423 -0.0122661
-0.0142108 -0.0241417 -0.0123173
-0.0136057 -0.0242297 -0.0130411
0.0204677 -0.0194024 -0.00982355
0.0201502 -0.0193355 -0.0106631
0.0211233 -0.0196605 -0.0105447
-0.00853468 -0.0200078 -0.00583132
-0.00847507 -0.0197821 -0.00474717
-0.00893655 -0.0201033 -0.00509216
-0.0131776 -0.0243642 -0.0137296
-0.0123397 -0.0242281 -0.0136611
-0.0127906 -0.0240719 -0.0129648
-0.0126453 -0.0230732 -0.00943514
-0.01371 -0.0234015 -0.00939065
-0.0131599 -0.0233559 -0.0101405
-0.0106527 -0.0248475 -0.0176467
-0.0101493 -0.0246528 -0.0170501
-0.0108343 -0.0247289 -0.0168146
0.00906893 -0.0222092 -0.0255625
0.00914205 -0.0220968 -0.0247461
0.00831229 -0.0222877 -0.025051
-0.0127594 -0.0245183 -0.0144409
-0.01311 -0.0247368 -0.0151939
-0.0122843 -0.0246291 -0.0151295
-0.0141615 -0.0232071 -0.00777077
-0.0150413 -0.0232869 -0.00787644
-0.0146834 -0.0234311 -0.00840158
-0.0164667 -0.0247647 -0.0144725
-0.0171969 -0.0247715 -0.0146798
-0.0172145 -0.0248947 -0.0153093
-0.00984266 -0.0247758 -0.0177414
-0.00897419 -0.0246892 -0.0178026
-0.00940533 -0.0245052 -0.0169936
0.0198933 -0.0191874 -0.00920311
0.0207198 -0.0193398 -0.00892997
0.02012 -0.019105 -0.0082424
0.0195262 -0.0206258 -0.0180411
0.0188563 -0.0201785 -0.0175347
0.0187461 -0.020469 -0.0183531
-0.0155429 -0.0248157 -0.0147091
-0.0157541 -0.0246666 -0.0138202
-0.00702495 -0.0252922 -0.0273352
-0.00617244 -0.0252572 -0.0273436
-0.00662542 -0.0252508 -0.026505
-0.0118979 -0.0243888 -0.014374
-0.01147 -0.0245161 -0.015125
-0.0110812 -0.02426 -0.0143295
-0.0146612 -0.0235697 -0.00907654
-0.0146302 -0.0236873 -0.00985295
0.020962 -0.0191317 -0.0079977
0.0215632 -0.0194103 -0.00874278
0.0216843 -0.0192102 -0.00803167
-0.00853148 -0.0243163 -0.017091
-0.00808675 -0.0252913 -0.0233493
-0.00881945 -0.0254231 -0.0238631
-0.0078081 -0.0253231 -0.0242595
0.0133965 -0.0211365 -0.0222718
0.0126573 -0.0210888 -0.0221319
0.0128164 -0.0213085 -0.022839
-0.0137465 -0.0238377 -0.0115394
-0.0140606 -0.0237638 -0.0109203
-0.014513 -0.0239609 -0.0114219
0.0196517 -0.0197926 -0.0154938
0.0201548 -0.0201601 -0.0159491
0.0204066 -0.0200721 -0.0152656
-0.0106297 -0.0243698 -0.0151253
-0.00254434 -0.0246599 -0.0295363
-0.00250054 -0.0247704 -0.0287004
-0.00330118 -0.0247928 -0.0294591
0.000278003 -0.0233669 -0.0246876
-0.000318907 -0.0235233 -0.0244471
0.000346754 -0.0235195 -0.0251702
-0.00111448 -0.0244649 -0.0275275
-0.00183225 -0.0245319 -0.0272326
-0.00177051 -0.0246767 -0.0280726
-0.0112423 -0.0222238 -0.00803999
-0.0118935 -0.0224178 -0.00758654
-0.0118152 -0.0225614 -0.00839592
-0.012518 -0.0226732 -0.00733555
-0.0121494 -0.0223065 -0.00665899
0.020605 -0.0195438 -0.0113283
0.0202939 -0.0194572 -0.0120679
0.0209072 -0.0197151 -0.0119196
0.00584482 -0.0229593 -0.0285774
0.00567332 -0.0228653 -0.0292284
0.00636689 -0.0226828 -0.0290533
-0.000412392 -0.0237853 -0.0253442
-0.00129274 -0.0241267 -0.0256246
-0.000442089 -0.0240539 -0.0262309
-0.0108799 -0.0256715 -0.0250633
-0.0110771 -0.025705 -0.0244354
-0.0115734 -0.0256863 -0.0250137
-0.01382 -0.0256093 -0.0228029
-0.0143334 -0.0256543 -0.022002
-0.0147726 -0.0254373 -0.0226792
-0.00984191 -0.0218131 -0.00895994
-0.0101508 -0.0216964 -0.00816504
-0.0106133 -0.0220663 -0.00853712
-0.0080837 -0.0244984 -0.0178348
-0.00772723 -0.0240859 -0.0171716
-0.00480505 -0.0244149 -0.0227554
-0.0051705 -0.0246708 -0.0235398
-0.00430471 -0.0244009 -0.0234126
0.0100909 -0.0218911 -0.0281435
0.00960292 -0.0222551 -0.0276686
0.00930673 -0.0219541 -0.0284868
-0.00855233 -0.0248324 -0.0187726
-0.00951525 -0.0249301 -0.0185636
0.0110584 -0.0219763 -0.0249813
0.0110434 -0.0217685 -0.0242659
0.0101501 -0.0218837 -0.0244476
-0.0129763 -0.0236463 -0.011515
-0.0124671 -0.0237516 -0.0121921
-0.0121927 -0.0234403 -0.0114405
-0.0091218 -0.0216811 -0.00970396
-0.00988488 -0.0221356 -0.00986738
-0.00928939 -0.0219929 -0.0103908
0.017601 -0.0210475 -0.0206433
0.0174938 -0.0212883 -0.0215164
0.0186017 -0.0212569 -0.0212534
0.00497481 -0.0226277 -0.0248245
0.00412082 -0.0226323 -0.0243492
0.00416511 -0.0228681 -0.025141
-0.0139084 -0.0250893 -0.0165469
-0.0142893 -0.0249641 -0.015833
-0.0147864 -0.025111 -0.0167084
-0.0137305 -0.0229804 -0.0071057
-0.014492 -0.0230121 -0.00706916
-0.0111375 -0.0255311 -0.0256506
-0.0103012 -0.0256225 -0.0254544
-0.0133296 -0.0221768 -0.00570942
-0.0138525 -0.0226129 -0.006233
-0.0129002 -0.0222979 -0.00602089
0.00670881 -0.0226722 -0.0257013
0.0075068 -0.022464 -0.0253599
0.00663635 -0.0224106 -0.0248585
0.0220991 -0.0201909 -0.0116635
0.022793 -0.0204695 -0.0119038
0.0229233 -0.0203798 -0.0112909
0.0138493 -0.0218104 -0.0239365
0.0130171 -0.0216132 -0.0236371
0.0131369 -0.0219329 -0.0244204
-0.0143601 -0.024394 -0.0132029
-0.013874 -0.0244482 -0.0136975
-0.0114611 -0.0217907 -0.00623287
-0.0113305 -0.0220391 -0.00715353
-0.0107164 -0.0216041 -0.00681152
-0.012065 -0.0251167 -0.0180509
-0.011453 -0.0249418 -0.017469
-0.0122579 -0.0250257 -0.0172412
-0.00395007 -0.0247686 -0.0254367
-0.00473398 -0.024828 -0.0249558
-0.00481303 -0.0249985 -0.0258486
-0.00688386 -0.0251691 -0.0242316
-0.00716157 -0.0251663 -0.023533
-0.0144764 -0.0246012 -0.0139688
-0.0146131 -0.0247974 -0.0148549
-0.0137185 -0.0246274 -0.0144668
0.0143705 -0.0212452 -0.0224011
0.0150653 -0.0211896 -0.0220589
0.0146239 -0.020948 -0.0216103
0.00736963 -0.0218947 -0.023632
0.00654336 -0.022046 -0.0238632
0.00745314 -0.0222397 -0.024491
0.0034087 -0.0237202 -0.0279113
0.00269488 -0.0238655 -0.0283411
0.00347911 -0.0237507 -0.0288226
0.0213689 -0.0198423 -0.0114069
0.0121638 -0.0209324 -0.021529
0.0125561 -0.0206601 -0.020794
0.0115944 -0.0206017 -0.0206282
-0.0127547 -0.0256311 -0.0242767
-0.0136655 -0.0254205 -0.0242794
-0.012911 -0.0253886 -0.0250388
-0.0130362 -0.0230886 -0.00860968
-0.0138957 -0.0233285 -0.00848669
0.0083286 -0.0220934 -0.0242162
-0.00912634 -0.0212258 -0.00889777
-0.00951754 -0.0212447 -0.00809914
-0.0106763 -0.0218526 -0.00768827
-0.00984784 -0.0253575 -0.0267659
-0.00931275 -0.0252389 -0.0272622
-0.00903341 -0.0253988 -0.0267036
0.00504969 -0.0230964 -0.0264499
0.00502884 -0.0228627 -0.0256226
0.00420269 -0.0230934 -0.0259464
-0.01465 -0.0238227 -0.0106335
0.0140317 -0.0196257 -0.0182058
0.0150162 -0.0196258 -0.017806
0.0145168 -0.0193391 -0.0175458
0.00583865 -0.0226335 -0.0252646
0.00574928 -0.0223875 -0.0244692
0.0153132 -0.0209858 -0.0214983
0.0157436 -0.0212808 -0.022027
-0.0138429 -0.0248298 -0.0152733
-0.0133458 -0.0249387 -0.0160103
0.0142606 -0.020689 -0.020929
0.0149051 -0.0207725 -0.0210642
0.0148359 -0.0205319 -0.020412
-0.015761 -0.0244254 -0.0127692
-0.0149056 -0.0243489 -0.0127465
-0.0151089 -0.0241877 -0.0120222
-0.00793043 -0.0247756 -0.0195435
-0.00725302 -0.0245772 -0.0194724
-0.00763186 -0.0245634 -0.0186995
0.00527394 -0.0231466 -0.0286846
0.00554398 -0.0231562 -0.0279457
0.00629357 -0.022906 -0.0280325
0.0165875 -0.0193135 -0.0163174
0.0174246 -0.0195106 -0.0167157
0.0174485 -0.0192675 -0.0159105
-0.00578171 -0.0252205 -0.0282646
-0.00528083 -0.0252005 -0.0273965
0.019821 -0.0192345 -0.011473
0.000332276 -0.0237816 -0.0259376
-0.0150746 -0.0245324 -0.0134389
-0.0154074 -0.0253087 -0.0190636
-0.0149068 -0.0254925 -0.019866
-0.0144787 -0.025495 -0.0191726
-0.00638724 -0.0249435 -0.0289534
0.0218558 -0.0203253 -0.0136448
0.0224237 -0.020626 -0.0135969
0.00920451 -0.0213637 -0.0224117
0.00923375 -0.0216575 -0.0231563
0.010005 -0.0214763 -0.0227427
0.0173114 -0.0215199 -0.0221875
0.0179699 -0.021428 -0.0221666
-0.00705649 -0.0252425 -0.024951
-0.00790725 -0.0253733 -0.0251829
-0.0123602 -0.0257457 -0.0235741
-0.0119076 -0.0257526 -0.0242872
-0.0112097 -0.0224224 -0.00887765
-0.00529058 -0.0244502 -0.0220844
-0.00576851 -0.024475 -0.0213643
-0.00608726 -0.0247323 -0.0221179
0.0110029 -0.0219109 -0.02767
0.0103991 -0.0221947 -0.0272549
-0.00892354 -0.0206424 -0.00769017
-0.00941923 -0.0209314 -0.00714919
-0.0100124 -0.0244088 -0.0160857
-0.00892543 -0.0241622 -0.0163233
-0.00918209 -0.0239796 -0.0155086
0.0172701 -0.0202226 -0.018752
0.0177836 -0.0205721 -0.0193368
0.01801 -0.0203416 -0.0186024
-0.0087244 -0.0251026 -0.0210365
-0.00791248 -0.0249505 -0.0211345
-0.00825376 -0.0249366 -0.0203356
0.0213315 -0.0195804 -0.00958717
-0.0127144 -0.0233802 -0.0108059
-0.00623107 -0.0250811 -0.024691
-0.00636794 -0.0251801 -0.0255923
-0.00552923 -0.0250284 -0.0252993
0.0225036 -0.0195602 -0.00852596
0.0221368 -0.0197396 -0.00935113
0.00336057 -0.0231061 -0.0254462
0.00844377 -0.0218061 -0.0235215
0.00921201 -0.0219152 -0.023923
0.0102937 -0.0210186 -0.0216217
0.0108804 -0.021327 -0.0224744
0.0112889 -0.021018 -0.0216528
0.0203946 -0.0210097 -0.0187808
0.0193769 -0.0208317 -0.0189217
0.0199571 -0.0210682 -0.0194621
-0.00827647 -0.0252075 -0.0225501
-0.00766704 -0.0250399 -0.0219445
-0.00844888 -0.0251287 -0.0217819
-0.0068662 -0.024935 -0.0220806
-0.00743869 -0.0251328 -0.0227318
-0.000919843 -0.0245617 -0.0289817
-0.000694458 -0.024293 -0.0296427
-0.000242189 -0.0243972 -0.0290812
-0.00982214 -0.0241542 -0.0150048
0.0175699 -0.018189 -0.0127391
0.0184255 -0.0186592 -0.0126803
0.0180324 -0.0182359 -0.011844
-0.00935546 -0.0206557 -0.00622824
-0.00874123 -0.0203478 -0.0069235
-0.0120698 -0.0209083 -0.00440233
-0.0109559 -0.0205907 -0.00419373
-0.0114091 -0.0205187 -0.0037422
0.0112357 -0.0222287 -0.0268751
-0.00419829 -0.024949 -0.0264092
0.0202954 -0.020749 -0.0175816
-0.0104981 -0.0254544 -0.0262035
-0.0114347 -0.0252475 -0.0263393
-0.0107358 -0.0251969 -0.0269497
-0.0100021 -0.0251349 -0.0274735
-0.0128754 -0.0256884 -0.022845
-0.0133995 -0.0257002 -0.0220949
0.0209554 -0.020426 -0.016046
0.020268 -0.0204559 -0.0166601
0.0230491 -0.0201742 -0.0102497
0.0224862 -0.0200983 -0.0104971
0.0219905 -0.0200147 -0.0109181
0.0219351 -0.0198666 -0.0101305
-0.0169474 -0.0242844 -0.0122196
-0.0165106 -0.0245708 -0.0134256
0.00754484 -0.0225868 -0.0261847
0.00677201 -0.0228033 -0.0265577
0.00755489 -0.0226295 -0.0269675
-0.0160025 -0.0252 -0.0199288
-0.0151496 -0.0254693 -0.0204902
-0.00959666 -0.023846 -0.014284
-0.00926432 -0.0238064 -0.0148269
-0.0090023 -0.0234727 -0.0143264
-0.0101216 -0.0202321 -0.0038418
-0.00931945 -0.0201305 -0.00449169
-0.00937617 -0.0199615 -0.00376331
-0.00905075 -0.0249993 -0.0279813
-0.00861659 -0.0252396 -0.0274069
0.00414417 -0.0234872 -0.0275651
0.00479627 -0.0233843 -0.0281078
0.00496321 -0.0232818 -0.0272924
0.00830447 -0.0224551 -0.0266673
-0.0112254 -0.0226409 -0.00968324
-0.0118548 -0.0227402 -0.00917045
-0.0106383 -0.0232553 -0.0120042
-0.00987018 -0.0230404 -0.0122508
-0.00978743 -0.022688 -0.0117133
-0.000318162 -0.0244377 -0.028413
-0.00103606 -0.0245782 -0.0282753
-0.0119655 -0.0239075 -0.0128718
0.0212536 -0.0203557 -0.0151431
0.0218544 -0.0205097 -0.0157855
-0.00663911 -0.0241216 -0.0184111
-0.00720651 -0.0241363 -0.0177375
-0.00687463 -0.0243351 -0.0189185
-0.00344156 -0.0247632 -0.0261884
-0.0171773 -0.0244674 -0.0132973
-0.0132947 -0.0256399 -0.0235714
0.0221224 -0.0203976 -0.0130104
-0.0049725 -0.0241803 -0.021352
-0.00907453 -0.0197528 -0.0033917
-0.00967171 -0.019866 -0.00314617
-0.00996895 -0.0237569 -0.0135996
-0.0103296 -0.0235166 -0.0128736
-0.0107073 -0.0239483 -0.0135567
0.0189012 -0.0198803 -0.0167048
0.0195711 -0.0203069 -0.0171366
0.0195831 -0.0200113 -0.0163025
-0.0139458 -0.0236019 -0.0102722
-0.0134358 -0.0235908 -0.0108478
0.0177277 -0.0187838 -0.0142654
0.0180187 -0.0186074 -0.0134743
0.0171689 -0.0182099 -0.0136687
0.000112792 -0.0241246 -0.0296596
-0.0105516 -0.0222955 -0.00936707
-0.00994742 -0.0223744 -0.010531
0.00189107 -0.0239471 -0.0278469
0.00264358 -0.0237484 -0.0274493
0.00283185 -0.023743 -0.0292582
0.00191744 -0.0239889 -0.0289075
0.00988878 -0.0217419 -0.0235294
0.0107271 -0.0216262 -0.023487
0.0136975 -0.021455 -0.0230917
0.0225189 -0.0199636 -0.00989733
0.0189824 -0.0188579 -0.0118045
0.019322 -0.0189596 -0.0108236
0.0185891 -0.0184175 -0.0108613
-0.0111225 -0.0237498 -0.0128059
0.00832107 -0.0223946 -0.0258778
-0.00615847 -0.0249726 -0.0237213
-0.0116221 -0.023556 -0.0120957
-0.0113588 -0.0231959 -0.0113048
-0.00117424 -0.0242907 -0.0266754
-0.0172487 -0.024627 -0.0140051
-0.0169219 -0.02465 -0.0139782
-0.0142331 -0.0254402 -0.023547
-0.00965541 -0.0233502 -0.0130285
-0.0156972 -0.0236224 -0.0088165
-0.0153365 -0.0237623 -0.00954634
-0.0113973 -0.0255845 -0.0219969
-0.0104888 -0.0255287 -0.022346
-0.0104814 -0.0254487 -0.0215029
-0.00540832 -0.0248832 -0.024387
-0.00460106 -0.0246475 -0.0241579
0.0131943 -0.0200525 -0.0192427
0.0140943 -0.0200144 -0.0190807
0.0136201 -0.0198517 -0.0187492
-0.0153819 -0.0238945 -0.010282
0.018763 -0.0189563 -0.0134539
-0.0159845 -0.024185 -0.011731
0.0010005 -0.0240347 -0.0291287
0.00110535 -0.0241471 -0.0282321
0.000337088 -0.0242277 -0.0286867
0.00161877 -0.0238048 -0.0297172
-0.00905231 -0.0208977 -0.00825552
-0.0140224 -0.0254204 -0.0185266
-0.0143777 -0.0252877 -0.0177187
-0.014873 -0.0253393 -0.0183804
-0.00950601 -0.0255159 -0.0259772
-0.0086921 -0.025444 -0.0261548
0.0150748 -0.0190008 -0.0167799
-0.0104398 -0.0227962 -0.0110498
0.00880972 -0.0223384 -0.027953
0.00796737 -0.0225186 -0.0281459
0.00852997 -0.0221115 -0.0287207
0.0149093 -0.0199452 -0.0186964
-0.00834868 -0.0237014 -0.0158593
-0.00867443 -0.0235385 -0.0150117
0.00593466 -0.0230232 -0.0270918
0.0058993 -0.0228652 -0.0261029
-0.0140003 -0.0256189 -0.0199214
-0.0136327 -0.0254901 -0.0192592
-0.0100702 -0.0214246 -0.00741338
-0.0115123 -0.0240867 -0.0135833
0.00409362 -0.0236078 -0.0283806
0.0115809 -0.0219472 -0.0273802
0.012187 -0.0219677 -0.0271618
-0.0161101 -0.0249016 -0.0153852
0.0181432 -0.0200841 -0.0178718
0.00109838 -0.0240095 -0.0273114
0.000255756 -0.024252 -0.027733
0.0018674 -0.0237783 -0.0269685
-0.00427527 -0.0249324 -0.0293398
-0.00384976 -0.0249966 -0.0287241
-0.00469209 -0.0251754 -0.0283273
-0.0157646 -0.0249902 -0.0162335
-0.0151781 -0.024935 -0.0156198
0.0182976 -0.0209852 -0.0200881
-0.0101267 -0.0208763 -0.00562006
-0.0100558 -0.0211634 -0.00651587
0.0138406 -0.0209112 -0.0216019
-0.0119936 -0.0231672 -0.0107043
-0.0124927 -0.0231662 -0.0102037
-0.0121382 -0.0253229 -0.0257089
-0.0122842 -0.0256142 -0.0248712
-0.00172941 -0.0247055 -0.028888
-0.00169844 -0.0244977 -0.0296021
-0.0031058 -0.0247561 -0.0267598
-0.00370148 -0.024919 -0.0270221
-0.00445496 -0.0241702 -0.0221084
-0.0117872 -0.0254461 -0.0205114
-0.0126315 -0.02554 -0.0206287
-0.0120806 -0.0255695 -0.021294
-0.0126167 -0.0248065 -0.015733
0.0175292 -0.0207488 -0.0199474
0.0169228 -0.0207133 -0.0202164
0.00406366 -0.0235103 -0.0291175
0.00371414 -0.0234009 -0.0298403
0.00443411 -0.0232596 -0.0296621
-0.0106518 -0.0252524 -0.0198732
-0.0109595 -0.025144 -0.0191107
-0.0114461 -0.0253031 -0.0197896
0.0146111 -0.0219132 -0.0243582
0.0154373 -0.0218379 -0.0241654
0.0147088 -0.0216913 -0.0234193
0.00971462 -0.0220528 -0.0252469
0.0104014 -0.0220716 -0.025476
-0.00314563 -0.0239888 -0.0230731
-0.00344128 -0.0241732 -0.0234282
-0.00238383 -0.0238639 -0.0234478
0.0104637 -0.0222664 -0.0263586
-0.00314859 -0.0248369 -0.0274921
-0.00253516 -0.0246349 -0.0269646
-0.00865499 -0.0197161 -0.00393059
-0.0101645 -0.0205662 -0.00474761
0.00755065 -0.0226431 -0.0276187
0.00822166 -0.0225201 -0.0274169
0.00339849 -0.0235337 -0.0270837
0.00262361 -0.0235565 -0.0266234
0.018333 -0.0190864 -0.0146912
0.0183742 -0.0189323 -0.0140164
0.0181808 -0.0197953 -0.0171038
0.0182092 -0.0195162 -0.0163036
-0.014385 -0.0256438 -0.0205896
0.0151837 -0.0218086 -0.0247571
0.0153191 -0.0215484 -0.0252566
0.0158661 -0.0216491 -0.0247611
-0.0109236 -0.0202771 -0.00337737
-0.010387 -0.0249694 -0.018441
-0.0112449 -0.0250375 -0.0183
0.00109999 -0.0238119 -0.0264578
0.000322906 -0.0240354 -0.0267766
-0.0129129 -0.021711 -0.00532101
-0.0122569 -0.021831 -0.00571392
-0.0125401 -0.0212859 -0.00492691
0.0131838 -0.0221574 -0.0252442
0.0124629 -0.0220489 -0.024879
0.0125049 -0.0222469 -0.0256838
-0.00721356 -0.0252958 -0.0257912
-0.00565655 -0.0251613 -0.0263749
0.0152826 -0.0214852 -0.0226644
-0.0111071 -0.025364 -0.0203779
-0.0112166 -0.025464 -0.0210624
-0.00958708 -0.02554 -0.0242952
-0.0103003 -0.025638 -0.0247134
-0.00951998 -0.0255582 -0.0250974
0.013427 -0.0206633 -0.0208289
-0.0156474 -0.0253169 -0.0208502
0.00906393 -0.0223207 -0.0263568
0.0198114 -0.0196041 -0.0145286
-0.0109802 -0.0209617 -0.00502892
0.0207355 -0.0200035 -0.0144356
-0.0133376 -0.0253835 -0.0186871
-0.00967522 -0.0255029 -0.0235015
0.0170539 -0.0204489 -0.0194826
0.0161968 -0.0207024 -0.0205201
0.0160374 -0.021014 -0.0213007
0.0168177 -0.0210283 -0.0210045
0.0196491 -0.0191966 -0.0121874
-0.0015905 -0.023742 -0.0238099
-0.0023013 -0.024084 -0.0241245
-0.014794 -0.0255895 -0.0211831
0.0215664 -0.0206328 -0.0164314
-0.013934 -0.0252045 -0.0171866
-0.0134706 -0.0252823 -0.0179147
-0.0131586 -0.0251059 -0.0170155
0.0190294 -0.0211833 -0.0206648
-0.00389701 -0.0240999 -0.0225769
0.0169046 -0.0187072 -0.014724
0.0175532 -0.0190424 -0.0150951
-0.0110808 -0.0246221 -0.0159445
-0.00872743 -0.0254581 -0.0246918
0.0196243 -0.0191148 -0.0100081
-0.0127427 -0.0251702 -0.0177464
-0.00487648 -0.0251016 -0.0266721
-0.00384098 -0.0250216 -0.0279167
-0.00318023 -0.0249132 -0.028375
0.0121964 -0.0204102 -0.0201479
-0.0108199 -0.0213324 -0.00590406
0.02295 -0.0198922 -0.00925805
0.00463005 -0.0233656 -0.0288933
0.0212635 -0.0207735 -0.0170587
0.0119166 -0.0222907 -0.0262353
-0.0124795 -0.0249252 -0.0164259
-0.0095543 -0.0223157 -0.011088
0.0161133 -0.0215877 -0.0226616
0.0164385 -0.0217834 -0.0232765
0.0168602 -0.0216645 -0.0226967
0.0157245 -0.0217627 -0.023416
0.00852694 -0.0215726 -0.0228884
0.0166504 -0.0195755 -0.0171272
0.0189484 -0.0196132 -0.0158868
0.0182608 -0.0192906 -0.015489
0.00327952 -0.0228715 -0.0246407
-0.00183544 -0.0241291 -0.0247112
-0.0022216 -0.0243822 -0.0254795
-0.00973612 -0.0253733 -0.0219249
-0.00962313 -0.0252715 -0.0210169
-0.00826089 -0.0253502 -0.026696
0.00506953 -0.0230698 -0.029426
-0.0162286 -0.0239682 -0.00970862
-0.0160334 -0.0240897 -0.0108158
0.0199757 -0.0193782 -0.0128277
0.0192197 -0.0190489 -0.01276
0.00976907 -0.0221893 -0.0259791
-0.00801852 -0.0253833 -0.0259738
-0.00871485 -0.0254719 -0.0254984
0.0139493 -0.0203841 -0.0200204
0.0148389 -0.0202558 -0.0195711
0.00291416 -0.0235391 -0.0298592
0.0154819 -0.0207254 -0.0208177
0.00709676 -0.0226709 -0.0281872
-0.00821841 -0.0249147 -0.0283535
-0.0078287 -0.0252955 -0.0274037
-0.00930483 -0.0234426 -0.0137432
0.015779 -0.0199107 -0.0183468
-0.00655301 -0.0244175 -0.0198693
-0.0102997 -0.0241037 -0.0143011
0.00794677 -0.0217425 -0.0232788
0.011582 -0.0216326 -0.0238438
0.0191251 -0.018863 -0.00940569
0.0166281 -0.0213769 -0.0219011
0.00687659 -0.0228024 -0.0273974
0.00899118 -0.0223701 -0.0271499
0.00974903 -0.0222979 -0.0267996
-0.00249082 -0.0247457 -0.0278125
0.001103 -0.0235526 -0.0256684
0.00111897 -0.0231971 -0.0249087
-0.00940856 -0.0204114 -0.00532933
-0.0156358 -0.0250638 -0.016948
-0.0152318 -0.0251871 -0.0175749
-0.00194659 -0.0244189 -0.0263457
-0.00410317 -0.0246485 -0.0246475
-0.00382382 -0.0244412 -0.0240534
0.0121927 -0.0214773 -0.0233602
0.0123594 -0.0217586 -0.0241245
0.0146222 -0.0218224 -0.0251439
0.0195236 -0.0192843 -0.0135738
-0.0127331 -0.0252696 -0.0184493
-0.0164296 -0.0250602 -0.018785
-0.00301448 -0.02424 -0.0240599
0.0189849 -0.0191872 -0.01422
-0.00860523 -0.0249585 -0.0196662
-0.0160953 -0.0250486 -0.0174629
-0.0167503 -0.0249835 -0.0180013
-0.0157758 -0.0251567 -0.0182184
-0.012351 -0.0228413 -0.00870979
0.0141308 -0.0215672 -0.0263836
0.0139243 -0.0219144 -0.0257819
0.0135578 -0.0217456 -0.0267652
-0.0105567 -0.0225384 -0.0101817
-0.00342008 -0.0245117 -0.0247033
-0.0116612 -0.0248441 -0.0166401
-0.0103635 -0.0200564 -0.00314513
0.015845 -0.0196027 -0.017445
0.0055651 -0.0222302 -0.0239141
0.00491951 -0.0224052 -0.0240696
0.01556 -0.020446 -0.0200453
0.015655 -0.020175 -0.0192153
-0.000504368 -0.0244253 -0.0277992
-0.0104714 -0.0255923 -0.02314
-0.0111318 -0.025637 -0.0227808
-0.0113391 -0.025717 -0.0235717
0.0130043 -0.0204085 -0.0201184
0.0164752 -0.0201578 -0.0189238
0.0163174 -0.0204131 -0.0197321
-0.00894894 -0.0253618 -0.0230601
0.0191012 -0.0210428 -0.0197299
0.0185441 -0.0207291 -0.0191629
-0.00733826 -0.0247077 -0.0203515
-0.00709277 -0.0248294 -0.0213052
-0.00642913 -0.0245544 -0.0207913
0.0159277 -0.0185937 -0.0153186
0.0155463 -0.0187412 -0.0159931
0.0166476 -0.0190011 -0.0155372
0.016506 -0.0183938 -0.0145803
-0.0027007 -0.0245925 -0.0261739
-0.0165635 -0.0241469 -0.0106504
-0.016752 -0.0242014 -0.0113614
-0.013903 -0.0257032 -0.0213365
-0.0112569 -0.0228826 -0.0104925
0.0117265 -0.021883 -0.0245691
-0.00304292 -0.0245679 -0.0254276
0.019447 -0.0211305 -0.0201195
-0.0152871 -0.0240256 -0.0111498
-0.0054805 -0.0241432 -0.0203562
-0.0119298 -0.0256997 -0.0228255
-0.00905023 -0.0251047 -0.0202639
-0.00927193 -0.0250612 -0.0194273
-0.00985481 -0.0252213 -0.0200784
-0.0104187 -0.0256286 -0.0239391
-0.0119367 -0.0252295 -0.0189829
-0.0131443 -0.0255152 -0.0199465
0.00185858 -0.0235859 -0.0261539
0.0018472 -0.0233339 -0.0253979
-0.00444235 -0.0250823 -0.0273109
0.0119276 -0.0212335 -0.0224584
-0.000429873 -0.0242741 -0.0271073
0.012999 -0.0208988 -0.0215253
-0.0128402 -0.0253848 -0.0192164
-0.0165358 -0.0249467 -0.0159757
-0.0163775 -0.0249847 -0.0167036
0.0125408 -0.0221549 -0.0264442
0.012927 -0.0219145 -0.0269794
0.0131335 -0.022097 -0.026163
0.00419578 -0.0233096 -0.026753
0.00339542 -0.0233294 -0.0262736
-0.00746754 -0.0253244 -0.0266115
0.0190144 -0.0193955 -0.0150509
-0.00567902 -0.0247098 -0.0228393
0.00251257 -0.0230673 -0.0248714
0.00188738 -0.0231589 -0.024975
-0.0151084 -0.0247034 -0.014149
-0.0119186 -0.0229323 -0.00995077
0.0139108 -0.0220227 -0.0247922
0.0118115 -0.0221547 -0.0253387
0.0167223 -0.0198879 -0.0180345
0.0203326 -0.019657 -0.0136273
-0.00903924 -0.025288 -0.0222937
0.0175324 -0.0200459 -0.0181489
-0.00972903 -0.0254476 -0.0227165
0.0189207 -0.0186491 -0.0101014
-0.0170185 -0.0249318 -0.0172205
0.0108414 -0.0208428 -0.0212112
-0.00810725 -0.0238979 -0.0165571
0.0114651 -0.0214572 -0.0231444
-0.01048 -0.0253475 -0.0206515
-0.0122889 -0.0253996 -0.0198615
-0.0172314 -0.0249233 -0.0161741
-0.0152454 -0.0254026 -0.0217679
-0.0101046 -0.0251104 -0.0192466
0.011157 -0.0222074 -0.0258579
-0.00910451 -0.0252332 -0.0216242
0.0174522 -0.0197874 -0.0175015
0.00226104 -0.0236679 -0.0297896
-0.00532487 -0.0250015 -0.029183
0.0226646 -0.0205596 -0.0125159
0.00259956 -0.0233451 -0.0257986
-0.0124502 -0.0256666 -0.0220916
-0.0129997 -0.0256453 -0.0213739
-0.0119145 -0.0247422 -0.0158434
-0.00104604 -0.0238586 -0.0246662
0.0147094 -0.0214861 -0.0258358
-0.0132233 -0.0230252 -0.00771812
-0.00656028 -0.0249731 -0.0228408
0.0159074 -0.019296 -0.0167235
-0.00601975 -0.0241149 -0.0193338
-0.00643129 -0.0247228 -0.0215261
-0.00263281 -0.0243402 -0.0247227
-0.0130218 -0.0227376 -0.00680209
0.0193776 -0.0190045 -0.00881346
0.000895939 -0.0239596 -0.0296708
-0.01245 -0.0227733 -0.00803807
-0.011675 -0.0214057 -0.0053235
0.0163965 -0.0217274 -0.0242507
0.0097769 -0.0211833 -0.0219989
0.0208768 -0.0209133 -0.0178413
-0.013509 -0.0256259 -0.020656
0.0127325 -0.0202324 -0.0196933
0.0171238 -0.0217434 -0.0234432
0.00749776 -0.0224185 -0.0288938
0.017552 -0.0216111 -0.022818
-0.000902998 -0.023647 -0.0241453
3 0 1 2
3 3 4 5
3 6 4 7
3 8 9 10
3 11 12 13
3 14 15 16
3 17 18 19
3 20 21 22
3 23 24 25
3 26 27 28
3 29 30 31
3 32 33 34
3 35 36 37
3 38 39 40
3 41 42 43
3 44 45 46
3 47 48 49
3 38 50 51
3 52 53 54
3 55 56 57
3 24 58 59
3 60 61 62
3 42 63 43
3 64 65 66
3 67 68 69
3 70 71 72
3 73 74 75
3 57 56 76
3 77 78 79
3 80 81 82
3 83 84 85
3 86 87 88
3 89 87 90
3 91 92 93
3 94 95 96
3 97 98 99
3 100 101 102
3 103 104 105
3 106 107 108
3 109 110 63
3 111 112 113
3 114 115 116
3 117 42 118
3 119 120 121
3 122 123 124
3 22 123 11
3 125 126 127
3 128 129 130
3 131 132 133
3 134 135 136
3 35 137 138
3 100 139 140
3 141 142 143
3 144 145 146
3 147 148 149
3 150 151 152
3 153 154 13
3 155 156 157
3 158 159 160
3 161 162 163
3 66 164 165
3 166 167 168
3 169 170 171
3 172 173 174
3 175 176 177
3 91 178 16
3 179 180 181
3 182 183 184
3 24 185 186
3 187 172 174
3 188 189 106
3 156 190 157
3 92 5 93
3 191 192 193
3 194 195 196
3 197 72 71
3 198 199 200
3 201 146 202
3 203 170 204
3 33 205 206
3 207 208 209
3 203 208 171
3 210 211 212
3 213 214 215
3 216 94 217
3 218 94 96
3 219 220 221
3 53 222 223
3 91 15 224
3 97 99 225
3 153 211 226
3 131 201 202
3 227 228 229
3 230 222 10
3 2 231 3
3 232 231 1
3 106 125 188
3 147 7 148
3 233 234 235
3 129 236 237
3 238 66 239
3 240 182 241
3 242 108 86
3 243 244 245
3 114 246 247
3 37 58 186
3 248 249 189
3 250 251 252
3 253 254 255
3 256 257 258
3 259 14 16
3 122 124 260
3 261 262 263
3 264 61 265
3 266 196 133
3 234 267 268
3 250 43 251
3 269 270 271
3 272 273 274
3 275 276 277
3 278 276 279
3 280 281 282
3 72 12 70
3 250 283 76
3 284 285 286
3 287 249 288
3 289 290 291
3 292 247 246
3 161 163 293
3 272 294 47
3 295 139 296
3 297 191 295
3 191 298 192
3 250 252 283
3 103 299 300
3 301 74 302
3 303 304 149
3 305 304 306
3 305 178 147
3 210 307 308
3 51 226 210
3 153 226 166
3 309 310 311
3 312 313 228
3 314 315 316
3 252 315 283
3 317 318 319
3 320 192 298
3 193 192 321
3 322 323 324
3 325 309 311
3 326 242 327
3 86 190 156
3 265 61 259
3 328 329 330
3 4 3 231
3 280 331 332
3 333 123 22
3 334 301 335
3 66 165 64
3 250 27 43
3 336 337 338
3 161 293 339
3 340 308 307
3 103 341 299
3 4 342 7
3 243 343 244
3 344 345 319
3 346 347 348
3 349 350 351
3 25 352 353
3 354 355 356
3 297 295 296
3 357 282 281
3 358 126 106
3 127 126 359
3 360 176 361
3 362 176 363
3 364 121 365
3 169 67 366
3 38 51 308
3 306 367 265
3 368 369 370
3 347 328 371
3 88 242 86
3 309 372 145
3 373 164 261
3 374 328 375
3 83 376 84
3 377 39 378
3 341 103 379
3 103 300 104
3 329 347 380
3 348 347 371
3 381 382 58
3 173 202 146
3 383 384 385
3 163 162 263
3 386 162 387
3 388 389 390
3 391 59 382
3 285 355 392
3 356 355 284
3 393 307 210
3 394 395 396
3 363 394 397
3 398 248 189
3 399 400 401
3 402 193 403
3 199 404 200
3 396 282 357
3 251 43 63
3 42 117 109
3 328 330 405
3 406 407 408
3 365 121 120
3 409 198 389
3 252 410 411
3 412 413 194
3 229 414 415
3 11 70 12
3 26 41 27
3 335 0 334
3 416 189 249
3 417 55 57
3 322 418 323
3 419 420 292
3 38 40 421
3 255 49 422
3 423 424 395
3 361 425 360
3 426 427 428
3 328 405 375
3 421 429 430
3 412 324 217
3 128 130 431
3 287 432 433
3 292 246 419
3 309 144 310
3 227 312 228
3 169 171 434
3 260 435 436
3 437 438 184
3 280 439 440
3 441 339 442
3 109 117 215
3 139 102 437
3 343 243 443
3 444 445 446
3 430 135 167
3 447 33 206
3 448 449 128
3 450 451 452
3 453 454 455
3 456 457 458
3 459 460 121
3 461 462 463
3 464 247 292
3 441 465 466
3 272 47 273
3 344 319 467
3 109 215 337
3 317 468 318
3 469 407 470
3 361 471 472
3 354 473 474
3 475 476 220
3 477 228 313
3 358 242 326
3 87 86 156
3 478 479 480
3 277 276 257
3 290 317 481
3 48 422 49
3 454 482 483
3 112 387 113
3 484 485 423
3 486 487 488
3 90 155 487
3 268 364 234
3 489 490 491
3 492 262 238
3 493 262 54
3 10 52 8
3 25 436 23
3 494 169 458
3 381 58 37
3 495 444 496
3 287 288 17
3 497 498 499
3 334 0 2
3 434 207 500
3 312 501 313
3 325 502 372
3 346 380 347
3 231 2 1
3 357 394 396
3 503 73 75
3 289 504 290
3 503 75 505
3 506 399 415
3 351 350 302
3 229 399 401
3 65 507 497
3 253 508 254
3 509 510 511
3 387 112 386
3 224 512 92
3 424 423 485
3 34 55 32
3 252 251 410
3 448 431 254
3 301 334 75
3 513 463 514
3 501 515 313
3 516 335 301
3 517 518 519
3 431 130 520
3 111 521 443
3 354 522 523
3 76 524 250
3 497 525 65
3 259 45 14
3 526 369 15
3 527 160 519
3 528 163 493
3 529 530 465
3 180 531 181
3 493 263 262
3 157 532 155
3 533 265 367
3 534 323 418
3 109 63 42
3 301 302 535
3 292 420 536
3 519 160 537
3 330 538 405
3 539 540 541
3 539 542 540
3 543 234 233
3 219 544 220
3 476 545 546
3 266 133 547
3 548 549 98
3 306 259 16
3 550 551 385
3 38 378 39
3 285 284 355
3 552 403 193
3 439 332 85
3 95 216 553
3 391 554 555
3 556 512 557
3 368 512 224
3 29 502 558
3 450 534 418
3 559 239 560
3 139 100 102
3 352 71 353
3 561 209 562
3 259 306 265
3 438 241 182
3 29 372 502
3 189 416 107
3 362 563 451
3 73 545 351
3 365 270 235
3 225 485 484
3 509 564 510
3 127 359 538
3 96 565 218
3 198 390 389
3 566 8 567
3 314 568 346
3 499 525 497
3 94 216 95
3 218 217 94
3 199 409 569
3 338 214 570
3 571 346 348
3 302 294 535
3 572 172 267
3 120 573 365
3 526 44 574
3 24 23 185
3 4 231 342
3 511 510 575
3 412 576 310
3 111 113 521
3 577 578 502
3 78 579 530
3 158 483 159
3 187 268 267
3 82 580 581
3 432 582 468
3 583 584 136
3 450 177 451
3 45 60 46
3 376 585 84
3 586 587 387
3 588 589 151
3 118 41 482
3 60 45 61
3 479 478 590
3 457 542 458
3 417 21 55
3 591 556 557
3 592 518 506
3 204 510 203
3 256 277 257
3 490 152 589
3 416 249 433
3 593 312 227
3 140 402 499
3 514 463 594
3 100 498 101
3 591 392 595
3 258 213 596
3 597 598 599
3 23 327 600
3 601 602 603
3 318 19 18
3 22 11 13
3 99 98 376
3 359 126 604
3 351 302 74
3 586 605 587
3 537 160 606
3 345 607 317
3 199 608 404
3 202 609 610
3 562 611 612
3 416 157 190
3 446 496 444
3 331 613 332
3 614 615 616
3 365 235 364
3 388 617 561
3 618 619 508
3 409 389 562
3 275 620 64
3 621 273 622
3 623 624 625
3 394 363 395
3 626 627 628
3 399 518 400
3 476 475 349
3 629 626 522
3 339 441 630
3 293 442 339
3 555 631 632
3 477 515 633
3 634 405 604
3 435 124 375
3 500 561 617
3 213 258 623
3 573 635 589
3 247 464 578
3 534 216 323
3 305 147 149
3 161 636 605
3 31 187 174
3 402 560 499
3 560 402 403
3 295 140 139
3 637 274 621
3 301 535 516
3 391 555 638
3 78 439 85
3 525 499 560
3 41 43 27
3 234 543 267
3 308 340 378
3 639 625 244
3 391 382 554
3 424 613 331
3 640 616 615
3 122 11 123
3 6 5 4
3 207 171 208
3 215 214 338
3 179 181 271
3 641 642 643
3 218 576 412
3 644 616 101
3 644 614 616
3 206 134 519
3 645 455 454
3 561 207 209
3 646 415 414
3 639 244 343
3 509 511 449
3 647 648 580
3 223 649 528
3 585 376 98
3 241 616 240
3 153 13 12
3 386 112 373
3 450 452 534
3 412 194 324
3 69 650 588
3 606 159 28
3 484 580 225
3 106 126 125
3 223 493 53
3 99 376 651
3 414 228 477
3 611 619 612
3 180 652 500
3 653 645 592
3 474 392 355
3 569 409 612
3 654 655 429
3 352 197 71
3 182 184 438
3 107 190 108
3 656 657 658
3 606 160 159
3 352 25 24
3 648 581 580
3 238 239 492
3 555 632 393
3 260 25 353
3 422 48 475
3 543 572 267
3 65 620 507
3 659 196 660
3 66 525 239
3 645 483 158
3 559 552 661
3 597 583 655
3 546 545 662
3 58 382 59
3 171 207 434
3 564 509 611
3 106 108 358
3 243 245 663
3 386 373 261
3 597 599 584
3 107 106 189
3 158 592 645
3 26 483 482
3 621 622 431
3 266 660 196
3 238 261 164
3 664 665 648
3 85 332 83
3 193 321 552
3 666 50 167
3 667 327 23
3 559 661 492
3 150 152 668
3 669 490 635
3 608 670 544
3 417 57 348
3 175 471 361
3 556 671 5
3 135 206 205
3 230 10 9
3 556 92 512
3 672 275 277
3 241 102 101
3 670 253 673
3 219 221 628
3 619 611 509
3 612 409 562
3 575 541 236
3 587 462 113
3 295 402 140
3 620 674 507
3 324 194 659
3 212 393 210
3 560 403 559
3 574 675 526
3 167 50 430
3 213 117 596
3 541 575 539
3 551 256 641
3 472 647 425
3 275 279 276
3 598 597 676
3 179 650 68
3 271 181 677
3 76 56 524
3 592 158 527
3 251 678 410
3 673 253 255
3 197 352 59
3 6 147 178
3 144 146 201
3 524 28 250
3 311 576 469
3 466 630 441
3 319 318 467
3 31 145 372
3 213 215 117
3 320 321 192
3 270 365 679
3 187 31 30
3 317 290 468
3 577 502 325
3 52 10 53
3 197 638 72
3 630 585 549
3 495 496 680
3 213 623 214
3 646 681 653
3 393 212 638
3 189 188 398
3 595 503 591
3 297 298 191
3 500 617 180
3 229 415 399
3 624 623 257
3 605 594 587
3 542 494 458
3 421 654 429
3 682 654 40
3 203 171 170
3 3 5 671
3 679 588 650
3 605 586 161
3 374 123 333
3 671 503 505
3 589 588 573
3 54 53 493
3 501 683 515
3 638 212 72
3 550 674 672
3 224 92 91
3 424 396 395
3 639 570 625
3 314 316 568
3 643 684 453
3 586 387 162
3 196 195 133
3 22 21 333
3 580 82 225
3 650 69 68
3 685 119 460
3 530 79 78
3 28 159 26
3 551 686 256
3 354 474 355
3 435 260 124
3 67 434 652
3 220 687 475
3 584 401 400
3 667 23 436
3 261 238 262
3 363 688 362
3 456 590 478
3 301 75 74
3 55 21 32
3 250 28 27
3 653 506 415
3 222 689 428
3 202 610 131
3 317 319 345
3 169 494 170
3 611 562 209
3 539 204 494
3 268 121 364
3 681 444 455
3 79 427 426
3 690 7 342
3 31 372 29
3 647 691 648
3 459 121 30
3 69 588 151
3 536 420 656
3 690 148 7
3 491 490 669
3 358 326 604
3 326 667 634
3 660 472 471
3 300 692 693
3 358 604 126
3 131 195 201
3 417 333 21
3 453 684 454
3 447 694 34
3 606 694 537
3 38 308 378
3 24 186 58
3 544 670 687
3 421 430 50
3 83 613 651
3 670 673 687
3 48 47 350
3 11 122 70
3 435 634 667
3 377 378 340
3 266 547 664
3 557 285 392
3 660 471 659
3 569 612 618
3 140 498 100
3 653 592 506
3 423 425 484
3 670 618 253
3 227 599 593
3 150 668 456
3 35 37 186
3 240 341 182
3 131 133 195
3 533 367 303
3 167 205 168
3 695 97 81
3 45 259 61
3 655 682 676
3 287 433 249
3 167 135 205
3 385 496 383
3 104 300 633
3 524 606 28
3 144 413 310
3 366 458 169
3 671 556 591
3 671 591 503
3 646 653 415
3 361 472 425
3 641 256 258
3 205 33 168
3 322 659 471
3 469 470 311
3 494 204 170
3 479 590 696
3 185 697 186
3 75 334 505
3 203 564 208
3 199 569 608
3 35 138 36
3 210 308 51
3 34 56 55
3 679 573 588
3 388 561 389
3 692 446 693
3 69 151 366
3 405 359 604
3 146 174 173
3 482 684 118
3 393 632 307
3 373 698 165
3 686 672 277
3 651 376 83
3 673 255 422
3 48 349 475
3 374 124 123
3 434 67 169
3 596 641 258
3 266 691 660
3 475 687 422
3 132 547 133
3 447 206 537
3 690 342 232
3 24 59 352
3 544 699 608
3 681 455 645
3 482 454 684
3 619 449 508
3 336 338 700
3 437 102 438
3 423 395 360
3 536 669 685
3 255 622 49
3 273 49 622
3 622 254 431
3 271 677 269
3 680 385 551
3 550 385 384
3 144 309 145
3 17 19 582
3 462 461 521
3 12 72 212
3 625 570 623
3 168 20 154
3 364 235 234
3 483 645 454
3 413 201 195
3 247 578 115
3 424 651 613
3 468 582 318
3 318 582 19
3 699 219 627
3 168 32 20
3 35 186 697
3 517 136 400
3 347 329 328
3 346 568 380
3 446 445 693
3 143 486 141
3 680 551 643
3 257 623 258
3 701 624 278
3 664 648 691
3 245 701 278
3 278 279 698
3 386 261 263
3 528 293 163
3 465 442 529
3 702 636 549
3 514 548 513
3 630 636 339
3 636 630 549
3 466 84 585
3 424 485 651
3 83 332 613
3 637 621 520
3 529 428 427
3 640 240 616
3 567 321 566
3 321 567 552
3 526 14 44
3 593 599 598
3 462 594 463
3 13 20 22
3 104 515 683
3 153 12 211
3 59 391 197
3 416 190 107
3 280 282 331
3 227 401 599
3 102 241 438
3 550 686 551
3 429 136 430
3 656 658 491
3 70 353 71
3 89 703 697
3 51 666 226
3 166 666 167
3 121 460 119
3 216 534 553
3 29 558 459
3 135 134 206
3 447 537 694
3 699 404 608
3 34 694 56
3 56 694 524
3 411 316 315
3 314 283 315
3 278 624 276
3 447 34 33
3 13 154 20
3 679 365 573
3 153 166 154
3 109 337 110
3 46 704 44
3 668 602 590
3 131 610 132
3 631 555 554
3 326 634 604
3 417 348 371
3 571 283 314
3 571 57 76
3 571 348 57
3 655 676 597
3 191 402 295
3 481 317 607
3 357 705 394
3 405 634 375
3 655 654 682
3 435 375 634
3 374 375 124
3 363 397 688
3 359 405 538
3 529 427 530
3 89 706 87
3 706 88 87
3 374 333 371
3 242 358 108
3 88 327 242
3 12 212 211
3 326 327 667
3 222 53 10
3 484 647 580
3 566 9 8
3 122 353 70
3 667 436 435
3 175 361 176
3 567 8 52
3 165 698 279
3 638 197 391
3 26 159 483
3 35 697 137
3 32 168 33
3 399 506 518
3 697 706 89
3 697 185 706
3 703 142 137
3 6 93 5
3 703 143 142
3 406 577 470
3 486 143 487
3 707 532 504
3 157 416 433
3 18 467 318
3 457 480 708
3 457 708 542
3 707 289 488
3 16 305 306
3 460 459 558
3 481 291 290
3 504 532 432
3 290 504 468
3 432 468 504
3 492 54 262
3 158 160 527
3 289 707 504
3 235 709 233
3 493 163 263
3 155 532 707
3 157 433 532
3 532 433 432
3 406 115 577
3 571 314 346
3 87 156 90
3 155 90 156
3 155 707 487
3 707 488 487
3 495 453 455
3 641 643 551
3 703 89 90
3 90 143 703
3 680 643 453
3 646 445 681
3 142 138 137
3 137 697 703
3 561 562 389
3 185 23 600
3 91 93 178
3 706 600 88
3 88 600 327
3 225 82 97
3 37 36 381
3 381 554 382
3 90 487 143
3 510 564 203
3 710 535 294
3 86 108 190
3 669 119 685
3 564 209 208
3 583 429 655
3 362 451 177
3 260 436 25
3 654 421 40
3 649 529 442
3 374 371 328
3 417 371 333
3 166 168 154
3 20 32 21
3 128 511 129
3 252 411 315
3 528 649 293
3 605 702 594
3 117 118 642
3 643 642 684
3 641 596 642
3 642 596 117
3 672 674 620
3 173 609 202
3 542 539 494
3 223 528 493
3 386 263 162
3 277 256 686
3 187 267 172
3 49 273 47
3 325 470 577
3 525 560 239
3 477 711 414
3 363 176 360
3 497 644 498
3 508 253 618
3 383 615 384
3 517 400 518
3 300 693 633
3 645 653 681
3 495 455 444
3 680 453 495
3 614 384 615
3 680 496 385
3 582 287 17
3 383 446 692
3 299 640 692
3 496 446 383
3 401 227 229
3 693 445 711
3 646 711 445
3 180 617 531
3 692 300 299
3 240 299 341
3 240 640 299
3 692 640 383
3 615 383 640
3 614 674 384
3 623 570 214
3 712 531 617
3 26 482 41
3 642 118 684
3 41 118 42
3 401 584 599
3 639 700 570
3 527 518 592
3 229 228 414
3 713 541 540
3 646 414 711
3 402 191 193
3 650 271 270
3 105 379 103
3 341 379 183
3 339 636 161
3 497 507 644
3 614 644 507
3 251 63 678
3 672 686 550
3 576 311 310
3 525 66 65
3 66 238 164
3 552 559 403
3 559 492 239
3 65 64 620
3 64 279 275
3 64 165 279
3 663 373 112
3 442 293 649
3 616 241 101
3 296 139 437
3 661 552 567
3 567 52 661
3 215 338 337
3 104 683 105
3 223 428 649
3 661 52 54
3 373 165 164
3 672 620 275
3 564 611 209
3 614 507 674
3 527 519 518
3 222 428 223
3 606 524 694
3 519 537 206
3 134 517 519
3 517 134 136
3 430 136 135
3 666 166 226
3 210 226 211
3 325 372 309
3 393 638 555
3 618 612 619
3 104 633 515
3 490 589 635
3 38 421 50
3 423 360 425
3 663 111 243
3 50 666 51
3 583 597 584
3 136 429 583
3 114 247 115
3 581 648 665
3 320 566 321
3 230 689 222
3 582 432 287
3 548 702 549
3 428 689 426
3 255 254 622
3 579 466 465
3 78 85 579
3 465 530 579
3 280 332 439
3 440 281 280
3 705 397 394
3 248 288 249
3 360 395 363
3 84 579 85
3 579 84 466
3 458 366 150
3 79 530 427
3 439 78 77
3 440 439 77
3 396 331 282
3 177 418 175
3 362 177 176
3 324 659 322
3 664 691 266
3 472 691 647
3 647 484 425
3 489 668 152
3 485 99 651
3 97 695 98
3 477 633 711
3 91 16 15
3 470 325 311
3 269 709 270
3 561 500 207
3 68 67 652
3 68 652 179
3 69 366 67
3 578 558 502
3 469 565 407
3 217 218 412
3 469 576 565
3 218 565 576
3 714 407 565
3 260 353 122
3 265 533 264
3 406 470 407
3 406 116 115
3 408 116 406
3 575 129 511
3 29 459 30
3 600 706 185
3 268 30 121
3 201 413 144
3 708 540 542
3 621 274 273
3 179 652 180
3 271 650 179
3 500 652 434
3 30 268 187
3 658 657 603
3 679 650 270
3 503 595 662
3 659 194 196
3 194 413 195
3 323 217 324
3 418 322 175
3 452 553 534
3 565 96 714
3 714 408 407
3 657 656 420
3 669 536 491
3 696 602 601
3 457 478 480
3 140 499 498
3 456 458 150
3 715 236 541
3 237 236 715
3 489 152 490
3 571 76 283
3 529 649 428
3 101 498 644
3 119 635 120
3 412 310 413
3 448 128 431
3 511 128 449
3 349 48 350
3 349 351 545
3 545 476 349
3 523 546 473
3 503 662 73
3 73 351 74
3 2 3 505
3 54 492 661
3 272 710 294
3 350 294 302
3 294 350 47
3 431 520 621
3 711 633 693
3 595 474 473
3 523 473 354
3 670 569 618
3 550 384 674
3 476 221 220
3 670 608 569
3 198 409 199
3 217 323 216
3 477 313 515
3 404 699 627
3 523 221 546
3 356 629 522
3 464 292 685
3 368 557 512
3 45 44 14
3 306 304 367
3 147 6 7
3 16 178 305
3 305 149 304
3 6 178 93
3 368 285 557
3 92 556 5
3 591 557 392
3 474 595 392
3 232 342 231
3 264 62 61
3 303 367 304
3 526 15 14
3 369 224 15
3 368 224 369
3 285 368 286
3 370 286 368
3 526 675 369
3 370 369 675
3 573 120 635
3 448 508 449
3 628 522 626
3 523 628 221
3 522 628 523
3 628 627 219
3 354 356 522
3 699 544 219
3 174 145 31
3 687 220 544
3 476 546 221
3 662 473 546
3 473 662 595
3 505 3 671
3 44 704 574
3 2 505 334
3 545 73 662
3 673 422 687
3 449 619 509
3 508 448 254
3 237 130 129
3 129 575 236
3 510 204 575
3 150 366 151
3 635 119 669
3 464 685 460
3 460 558 464
3 464 558 578
3 656 491 536
3 658 489 491
3 489 602 668
3 456 478 457
3 539 575 204
3 715 541 713
3 708 713 540
3 444 681 445
3 590 456 668
3 602 696 590
3 658 603 602
3 658 602 489
3 536 685 292
3 584 400 136
3 115 578 577
3 521 113 462
3 388 712 617
3 80 82 581
3 110 678 63
3 716 513 695
3 146 145 174
3 695 81 716
3 113 387 587
3 111 663 112
3 462 587 594
3 701 245 244
3 625 701 244
3 700 338 570
3 625 624 701
3 111 443 243
3 161 586 162
3 514 594 702
3 695 513 548
3 548 98 695
3 97 82 81
3 485 225 99
3 235 270 709
3 691 472 660
3 322 471 175
3 151 589 152
3 418 177 450
3 183 182 341
3 563 362 688
3 424 331 396
3 585 630 466
3 98 549 585
3 548 514 702
3 605 636 702
3 441 442 465
3 245 698 663
3 373 663 698
3 245 278 698
3 257 276 624
