ply
format ascii 1.0
comment meshmixer generated
element vertex 402
property float x
property float y
property float z
property float nx
property float ny
property float nz
property uchar red
property uchar green
property uchar blue
property uchar alpha
element face 723
property list uchar int vertex_indices
end_header
-17.84740067 29.88479996 -11.36160088 -0.3726294339 0.7866117954 -0.4923303723 255 255 255 255
-16.93199921 29.58389854 -12.53519917 -0.2904911041 0.7720396519 -0.565304935 255 255 255 255
-16.24199867 30.75739861 -11.18250084 -0.2413303256 0.8086202145 -0.5365566611 255 255 255 255
-15.69050026 28.93720055 -13.66689968 -0.04831252992 0.7212953568 -0.6909405589 255 255 255 255
-15.91009998 31.88909912 -9.385028839 -0.2426699698 0.8347645402 -0.494246304 255 255 255 255
-15.72099972 30.12669945 -12.32999897 -0.1157497466 0.7681824565 -0.6296806931 255 255 255 255
-15.18879986 33.4980011 -6.888410091 -0.2778417766 0.8677254319 -0.4121365547 255 255 255 255
-14.79799938 31.42419815 -10.78629875 -0.1603405923 0.8164907694 -0.5546473861 255 255 255 255
-14.55270004 32.90919876 -8.431229591 -0.2036925554 0.8419581056 -0.4996157587 255 255 255 255
-14.26920128 28.24199867 -14.20469761 0.1508717686 0.6428326368 -0.7510019541 255 255 255 255
-14.12110043 30.68330002 -11.83899879 -0.02079229616 0.7568207383 -0.6532917023 255 255 255 255
-14.50520039 34.46539688 -5.186779022 -0.2059004903 0.9054176807 -0.3712462783 255 255 255 255
-14.07379913 29.48860168 -13.05970097 0.08352496475 0.6886579394 -0.7202595472 255 255 255 255
-14.4805994 34.85029984 -3.941529751 -0.2815264165 0.9166278839 -0.2837889194 255 255 255 255
-13.74290085 32.30089951 -9.724600792 -0.08834405988 0.8305556774 -0.5498841405 255 255 255 255
-13.41840076 34.02959824 -6.962681293 -0.1105999351 0.8969085217 -0.4281620681 255 255 255 255
-12.95930004 31.4246006 -10.93300056 0.09769590944 0.7708213329 -0.6295156479 255 255 255 255
-13.36270142 35.35800171 -3.437089682 -0.02748660743 0.9512346983 -0.3072410524 255 255 255 255
-13.10369968 35.02139664 -4.754818439 -0.07649675012 0.9368761182 -0.3411910832 255 255 255 255
-12.84339905 27.28630066 -14.5760994 0.2219160646 0.6001778245 -0.7684658766 255 255 255 255
-12.44680023 28.56729889 -13.46110058 0.2039830685 0.6167974472 -0.7602314353 255 255 255 255
-12.30240059 30.10709953 -12.15579987 0.1775673777 0.6806693077 -0.7107455134 255 255 255 255
-12.7397995 33.26399994 -8.36415863 0.06575135887 0.8466224074 -0.5281166434 255 255 255 255
-12.50760078 35.71820068 -2.497830868 0.1114039794 0.9378197789 -0.3287600875 255 255 255 255
-12.33699989 34.54029846 -5.742969513 0.07976977527 0.9122357965 -0.4018241465 255 255 255 255
-11.88049984 32.16689682 -9.649131775 0.2034689039 0.7836620808 -0.5869191885 255 255 255 255
-11.4513998 29.1243 -12.72939873 0.26325804 0.6131273508 -0.7448288798 255 255 255 255
-11.51669979 33.83769989 -6.868100643 0.2135262042 0.8640474677 -0.4558821321 255 255 255 255
-11.38910007 30.87750053 -10.98110104 0.2694488466 0.7243411541 -0.6346079111 255 255 255 255
-11.30380058 35.03969955 -4.025400639 0.1980125308 0.9268175364 -0.3190616071 255 255 255 255
-11.7157011 35.95450211 0.09664022923 0.1976313442 0.9745810032 -0.1055162624 255 255 255 255
-11.45660019 35.71030045 -1.786218882 0.2322860807 0.9500558972 -0.2084153593 255 255 255 255
-10.92499924 27.80790138 -13.57800007 0.2791939676 0.59290874 -0.7553210855 255 255 255 255
-11.06459999 29.8246994 -11.96179867 0.2969812155 0.6648730636 -0.6853801608 255 255 255 255
-11.47900009 35.94549942 2.771689653 0.01896712556 0.9989611506 0.04143492877 255 255 255 255
-10.89479923 32.81399918 -8.243670464 0.2794842124 0.8011565804 -0.5291848779 255 255 255 255
-11.08549976 35.9858017 1.61992979 0.1634239852 0.9853392243 -0.04898212105 255 255 255 255
-10.29529953 34.22919846 -5.286489964 0.2905158997 0.8741776943 -0.3891193271 255 255 255 255
-10.25380039 31.61599922 -9.549790382 0.3220241368 0.7424812317 -0.5873858333 255 255 255 255
-10.47439957 35.90270233 3.34367919 0.1447979063 0.9888281226 0.03539016098 255 255 255 255
-9.963600159 28.81570053 -12.36800098 0.3350711465 0.6162081957 -0.7127515674 255 255 255 255
-10.11400032 35.1230011 -2.585349321 0.3119879067 0.9153620005 -0.2545112669 255 255 255 255
-9.906949997 30.30369949 -10.93270111 0.3494318426 0.684966743 -0.6393104792 255 255 255 255
-9.655440331 33.19200134 -6.905029774 0.3424864411 0.8186581731 -0.4609791934 255 255 255 255
-9.883970261 35.47649765 -0.7921914458 0.2915853262 0.9411892295 -0.1707066894 255 255 255 255
-9.719530106 35.61360168 4.545589447 0.2239245772 0.9685438275 0.1085384861 255 255 255 255
-9.276520729 34.41410065 -3.853509903 0.3560391366 0.8792628646 -0.3164379001 255 255 255 255
-9.788320541 35.63880157 0.6649961472 0.26943174 0.9577149153 -0.1009392664 255 255 255 255
-8.989480019 32.0345993 -8.255960464 0.3724434376 0.7598446012 -0.5328433514 255 255 255 255
-9.671569824 35.76270294 2.701830387 0.2470768541 0.9687405229 -0.02224432118 255 255 255 255
-8.740049362 27.37010002 -12.97949886 0.367392242 0.5995559096 -0.711024344 255 255 255 255
-8.684720039 28.90229988 -11.61650085 0.3773174584 0.6272677779 -0.6812977791 255 255 255 255
-8.504229546 30.72310066 -9.567378998 0.3910864294 0.709438622 -0.5863004923 255 255 255 255
-8.63409996 33.45100021 -5.480160713 0.3985358179 0.8299322128 -0.3903609812 255 255 255 255
-8.170220375 34.50719833 -2.036410332 0.3829246759 0.8898396492 -0.2481008917 255 255 255 255
-8.799710274 35.19050217 5.859680176 0.2022929192 0.9696326852 0.1374410689 255 255 255 255
-7.789139748 29.43400002 -10.57769871 0.4118746817 0.6622303128 -0.625947535 255 255 255 255
-8.20333004 34.96479797 -0.1353755295 0.3529298306 0.9209398627 -0.1652584225 255 255 255 255
-7.509859562 31.22450066 -8.199528694 0.4237774014 0.731077373 -0.5347322226 255 255 255 255
-7.752839565 32.25310135 -6.836699009 0.4272662401 0.7799702883 -0.4572634697 255 255 255 255
-8.114139557 35.34869766 3.69073987 0.270832926 0.9617633224 0.04075308517 255 255 255 255
-7.891509056 33.76739883 -3.817901373 0.4183320403 0.8483060002 -0.3246155083 255 255 255 255
-8.043169975 35.18249893 2.101019621 0.3296891153 0.9393675923 -0.09430607408 255 255 255 255
-7.311200142 28.10519981 -11.54650021 0.4093708694 0.6141311526 -0.6747283936 255 255 255 255
-6.819269657 30.06060028 -9.158070564 0.4362299442 0.689353466 -0.5783556104 255 255 255 255
-6.815849304 26.58640099 -12.56879902 0.4234981239 0.5787853599 -0.696890831 255 255 255 255
-6.931650162 32.7492981 -5.065370083 0.4377235174 0.8106847405 -0.3888295293 255 255 255 255
-6.930590153 33.76580048 -2.475650072 0.4140354395 0.8639545441 -0.2866308689 255 255 255 255
-7.57665062 35.04140091 5.291240215 0.2277089655 0.9701954722 0.08288140595 255 255 255 255
-7.123519897 34.72410202 0.7975425124 0.370369792 0.9166736603 -0.150118798 255 255 255 255
-6.383640766 30.88299942 -7.757259369 0.4542118013 0.7353809476 -0.502898097 255 255 255 255
-7.334630489 34.75169754 7.014559746 0.170105055 0.9769995213 0.1285931617 255 255 255 255
-6.701139927 34.18230057 -0.7231208682 0.3934243619 0.8878113627 -0.2387639582 255 255 255 255
-6.087520123 31.72809982 -6.09268856 0.4545954764 0.7724355459 -0.4434933066 255 255 255 255
-5.915269852 25.00169945 -13.23109913 0.4411380589 0.5504809022 -0.7087792158 255 255 255 255
-5.659279823 28.34729958 -10.21239948 0.4460215569 0.6461453438 -0.6193230152 255 255 255 255
-5.831719875 27.33729935 -11.31519985 0.4468510151 0.5976859331 -0.6656543612 255 255 255 255
-6.006659508 32.94129944 -3.497520447 0.4253102541 0.8341750503 -0.3510884941 255 255 255 255
-6.2855196 34.49749756 1.89588058 0.3514243066 0.9288054109 -0.1175648272 255 255 255 255
-6.180730343 34.66910172 3.786260605 0.31713292 0.946952641 -0.05203254521 255 255 255 255
-5.108880043 29.52969933 -8.45486927 0.4593157172 0.6967781186 -0.5509349108 255 255 255 255
-5.54627037 33.96409988 0.4959027469 0.3646042943 0.9129189849 -0.1834191978 255 255 255 255
-5.262269497 33.0320015 -2.348178864 0.4053162336 0.8627418876 -0.3023163974 255 255 255 255
-5.090709686 31.84840012 -4.791799545 0.4432495832 0.7956407666 -0.4128989577 255 255 255 255
-6.004300117 34.67850113 5.828460217 0.2520111799 0.9668756127 0.04052116722 255 255 255 255
-4.983019829 25.96759987 -11.90069866 0.44235605 0.5681958199 -0.6938837767 255 255 255 255
-4.818050385 30.7166996 -6.476891041 0.4585524499 0.7489429712 -0.4783450961 255 255 255 255
-4.911319733 33.45869827 -0.5798403025 0.3803485036 0.8858705759 -0.2656469345 255 255 255 255
-5.496319771 34.34939957 7.954080105 0.2227056324 0.9715577364 0.08048462868 255 255 255 255
-4.270589828 27.00880051 -10.48579979 0.4417500496 0.6120252609 -0.6559587717 255 255 255 255
-4.102610111 24.33600044 -12.62789917 0.4211682677 0.5558353662 -0.7167038321 255 255 255 255
-4.694280148 34.03250122 2.543720245 0.3304664791 0.9345590472 -0.131876111 255 255 255 255
-3.958529711 28.21560097 -9.10763073 0.4463066757 0.6659277081 -0.5977881551 255 255 255 255
-4.145969868 32.08519745 -3.313541174 0.413240701 0.8278548717 -0.3793262839 255 255 255 255
-3.945809603 33.45869827 0.8915362358 0.3515103459 0.9122633934 -0.2102758735 255 255 255 255
-4.139110088 29.55349922 -7.555030823 0.4491787851 0.7197931409 -0.5292789936 255 255 255 255
-3.936890125 32.63100052 -1.667350888 0.3929648995 0.863060832 -0.317339927 255 255 255 255
-4.476900101 34.13330078 4.570980549 0.289385885 0.9556741714 -0.0542466864 255 255 255 255
-4.389840126 34.13090134 6.692590714 0.2591785491 0.9654628038 0.02660854161 255 255 255 255
-3.381049871 25.34589958 -11.43379879 0.4145745337 0.5816554427 -0.6998606324 255 255 255 255
-3.624760389 30.98450089 -4.894928455 0.4253589809 0.784209609 -0.4517576993 255 255 255 255
-3.064369917 32.77720261 -0.2104995996 0.3508709967 0.8916296363 -0.2861574888 255 255 255 255
-3.042870045 29.76959991 -6.292920589 0.424723357 0.7487097383 -0.5089634657 255 255 255 255
-2.614759922 25.94509888 -10.43359852 0.3936266601 0.6181676388 -0.6803872585 255 255 255 255
-3.352900267 33.67050171 3.394769907 0.2960628569 0.946012795 -0.1319339573 255 255 255 255
-2.730580091 27.15950012 -9.34609127 0.4019004405 0.657168448 -0.6376563907 255 255 255 255
-2.719510078 33.15649796 1.630540133 0.3007962704 0.9321511388 -0.2015337199 255 255 255 255
-1.94983983 23.45639992 -12.10709953 0.3600968421 0.5755620599 -0.7342060804 255 255 255 255
-3.141979933 33.77289963 7.944460392 0.2170480192 0.9753738046 0.03919260576 255 255 255 255
-2.435909986 28.27029991 -7.882620811 0.4128113687 0.7142937779 -0.5651293397 255 255 255 255
-2.736370087 32.02970123 -1.905860424 0.3526509702 0.8628958464 -0.3620056808 255 255 255 255
-2.554460049 31.23099899 -3.439309359 0.3915860057 0.815128386 -0.4268795252 255 255 255 255
-2.344439983 33.55739975 4.718700409 0.2531607151 0.9610823989 -0.1105903387 255 255 255 255
-2.621159554 33.7356987 6.098070145 0.22497572 0.9742239714 -0.01653856412 255 255 255 255
-1.696400046 24.90380096 -10.82009983 0.3570171595 0.6010553837 -0.7150322795 255 255 255 255
-2.110800028 30.09429932 -5.046680927 0.3893405795 0.784291327 -0.4830124676 255 255 255 255
-1.790549994 32.51290131 0.2571425736 0.2861480117 0.9070365429 -0.3088754714 255 255 255 255
-1.898069978 33.20240021 3.121500254 0.2440820634 0.9566761255 -0.1587284505 255 255 255 255
-1.444959879 28.95219994 -6.263148785 0.3680515587 0.7591255903 -0.5369044542 255 255 255 255
-0.7541239858 25.65100098 -9.719409943 0.3082176149 0.6569117904 -0.688090682 255 255 255 255
-0.9364929795 26.95050049 -8.471558571 0.3431258798 0.704673171 -0.6210477948 255 255 255 255
-1.148330092 31.1093998 -2.42799902 0.3357361257 0.8364421725 -0.4331808984 255 255 255 255
-0.6901569963 28.02429962 -6.974950314 0.3346005678 0.7397434115 -0.5837997198 255 255 255 255
-0.8441560864 30.27540016 -3.727169752 0.332547754 0.817690134 -0.4698880613 255 255 255 255
-0.09585288167 24.05120087 -10.87400055 0.2431993932 0.6154747009 -0.7496965528 255 255 255 255
-1.420130014 33.47719955 7.371460438 0.2046172023 0.9787628055 0.0124572143 255 255 255 255
-0.8946530223 32.68630219 1.703449249 0.2299166024 0.944572866 -0.2343512326 255 255 255 255
-0.1376299858 22.54669952 -12.01979828 0.2401425093 0.5839211345 -0.7754790187 255 255 255 255
-0.7973200679 33.26589966 5.296899319 0.195544228 0.9767484069 -0.08789216727 255 255 255 255
-0.8422179222 31.61770058 -1.215411067 0.3002027571 0.8702622056 -0.3905406296 255 255 255 255
-0.3276469707 29.30390167 -4.958899498 0.3026344776 0.8022325635 -0.5146215558 255 255 255 255
0.6279969811 25.82429886 -8.950469971 0.2351450026 0.7157707214 -0.6575554013 255 255 255 255
0.5532979965 30.5862999 -2.287558794 0.2420209795 0.854842186 -0.4589887857 255 255 255 255
0.460773021 28.1339016 -6.284729958 0.232671842 0.7859450579 -0.5728474855 255 255 255 255
-0.2820479572 32.86940002 3.322219849 0.1561497152 0.9710486531 -0.1807810366 255 255 255 255
-0.1214380264 32.06669998 0.4212617278 0.2206430584 0.9079614878 -0.356261909 255 255 255 255
0.8681219816 26.94490051 -7.626529217 0.1827592999 0.7554867268 -0.6291572452 255 255 255 255
0.1089410186 32.99659729 8.742010117 0.1073551849 0.9907332659 0.0832015574 255 255 255 255
0.8759279847 29.78540039 -3.570969105 0.1596089303 0.8491155505 -0.5035154223 255 255 255 255
0.6942899823 31.23600006 -0.9567478299 0.1663084924 0.8834013939 -0.4381134808 255 255 255 255
1.671500087 24.83769989 -9.726129532 0.0926316455 0.6764828563 -0.7306095362 255 255 255 255
0.4276929796 33.11260223 6.949399471 0.07842838764 0.9968595505 0.0109560322 255 255 255 255
0.7272629738 32.36779785 1.713200569 0.1299489141 0.9511147141 -0.2801679373 255 255 255 255
1.943179965 23.23839951 -11.06569958 0.07814626396 0.627212584 -0.7749177217 255 255 255 255
0.6709160209 33.00020218 4.659319878 0.04958345369 0.9911642671 -0.1230238378 255 255 255 255
1.503139973 28.77910042 -4.971651554 0.1127073541 0.8256603479 -0.5527947545 255 255 255 255
1.790570021 25.94229889 -8.606089592 0.03120058961 0.7355937958 -0.6767039895 255 255 255 255
2.280479908 27.73379898 -6.38999939 0.03881046921 0.8056381345 -0.5911352634 255 255 255 255
2.137040138 30.26910019 -2.410208464 0.06142669171 0.8755009174 -0.4792962372 255 255 255 255
1.703130007 31.75440025 0.4001571536 0.0653623715 0.9170488119 -0.3933817446 255 255 255 255
1.469759941 32.67029953 3.172150612 0.02356790937 0.9739040136 -0.2257332951 255 255 255 255
1.86443007 33.07239914 7.953619957 -0.05503638461 0.996982336 0.0547468476 255 255 255 255
2.804290056 26.68289948 -7.742581367 -0.05977433175 0.7687644362 -0.6367325187 255 255 255 255
2.152179956 33.1908989 6.06951952 -0.06954819709 0.996573627 -0.04476687685 255 255 255 255
2.359640121 31.05920029 -1.02897048 -0.02177669108 0.8893378973 -0.4567316771 255 255 255 255
2.340719938 32.21109772 1.63932991 -0.03752871603 0.9464681149 -0.3206082582 255 255 255 255
2.476599932 32.96589661 4.633210182 -0.06052727252 0.981583178 -0.1811931878 255 255 255 255
3.19291997 28.50160027 -5.316530704 -0.07778283209 0.8286512494 -0.5543347001 255 255 255 255
3.328769922 24.04719925 -10.52100086 -0.1189530492 0.6373045444 -0.7613757849 255 255 255 255
3.43550992 29.55509949 -3.698308945 -0.08743453771 0.8483455181 -0.5221734047 255 255 255 255
3.597079992 25.53539848 -9.177680016 -0.1350610107 0.7066755295 -0.6945273876 255 255 255 255
3.656570196 22.64649963 -11.61930084 -0.1344055384 0.5917713046 -0.794821918 255 255 255 255
3.201709986 30.41540146 -2.258379698 -0.1175478697 0.8589552045 -0.4983757734 255 255 255 255
3.392070055 32.80099869 3.221859455 -0.1273589283 0.9631645083 -0.236841321 255 255 255 255
3.556139946 31.89840126 0.5941400528 -0.1234849766 0.9067863822 -0.4031004012 255 255 255 255
3.987390041 27.70089912 -6.691101074 -0.1946347058 0.7907548547 -0.5803654194 255 255 255 255
3.764099836 33.34489822 7.190729141 -0.1605207622 0.9870285988 0.002751849359 255 255 255 255
3.889539957 33.28140259 5.162849903 -0.1929372996 0.9734915495 -0.1228386983 255 255 255 255
4.206250191 32.54119873 1.850890756 -0.2111582011 0.925322175 -0.3149461746 255 255 255 255
4.934240341 24.60330009 -10.42860031 -0.2537353039 0.6415320039 -0.7239165306 255 255 255 255
4.527300358 28.81279945 -5.331521034 -0.2737104297 0.8003716469 -0.5333740711 255 255 255 255
4.375849724 31.24959946 -1.063719869 -0.2270380408 0.8647019267 -0.4480449557 255 255 255 255
4.598989964 26.76440048 -8.138238907 -0.2854416966 0.7281853557 -0.6231124401 255 255 255 255
5.251410007 23.58160019 -11.3696022 -0.2665183544 0.589401722 -0.7626097202 255 255 255 255
4.742310047 30.41390038 -2.82503891 -0.2786913216 0.8349350691 -0.4745677412 255 255 255 255
5.153580189 32.28129959 0.4679834545 -0.2994921505 0.8716045022 -0.3880850673 255 255 255 255
4.81746006 33.12750244 3.372200727 -0.2802198827 0.9313295484 -0.2325985134 255 255 255 255
5.42937994 25.72779846 -9.594219208 -0.3282591403 0.6535294652 -0.6820155382 255 255 255 255
4.780320168 33.48819733 8.6164608 -0.2900437713 0.9563992023 0.03428068012 255 255 255 255
5.350059986 29.69319916 -4.409939289 -0.3379155099 0.8032532334 -0.4905071855 255 255 255 255
5.707929611 28.03019905 -7.148320675 -0.365781188 0.7510543466 -0.5496557951 255 255 255 255
5.325009823 33.71829987 6.805369854 -0.3031579256 0.9529172778 -0.00662755454 255 255 255 255
5.985369682 31.19839859 -2.299959183 -0.3708088696 0.8187021017 -0.4384377301 255 255 255 255
5.803319931 33.0007019 1.684119463 -0.3451867104 0.8909552097 -0.2950338721 255 255 255 255
6.634660244 24.9708004 -10.91650009 -0.3696721494 0.5902993679 -0.7175577879 255 255 255 255
6.054719925 29.16819954 -5.801449776 -0.409068197 0.7577710748 -0.5083760619 255 255 255 255
5.474459648 33.69929886 4.913899899 -0.3314851522 0.9351947904 -0.1246125847 255 255 255 255
6.445980072 26.91839981 -9.029220581 -0.3913806677 0.6577023864 -0.6436215639 255 255 255 255
6.342839718 32.14310074 -0.8301357031 -0.3846285343 0.8294717073 -0.4050155282 255 255 255 255
6.91838026 27.90909958 -8.197920799 -0.4103866816 0.7111941576 -0.5707763433 255 255 255 255
6.645900249 32.90000153 0.5463635325 -0.3959388137 0.8476607203 -0.3531341553 255 255 255 255
6.803800106 30.99549866 -3.435909748 -0.4370419085 0.7839201093 -0.4409803152 255 255 255 255
6.899400234 30.4253006 -4.593410969 -0.4453857541 0.7696092725 -0.4575293064 255 255 255 255
7.192289829 23.78969955 -12.06610107 -0.382550925 0.5475708246 -0.7441914678 255 255 255 255
6.467410088 33.73889923 3.301949978 -0.381526053 0.895062387 -0.2308704257 255 255 255 255
6.453370094 34.13019943 8.035129547 -0.3692247868 0.9292452335 0.01328124758 255 255 255 255
7.593420029 26.4382 -10.19039917 -0.4195300341 0.6081077456 -0.6739432812 255 255 255 255
7.421969891 32.16139984 -1.968620777 -0.4719278514 0.7858595252 -0.3996359408 255 255 255 255
7.673069954 27.56970024 -9.189358711 -0.4305250049 0.6545833349 -0.6214248538 255 255 255 255
7.439800262 30.04710007 -5.74352026 -0.46444574 0.738920629 -0.4881459475 255 255 255 255
7.672510147 29.04980087 -7.347250462 -0.4556431472 0.7117655873 -0.5345830321 255 255 255 255
7.000770092 34.23500061 4.501649857 -0.3903620839 0.9092071056 -0.1447750926 255 255 255 255
6.852590084 34.31990051 6.177219391 -0.3906924725 0.9202054739 -0.02410879359 255 255 255 255
7.604330063 33.70320129 1.369930983 -0.4438562691 0.8508682251 -0.2810958326 255 255 255 255
8.175100327 25.34350014 -11.50020027 -0.4286333919 0.5535254478 -0.7140609026 255 255 255 255
7.945899963 33.19979858 -0.445435077 -0.47282058 0.8099658489 -0.3469812572 255 255 255 255
8.438459396 31.10440063 -5.028520584 -0.4871661365 0.7487661839 -0.4494645 255 255 255 255
8.958240509 27.43169975 -10.19360065 -0.4484204352 0.6268857121 -0.6371290088 255 255 255 255
8.631800652 24.13669968 -12.6315012 -0.4311054349 0.5248704553 -0.7339339852 255 255 255 255
8.069509506 34.42649841 3.032349348 -0.4466492832 0.8712559938 -0.203512758 255 255 255 255
8.745339394 30.41239929 -6.480779648 -0.4862934649 0.720012784 -0.4950759709 255 255 255 255
8.455989838 32.10400009 -3.392459154 -0.4993695915 0.7560101748 -0.423176825 255 255 255 255
8.50481987 28.46240044 -8.757538795 -0.4644739926 0.6660708189 -0.5836210847 255 255 255 255
8.027779579 34.73750305 4.724680424 -0.4298860133 0.8963119984 -0.108732909 255 255 255 255
8.165300369 34.85229874 8.062539101 -0.4105792642 0.910854578 0.04205514118 255 255 255 255
9.35667038 26.57959938 -11.25059891 -0.4518021047 0.5804620385 -0.6774501204 255 255 255 255
8.919750214 33.03440094 -2.173781157 -0.5015079975 0.7795372605 -0.3752483726 255 255 255 255
9.525439262 29.94949913 -7.834728241 -0.4841991663 0.6921424866 -0.5352475643 255 255 255 255
8.769630432 35.19250107 6.208509445 -0.4309332669 0.9022482634 -0.01563938148 255 255 255 255
9.802129745 25.52640152 -12.35709858 -0.4483889043 0.5442448854 -0.7090450525 255 255 255 255
9.596499443 31.93039894 -4.96214056 -0.5054292083 0.7398865819 -0.4439697862 255 255 255 255
9.143419266 34.29270172 0.4840556979 -0.4828034639 0.8228434324 -0.2997157276 255 255 255 255
9.42621994 33.85079956 -1.019340038 -0.4925032854 0.8043580651 -0.3323381245 255 255 255 255
9.263870239 34.86759949 2.075760126 -0.4814366698 0.8475865126 -0.2231947035 255 255 255 255
10.47259998 28.25040054 -10.50440025 -0.4645924866 0.6189229488 -0.6333152652 255 255 255 255
9.954670906 31.34889984 -6.333589077 -0.4944165647 0.7227156758 -0.4829433262 255 255 255 255
9.487299919 35.38699722 4.00824976 -0.4688029587 0.8747692108 -0.1224853024 255 255 255 255
10.21539974 32.98529816 -3.898611307 -0.5061965585 0.7555336356 -0.4158532917 255 255 255 255
9.588999748 35.3689003 9.081729889 -0.4116250575 0.9048774838 0.10845083 255 255 255 255
10.3118 29.42889977 -9.186750412 -0.4726350307 0.65736866 -0.5869264007 255 255 255 255
10.40790081 33.97599792 -2.226299524 -0.5055584311 0.7856629491 -0.3565731943 255 255 255 255
10.17790031 35.81880188 7.563079834 -0.4256582856 0.9021654725 0.07008939981 255 255 255 255
11.0819006 27.39179993 -11.72400188 -0.4437265992 0.5776572227 -0.6851414442 255 255 255 255
11.12889957 25.89539909 -12.9453001 -0.4430940151 0.5584454536 -0.7012891173 255 255 255 255
10.45149994 35.6283989 2.455299854 -0.4863114059 0.8538511992 -0.1855783015 255 255 255 255
10.56960011 35.38280106 1.27977109 -0.4880802035 0.8326333165 -0.2617241144 255 255 255 255
10.77610016 34.79599762 -0.7002522349 -0.4981393814 0.8107604384 -0.307448566 255 255 255 255
11.26279926 32.88100052 -5.300458431 -0.5015249848 0.7402682304 -0.4477450252 255 255 255 255
10.95670033 30.8864994 -7.920620441 -0.4808538854 0.6976893544 -0.5310453176 255 255 255 255
10.31890011 35.9632988 5.717460155 -0.4517929554 0.8920467496 -0.01164958905 255 255 255 255
11.0213995 36.2220993 3.884230375 -0.4689127505 0.8768450618 -0.1061301678 255 255 255 255
11.57110023 32.29510117 -6.528599262 -0.4880242944 0.7206995487 -0.4923661947 255 255 255 255
11.84699917 34.84430313 -2.316009998 -0.4964316785 0.7996855974 -0.3377254903 255 255 255 255
12.00039959 29.03609848 -10.82840061 -0.4473783374 0.6206947565 -0.6438871622 255 255 255 255
11.67720032 34.10619736 -3.666769743 -0.494079113 0.7691404223 -0.4053502381 255 255 255 255
11.27250004 36.12520218 9.235239983 -0.4233177304 0.8991013169 0.1114404052 255 255 255 255
12.36269951 26.50860023 -13.19280052 -0.4264332652 0.5612481833 -0.7093343139 255 255 255 255
11.72119999 35.81960297 0.4543142319 -0.4890246093 0.8302044272 -0.2676108181 255 255 255 255
11.9968996 30.3253994 -9.496920586 -0.461320132 0.6656501293 -0.5865949392 255 255 255 255
11.80809975 36.62609863 7.279409409 -0.4343537688 0.8975405693 0.0758799687 255 255 255 255
12.06799984 36.47280121 2.067300558 -0.4657825232 0.8638855815 -0.1916987151 255 255 255 255
11.9144001 36.75429916 5.190200806 -0.4491243958 0.893414259 -0.009912968613 255 255 255 255
12.47570038 35.78009796 -0.9511988163 -0.4832780659 0.820255518 -0.3059791327 255 255 255 255
12.58459949 31.90699959 -8.061510086 -0.4736838639 0.6972607374 -0.5380065441 255 255 255 255
12.95670033 27.99570084 -12.38230038 -0.433973223 0.5850799084 -0.6850903034 255 255 255 255
12.43359947 36.91429901 3.698679686 -0.4476182461 0.888584435 -0.1002774984 255 255 255 255
12.82390022 33.69769669 -5.681900024 -0.4760667384 0.7519809008 -0.4559442699 255 255 255 255
13.12549973 32.85900116 -7.246539593 -0.4718540311 0.724668026 -0.5022051334 255 255 255 255
13.15950012 35.43429947 -2.768121004 -0.4578639865 0.8126502037 -0.3604999185 255 255 255 255
13.36119938 30.25780106 -10.55369949 -0.4416697621 0.6429226398 -0.6257621646 255 255 255 255
13.02350044 37.27449799 6.700580597 -0.4296936691 0.9011326432 0.0576486066 255 255 255 255
13.52270031 36.76150131 0.2667425275 -0.4506418109 0.8559818268 -0.253410846 255 255 255 255
13.57419968 31.37509918 -9.529801369 -0.4478789568 0.6729911566 -0.5886317492 255 255 255 255
13.39159966 37.4917984 4.8572402 -0.4281532466 0.9033409357 -0.02568841353 255 255 255 255
13.51790047 34.94000244 -4.227629185 -0.4543269575 0.792773962 -0.4063206315 255 255 255 255
13.6840992 37.44839859 3.026489973 -0.43171525 0.8939202428 -0.1205344871 255 255 255 255
13.87550068 36.43669891 -1.280418515 -0.4424355328 0.8378992677 -0.3196491897 255 255 255 255
14.06270123 29.51039886 -11.7881012 -0.4244629443 0.610144496 -0.66899544 255 255 255 255
13.72660065 37.39039993 8.458510399 -0.4029662311 0.907269001 0.120337598 255 255 255 255
13.70880032 37.21059799 1.652170658 -0.4331144392 0.8807563186 -0.1915207654 255 255 255 255
14.34030151 33.8382988 -6.924030781 -0.4393147826 0.7499741912 -0.4945110977 255 255 255 255
14.34629917 32.76549911 -8.442539215 -0.4336437285 0.7171943188 -0.5455138683 255 255 255 255
14.58199978 28.13669968 -13.26459885 -0.418864429 0.5866391659 -0.6931140423 255 255 255 255
14.72030067 30.8281002 -10.90809822 -0.418284744 0.6506790519 -0.6337623 255 255 255 255
14.60080051 34.70490265 -5.74134016 -0.4357143044 0.7739362717 -0.4595385492 255 255 255 255
14.6128006 38.00139999 6.590420246 -0.392683357 0.9178388715 0.05806501955 255 255 255 255
15.18379879 36.48199844 -2.792570353 -0.4244695604 0.8309809566 -0.3595778346 255 255 255 255
14.82469845 38.1332016 4.554940224 -0.3994151354 0.9158203006 -0.0417214483 255 255 255 255
15.01629829 32.06990051 -9.797710419 -0.4111273587 0.6871808171 -0.5989631414 255 255 255 255
15.17509937 37.69329834 0.6708111167 -0.4176884592 0.8834853172 -0.2121086121 255 255 255 255
14.91549969 37.97449875 2.643200397 -0.4073288143 0.9025374055 -0.1396761686 255 255 255 255
15.41760063 37.36429977 -0.8880960345 -0.4243171811 0.8555317521 -0.296682179 255 255 255 255
15.24280071 35.73729706 -4.542800426 -0.4205994606 0.8093790412 -0.4098800123 255 255 255 255
15.76449871 29.07620049 -13.16460037 -0.3948507011 0.6022554636 -0.6938164234 255 255 255 255
15.87180138 30.49729919 -11.95960045 -0.3828598261 0.6366476417 -0.669401288 255 255 255 255
15.96629906 34.2466011 -7.659361362 -0.3999313116 0.7546486259 -0.5201541781 255 255 255 255
15.65380001 38.33470154 7.352349281 -0.3650406897 0.9230405688 0.1214142814 255 255 255 255
15.47370052 37.98209763 9.006831169 -0.3491056859 0.9221929908 0.1663890779 255 255 255 255
16.20219994 33.31280136 -9.088100433 -0.3792277873 0.7228822708 -0.5776049495 255 255 255 255
16.04299927 38.61959839 5.466850281 -0.3722424507 0.9278579354 0.02269961685 255 255 255 255
16.39249992 31.90489769 -10.85470009 -0.3637866676 0.6824733615 -0.633947432 255 255 255 255
16.25569916 35.24649811 -6.358548641 -0.3868059814 0.7954161763 -0.4665771723 255 255 255 255
16.45009995 38.75519943 3.62466073 -0.3724531829 0.924885571 -0.07658536732 255 255 255 255
16.47570038 38.49510193 1.702979922 -0.3742397428 0.9124413729 -0.1655153334 255 255 255 255
16.73240089 36.5345993 -4.372649193 -0.3852004409 0.8293580413 -0.4047046304 255 255 255 255
16.68689919 38.14849854 -0.3146283329 -0.3710101843 0.8962014914 -0.2432577461 255 255 255 255
16.92179871 29.81840134 -13.15330029 -0.3454268277 0.6271837354 -0.6980836987 255 255 255 255
17.02540016 37.65050125 -2.217888832 -0.3732617795 0.8635314107 -0.3391005397 255 255 255 255
17.01919937 38.66759872 8.40528965 -0.3426925838 0.9237004519 0.17128703 255 255 255 255
17.20350075 28.89500046 -14.05890179 -0.3402608931 0.6034526229 -0.7211570144 255 255 255 255
17.45879936 34.22999954 -8.685729027 -0.3347174227 0.7531262636 -0.5663612485 255 255 255 255
17.56679916 31.29459953 -12.07169914 -0.3177153766 0.6647031307 -0.6761854291 255 255 255 255
17.51410103 38.49380112 10.21249962 -0.3108052611 0.9300671816 0.1958955675 255 255 255 255
17.80119896 33.28910065 -10.06740093 -0.3041842282 0.7277987599 -0.614638865 255 255 255 255
17.46450043 39.14719772 6.6687603 -0.3336157203 0.9376561642 0.0974753648 255 255 255 255
17.8458004 39.33950043 4.707649708 -0.3364999294 0.9415472746 -0.01601739228 255 255 255 255
17.5877018 35.08510208 -7.578841209 -0.3131510615 0.7929113507 -0.5227121115 255 255 255 255
17.96500015 39.24069977 2.835859537 -0.3279204667 0.9373292327 -0.1178221181 255 255 255 255
17.85440063 36.35099792 -5.647389412 -0.3154962659 0.8287650943 -0.4621801674 255 255 255 255
18.18540001 32.60980225 -10.99499989 -0.2797254026 0.7013348937 -0.6556546688 255 255 255 255
18.3465004 39.05339813 0.8974674344 -0.3218763173 0.927970767 -0.187792033 255 255 255 255
18.04100037 37.31340027 -3.933638811 -0.3098600805 0.8588339686 -0.4079105258 255 255 255 255
18.48749924 30.20670128 -13.50339794 -0.2680351138 0.6490323544 -0.7119790912 255 255 255 255
18.26959991 39.09469986 8.553719521 -0.2954277992 0.9363391399 0.1897141337 255 255 255 255
18.65160179 38.75189972 -0.751101315 -0.3033171892 0.9132495522 -0.2719814777 255 255 255 255
18.87080002 34.39929962 -9.174240112 -0.2614135146 0.7623818517 -0.5919771194 255 255 255 255
19.01070023 31.68330002 -12.27770042 -0.2358207703 0.690507412 -0.6838040948 255 255 255 255
18.95630074 38.31180191 -2.337099314 -0.2792883813 0.8940963149 -0.3501281738 255 255 255 255
19.44680023 39.61410141 7.579639912 -0.2893550992 0.9456850886 0.1481664777 255 255 255 255
19.48799896 39.85969925 5.80300045 -0.2993196845 0.9526658654 0.05324927717 255 255 255 255
19.7595005 39.71170044 2.15089035 -0.2866975665 0.9471455216 -0.1439440548 255 255 255 255
19.30529976 36.19869995 -6.763020992 -0.2450973541 0.8309911489 -0.4993805885 255 255 255 255
19.54039955 39.86100006 3.908279181 -0.2961367369 0.9528135061 -0.06670413166 255 255 255 255
19.3973999 39.00390244 10.29660034 -0.2739809453 0.9348061681 0.2259908319 255 255 255 255
19.66919899 37.18460083 -5.171749115 -0.2308472842 0.8591163158 -0.4567588866 255 255 255 255
19.49369812 35.35449982 -8.118938446 -0.2231933773 0.8012762666 -0.5551044941 255 255 255 255
19.82359886 33.34290314 -10.78380108 -0.1921496391 0.7348623276 -0.6504274607 255 255 255 255
19.55790138 37.86439896 -3.742649078 -0.2321617305 0.8790847659 -0.4163062274 255 255 255 255
20.15200043 29.51480103 -14.57359886 -0.1661746204 0.6395915151 -0.7505389452 255 255 255 255
20.17880058 39.56580353 9.008740425 -0.2757095695 0.9413650632 0.1944634467 255 255 255 255
20.12390137 39.54180145 0.6192924976 -0.239918977 0.945012033 -0.2222411484 255 255 255 255
20.10699844 34.50239944 -9.536090851 -0.1666699201 0.7703778148 -0.6154178977 255 255 255 255
20.15269852 30.86129951 -13.4262991 -0.16795367 0.6659952402 -0.7268025279 255 255 255 255
20.33090019 39.02619934 -1.380370975 -0.2150451541 0.9277992249 -0.3048674464 255 255 255 255
20.64970016 32.43560028 -11.99399853 -0.1638751477 0.7090936899 -0.6858068705 255 255 255 255
20.48989868 36.16999817 -7.270579338 -0.1612699032 0.8303021193 -0.5334700942 255 255 255 255
20.94689941 40.20349884 6.879950047 -0.2495112121 0.9598799348 0.1279634833 255 255 255 255
20.68589973 38.48730087 -2.989971161 -0.1837131679 0.9042826295 -0.3853860497 255 255 255 255
20.96500015 36.91619873 -6.148561001 -0.1645904928 0.8541088104 -0.4933640659 255 255 255 255
21.26519966 40.42919922 4.856630325 -0.227318123 0.9738177061 0.00235097087 255 255 255 255
21.37250137 37.85820007 -4.596979141 -0.1634029895 0.88053298 -0.4449282885 255 255 255 255
21.4070015 35.39979935 -8.651807785 -0.1089614332 0.805859983 -0.5819941163 255 255 255 255
21.4015007 40.29150009 2.881989479 -0.2078948915 0.9689292908 -0.1339990646 255 255 255 255
21.59179878 39.55860138 -0.4072585404 -0.1706043482 0.9441099167 -0.2820471227 255 255 255 255
21.59639931 31.75919914 -12.82899952 -0.05907800421 0.6895527244 -0.7218219042 255 255 255 255
21.67429924 30.32590103 -14.10739899 -0.08124586195 0.6563584805 -0.7500617504 255 255 255 255
21.6201992 33.0766983 -11.46709919 -0.06050080433 0.7387186289 -0.6712931395 255 255 255 255
21.94589996 39.15749741 -1.832200766 -0.1250686496 0.9284750223 -0.3497027457 255 255 255 255
22.13069916 36.41749954 -7.261780262 -0.0557115227 0.8379967809 -0.5428237319 255 255 255 255
22.08530045 34.38999939 -10.02259922 -0.04634883255 0.7636427879 -0.6439732313 255 255 255 255
21.97389984 40.16640091 8.471468925 -0.1065358818 0.9699805975 0.2186041176 255 255 255 255
22.32410049 40.13370132 1.117189765 -0.1320113689 0.9643636942 -0.229293853 255 255 255 255
22.36999893 38.59320068 -3.327399731 -0.08029635996 0.9126005173 -0.4008900225 255 255 255 255
22.25259972 37.3626976 -5.770831108 -0.05308586732 0.8602877855 -0.507037282 255 255 255 255
22.79969978 40.58440018 6.709419727 -0.08232002705 0.9884316921 0.1273820251 255 255 255 255
22.47830009 39.86970139 9.082130432 0.1293076128 0.9296908975 0.3448977172 255 255 255 255
22.66539955 38.10159683 -4.44246912 -0.0276675988 0.8929017782 -0.449400574 255 255 255 255
23.16049957 39.67819977 -0.7986209989 -0.03584217653 0.9483645558 -0.3151507378 255 255 255 255
22.85859871 30.93169975 -13.60059929 0.04263498634 0.6702291369 -0.7409285903 255 255 255 255
23.16139984 35.5284996 -8.592107773 0.03775641695 0.8075660467 -0.5885673761 255 255 255 255
23.50329971 39.10150146 -2.232961416 0.009853299707 0.9252997041 -0.379108578 255 255 255 255
23.2635994 32.27559662 -12.3392992 0.06286004931 0.7017374635 -0.709657073 255 255 255 255
23.00079918 40.70429993 4.520510674 -0.03150470555 0.9989063144 -0.03454901651 255 255 255 255
23.56220055 40.16669846 7.875191212 0.2153247893 0.9303391576 0.2968236208 255 255 255 255
23.41130066 40.51059723 2.488490105 0.002218372189 0.9875759482 -0.1571267992 255 255 255 255
23.36250114 33.46260071 -11.0381012 0.07023066282 0.7425955534 -0.6660476327 255 255 255 255
23.84110069 36.81650162 -6.585770607 0.08497570455 0.83734411 -0.5400314927 255 255 255 255
23.93700027 37.60759735 -5.307441711 0.1138539165 0.8625513315 -0.4929934144 255 255 255 255
24.1237011 38.55039978 -3.450401306 0.1031346247 0.9004790187 -0.4224935472 255 255 255 255
24.07379913 40.01029968 0.4144011438 0.1275020242 0.9603607655 -0.2478920221 255 255 255 255
24.11170006 34.62030029 -9.600129128 0.134299323 0.7668012977 -0.6276778579 255 255 255 255
23.89379883 40.59550095 6.185620785 0.246215269 0.9565237761 0.156333819 255 255 255 255
24.49450111 31.06160164 -13.19439983 0.1707470119 0.6583945751 -0.7330498099 255 255 255 255
24.42670059 40.48659897 3.57117939 0.2488204241 0.966021955 -0.06992816925 255 255 255 255
24.75 39.34980011 -1.275710225 0.2237112522 0.9184666276 -0.3261477947 255 255 255 255
25.01670074 39.89959717 6.487190247 0.4573720098 0.8505268097 0.2596440315 255 255 255 255
24.78619957 35.74779892 -7.95912075 0.2063559294 0.7955106497 -0.569719255 255 255 255 255
24.71680069 32.44369888 -11.88369942 0.2183085531 0.6907000542 -0.6894017458 255 255 255 255
24.79610062 40.43950272 4.807999611 0.2889844477 0.9569464922 0.02722811326 255 255 255 255
24.93870163 40.18450165 2.105920315 0.3612862527 0.9225583673 -0.1354926527 255 255 255 255
25.0924015 33.62919998 -10.51399994 0.2633752525 0.7219896317 -0.6398159266 255 255 255 255
25.36349869 37.75099945 -4.45704031 0.2786149979 0.8446577787 -0.4570852816 255 255 255 255
25.41010094 36.61540222 -6.360740662 0.2799426913 0.8140194416 -0.5089247823 255 255 255 255
25.70429993 39.87730026 3.684000015 0.481774807 0.8726838827 -0.07947267592 255 255 255 255
25.49259949 38.5870018 -2.761709929 0.3950850964 0.8448797464 -0.3606743813 255 255 255 255
25.84350014 39.45679855 0.257445246 0.4793991745 0.8553259373 -0.1964535415 255 255 255 255
25.78039932 31.14970016 -12.69339943 0.3434386849 0.6450009942 -0.6826592088 255 255 255 255
25.78560066 34.71250153 -8.827138901 0.3514856696 0.7321104407 -0.5834998488 255 255 255 255
26.27149963 39.28829956 1.988099575 0.604845345 0.7913714051 -0.08884526789 255 255 255 255
26.03490067 37.11910248 -5.061349869 0.5130944252 0.7573865056 -0.4038561583 255 255 255 255
26.36530113 32.18119812 -11.35339832 0.4047218263 0.6540740132 -0.6390519738 255 255 255 255
26.30209923 37.69449997 -3.524351358 0.5699813962 0.7426375151 -0.351583153 255 255 255 255
26.30249977 35.49309921 -7.470499516 0.3791565001 0.7530327439 -0.537756443 255 255 255 255
26.32029915 38.68330002 -1.163748741 0.5235886574 0.8056885004 -0.2769854665 255 255 255 255
26.53499985 33.3927002 -9.891578674 0.427628994 0.687413156 -0.5870234966 255 255 255 255
26.98550034 37.60990143 -2.303129435 0.6092746258 0.7264273167 -0.3179430962 255 255 255 255
26.65180016 36.21120071 -5.927000999 0.4926279783 0.7607411146 -0.4225998223 255 255 255 255
26.96549988 38.35919952 0.5169064403 0.7083544135 0.6951516271 -0.1224671975 255 255 255 255
27.28990173 36.47049713 -4.126469135 0.6321278811 0.6981834173 -0.3360866606 255 255 255 255
27.28229713 33.95209885 -8.479801178 0.4762519896 0.6863207221 -0.5496798158 255 255 255 255
27.39290237 30.69630051 -12.01099968 0.4743144512 0.6095463037 -0.6352000237 255 255 255 255
27.30939865 32.08150101 -10.65750027 0.5039774179 0.627148211 -0.5938786864 255 255 255 255
3 174 182 191 
3 34 39 36 
3 45 49 39 
3 36 39 49 
3 226 213 218 
3 18 13 17 
3 120 131 119 
3 124 143 127 
3 184 177 196 
3 46 37 29 
3 17 23 29 
3 152 136 147 
3 75 76 63 
3 114 124 107 
3 85 89 99 
3 105 119 103 
3 90 85 99 
3 75 92 89 
3 73 86 70 
3 11 13 18 
3 131 140 119 
3 105 120 119 
3 165 172 152 
3 158 160 169 
3 177 169 160 
3 152 147 165 
3 172 187 177 
3 169 177 184 
3 215 204 196 
3 196 207 215 
3 200 212 189 
3 215 232 219 
3 204 215 219 
3 215 224 232 
3 173 169 184 
3 232 233 219 
3 243 254 232 
3 328 332 345 
3 29 23 31 
3 30 36 47 
3 30 47 44 
3 5 2 10 
3 2 5 1 
3 32 26 40 
3 12 9 3 
3 2 4 7 
3 21 33 26 
3 32 20 26 
3 12 21 20 
3 7 14 16 
3 16 14 25 
3 109 95 102 
3 64 75 56 
3 40 42 51 
3 64 58 70 
3 52 48 58 
3 35 48 38 
3 86 102 95 
3 43 59 48 
3 130 115 123 
3 50 40 51 
3 75 64 80 
3 115 130 118 
3 73 66 83 
3 118 102 115 
3 100 93 111 
3 133 118 130 
3 123 115 111 
3 121 132 123 
3 111 121 123 
3 179 174 191 
3 24 11 18 
3 162 171 174 
3 140 131 146 
3 147 133 145 
3 157 165 147 
3 157 145 159 
3 121 111 110 
3 157 159 170 
3 253 271 262 
3 145 157 147 
3 187 172 189 
3 139 132 129 
3 243 229 248 
3 154 162 148 
3 154 139 149 
3 149 139 135 
3 139 129 135 
3 155 149 142 
3 149 135 142 
3 165 157 170 
3 179 185 170 
3 185 179 192 
3 200 210 217 
3 257 271 253 
3 217 210 225 
3 220 206 211 
3 182 197 191 
3 283 284 296 
3 149 155 164 
3 188 171 175 
3 232 224 243 
3 273 267 259 
3 283 267 284 
3 220 237 225 
3 248 238 253 
3 345 344 358 
3 262 248 253 
3 326 334 316 
3 290 288 303 
3 316 312 301 
3 326 316 309 
3 271 288 278 
3 315 326 303 
3 301 309 316 
3 284 290 301 
3 334 344 332 
3 365 370 380 
3 361 365 377 
3 377 380 390 
3 377 365 380 
3 306 315 300 
3 44 41 31 
3 33 21 28 
3 6 11 15 
3 8 6 15 
3 27 43 35 
3 315 306 325 
3 57 54 44 
3 29 31 41 
3 37 43 27 
3 86 100 102 
3 59 43 53 
3 59 53 66 
3 66 53 61 
3 53 46 61 
3 87 96 82 
3 66 61 77 
3 83 66 77 
3 61 46 54 
3 61 54 67 
3 77 61 67 
3 67 54 72 
3 62 47 49 
3 44 47 57 
3 72 81 87 
3 77 82 93 
3 77 67 82 
3 60 79 62 
3 91 81 78 
3 106 116 101 
3 128 117 112 
3 129 116 135 
3 101 94 106 
3 106 126 116 
3 68 84 79 
3 135 116 126 
3 128 134 117 
3 112 117 104 
3 117 106 104 
3 144 134 128 
3 126 117 134 
3 126 106 117 
3 68 71 84 
3 113 98 108 
3 69 62 78 
3 137 141 125 
3 79 91 78 
3 176 168 163 
3 142 135 126 
3 128 141 144 
3 144 156 150 
3 113 125 128 
3 167 176 163 
3 155 168 164 
3 141 151 153 
3 166 167 153 
3 194 186 201 
3 150 163 155 
3 197 205 216 
3 202 181 195 
3 211 227 220 
3 178 195 181 
3 227 211 216 
3 194 203 183 
3 186 181 202 
3 201 186 202 
3 226 223 209 
3 203 194 209 
3 223 203 209 
3 194 201 209 
3 221 235 236 
3 218 214 231 
3 186 194 176 
3 242 236 252 
3 237 241 225 
3 241 237 256 
3 247 252 236 
3 205 222 216 
3 258 264 244 
3 285 274 291 
3 270 285 271 
3 222 230 216 
3 249 260 251 
3 236 235 247 
3 252 266 258 
3 226 218 239 
3 218 231 239 
3 240 255 250 
3 306 308 321 
3 308 306 291 
3 324 308 311 
3 256 264 274 
3 276 281 297 
3 291 282 294 
3 325 306 321 
3 291 294 308 
3 311 327 324 
3 335 321 338 
3 311 317 327 
3 266 281 276 
3 321 324 338 
3 341 325 335 
3 281 266 261 
3 365 349 370 
3 366 376 359 
3 386 377 390 
3 356 353 340 
3 341 335 348 
3 359 341 348 
3 376 382 392 
3 370 359 376 
3 324 327 340 
3 335 338 348 
3 348 338 353 
3 348 353 366 
3 359 348 366 
3 366 353 367 
3 123 132 138 
3 346 349 365 
3 389 382 381 
3 367 381 382 
3 392 387 376 
3 395 398 391 
3 389 396 382 
3 391 384 395 
3 385 397 393 
3 270 256 274 
3 251 255 240 
3 277 280 265 
3 265 263 277 
3 261 279 281 
3 268 275 260 
3 263 260 275 
3 263 275 277 
3 314 330 333 
3 307 305 322 
3 310 314 295 
3 305 307 292 
3 265 255 263 
3 286 289 275 
3 297 295 314 
3 279 280 293 
3 320 322 342 
3 327 317 337 
3 317 333 337 
3 292 289 305 
3 336 319 318 
3 277 275 289 
3 323 313 302 
3 319 304 318 
3 318 329 336 
3 329 350 336 
3 325 341 331 
3 333 330 343 
3 352 340 337 
3 393 374 385 
3 182 174 171 
3 352 368 356 
3 340 327 337 
3 330 351 343 
3 343 351 357 
3 342 339 362 
3 374 369 385 
3 298 286 287 
3 351 364 369 
3 339 354 362 
3 379 364 373 
3 362 373 364 
3 385 369 379 
3 378 383 373 
3 362 371 378 
3 354 350 363 
3 336 354 339 
3 388 385 379 
3 371 354 363 
3 18 29 24 
3 397 385 388 
3 199 200 185 
3 340 338 324 
3 343 357 347 
3 371 375 378 
3 199 206 210 
3 243 248 259 
3 17 29 18 
3 278 290 273 
3 47 36 49 
3 93 82 96 
3 234 226 240 
3 303 300 315 
3 282 276 294 
3 200 199 210 
3 119 140 124 
3 219 208 204 
3 169 173 158 
3 208 193 204 
3 344 334 346 
3 171 162 154 
3 76 65 63 
3 148 138 132 
3 99 107 90 
3 48 35 43 
3 114 103 119 
3 103 114 99 
3 136 146 131 
3 109 122 120 
3 152 172 160 
3 80 95 92 
3 160 158 140 
3 152 160 146 
3 207 196 198 
3 177 187 196 
3 224 215 207 
3 212 224 207 
3 299 283 296 
3 267 272 254 
3 267 273 284 
3 31 30 44 
3 5 10 12 
3 2 1 0 
3 2 7 10 
3 40 50 32 
3 26 20 21 
3 16 28 21 
3 52 64 56 
3 28 16 25 
3 21 10 16 
3 52 56 42 
3 41 44 54 
3 42 33 28 
3 38 52 42 
3 28 38 42 
3 70 59 73 
3 52 38 48 
3 51 42 56 
3 92 105 89 
3 217 212 200 
3 118 133 122 
3 118 109 102 
3 118 122 109 
3 145 133 130 
3 66 73 59 
3 138 148 159 
3 159 145 138 
3 129 132 121 
3 99 89 103 
3 192 206 199 
3 206 192 191 
3 110 96 101 
3 184 204 193 
3 170 180 165 
3 162 174 159 
3 189 172 180 
3 174 179 159 
3 191 192 179 
3 154 148 139 
3 162 159 148 
3 154 149 164 
3 164 171 154 
3 201 202 213 
3 241 253 238 
3 238 229 217 
3 238 248 229 
3 259 267 243 
3 248 262 259 
3 267 283 272 
3 190 188 175 
3 344 345 332 
3 256 257 241 
3 227 244 237 
3 312 316 332 
3 312 296 301 
3 332 328 312 
3 326 346 334 
3 285 291 306 
3 326 315 331 
3 361 377 372 
3 394 390 380 
3 326 349 346 
3 386 390 400 
3 377 386 372 
3 43 37 53 
3 49 60 62 
3 54 57 72 
3 22 8 15 
3 27 35 22 
3 69 72 57 
3 46 29 41 
3 54 46 41 
3 83 77 93 
3 130 138 145 
3 82 67 72 
3 79 60 68 
3 91 94 81 
3 79 97 91 
3 98 113 97 
3 97 79 84 
3 71 68 55 
3 125 141 128 
3 88 108 98 
3 142 126 134 
3 167 156 153 
3 156 144 153 
3 167 166 181 
3 186 176 167 
3 181 186 167 
3 175 164 168 
3 205 190 203 
3 190 183 203 
3 183 190 175 
3 168 176 183 
3 197 182 188 
3 264 258 276 
3 203 221 205 
3 218 213 202 
3 214 218 202 
3 209 201 213 
3 240 250 234 
3 231 214 228 
3 398 396 389 
3 249 239 231 
3 250 247 235 
3 330 314 310 
3 230 236 242 
3 255 251 263 
3 326 331 349 
3 319 322 305 
3 242 252 258 
3 257 256 270 
3 282 274 264 
3 276 282 264 
3 260 249 268 
3 227 216 230 
3 244 227 230 
3 274 285 270 
3 255 265 250 
3 274 282 291 
3 250 265 269 
3 280 277 292 
3 311 294 297 
3 294 311 308 
3 349 359 370 
3 390 394 401 
3 387 394 380 
3 381 367 368 
3 264 256 244 
3 387 399 394 
3 391 398 389 
3 384 391 381 
3 368 384 381 
3 393 395 384 
3 287 286 268 
3 269 265 280 
3 279 261 269 
3 239 240 226 
3 295 297 281 
3 281 279 295 
3 339 322 319 
3 376 366 382 
3 340 352 356 
3 319 305 304 
3 347 360 352 
3 295 279 293 
3 333 317 314 
3 289 286 304 
3 280 292 293 
3 330 310 320 
3 342 322 339 
3 351 330 342 
3 302 313 298 
3 318 304 313 
3 329 318 313 
3 341 359 349 
3 354 336 350 
3 368 374 384 
3 347 337 333 
3 249 245 268 
3 367 356 368 
3 293 292 307 
3 374 360 357 
3 369 374 357 
3 383 388 379 
3 362 364 342 
3 354 371 362 
3 379 373 383 
3 350 355 363 
3 107 99 114 
3 47 62 57 
3 300 285 306 
3 9 20 19 
3 60 49 45 
3 143 124 140 
3 127 107 124 
3 185 180 170 
3 161 143 158 
3 37 46 53 
3 85 74 65 
3 131 120 136 
3 51 63 50 
3 14 8 22 
3 120 105 109 
3 122 136 120 
3 103 89 105 
3 92 75 80 
3 95 109 92 
3 152 146 136 
3 187 189 198 
3 177 160 172 
3 173 184 193 
3 204 184 196 
3 187 198 196 
3 198 189 212 
3 207 198 212 
3 246 233 232 
3 246 232 254 
3 273 259 262 
3 16 10 7 
3 3 5 12 
3 7 4 14 
3 21 12 10 
3 40 26 33 
3 63 51 56 
3 63 56 75 
3 124 114 119 
3 70 80 64 
3 80 70 86 
3 95 80 86 
3 116 110 101 
3 115 102 100 
3 111 115 100 
3 110 116 129 
3 93 100 83 
3 110 111 93 
3 136 122 133 
3 130 123 138 
3 129 121 110 
3 180 200 189 
3 11 24 15 
3 180 172 165 
3 164 175 171 
3 179 170 159 
3 229 243 224 
3 148 132 139 
3 205 197 188 
3 253 241 257 
3 229 212 217 
3 225 238 217 
3 191 211 206 
3 284 273 290 
3 288 290 278 
3 262 271 278 
3 273 262 278 
3 358 344 361 
3 271 257 270 
3 238 225 241 
3 252 247 261 
3 244 256 237 
3 309 301 290 
3 303 309 290 
3 332 316 334 
3 309 303 326 
3 288 271 285 
3 372 358 361 
3 361 346 365 
3 353 356 367 
3 401 400 390 
3 52 58 64 
3 14 4 8 
3 22 15 27 
3 82 72 87 
3 87 81 94 
3 69 78 81 
3 55 68 60 
3 45 55 60 
3 97 84 98 
3 113 112 97 
3 98 84 88 
3 88 84 71 
3 112 113 128 
3 134 144 150 
3 142 134 150 
3 125 113 108 
3 104 97 112 
3 105 92 109 
3 142 150 155 
3 163 150 156 
3 167 163 156 
3 153 151 166 
3 175 168 183 
3 168 155 163 
3 223 226 234 
3 205 188 190 
3 194 183 176 
3 221 222 205 
3 222 221 236 
3 250 235 234 
3 231 228 245 
3 230 222 236 
3 250 261 247 
3 276 258 266 
3 297 294 276 
3 266 252 261 
3 251 240 239 
3 261 250 269 
3 231 245 249 
3 239 249 251 
3 321 308 324 
3 317 311 297 
3 314 317 297 
3 321 335 325 
3 370 376 387 
3 380 370 387 
3 396 392 382 
3 399 387 392 
3 382 366 367 
3 275 268 286 
3 319 336 339 
3 360 347 357 
3 24 29 37 
3 371 363 375 
3 293 307 310 
3 320 310 307 
3 298 287 302 
3 304 286 298 
3 313 304 298 
3 368 352 360 
3 364 351 342 
3 373 362 378 
3 171 188 182 
3 211 191 197 
3 216 211 197 
3 374 368 360 
3 35 25 22 
3 25 35 38 
3 86 73 83 
3 65 50 63 
3 140 158 143 
3 158 173 161 
3 229 224 212 
3 237 220 227 
3 22 25 14 
3 27 24 37 
3 100 86 83 
3 65 76 85 
3 85 90 74 
3 89 85 76 
3 146 160 140 
3 254 243 267 
3 296 312 299 
3 3 1 5 
3 89 76 75 
3 32 19 20 
3 9 12 20 
3 42 40 33 
3 38 28 25 
3 59 70 58 
3 48 59 58 
3 301 296 284 
3 96 87 101 
3 136 133 147 
3 192 199 185 
3 206 220 225 
3 206 225 210 
3 300 303 288 
3 285 300 288 
3 346 361 344 
3 338 340 353 
3 269 280 279 
3 24 27 15 
3 62 69 57 
3 81 72 69 
3 110 93 96 
3 79 78 62 
3 94 101 87 
3 200 180 185 
3 91 97 104 
3 106 94 91 
3 104 106 91 
3 141 137 151 
3 141 153 144 
3 178 181 166 
3 214 202 195 
3 235 221 223 
3 234 235 223 
3 209 213 226 
3 203 223 221 
3 325 331 315 
3 244 230 242 
3 258 244 242 
3 263 251 260 
3 349 331 341 
3 391 389 381 
3 313 323 329 
3 343 347 333 
3 307 322 320 
3 310 295 293 
3 330 320 342 
3 292 277 289 
3 289 304 305 
3 384 374 393 
3 337 347 352 
3 369 357 351 
3 364 379 369 
