ply
format ascii 1.0
comment meshmixer generated
element vertex 161
property float x
property float y
property float z
property float nx
property float ny
property float nz
property uchar red
property uchar green
property uchar blue
property uchar alpha
element face 275
property list uchar int vertex_indices
end_header
3.987390041 27.70089912 -6.691101074 -0.2934811711 0.793816328 -0.5326579213 255 255 255 255
4.527300358 28.81279945 -5.331521034 -0.323315382 0.7872411609 -0.5250890851 255 255 255 255
4.375849724 31.24959946 -1.063719869 -0.3298299611 0.8363344669 -0.4379005134 255 255 255 255
4.742310047 30.41390038 -2.82503891 -0.3527407646 0.8128559589 -0.4635074735 255 255 255 255
5.153580189 32.28129959 0.4679834545 -0.3393269181 0.8594312668 -0.3824070394 255 255 255 255
4.81746006 33.12750244 3.372200727 -0.3466612399 0.9088755846 -0.2318860441 255 255 255 255
5.350059986 29.69319916 -4.409939289 -0.3867231309 0.787543714 -0.4798125625 255 255 255 255
5.707929611 28.03019905 -7.148320675 -0.3758175075 0.7528909445 -0.5402929187 255 255 255 255
5.985369682 31.19839859 -2.299959183 -0.3708088696 0.8187021017 -0.4384377301 255 255 255 255
5.803319931 33.0007019 1.684119463 -0.3697522581 0.881706357 -0.293048054 255 255 255 255
6.054719925 29.16819954 -5.801449776 -0.409068197 0.7577710748 -0.5083760619 255 255 255 255
5.474459648 33.69929886 4.913899899 -0.3564505577 0.9209094644 -0.1576984078 255 255 255 255
6.342839718 32.14310074 -0.8301357031 -0.3846285343 0.8294717073 -0.4050155282 255 255 255 255
6.91838026 27.90909958 -8.197920799 -0.432369262 0.705039382 -0.5621176958 255 255 255 255
6.645900249 32.90000153 0.5463635325 -0.3959388137 0.8476607203 -0.3531341553 255 255 255 255
6.803800106 30.99549866 -3.435909748 -0.4370419085 0.7839201093 -0.4409803152 255 255 255 255
6.899400234 30.4253006 -4.593410969 -0.4453857541 0.7696092725 -0.4575293064 255 255 255 255
6.467410088 33.73889923 3.301949978 -0.381526053 0.895062387 -0.2308704257 255 255 255 255
7.421969891 32.16139984 -1.968620777 -0.4719278514 0.7858595252 -0.3996359408 255 255 255 255
7.439800262 30.04710007 -5.74352026 -0.46444574 0.738920629 -0.4881459475 255 255 255 255
7.672510147 29.04980087 -7.347250462 -0.4556431472 0.7117655873 -0.5345830321 255 255 255 255
7.000770092 34.23500061 4.501649857 -0.3903620839 0.9092071056 -0.1447750926 255 255 255 255
6.852590084 34.31990051 6.177219391 -0.3933501542 0.9161458015 -0.0771528706 255 255 255 255
7.604330063 33.70320129 1.369930983 -0.4438562691 0.8508682251 -0.2810958326 255 255 255 255
7.945899963 33.19979858 -0.445435077 -0.47282058 0.8099658489 -0.3469812572 255 255 255 255
8.438459396 31.10440063 -5.028520584 -0.4871661365 0.7487661839 -0.4494645 255 255 255 255
8.069509506 34.42649841 3.032349348 -0.4466492832 0.8712559938 -0.203512758 255 255 255 255
8.745339394 30.41239929 -6.480779648 -0.4862934649 0.720012784 -0.4950759709 255 255 255 255
8.455989838 32.10400009 -3.392459154 -0.4993695915 0.7560101748 -0.423176825 255 255 255 255
8.50481987 28.46240044 -8.757538795 -0.472135216 0.6848990321 -0.5549789667 255 255 255 255
8.027779579 34.73750305 4.724680424 -0.4298860133 0.8963119984 -0.108732909 255 255 255 255
8.919750214 33.03440094 -2.173781157 -0.5015079975 0.7795372605 -0.3752483726 255 255 255 255
9.525439262 29.94949913 -7.834728241 -0.4841991663 0.6921424866 -0.5352475643 255 255 255 255
8.769630432 35.19250107 6.208509445 -0.4366410971 0.8986076117 -0.04299920052 255 255 255 255
9.596499443 31.93039894 -4.96214056 -0.5054292083 0.7398865819 -0.4439697862 255 255 255 255
9.143419266 34.29270172 0.4840556979 -0.4828034639 0.8228434324 -0.2997157276 255 255 255 255
9.42621994 33.85079956 -1.019340038 -0.4925032854 0.8043580651 -0.3323381245 255 255 255 255
9.263870239 34.86759949 2.075760126 -0.4814366698 0.8475865126 -0.2231947035 255 255 255 255
9.954670906 31.34889984 -6.333589077 -0.4944165647 0.7227156758 -0.4829433262 255 255 255 255
9.487299919 35.38699722 4.00824976 -0.4688029587 0.8747692108 -0.1224853024 255 255 255 255
10.21539974 32.98529816 -3.898611307 -0.5061965585 0.7555336356 -0.4158532917 255 255 255 255
10.3118 29.42889977 -9.186750412 -0.4803824127 0.6840550303 -0.5489093661 255 255 255 255
10.40790081 33.97599792 -2.226299524 -0.5055584311 0.7856629491 -0.3565731943 255 255 255 255
10.17790031 35.81880188 7.563079834 -0.4370420873 0.8986809254 0.03697087616 255 255 255 255
10.45149994 35.6283989 2.455299854 -0.4863114059 0.8538511992 -0.1855783015 255 255 255 255
10.56960011 35.38280106 1.27977109 -0.4880802035 0.8326333165 -0.2617241144 255 255 255 255
10.77610016 34.79599762 -0.7002522349 -0.4981393814 0.8107604384 -0.307448566 255 255 255 255
11.26279926 32.88100052 -5.300458431 -0.5015249848 0.7402682304 -0.4477450252 255 255 255 255
10.95670033 30.8864994 -7.920620441 -0.4808538854 0.6976893544 -0.5310453176 255 255 255 255
10.31890011 35.9632988 5.717460155 -0.4517929554 0.8920467496 -0.01164958905 255 255 255 255
11.0213995 36.2220993 3.884230375 -0.4689127505 0.8768450618 -0.1061301678 255 255 255 255
11.57110023 32.29510117 -6.528599262 -0.4880242944 0.7206995487 -0.4923661947 255 255 255 255
11.84699917 34.84430313 -2.316009998 -0.4964316785 0.7996855974 -0.3377254903 255 255 255 255
11.67720032 34.10619736 -3.666769743 -0.494079113 0.7691404223 -0.4053502381 255 255 255 255
11.72119999 35.81960297 0.4543142319 -0.4890246093 0.8302044272 -0.2676108181 255 255 255 255
11.9968996 30.3253994 -9.496920586 -0.4654319584 0.6778540611 -0.5691106915 255 255 255 255
11.80809975 36.62609863 7.279409409 -0.4430530965 0.8958582282 0.03379368782 255 255 255 255
12.06799984 36.47280121 2.067300558 -0.4657825232 0.8638855815 -0.1916987151 255 255 255 255
11.9144001 36.75429916 5.190200806 -0.4491243958 0.893414259 -0.009912968613 255 255 255 255
12.47570038 35.78009796 -0.9511988163 -0.4832780659 0.820255518 -0.3059791327 255 255 255 255
12.58459949 31.90699959 -8.061510086 -0.4736838639 0.6972607374 -0.5380065441 255 255 255 255
12.43359947 36.91429901 3.698679686 -0.4476182461 0.888584435 -0.1002774984 255 255 255 255
12.82390022 33.69769669 -5.681900024 -0.4760667384 0.7519809008 -0.4559442699 255 255 255 255
13.12549973 32.85900116 -7.246539593 -0.4718540311 0.724668026 -0.5022051334 255 255 255 255
13.15950012 35.43429947 -2.768121004 -0.4578639865 0.8126502037 -0.3604999185 255 255 255 255
13.36119938 30.25780106 -10.55369949 -0.4405661821 0.650724113 -0.6184331775 255 255 255 255
13.02350044 37.27449799 6.700580597 -0.4380319715 0.8986346722 0.02415953763 255 255 255 255
13.52270031 36.76150131 0.2667425275 -0.4506418109 0.8559818268 -0.253410846 255 255 255 255
13.57419968 31.37509918 -9.529801369 -0.4478789568 0.6729911566 -0.5886317492 255 255 255 255
13.39159966 37.4917984 4.8572402 -0.4281532466 0.9033409357 -0.02568841353 255 255 255 255
13.51790047 34.94000244 -4.227629185 -0.4543269575 0.792773962 -0.4063206315 255 255 255 255
13.6840992 37.44839859 3.026489973 -0.43171525 0.8939202428 -0.1205344871 255 255 255 255
13.87550068 36.43669891 -1.280418515 -0.4424355328 0.8378992677 -0.3196491897 255 255 255 255
13.70880032 37.21059799 1.652170658 -0.4331144392 0.8807563186 -0.1915207654 255 255 255 255
14.34030151 33.8382988 -6.924030781 -0.4393147826 0.7499741912 -0.4945110977 255 255 255 255
14.34629917 32.76549911 -8.442539215 -0.4336437285 0.7171943188 -0.5455138683 255 255 255 255
14.72030067 30.8281002 -10.90809822 -0.4231129289 0.6568536162 -0.6241143942 255 255 255 255
14.60080051 34.70490265 -5.74134016 -0.4357143044 0.7739362717 -0.4595385492 255 255 255 255
14.6128006 38.00139999 6.590420246 -0.3910169601 0.9198745489 0.03060313314 255 255 255 255
15.18379879 36.48199844 -2.792570353 -0.4244695604 0.8309809566 -0.3595778346 255 255 255 255
14.82469845 38.1332016 4.554940224 -0.3994151354 0.9158203006 -0.0417214483 255 255 255 255
15.01629829 32.06990051 -9.797710419 -0.4111273587 0.6871808171 -0.5989631414 255 255 255 255
15.17509937 37.69329834 0.6708111167 -0.4176884592 0.8834853172 -0.2121086121 255 255 255 255
14.91549969 37.97449875 2.643200397 -0.4073288143 0.9025374055 -0.1396761686 255 255 255 255
15.41760063 37.36429977 -0.8880960345 -0.4243171811 0.8555317521 -0.296682179 255 255 255 255
15.24280071 35.73729706 -4.542800426 -0.4205994606 0.8093790412 -0.4098800123 255 255 255 255
15.96629906 34.2466011 -7.659361362 -0.3999313116 0.7546486259 -0.5201541781 255 255 255 255
15.65380001 38.33470154 7.352349281 -0.3735748231 0.9254767299 0.06272679567 255 255 255 255
16.20219994 33.31280136 -9.088100433 -0.3792277873 0.7228822708 -0.5776049495 255 255 255 255
16.04299927 38.61959839 5.466850281 -0.3722424507 0.9278579354 0.02269961685 255 255 255 255
16.39249992 31.90489769 -10.85470009 -0.3684172928 0.6946266294 -0.6178693771 255 255 255 255
16.25569916 35.24649811 -6.358548641 -0.3868059814 0.7954161763 -0.4665771723 255 255 255 255
16.45009995 38.75519943 3.62466073 -0.3724531829 0.924885571 -0.07658536732 255 255 255 255
16.47570038 38.49510193 1.702979922 -0.3742397428 0.9124413729 -0.1655153334 255 255 255 255
16.73240089 36.5345993 -4.372649193 -0.3852004409 0.8293580413 -0.4047046304 255 255 255 255
16.68689919 38.14849854 -0.3146283329 -0.3710101843 0.8962014914 -0.2432577461 255 255 255 255
17.02540016 37.65050125 -2.217888832 -0.3732617795 0.8635314107 -0.3391005397 255 255 255 255
17.45879936 34.22999954 -8.685729027 -0.3347174227 0.7531262636 -0.5663612485 255 255 255 255
17.80119896 33.28910065 -10.06740093 -0.3041842282 0.7277987599 -0.614638865 255 255 255 255
17.46450043 39.14719772 6.6687603 -0.3297428489 0.9410222769 0.075807482 255 255 255 255
17.8458004 39.33950043 4.707649708 -0.3364999294 0.9415472746 -0.01601739228 255 255 255 255
17.5877018 35.08510208 -7.578841209 -0.3131510615 0.7929113507 -0.5227121115 255 255 255 255
17.96500015 39.24069977 2.835859537 -0.3279204667 0.9373292327 -0.1178221181 255 255 255 255
17.85440063 36.35099792 -5.647389412 -0.3154962659 0.8287650943 -0.4621801674 255 255 255 255
18.18540001 32.60980225 -10.99499989 -0.2637237012 0.7125031352 -0.6502223611 255 255 255 255
18.3465004 39.05339813 0.8974674344 -0.3218763173 0.927970767 -0.187792033 255 255 255 255
18.04100037 37.31340027 -3.933638811 -0.3098600805 0.8588339686 -0.4079105258 255 255 255 255
18.26959991 39.09469986 8.553719521 -0.2918212712 0.9444869161 0.1509464532 255 255 255 255
18.65160179 38.75189972 -0.751101315 -0.3033171892 0.9132495522 -0.2719814777 255 255 255 255
18.87080002 34.39929962 -9.174240112 -0.2614135146 0.7623818517 -0.5919771194 255 255 255 255
19.01070023 31.68330002 -12.27770042 -0.220859006 0.7100450397 -0.668623507 255 255 255 255
18.95630074 38.31180191 -2.337099314 -0.2792883813 0.8940963149 -0.3501281738 255 255 255 255
19.44680023 39.61410141 7.579639912 -0.2939216495 0.9465429187 0.1329154819 255 255 255 255
19.48799896 39.85969925 5.80300045 -0.2993196845 0.9526658654 0.05324927717 255 255 255 255
19.7595005 39.71170044 2.15089035 -0.2866975665 0.9471455216 -0.1439440548 255 255 255 255
19.30529976 36.19869995 -6.763020992 -0.2450973541 0.8309911489 -0.4993805885 255 255 255 255
19.54039955 39.86100006 3.908279181 -0.2961367369 0.9528135061 -0.06670413166 255 255 255 255
19.66919899 37.18460083 -5.171749115 -0.2308472842 0.8591163158 -0.4567588866 255 255 255 255
19.49369812 35.35449982 -8.118938446 -0.2231933773 0.8012762666 -0.5551044941 255 255 255 255
19.82359886 33.34290314 -10.78380108 -0.1921496391 0.7348623276 -0.6504274607 255 255 255 255
19.55790138 37.86439896 -3.742649078 -0.2321617305 0.8790847659 -0.4163062274 255 255 255 255
20.12390137 39.54180145 0.6192924976 -0.239918977 0.945012033 -0.2222411484 255 255 255 255
20.10699844 34.50239944 -9.536090851 -0.1666699201 0.7703778148 -0.6154178977 255 255 255 255
20.33090019 39.02619934 -1.380370975 -0.2150451541 0.9277992249 -0.3048674464 255 255 255 255
20.64970016 32.43560028 -11.99399853 -0.1798942238 0.7241836786 -0.6657297611 255 255 255 255
20.48989868 36.16999817 -7.270579338 -0.1612699032 0.8303021193 -0.5334700942 255 255 255 255
20.94689941 40.20349884 6.879950047 -0.2547796369 0.9631542563 0.08614633977 255 255 255 255
20.68589973 38.48730087 -2.989971161 -0.1837131679 0.9042826295 -0.3853860497 255 255 255 255
20.96500015 36.91619873 -6.148561001 -0.1645904928 0.8541088104 -0.4933640659 255 255 255 255
21.26519966 40.42919922 4.856630325 -0.227318123 0.9738177061 0.00235097087 255 255 255 255
21.37250137 37.85820007 -4.596979141 -0.1634029895 0.88053298 -0.4449282885 255 255 255 255
21.4070015 35.39979935 -8.651807785 -0.1089614332 0.805859983 -0.5819941163 255 255 255 255
21.4015007 40.29150009 2.881989479 -0.2078948915 0.9689292908 -0.1339990646 255 255 255 255
21.59179878 39.55860138 -0.4072585404 -0.1706043482 0.9441099167 -0.2820471227 255 255 255 255
21.6201992 33.0766983 -11.46709919 -0.0657132417 0.7468311787 -0.6617590189 255 255 255 255
21.94589996 39.15749741 -1.832200766 -0.1250686496 0.9284750223 -0.3497027457 255 255 255 255
22.13069916 36.41749954 -7.261780262 -0.0557115227 0.8379967809 -0.5428237319 255 255 255 255
22.08530045 34.38999939 -10.02259922 -0.04634883255 0.7636427879 -0.6439732313 255 255 255 255
22.32410049 40.13370132 1.117189765 -0.1320113689 0.9643636942 -0.229293853 255 255 255 255
22.36999893 38.59320068 -3.327399731 -0.08029635996 0.9126005173 -0.4008900225 255 255 255 255
22.25259972 37.3626976 -5.770831108 -0.05308586732 0.8602877855 -0.507037282 255 255 255 255
22.79969978 40.58440018 6.709419727 -0.171369791 0.9834051728 0.059554331 255 255 255 255
22.66539955 38.10159683 -4.44246912 -0.0276675988 0.8929017782 -0.449400574 255 255 255 255
23.16049957 39.67819977 -0.7986209989 -0.03584217653 0.9483645558 -0.3151507378 255 255 255 255
23.16139984 35.5284996 -8.592107773 0.03775641695 0.8075660467 -0.5885673761 255 255 255 255
23.50329971 39.10150146 -2.232961416 0.009853299707 0.9252997041 -0.379108578 255 255 255 255
23.2635994 32.27559662 -12.3392992 0.002352249576 0.7386895418 -0.6740416884 255 255 255 255
23.00079918 40.70429993 4.520510674 -0.1496574879 0.9872652888 -0.05394304544 255 255 255 255
23.41130066 40.51059723 2.488490105 -0.1017095521 0.9800040126 -0.171018526 255 255 255 255
23.36250114 33.46260071 -11.0381012 0.04355983064 0.7474310994 -0.6629096866 255 255 255 255
23.84110069 36.81650162 -6.585770607 0.08497570455 0.83734411 -0.5400314927 255 255 255 255
23.93700027 37.60759735 -5.307441711 0.1138539165 0.8625513315 -0.4929934144 255 255 255 255
24.1237011 38.55039978 -3.450401306 0.1031346247 0.9004790187 -0.4224935472 255 255 255 255
24.07379913 40.01029968 0.4144011438 0.007033706643 0.96313411 -0.2689298093 255 255 255 255
24.11170006 34.62030029 -9.600129128 0.08421573043 0.7662379742 -0.6370142102 255 255 255 255
24.75 39.34980011 -1.275710225 0.1147393659 0.9261599779 -0.3592528403 255 255 255 255
24.78619957 35.74779892 -7.95912075 0.1367340833 0.8162056208 -0.5613484979 255 255 255 255
25.0924015 33.62919998 -10.51399994 0.1294174045 0.7383593321 -0.661873579 255 255 255 255
25.36349869 37.75099945 -4.45704031 0.2002971619 0.8598220944 -0.4696668983 255 255 255 255
25.41010094 36.61540222 -6.360740662 0.1933452189 0.8355659842 -0.5142442584 255 255 255 255
25.49259949 38.5870018 -2.761709929 0.1838528365 0.892049551 -0.4128507376 255 255 255 255
3 3 8 15 
3 39 30 33 
3 20 29 13 
3 6 3 15 
3 60 75 68 
3 6 10 1 
3 10 6 16 
3 20 27 32 
3 63 75 60 
3 32 27 38 
3 34 25 28 
3 8 18 15 
3 12 2 4 
3 34 47 38 
3 55 48 60 
3 68 55 60 
3 119 124 110 
3 90 88 98 
3 119 110 104 
3 75 88 81 
3 109 119 98 
3 149 154 157 
3 101 109 97 
3 109 101 118 
3 17 11 21 
3 18 24 31 
3 28 40 34 
3 40 28 31 
3 17 23 9 
3 21 11 22 
3 39 37 26 
3 23 17 26 
3 37 23 26 
3 17 21 26 
3 35 45 46 
3 11 17 5 
3 52 46 59 
3 47 51 38 
3 51 47 62 
3 54 59 46 
3 24 36 31 
3 64 70 53 
3 86 77 91 
3 74 86 75 
3 36 42 31 
3 56 66 58 
3 46 45 54 
3 59 72 64 
3 39 33 49 
3 33 43 49 
3 50 61 57 
3 101 103 115 
3 103 101 91 
3 117 103 106 
3 62 70 77 
3 79 84 96 
3 91 85 94 
3 118 101 115 
3 91 94 103 
3 106 120 117 
3 125 115 128 
3 106 111 120 
3 72 84 79 
3 115 117 128 
3 131 118 125 
3 84 72 67 
3 149 137 154 
3 150 156 144 
3 142 140 130 
3 131 125 136 
3 144 131 136 
3 154 144 156 
3 117 120 130 
3 125 128 136 
3 136 128 140 
3 136 140 150 
3 144 136 150 
3 150 140 151 
3 134 137 149 
3 151 158 159 
3 74 62 77 
3 58 61 50 
3 80 83 71 
3 71 69 80 
3 67 82 84 
3 69 66 78 
3 69 78 80 
3 108 121 123 
3 102 100 116 
3 105 108 95 
3 100 102 92 
3 71 61 69 
3 87 89 78 
3 96 95 108 
3 82 83 93 
3 114 116 132 
3 120 111 127 
3 111 123 127 
3 92 89 100 
3 126 113 112 
3 80 78 89 
3 113 99 112 
3 118 131 122 
3 123 121 133 
3 139 130 127 
3 8 3 2 
3 139 152 142 
3 130 120 127 
3 121 138 133 
3 133 138 143 
3 132 129 147 
3 138 148 153 
3 129 141 147 
3 126 141 129 
3 19 20 10 
3 130 128 117 
3 133 143 135 
3 19 25 27 
3 81 90 76 
3 44 39 50 
3 98 97 109 
3 85 79 94 
3 20 19 27 
3 32 29 20 
3 16 25 19 
3 25 16 15 
3 1 7 0 
3 15 16 6 
3 21 22 30 
3 51 60 48 
3 48 41 32 
3 48 55 41 
3 55 68 65 
3 14 12 4 
3 62 63 51 
3 40 53 47 
3 119 134 124 
3 86 91 101 
3 119 109 122 
3 119 137 134 
3 24 14 23 
3 14 9 23 
3 9 14 4 
3 18 8 12 
3 70 64 79 
3 23 35 24 
3 33 30 22 
3 26 21 30 
3 50 57 44 
3 56 49 43 
3 57 54 45 
3 121 108 105 
3 42 46 52 
3 61 58 69 
3 119 122 137 
3 113 116 100 
3 52 59 64 
3 63 62 74 
3 85 77 70 
3 79 85 70 
3 40 31 42 
3 53 40 42 
3 77 86 74 
3 61 71 57 
3 77 85 91 
3 57 71 73 
3 83 80 92 
3 106 94 96 
3 94 106 103 
3 137 144 154 
3 158 151 152 
3 70 62 53 
3 152 160 158 
3 73 71 83 
3 82 67 73 
3 49 50 39 
3 95 96 84 
3 84 82 95 
3 129 116 113 
3 156 150 159 
3 130 139 142 
3 113 100 99 
3 135 145 139 
3 95 82 93 
3 123 111 108 
3 89 87 99 
3 83 92 93 
3 121 105 114 
3 132 116 129 
3 138 121 132 
3 112 99 107 
3 131 144 137 
3 152 155 160 
3 135 127 123 
3 151 142 152 
3 93 92 102 
3 155 145 143 
3 153 155 143 
3 147 148 132 
3 97 86 101 
3 10 7 1 
3 76 65 68 
3 7 20 13 
3 24 18 12 
3 60 51 63 
3 41 29 32 
3 38 48 32 
3 15 28 25 
3 88 90 81 
3 68 75 81 
3 76 68 81 
3 75 63 74 
3 48 38 51 
3 59 54 67 
3 53 62 47 
3 98 104 90 
3 104 98 119 
3 88 75 86 
3 146 134 149 
3 140 142 151 
3 37 39 44 
3 24 12 14 
3 17 9 5 
3 35 36 24 
3 36 35 46 
3 57 45 44 
3 42 36 46 
3 57 67 54 
3 79 64 72 
3 96 94 79 
3 72 59 67 
3 58 50 49 
3 67 57 73 
3 49 56 58 
3 115 103 117 
3 111 106 96 
3 108 111 96 
3 115 125 118 
3 159 150 151 
3 113 126 129 
3 145 135 143 
3 93 102 105 
3 114 105 102 
3 152 139 145 
3 148 138 132 
3 2 12 8 
3 28 15 18 
3 31 28 18 
3 155 152 145 
3 47 34 40 
3 16 19 10 
3 25 34 38 
3 25 38 27 
3 97 98 88 
3 86 97 88 
3 128 130 140 
3 73 83 82 
3 20 7 10 
3 45 35 37 
3 44 45 37 
3 26 30 39 
3 23 37 35 
3 118 122 109 
3 53 42 52 
3 64 53 52 
3 69 58 66 
3 137 122 131 
3 133 135 123 
3 102 116 114 
3 105 95 93 
3 121 114 132 
3 92 80 89 
3 89 99 100 
3 127 135 139 
3 153 143 138 
