ply
format ascii 1.0
comment meshmixer generated
element vertex 239
property float x
property float y
property float z
property float nx
property float ny
property float nz
property uchar red
property uchar green
property uchar blue
property uchar alpha
element face 419
property list uchar int vertex_indices
end_header
-1.608230114 -8.649020195 11.1097002 0.2636638582 -0.962461412 0.0644158721 255 255 255 255
-1.518819928 -9.049630165 2.983520031 0.2732750773 -0.9581619501 0.08512602746 255 255 255 255
-1.700160027 -8.848589897 8.139639854 0.2155568451 -0.9756367207 0.04084412381 255 255 255 255
-0.6515539885 -9.962379456 -10.29060078 0.3333139122 -0.9409170747 -0.05980700627 255 255 255 255
-0.8156170249 -10.04310036 -8.909939766 0.3022444248 -0.9527206421 -0.0311711058 255 255 255 255
-0.8652610779 -10.10079956 -7.290270329 0.2948063612 -0.9552645683 -0.02364012972 255 255 255 255
-1.053629994 -9.1979599 0.9274180532 0.2881815434 -0.946790874 0.1433122307 255 255 255 255
-1.269659996 -8.480629921 12.90540028 0.2930390835 -0.9555715919 0.03179609403 255 255 255 255
-1.357360125 -8.716790199 9.445019722 0.2403459847 -0.9680606723 0.07136046886 255 255 255 255
-1.156290054 -8.84142971 5.199240208 0.29128474 -0.9559550881 0.03609884158 255 255 255 255
-0.6662370563 -9.955920219 -4.063600063 0.3154132962 -0.9428753257 0.1072405577 255 255 255 255
-0.7544779778 -9.670619965 -2.324199915 0.2666751742 -0.9484339356 0.1713399887 255 255 255 255
-0.8102109432 -9.432099342 -0.7500349879 0.2983258367 -0.9392024875 0.17000103 255 255 255 255
-0.9599739313 -8.375599861 14.5546999 0.3210254014 -0.9470438361 0.007114827167 255 255 255 255
-0.05929387733 -9.641559601 -11.01209927 0.3818915188 -0.914103806 -0.1362830698 255 255 255 255
-0.4014309645 -8.612360001 6.89455986 0.3134047091 -0.9494439363 0.01826807857 255 255 255 255
0.1963650137 -9.816509247 -5.667339802 0.3379788995 -0.940079391 0.04495539516 255 255 255 255
0.4764150083 -9.661429405 -8.489879608 0.3198824227 -0.9467459917 -0.03670563176 255 255 255 255
-0.1919559687 -8.493449211 8.663209915 0.2856294215 -0.9567556381 0.05508649349 255 255 255 255
-0.2300109863 -8.342579842 10.36870003 0.2929253578 -0.9524470568 0.08390071243 255 255 255 255
-0.06073778495 -7.71792984 17.36689949 0.2620410919 -0.9426406622 0.2067923397 255 255 255 255
-0.2560399771 -8.240440369 11.65160084 0.3162686527 -0.9466479421 0.06190194562 255 255 255 255
-0.01520703454 -8.052259445 15.78519917 0.3157985806 -0.9455462694 0.07882570475 255 255 255 255
0.6889739633 -9.525399208 -9.694439888 0.3610057235 -0.9280804396 -0.09133202583 255 255 255 255
0.1603839993 -8.677509308 2.089230061 0.329547137 -0.9375810623 0.1110874116 255 255 255 255
0.3139080107 -8.486430168 3.728470087 0.3323682845 -0.9410206079 0.06333664805 255 255 255 255
0.5165970325 -9.471019745 -3.079429865 0.3268560171 -0.9339255095 0.1447351724 255 255 255 255
0.2424470037 -8.929639816 0.08947550505 0.3442076445 -0.9250180721 0.1608187854 255 255 255 255
0.5403590202 -9.135629654 -1.455549955 0.3341593146 -0.9245121479 0.183343485 255 255 255 255
0.2364490032 -7.989379406 13.39330006 0.3374048173 -0.9410411119 0.02448603325 255 255 255 255
0.5117099881 -8.302220345 5.587759972 0.343985647 -0.9386429191 0.02496585436 255 255 255 255
1.069130063 -9.501729965 -7.233010292 0.3477058411 -0.9374220371 -0.01845313422 255 255 255 255
1.251520038 -9.077030182 -10.89620018 0.3906081915 -0.9073004723 -0.155663386 255 255 255 255
0.8390160203 -7.750309944 14.78579998 0.3461328447 -0.9381346107 0.009771581739 255 255 255 255
0.8540419936 -8.04279995 9.39387989 0.3545646071 -0.9323469996 0.07080292702 255 255 255 255
1.429239988 -9.194220543 -4.053229809 0.3719397783 -0.9229005575 0.09957612306 255 255 255 255
1.101709962 -7.835740089 10.7883997 0.3599508405 -0.9292343855 0.08341976255 255 255 255 255
1.00338006 -8.071529388 7.929519653 0.3635070622 -0.9308649302 0.03678458184 255 255 255 255
1.313979983 -7.528739929 16.48730087 0.3422335386 -0.9362924099 0.07894746214 255 255 255 255
2.050960064 -9.050180435 -8.662199974 0.4047591984 -0.9123309851 -0.06182333827 255 255 255 255
1.930420041 -9.153470039 -5.742109776 0.3850918114 -0.9219520092 0.04133708775 255 255 255 255
1.686570048 -7.848530769 6.450380325 0.370574981 -0.9286938906 0.01420731749 255 255 255 255
1.583509922 -8.03911972 2.525700092 0.4047766328 -0.9106780887 0.08259123564 255 255 255 255
1.621819973 -8.195119858 1.008520007 0.399828881 -0.9060245752 0.1387673765 255 255 255 255
1.879600048 -8.795940399 -2.531450033 0.4072806239 -0.8984040022 0.164294824 255 255 255 255
1.767950058 -7.381710052 13.84590054 0.3732334375 -0.9277134538 0.006671162788 255 255 255 255
1.593829989 -8.545069695 -0.8054260015 0.401588887 -0.8973868489 0.1828202605 255 255 255 255
1.741209984 -7.43805027 12.38229942 0.3775457442 -0.9245296121 0.05200242624 255 255 255 255
2.311840057 -8.761260033 -10.19309998 0.4106072783 -0.9044751525 -0.1154400334 255 255 255 255
1.920230031 -7.738409996 4.532240391 0.3927542269 -0.9192698002 0.02621402778 255 255 255 255
2.525680065 -8.810110092 -4.70223999 0.4048388302 -0.9079729319 0.1081235558 255 255 255 255
2.088140011 -7.278030396 15.11569977 0.3867462575 -0.9220060706 0.01822552085 255 255 255 255
2.1900599 -7.518410206 9.313671112 0.3895290196 -0.9184792638 0.06828611344 255 255 255 255
2.366039991 -7.299740314 10.70469952 0.3998700678 -0.912985146 0.08100645244 255 255 255 255
2.948770046 -8.716460228 -6.916460037 0.4289430976 -0.9031469226 -0.01826072112 255 255 255 255
2.851180077 -7.378180027 3.313270092 0.4015867412 -0.9138873816 0.05948047712 255 255 255 255
2.896480083 -7.534999847 1.526539922 0.410856992 -0.9046219587 0.1133825928 255 255 255 255
3.100960016 -8.354529381 -3.41573 0.4197570384 -0.8963393569 0.1427579224 255 255 255 255
2.721709967 -7.36439991 7.95609045 0.3939114511 -0.9180881381 0.04413599148 255 255 255 255
2.81885004 -6.865290165 16.79790115 0.3984303474 -0.9161759615 0.04329917952 255 255 255 255
2.988359928 -7.774780273 -0.1927399933 0.415653944 -0.8950089812 0.1618353277 255 255 255 255
3.475879908 -8.391260147 -4.97341013 0.4287111759 -0.9008222818 0.06874593347 255 255 255 255
3.100320101 -8.046019554 -1.806730032 0.4236395061 -0.8877517581 0.1800732464 255 255 255 255
3.09187007 -6.824629784 13.52129936 0.3936442733 -0.9191635847 0.01351032034 255 255 255 255
3.539900303 -8.265250206 -9.016970634 0.4508113265 -0.8896693587 -0.07250921428 255 255 255 255
3.188469887 -7.215640068 6.154469967 0.3947900534 -0.9187084436 0.01075322554 255 255 255 255
3.362129927 -6.700900078 15.15209961 0.4033741653 -0.9147117138 0.024326168 255 255 255 255
3.570100069 -6.671060085 11.88679981 0.3977106214 -0.9157678485 0.0565283522 255 255 255 255
3.876080036 -6.918339729 4.56057024 0.3861886859 -0.9222455621 0.01792797633 255 255 255 255
3.750469923 -6.786209583 9.633720398 0.4016138911 -0.9126253128 0.07629738003 255 255 255 255
4.224009991 -6.860199928 2.381339788 0.3938784599 -0.9164474607 0.07059640437 255 255 255 255
4.192409992 -7.049180031 0.8245260715 0.4070765972 -0.9043034315 0.1285455525 255 255 255 255
4.318500042 -7.302670002 -1.00466001 0.416631937 -0.8932780027 0.1687370986 255 255 255 255
4.14978981 -6.279109955 17.34149933 0.377338022 -0.9257091284 0.02605089359 255 255 255 255
4.751009941 -7.81757021 -5.808469772 0.4480090439 -0.8938249946 0.01910000667 255 255 255 255
4.515499592 -7.885400295 -7.547030449 0.4591279924 -0.8869662881 -0.04992329702 255 255 255 255
4.310970306 -6.238160133 16.46199989 0.378269732 -0.9252337217 0.02923380584 255 255 255 255
4.442340374 -7.599010468 -2.743720055 0.4214323759 -0.8910979033 0.1683427691 255 255 255 255
4.683189869 -7.719180107 -4.112860203 0.4308890402 -0.89545995 0.1117412373 255 255 255 255
4.474939823 -6.22549963 14.67430115 0.3840300143 -0.9232010245 0.0148604773 255 255 255 255
4.793069839 -6.510769844 5.91892004 0.3857784867 -0.9224549532 0.0158699844 255 255 255 255
4.615530014 -6.195919991 12.86810017 0.3846802115 -0.9227625132 0.0230316557 255 255 255 255
4.959229946 -7.570939541 -8.554470062 0.4730992615 -0.8769691586 -0.08427444845 255 255 255 255
4.714240074 -6.510280132 7.764180183 0.3923809528 -0.9186398387 0.0462388359 255 255 255 255
5.237540245 -6.382750034 3.145709991 0.3857004344 -0.9219331741 0.03569951653 255 255 255 255
5.126240253 -6.03976965 11.18480015 0.3836573958 -0.9213759899 0.0622359775 255 255 255 255
5.763160229 -7.19216013 -7.904490471 0.4730864763 -0.8774447441 -0.07924601436 255 255 255 255
5.447419643 -6.601469994 0.009176770225 0.4037003517 -0.9043957591 0.1381823868 255 255 255 255
5.22619009 -5.867670059 17.37849998 0.346393317 -0.9378556013 0.02094137482 255 255 255 255
5.570540428 -6.861180305 -1.691289902 0.4125186205 -0.8950797319 0.1692946553 255 255 255 255
5.617070198 -6.210639954 4.557489872 0.3797682822 -0.9249632359 0.01480227616 255 255 255 255
5.934960842 -7.19037962 -6.403979778 0.4505982697 -0.8922237754 -0.02996629849 255 255 255 255
5.605050087 -6.325620174 1.739330053 0.3865115643 -0.9183152318 0.08547498286 255 255 255 255
5.545189857 -5.785639763 15.80200005 0.3547697961 -0.9349014163 0.009885673411 255 255 255 255
5.462049961 -6.042949677 9.685429573 0.3849569261 -0.9199444056 0.0742321983 255 255 255 255
5.841780186 -7.031400204 -3.301300049 0.4185751975 -0.8964706659 0.1453794688 255 255 255 255
6.304710388 -6.739840031 -9.004320145 0.4694321156 -0.8755882382 -0.1139242202 255 255 255 255
6.117619991 -7.088059902 -4.77312994 0.4283806682 -0.9016625881 0.0591151379 255 255 255 255
6.191609859 -5.945169926 6.334850311 0.3799425662 -0.9247264862 0.02290289849 255 255 255 255
6.103049755 -5.596519947 12.4987011 0.3686569035 -0.929012537 0.03205990046 255 255 255 255
6.019929886 -5.590829849 14.19279957 0.3667989969 -0.9302832484 0.005616197828 255 255 255 255
6.923480034 -6.632309437 -7.368139744 0.4403940737 -0.8932807446 -0.09001455456 255 255 255 255
6.544029713 -6.257339954 -0.8478069901 0.3940218091 -0.9061896205 0.1535160244 255 255 255 255
6.71641016 -5.766260147 3.287039995 0.3708573282 -0.9278926849 0.03847098723 255 255 255 255
6.576649666 -5.403160095 16.70359993 0.3424680233 -0.9395025969 0.00711101247 255 255 255 255
6.552670002 -5.73142004 7.822579861 0.3827188015 -0.9221906066 0.05559528992 255 255 255 255
6.960649967 -6.312550068 -2.124279976 0.3938945234 -0.904703021 0.1623563468 255 255 255 255
7.234930038 -6.59635973 -6.048749924 0.4231365025 -0.9058722258 -0.01873411611 255 255 255 255
6.808640003 -5.953180313 0.4761629403 0.3721091449 -0.9217450619 0.1091826633 255 255 255 255
6.71269989 -5.351429939 15.60789871 0.350831449 -0.9364051819 -0.007912202738 255 255 255 255
7.38654995 -6.285840511 -8.380290031 0.4234897196 -0.8993342519 -0.10887786 255 255 255 255
6.965649605 -5.333819866 10.98699951 0.3621394336 -0.9304791093 0.05535050854 255 255 255 255
7.136640072 -5.572100163 4.784430027 0.3732803762 -0.9275463223 0.01787678897 255 255 255 255
7.280670643 -6.44023037 -3.672240019 0.3984804749 -0.9080677629 0.1289426535 255 255 255 255
7.096789837 -5.39880991 9.208909988 0.3706701696 -0.9265276194 0.06442230195 255 255 255 255
7.397749901 -5.595829964 1.78110981 0.3547784686 -0.9320831895 0.07316567749 255 255 255 255
8.0790205 -6.151679993 -6.850120068 0.4085170627 -0.9092537165 -0.07982174307 255 255 255 255
7.634689808 -6.383449078 -4.650020123 0.4058776796 -0.9126529694 0.04824841768 255 255 255 255
7.809829712 -5.744659901 -0.9365199804 0.3587379456 -0.92317307 0.1380529255 255 255 255 255
7.270940304 -5.123320103 13.11590004 0.3520525396 -0.9357594252 0.02032899484 255 255 255 255
8.000729561 -5.199729919 6.304870129 0.37483266 -0.9266250134 0.0294378642 255 255 255 255
7.624450207 -4.994260311 14.65499973 0.3375566304 -0.9412639737 -0.008814193308 255 255 255 255
8.418549538 -6.030489922 -5.734930038 0.3953157365 -0.9185051322 -0.008590160869 255 255 255 255
7.84869051 -4.929310322 16.92399979 0.3410400748 -0.9400051236 0.009060099721 255 255 255 255
7.912309647 -4.896920204 15.63939953 0.3300047815 -0.9439626932 -0.005592758767 255 255 255 255
8.281569481 -5.775229454 -2.174040079 0.3608511388 -0.920894742 0.1474426836 255 255 255 255
8.090909958 -5.245990276 3.484119892 0.35023579 -0.9356303215 0.04394029826 255 255 255 255
8.304409981 -4.998660088 8.136739731 0.3587779999 -0.9322572351 0.0466343537 255 255 255 255
8.617360115 -5.843900204 -3.543660164 0.3752111197 -0.9201959968 0.1116061807 255 255 255 255
8.476180077 -5.343299866 0.3524270356 0.3385553956 -0.9353041649 0.1028898731 255 255 255 255
8.801310539 -5.709350109 -7.801929951 0.3879784048 -0.9160603881 -0.1015192494 255 255 255 255
8.351439476 -4.872779846 9.989161491 0.3410770595 -0.9381548762 0.05942986161 255 255 255 255
8.680879593 -4.963369846 4.930560112 0.3576034606 -0.9333239198 0.03203403577 255 255 255 255
9.306659698 -5.217420101 -1.041499972 0.3266260922 -0.936232686 0.1295522004 255 255 255 255
9.381519318 -5.646959782 -4.659510136 0.3505888879 -0.9353224039 0.04753399268 255 255 255 255
9.094290733 -4.964959621 1.943500161 0.3386480808 -0.9379666448 0.07440439612 255 255 255 255
9.040050507 -4.498189926 11.74260044 0.3293683827 -0.9433623552 0.03979895264 255 255 255 255
8.906429291 -4.531270027 13.55019951 0.3106587231 -0.9504273534 -0.01338111144 255 255 255 255
9.698349953 -5.525640011 -6.083129883 0.345220685 -0.9367029071 -0.05839856714 255 255 255 255
9.005440712 -4.549240112 15.49670029 0.2998890877 -0.9539561868 0.00583994342 255 255 255 255
9.865719795 -5.279940128 -2.771189928 0.321942687 -0.9386804104 0.1234180629 255 255 255 255
9.400839806 -4.62925005 6.723770142 0.3334574997 -0.942460835 0.02395076491 255 255 255 255
9.509079933 -4.304879665 17.08539963 0.3116888702 -0.9490131736 0.0471595414 255 255 255 255
9.715200424 -4.630630016 3.668109894 0.3341337144 -0.9412596822 0.0488348268 255 255 255 255
9.674379349 -4.500229836 8.436100006 0.3224487305 -0.9457330704 0.04019697383 255 255 255 255
9.808070183 -4.362020016 10.14299965 0.3137511313 -0.9477480054 0.05774047226 255 255 255 255
10.40710068 -5.09664011 -7.746799469 0.3327663541 -0.9367650747 -0.1083406433 255 255 255 255
10.39700031 -5.242759705 -4.029800415 0.3019665778 -0.9485698342 0.09503428638 255 255 255 255
10.22490025 -4.702690125 0.5840170383 0.3109808266 -0.9438275099 0.1117164269 255 255 255 255
10.34259987 -4.332620144 5.211640358 0.318092525 -0.9475511312 0.03104843758 255 255 255 255
10.31470013 -4.076869965 12.86519909 0.2694850862 -0.9628840685 -0.0152316289 255 255 255 255
10.93639946 -4.723750114 -1.35394001 0.2831217945 -0.9498217702 0.1329687983 255 255 255 255
11.0326004 -5.118200302 -4.864510059 0.3000898063 -0.953782022 0.01568465307 255 255 255 255
10.4836998 -4.11177969 14.54920006 0.2557235956 -0.9663569927 -0.02756062523 255 255 255 255
11.26439953 -4.973200321 -6.489710331 0.3243332505 -0.9422049522 -0.08401027322 255 255 255 255
10.6552 -4.372970104 2.393010378 0.308570236 -0.9486291409 0.06990840286 255 255 255 255
10.50450039 -4.102449894 16.01040077 0.2702764273 -0.9619410634 0.04024926201 255 255 255 255
11.14470005 -4.038919926 7.690479755 0.30439803 -0.9520980716 0.02917316183 255 255 255 255
11.17420006 -3.950729847 9.413829803 0.2988123894 -0.9531625509 0.04682148248 255 255 255 255
11.00059986 -3.90019989 11.50390053 0.2708618641 -0.9623039365 0.02459571511 255 255 255 255
11.39149952 -4.824699879 -2.838860035 0.2619706392 -0.958661437 0.1110838726 255 255 255 255
11.43249989 -3.989650011 6.19849968 0.2928907275 -0.9558211565 0.0249187164 255 255 255 255
11.67000008 -3.97510004 3.908060074 0.2788080275 -0.9593459368 0.04383500293 255 255 255 255
11.66510105 -4.163249969 1.180810094 0.2662097216 -0.9578338265 0.1081053838 255 255 255 255
11.93109989 -4.596460342 -7.469880104 0.2873151004 -0.9526691437 -0.09935566783 255 255 255 255
12.14419937 -4.255460262 -0.3351070285 0.2452075183 -0.9597223997 0.13713561 255 255 255 255
12.41919994 -4.385839939 -1.638980031 0.2262517959 -0.9635953903 0.142457068 255 255 255 255
12.52510071 -4.595540047 -5.606379986 0.2625341415 -0.9632014036 -0.05760967359 255 255 255 255
11.95009995 -3.697060347 13.00579929 0.2157774121 -0.9759830236 -0.02995405905 255 255 255 255
12.11259937 -3.643100023 10.14009953 0.2432148606 -0.9695971608 0.02697839402 255 255 255 255
11.56289959 -3.869870186 14.84080029 0.2464773208 -0.9688687325 0.02328723669 255 255 255 255
12.37319851 -3.871960163 2.521290064 0.23590298 -0.9688124061 0.07584367692 255 255 255 255
12.5291996 -3.594249964 8.616140366 0.2454786599 -0.9690092802 0.02759156749 255 255 255 255
12.0564003 -3.572900057 16.66189957 0.2647202015 -0.9605800509 0.08490696549 255 255 255 255
12.83309841 -4.568429947 -4.204300404 0.234173134 -0.9715082645 0.03653256968 255 255 255 255
12.54839993 -3.600589752 7.076630116 0.2447516024 -0.9692412615 0.02584535442 255 255 255 255
12.87389946 -3.600359917 5.255390167 0.2304076105 -0.9723005891 0.03929309174 255 255 255 255
12.66420078 -3.50019002 11.58789921 0.2001348436 -0.9796903729 -0.01236232556 255 255 255 255
13.23579884 -3.854110003 0.737869978 0.1900449693 -0.9742432833 0.1213792711 255 255 255 255
13.3793993 -4.310279846 -2.603509903 0.1997253597 -0.9735566974 0.1108922884 255 255 255 255
13.37059975 -3.561249971 3.704950333 0.1884313971 -0.9804357886 0.05691498145 255 255 255 255
13.50490093 -4.320090294 -6.749390125 0.2003296018 -0.9778131843 -0.0612327233 255 255 255 255
13.04049969 -3.493659973 14.08500004 0.2138666809 -0.9768576622 0.00318547897 255 255 255 255
13.59960079 -3.323580027 9.608379364 0.1721478105 -0.9849926233 0.01243660413 255 255 255 255
13.76519966 -3.994979858 -0.8657900095 0.1536749601 -0.9784567356 0.137863785 255 255 255 255
13.16219997 -3.417629719 15.47189999 0.2579841018 -0.9616467357 0.0931654349 255 255 255 255
13.8956995 -3.359220028 6.438640118 0.1621410996 -0.9860556722 0.03747692704 255 255 255 255
14.12000084 -4.279129982 -5.361729622 0.1884441823 -0.9814130068 -0.03629502282 255 255 255 255
14.03819942 -3.567260265 2.023370028 0.1415914446 -0.9858519435 0.08970983326 255 255 255 255
14.3427 -3.228459835 7.938589573 0.1392838806 -0.9900705218 0.01898413152 255 255 255 255
13.95190048 -3.314400434 12.67890072 0.1641928852 -0.9864144921 -0.005211417098 255 255 255 255
13.95869923 -3.273819923 10.91589928 0.1274854243 -0.9917726517 -0.01159396954 255 255 255 255
14.68899918 -4.183540344 -3.784530163 0.1720072627 -0.9839410782 0.04768090323 255 255 255 255
14.40629959 -3.333099842 5.074719906 0.1318782866 -0.9902650118 0.04453510046 255 255 255 255
14.79769897 -4.004119873 -2.029649973 0.1389360428 -0.9849965572 0.102364555 255 255 255 255
15.05650043 -3.333280087 3.640820265 0.105890654 -0.9920853972 0.06748175621 255 255 255 255
14.85760021 -3.623609781 0.7087830305 0.08930070698 -0.9885004759 0.1220334768 255 255 255 255
15.21969986 -4.015860081 -6.070909977 0.1876808852 -0.9795427918 -0.07260734588 255 255 255 255
14.57330036 -3.178450108 14.25979996 0.2195526212 -0.9733307958 0.06651160866 255 255 255 255
14.54059982 -2.855289936 15.72889996 0.3356190324 -0.9184073806 0.2094941437 255 255 255 255
15.45170021 -3.171110153 6.209700108 0.0923890844 -0.9951980114 0.03232841939 255 255 255 255
15.22080135 -3.143490076 9.784339905 0.08096173406 -0.9967105389 0.00365045527 255 255 255 255
15.0009985 -3.183260202 11.35750008 0.1123322695 -0.9936470389 0.006858890411 255 255 255 255
15.84039879 -3.377979755 2.448800087 0.04753043875 -0.9937754869 0.1007528976 255 255 255 255
16.29840088 -3.714470148 -0.8978139758 0.08137029409 -0.9915003181 0.1015183926 255 255 255 255
16.05739975 -3.906940222 -2.815050125 0.1204737574 -0.9905542135 0.0654860884 255 255 255 255
16.24279976 -3.942720175 -4.76335001 0.1612123996 -0.9868838787 -0.008412123658 255 255 255 255
15.96629906 -3.103270054 8.060409546 0.04984982684 -0.998737216 0.006240397692 255 255 255 255
15.66869926 -3.045170069 12.81480026 0.165544942 -0.9850720763 0.04719986767 255 255 255 255
16.45120049 -3.161390066 4.45527029 0.04057991877 -0.9969574213 0.06655169278 255 255 255 255
16.68980026 -3.529659986 0.9317940474 0.02677903883 -0.9948391914 0.09786664695 255 255 255 255
16.95359993 -3.84842968 -3.388819933 0.1499852091 -0.9886265993 0.0110404687 255 255 255 255
16.50559998 -3.032130003 10.86909962 0.1343269497 -0.9887023568 0.06651224941 255 255 255 255
16.85269928 -3.071229935 6.321000576 0.01655862108 -0.9996153712 0.02224666253 255 255 255 255
16.99450111 -3.070679903 9.277729988 0.06946773827 -0.996640563 0.0433797203 255 255 255 255
17.50589943 -3.720340252 -2.009429932 0.1342913806 -0.9906463623 0.02419965342 255 255 255 255
17.40119934 -3.357399702 2.494639635 0.01415472385 -0.9948669672 0.100196667 255 255 255 255
17.53910065 -3.083300114 7.737780094 0.01730153896 -0.9997652769 0.01304099523 255 255 255 255
17.23159981 -2.717110157 12.22920036 0.1952208281 -0.9732403159 0.1212112606 255 255 255 255
17.84280014 -3.60406971 -0.3544509709 0.0709798485 -0.9955506921 0.0619729571 255 255 255 255
18.00489998 -3.621380091 -3.701230049 0.2107201368 -0.9775289297 -0.005849308334 255 255 255 255
17.53730011 -3.150690079 5.173220158 -0.02503205836 -0.9984630346 0.04944691062 255 255 255 255
18.04800034 -3.227859974 3.966730118 0.01554000285 -0.9979292154 0.06241601333 255 255 255 255
18.41959953 -3.459100008 1.437139869 0.06648046523 -0.9944950342 0.08099331707 255 255 255 255
18.39800072 -3.103240013 6.789730072 0.04350242019 -0.9976837039 0.05229531601 255 255 255 255
18.36770058 -2.810719967 10.35029984 0.1325123906 -0.9853836298 0.1070494577 255 255 255 255
18.39590073 -3.013560057 8.486489296 0.08850430697 -0.9939164519 0.06555221975 255 255 255 255
18.94409943 -3.527239799 -1.319790006 0.1338919103 -0.9909944534 -0.001726406626 255 255 255 255
18.8118 -3.167940378 5.311069965 0.03692132607 -0.998485446 0.0407878235 255 255 255 255
19.28840065 -3.331559896 -2.792180061 0.1966358423 -0.9797077179 -0.03882122785 255 255 255 255
19.15530014 -3.248140097 2.95062995 0.1401333958 -0.9876152277 0.07056058198 255 255 255 255
19.49200058 -3.397099972 0.1316020787 0.1168960556 -0.9918803573 0.05008668825 255 255 255 255
19.44739914 -3.138119936 4.263060093 0.1622618139 -0.9860343337 0.03751548007 255 255 255 255
19.60429955 -3.29866004 1.418059945 0.2034620345 -0.9749969244 0.08935409039 255 255 255 255
19.71479988 -3.060039997 5.75646019 0.147991702 -0.9875075221 0.05410448089 255 255 255 255
19.80729866 -2.892689943 7.306329727 0.1203918308 -0.9898881316 0.07501552999 255 255 255 255
20.6393013 -2.87093997 2.000790119 0.276778996 -0.9595594406 0.05137138069 255 255 255 255
20.44779968 -2.952630043 3.336899996 0.2299295664 -0.9728778005 0.02532140352 255 255 255 255
20.72130013 -2.775140047 4.836230755 0.2590013146 -0.9652200937 0.03561532497 255 255 255 255
3 23 14 32 
3 23 4 3 
3 31 17 39 
3 14 23 3 
3 120 105 98 
3 107 116 122 
3 154 164 167 
3 154 146 164 
3 28 27 12 
3 167 152 154 
3 187 181 197 
3 110 116 101 
3 96 101 86 
3 116 110 130 
3 23 39 17 
3 205 206 211 
3 96 86 82 
3 4 17 5 
3 75 54 64 
3 54 39 64 
3 174 160 152 
3 39 54 31 
3 54 40 31 
3 74 54 75 
3 101 107 91 
3 54 61 40 
3 167 187 174 
3 197 206 187 
3 211 220 215 
3 91 97 74 
3 160 147 152 
3 75 86 91 
3 16 40 35 
3 5 31 16 
3 91 107 97 
3 40 61 50 
3 97 95 78 
3 10 16 35 
3 166 160 179 
3 113 97 117 
3 97 107 117 
3 140 147 160 
3 35 40 50 
3 219 227 231 
3 74 97 78 
3 78 95 77 
3 148 151 165 
3 113 128 125 
3 57 35 50 
3 102 89 106 
3 35 26 10 
3 210 196 204 
3 77 62 57 
3 166 151 160 
3 163 148 165 
3 95 106 89 
3 140 125 128 
3 125 140 133 
3 129 115 108 
3 230 233 236 
3 35 44 26 
3 44 46 28 
3 216 203 210 
3 89 72 77 
3 129 133 148 
3 165 184 178 
3 196 178 184 
3 210 223 216 
3 209 195 203 
3 77 72 62 
3 178 171 163 
3 133 129 118 
3 87 102 108 
3 103 84 92 
3 215 204 205 
3 28 11 26 
3 71 87 92 
3 216 209 203 
3 44 62 46 
3 34 19 18 
3 148 163 155 
3 129 148 135 
3 49 55 68 
3 46 62 60 
3 232 237 238 
3 70 71 92 
3 171 180 162 
3 56 60 71 
3 155 171 162 
3 129 135 115 
3 84 90 68 
3 232 222 230 
3 26 44 28 
3 63 51 45 
3 224 221 228 
3 24 6 27 
3 209 193 195 
3 24 1 6 
3 132 112 126 
3 162 149 143 
3 115 135 126 
3 84 70 92 
3 143 149 132 
3 127 105 120 
3 207 201 189 
3 62 72 60 
3 180 195 193 
3 43 56 42 
3 56 55 42 
3 176 162 180 
3 115 126 103 
3 226 224 235 
3 103 126 112 
3 214 207 217 
3 193 176 180 
3 172 157 175 
3 186 200 189 
3 224 226 217 
3 25 9 1 
3 161 162 176 
3 176 175 161 
3 141 144 127 
3 193 209 200 
3 71 70 56 
3 112 98 90 
3 90 98 80 
3 89 102 87 
3 233 230 223 
3 224 217 213 
3 18 15 37 
3 214 226 225 
3 49 41 30 
3 68 80 65 
3 65 58 41 
3 80 98 83 
3 41 58 37 
3 169 158 172 
3 69 52 58 
3 127 131 114 
3 94 83 105 
3 85 111 99 
3 144 145 131 
3 114 94 105 
3 202 201 212 
3 201 202 191 
3 191 190 177 
3 107 122 117 
3 36 19 34 
3 69 67 53 
3 145 159 136 
3 208 202 212 
3 139 124 121 
3 168 153 150 
3 63 81 79 
3 8 18 19 
3 182 198 185 
3 53 47 36 
3 177 159 169 
3 100 79 81 
3 136 150 137 
3 119 136 137 
3 99 119 100 
3 79 93 76 
3 51 38 33 
3 7 29 13 
3 168 182 170 
3 153 168 170 
3 81 63 67 
3 100 93 79 
3 93 88 76 
3 33 38 22 
3 156 170 173 
3 21 29 7 
3 170 185 173 
3 109 123 104 
3 93 109 104 
3 0 21 7 
3 47 63 45 
3 123 139 142 
3 139 156 142 
3 20 22 38 
3 205 192 206 
3 177 183 191 
3 9 25 30 
3 194 192 205 
3 192 194 179 
3 48 64 39 
3 101 96 110 
3 48 39 23 
3 32 48 23 
3 167 164 181 
3 187 167 181 
3 138 122 116 
3 146 154 138 
3 130 146 138 
3 27 28 46 
3 206 220 211 
3 4 23 17 
3 101 91 86 
3 107 101 116 
3 75 64 82 
3 86 75 82 
3 17 31 5 
3 215 229 227 
3 179 160 174 
3 74 75 91 
3 40 16 31 
3 152 147 134 
3 179 174 192 
3 122 138 134 
3 227 219 215 
3 229 215 220 
3 184 179 194 
3 204 184 194 
3 95 89 77 
3 194 205 204 
3 54 74 61 
3 179 184 166 
3 184 165 166 
3 140 160 151 
3 133 140 151 
3 134 140 128 
3 84 103 90 
3 184 204 196 
3 215 205 211 
3 62 44 57 
3 106 95 113 
3 125 106 113 
3 125 133 118 
3 128 113 117 
3 230 216 223 
3 11 10 26 
3 188 171 178 
3 11 28 12 
3 77 57 78 
3 118 129 108 
3 219 231 223 
3 92 108 115 
3 43 24 27 
3 223 210 219 
3 108 102 118 
3 230 236 237 
3 135 148 155 
3 162 143 155 
3 1 24 25 
3 222 209 216 
3 213 209 221 
3 56 43 60 
3 24 42 25 
3 60 72 71 
3 171 188 180 
3 55 56 70 
3 155 163 171 
3 78 61 74 
3 51 63 66 
3 176 193 186 
3 112 132 120 
3 213 200 209 
3 157 172 158 
3 200 186 193 
3 126 135 143 
3 92 115 103 
3 25 49 30 
3 221 222 228 
3 55 49 42 
3 235 224 234 
3 65 49 68 
3 157 161 175 
3 237 232 230 
3 234 228 232 
3 183 189 201 
3 217 207 213 
3 68 90 80 
3 186 175 176 
3 68 70 84 
3 49 25 42 
3 83 65 80 
3 189 183 172 
3 172 175 189 
3 201 191 183 
3 222 221 209 
3 136 111 131 
3 225 212 214 
3 207 214 201 
3 37 15 41 
3 58 52 37 
3 9 30 15 
3 159 145 158 
3 111 85 94 
3 85 69 94 
3 37 34 18 
3 41 49 65 
3 131 127 144 
3 214 212 201 
3 114 131 111 
3 94 114 111 
3 212 225 218 
3 168 150 159 
3 131 145 136 
3 66 63 79 
3 47 53 67 
3 202 208 190 
3 34 37 52 
3 53 36 52 
3 182 168 190 
3 198 182 190 
3 38 51 59 
3 136 159 150 
3 85 99 81 
3 67 85 81 
3 0 8 19 
3 21 0 19 
3 198 190 208 
3 156 139 153 
3 153 139 137 
3 150 153 137 
3 137 121 119 
3 121 137 139 
3 109 100 121 
3 139 123 124 
3 66 76 59 
3 18 8 2 
3 159 177 168 
3 170 182 185 
3 93 100 109 
3 88 73 76 
3 66 59 51 
3 47 45 29 
3 93 104 88 
3 138 154 152 
3 134 138 152 
3 167 174 152 
3 147 140 134 
3 187 206 192 
3 174 187 192 
3 61 78 57 
3 128 117 134 
3 106 118 102 
3 57 50 61 
3 72 89 87 
3 196 210 203 
3 97 113 95 
3 151 148 133 
3 178 196 188 
3 165 178 163 
3 118 106 125 
3 238 234 232 
3 188 195 180 
3 143 135 155 
3 216 230 222 
3 222 232 228 
3 162 161 149 
3 228 234 224 
3 126 143 132 
3 15 18 2 
3 105 127 114 
3 200 213 207 
3 24 43 42 
3 92 87 108 
3 200 207 189 
3 141 149 161 
3 149 141 132 
3 65 83 58 
3 175 186 189 
3 69 58 83 
3 159 158 169 
3 119 111 136 
3 15 30 41 
3 226 214 217 
3 145 144 158 
3 83 94 69 
3 19 36 21 
3 111 119 99 
3 190 191 202 
3 67 69 85 
3 47 67 63 
3 36 34 52 
3 99 100 81 
3 21 36 47 
3 221 224 213 
3 121 124 109 
3 100 119 121 
3 123 109 124 
3 170 156 153 
3 198 199 185 
3 79 76 66 
3 73 59 76 
3 33 45 51 
3 33 13 29 
3 13 33 22 
3 169 183 177 
3 183 169 172 
3 27 46 43 
3 130 138 116 
3 122 134 117 
3 35 57 44 
3 219 204 215 
3 83 98 105 
3 203 188 196 
3 87 71 72 
3 204 219 210 
3 151 166 165 
3 195 188 203 
3 43 46 60 
3 161 157 141 
3 90 103 112 
3 6 12 27 
3 98 112 120 
3 144 141 157 
3 158 144 157 
3 120 132 141 
3 127 120 141 
3 52 69 53 
3 212 218 208 
3 190 168 177 
3 70 68 55 
3 29 21 47 
3 223 231 233 
3 29 45 33 
