ply
format ascii 1.0
comment meshmixer generated
element vertex 79
property float x
property float y
property float z
property float nx
property float ny
property float nz
property uchar red
property uchar green
property uchar blue
property uchar alpha
element face 126
property list uchar int vertex_indices
end_header
-13.41840076 34.02959824 -6.962681293 0.1117876917 0.8865783811 -0.4488677979 255 255 255 255
-12.7397995 33.26399994 -8.36415863 0.1943480223 0.8467233181 -0.4952660799 255 255 255 255
-12.50760078 35.71820068 -2.497830868 0.1897569895 0.9440405369 -0.269777149 255 255 255 255
-12.33699989 34.54029846 -5.742969513 0.1924932897 0.8891839981 -0.4150881469 255 255 255 255
-11.88049984 32.16689682 -9.649131775 0.2633608878 0.7927573323 -0.549706161 255 255 255 255
-11.51669979 33.83769989 -6.868100643 0.2135262042 0.8640474677 -0.4558821321 255 255 255 255
-11.30380058 35.03969955 -4.025400639 0.2563464344 0.913518548 -0.315864414 255 255 255 255
-11.7157011 35.95450211 0.09664022923 0.1976313442 0.9745810032 -0.1055162624 255 255 255 255
-11.45660019 35.71030045 -1.786218882 0.2322860807 0.9500558972 -0.2084153593 255 255 255 255
-10.89479923 32.81399918 -8.243670464 0.2794842124 0.8011565804 -0.5291848779 255 255 255 255
-11.08549976 35.9858017 1.61992979 0.1990918815 0.9763451815 -0.08433546126 255 255 255 255
-10.29529953 34.22919846 -5.286489964 0.2905158997 0.8741776943 -0.3891193271 255 255 255 255
-10.25380039 31.61599922 -9.549790382 0.3247268498 0.7554074526 -0.5691326857 255 255 255 255
-10.11400032 35.1230011 -2.585349321 0.3119879067 0.9153620005 -0.2545112669 255 255 255 255
-9.655440331 33.19200134 -6.905029774 0.3424864411 0.8186581731 -0.4609791934 255 255 255 255
-9.883970261 35.47649765 -0.7921914458 0.2915853262 0.9411892295 -0.1707066894 255 255 255 255
-9.276520729 34.41410065 -3.853509903 0.3560391366 0.8792628646 -0.3164379001 255 255 255 255
-9.788320541 35.63880157 0.6649961472 0.26943174 0.9577149153 -0.1009392664 255 255 255 255
-8.989480019 32.0345993 -8.255960464 0.3724434376 0.7598446012 -0.5328433514 255 255 255 255
-9.671569824 35.76270294 2.701830387 0.2776117623 0.9575874209 -0.07718869299 255 255 255 255
-8.504229546 30.72310066 -9.567378998 0.3960790336 0.7175092101 -0.5729764104 255 255 255 255
-8.63409996 33.45100021 -5.480160713 0.3985358179 0.8299322128 -0.3903609812 255 255 255 255
-8.170220375 34.50719833 -2.036410332 0.3829246759 0.8898396492 -0.2481008917 255 255 255 255
-8.20333004 34.96479797 -0.1353755295 0.3529298306 0.9209398627 -0.1652584225 255 255 255 255
-7.509859562 31.22450066 -8.199528694 0.4237774014 0.731077373 -0.5347322226 255 255 255 255
-7.752839565 32.25310135 -6.836699009 0.4272662401 0.7799702883 -0.4572634697 255 255 255 255
-8.114139557 35.34869766 3.69073987 0.3216253519 0.9431121349 -0.08424161375 255 255 255 255
-7.891509056 33.76739883 -3.817901373 0.4183320403 0.8483060002 -0.3246155083 255 255 255 255
-8.043169975 35.18249893 2.101019621 0.3296891153 0.9393675923 -0.09430607408 255 255 255 255
-6.819269657 30.06060028 -9.158070564 0.4324550927 0.7092852592 -0.556683898 255 255 255 255
-6.931650162 32.7492981 -5.065370083 0.4377235174 0.8106847405 -0.3888295293 255 255 255 255
-6.930590153 33.76580048 -2.475650072 0.4140354395 0.8639545441 -0.2866308689 255 255 255 255
-7.123519897 34.72410202 0.7975425124 0.370369792 0.9166736603 -0.150118798 255 255 255 255
-6.383640766 30.88299942 -7.757259369 0.4542118013 0.7353809476 -0.502898097 255 255 255 255
-6.701139927 34.18230057 -0.7231208682 0.3934243619 0.8878113627 -0.2387639582 255 255 255 255
-6.087520123 31.72809982 -6.09268856 0.4545954764 0.7724355459 -0.4434933066 255 255 255 255
-6.006659508 32.94129944 -3.497520447 0.4253102541 0.8341750503 -0.3510884941 255 255 255 255
-6.2855196 34.49749756 1.89588058 0.3514243066 0.9288054109 -0.1175648272 255 255 255 255
-6.180730343 34.66910172 3.786260605 0.3344953954 0.9377811551 -0.09316293895 255 255 255 255
-5.108880043 29.52969933 -8.45486927 0.4684805572 0.7115078568 -0.5237198472 255 255 255 255
-5.54627037 33.96409988 0.4959027469 0.3646042943 0.9129189849 -0.1834191978 255 255 255 255
-5.262269497 33.0320015 -2.348178864 0.4053162336 0.8627418876 -0.3023163974 255 255 255 255
-5.090709686 31.84840012 -4.791799545 0.4432495832 0.7956407666 -0.4128989577 255 255 255 255
-4.818050385 30.7166996 -6.476891041 0.4585524499 0.7489429712 -0.4783450961 255 255 255 255
-4.911319733 33.45869827 -0.5798403025 0.3803485036 0.8858705759 -0.2656469345 255 255 255 255
-4.694280148 34.03250122 2.543720245 0.3304664791 0.9345590472 -0.131876111 255 255 255 255
-3.958529711 28.21560097 -9.10763073 0.4490917325 0.7020195127 -0.5527071357 255 255 255 255
-4.145969868 32.08519745 -3.313541174 0.413240701 0.8278548717 -0.3793262839 255 255 255 255
-3.945809603 33.45869827 0.8915362358 0.3515103459 0.9122633934 -0.2102758735 255 255 255 255
-4.139110088 29.55349922 -7.555030823 0.4491787851 0.7197931409 -0.5292789936 255 255 255 255
-3.936890125 32.63100052 -1.667350888 0.3929648995 0.863060832 -0.317339927 255 255 255 255
-4.476900101 34.13330078 4.570980549 0.3047674 0.9477826357 -0.09394083917 255 255 255 255
-3.624760389 30.98450089 -4.894928455 0.4253589809 0.784209609 -0.4517576993 255 255 255 255
-3.064369917 32.77720261 -0.2104995996 0.3508709967 0.8916296363 -0.2861574888 255 255 255 255
-3.042870045 29.76959991 -6.292920589 0.424723357 0.7487097383 -0.5089634657 255 255 255 255
-3.352900267 33.67050171 3.394769907 0.2960628569 0.946012795 -0.1319339573 255 255 255 255
-2.719510078 33.15649796 1.630540133 0.3007962704 0.9321511388 -0.2015337199 255 255 255 255
-2.435909986 28.27029991 -7.882620811 0.4156296551 0.7287001014 -0.5442867875 255 255 255 255
-2.736370087 32.02970123 -1.905860424 0.3526509702 0.8628958464 -0.3620056808 255 255 255 255
-2.554460049 31.23099899 -3.439309359 0.3915860057 0.815128386 -0.4268795252 255 255 255 255
-2.344439983 33.55739975 4.718700409 0.2731018662 0.9536236525 -0.1265592873 255 255 255 255
-2.110800028 30.09429932 -5.046680927 0.3893405795 0.784291327 -0.4830124676 255 255 255 255
-1.790549994 32.51290131 0.2571425736 0.2861480117 0.9070365429 -0.3088754714 255 255 255 255
-1.898069978 33.20240021 3.121500254 0.2554634511 0.9519686699 -0.1688017249 255 255 255 255
-1.444959879 28.95219994 -6.263148785 0.3680515587 0.7591255903 -0.5369044542 255 255 255 255
-1.148330092 31.1093998 -2.42799902 0.3357361257 0.8364421725 -0.4331808984 255 255 255 255
-0.6901569963 28.02429962 -6.974950314 0.35451895 0.7333673835 -0.5800763965 255 255 255 255
-0.8441560864 30.27540016 -3.727169752 0.332547754 0.817690134 -0.4698880613 255 255 255 255
-0.8946530223 32.68630219 1.703449249 0.2299166024 0.944572866 -0.2343512326 255 255 255 255
-0.8422179222 31.61770058 -1.215411067 0.3002027571 0.8702622056 -0.3905406296 255 255 255 255
-0.3276469707 29.30390167 -4.958899498 0.3026344776 0.8022325635 -0.5146215558 255 255 255 255
0.5532979965 30.5862999 -2.287558794 0.2899314761 0.8443716168 -0.4505289197 255 255 255 255
0.460773021 28.1339016 -6.284729958 0.2867483497 0.7803292871 -0.555753231 255 255 255 255
-0.2820479572 32.86940002 3.322219849 0.2054304332 0.9607542157 -0.1864126176 255 255 255 255
-0.1214380264 32.06669998 0.4212617278 0.2563681602 0.9051030874 -0.3392104506 255 255 255 255
0.8759279847 29.78540039 -3.570969105 0.264090538 0.8300398588 -0.491212815 255 255 255 255
0.6942899823 31.23600006 -0.9567478299 0.2840436101 0.8693706393 -0.4043686092 255 255 255 255
0.7272629738 32.36779785 1.713200569 0.1879233718 0.9492385983 -0.2522515655 255 255 255 255
1.503139973 28.77910042 -4.971651554 0.2300127149 0.8153205514 -0.5313629508 255 255 255 255
3 16 11 6 
3 35 43 33 
3 6 2 8 
3 7 10 17 
3 7 17 15 
3 57 49 54 
3 29 24 33 
3 20 18 24 
3 9 18 12 
3 43 54 49 
3 14 25 18 
3 70 61 67 
3 61 70 64 
3 35 30 42 
3 64 54 61 
3 52 47 59 
3 72 64 70 
3 67 61 59 
3 65 71 67 
3 59 65 67 
3 65 59 58 
3 76 71 69 
3 76 69 74 
3 15 13 8 
3 5 14 9 
3 23 22 15 
3 6 8 13 
3 11 14 5 
3 43 52 54 
3 25 14 21 
3 25 21 30 
3 30 21 27 
3 21 16 27 
3 44 50 41 
3 30 27 36 
3 42 30 36 
3 27 16 22 
3 27 22 31 
3 36 27 31 
3 31 22 34 
3 28 17 19 
3 15 17 23 
3 34 40 44 
3 36 41 47 
3 36 31 41 
3 26 38 28 
3 45 40 37 
3 56 62 53 
3 69 62 74 
3 53 48 56 
3 56 68 62 
3 74 62 68 
3 60 63 55 
3 63 56 55 
3 68 63 73 
3 68 56 63 
3 32 28 37 
3 38 45 37 
3 77 74 68 
3 67 71 75 
3 17 10 19 
3 47 41 50 
3 18 9 14 
3 39 49 46 
3 8 7 15 
3 13 15 22 
3 33 25 35 
3 20 12 18 
3 64 72 66 
3 64 57 54 
3 64 66 57 
3 78 72 70 
3 30 35 25 
3 69 71 65 
3 58 50 53 
3 14 11 21 
3 19 26 28 
3 22 23 34 
3 5 9 1 
3 32 34 23 
3 16 6 13 
3 22 16 13 
3 42 36 47 
3 70 75 78 
3 41 31 34 
3 45 48 40 
3 38 51 45 
3 77 68 73 
3 17 28 23 
3 11 16 21 
3 49 57 46 
3 33 39 29 
3 39 33 43 
3 49 39 43 
3 62 58 53 
3 61 54 52 
3 59 61 52 
3 58 62 69 
3 47 52 42 
3 58 59 47 
3 70 67 75 
3 69 65 58 
3 20 24 29 
3 1 0 5 
3 41 34 44 
3 44 40 48 
3 32 37 40 
3 55 51 60 
3 3 6 11 
3 9 4 1 
3 4 9 12 
3 43 35 42 
3 5 3 11 
3 52 43 42 
3 25 33 24 
3 18 25 24 
3 50 44 53 
3 3 5 0 
3 28 32 23 
3 40 34 32 
3 58 47 50 
3 38 37 28 
3 48 53 44 
3 45 51 55 
3 56 48 45 
3 55 56 45 
