ply
format ascii 1.0
comment meshmixer generated
element vertex 375
property float x
property float y
property float z
property float nx
property float ny
property float nz
property uchar red
property uchar green
property uchar blue
property uchar alpha
element face 674
property list uchar int vertex_indices
end_header
-38.03079224 -3.574533939 -0.5006375313 -0.8746055961 -0.02257267386 0.4843093157 255 255 255 255
-37.71121216 -1.976777911 0.4588181973 -0.7418221235 -0.02745396458 0.6700345278 255 255 255 255
-37.81299973 0.7214858532 -0.243129462 -0.8521732092 0.1076586619 0.5120648146 255 255 255 255
-37.59744263 -8.054726601 -0.1744366884 -0.8111462593 -0.09734960645 0.5766842961 255 255 255 255
-37.61964035 -0.4278900623 0.548407793 -0.7374188304 0.05071165413 0.6735293865 255 255 255 255
-37.28104401 2.776364088 0.4382195473 -0.7567954659 0.1370853186 0.6391152143 255 255 255 255
-36.89496994 4.659740925 0.2202813923 -0.7687421441 0.2443951815 0.5910215974 255 255 255 255
-37.65499878 -4.612442017 0.4374866784 -0.7261734009 -0.03171726316 0.6867796183 255 255 255 255
-37.52109909 -6.128708363 0.4231718481 -0.7072310448 -0.06574764103 0.7039186954 255 255 255 255
-37.20780182 -9.244980812 0.3377928436 -0.7083001733 -0.132205531 0.6934209466 255 255 255 255
-37.20941162 -3.130656004 1.003369689 -0.6808531284 -0.02981242351 0.7318129539 255 255 255 255
-37.10453796 -10.22298813 -0.02705832571 -0.7658945918 -0.2251482904 0.6022571921 255 255 255 255
-36.83747101 1.052901983 1.31065774 -0.6561356187 0.07038236409 0.7513536811 255 255 255 255
-36.29850006 6.286114216 0.2648894787 -0.7651513815 0.2599676251 0.589033246 255 255 255 255
-36.7256012 -7.376624107 1.16633904 -0.6260145307 -0.07679368556 0.7760209441 255 255 255 255
-36.45253372 -1.049713731 1.60003078 -0.4871561825 0.001765389461 0.8733130693 255 255 255 255
-36.18858719 4.509249687 1.201305509 -0.6572625041 0.1778333932 0.732380569 255 255 255 255
-36.34450912 -9.992966652 1.025467515 -0.6708119512 -0.1821521968 0.7189102173 255 255 255 255
-36.28744888 -5.084393978 1.5439502 -0.4819691479 -0.04337387159 0.8751139641 255 255 255 255
-36.61496735 -11.74018097 0.1588978916 -0.7083294988 -0.1847433448 0.6812776923 255 255 255 255
-35.55277252 7.801996231 0.5811003447 -0.7401199341 0.3224063814 0.5901497006 255 255 255 255
-36.00704193 2.607675076 1.708193064 -0.4808916748 0.08097787201 0.8730325103 255 255 255 255
-34.94269943 9.506569862 0.1538401991 -0.7726991177 0.3371637464 0.5378258228 255 255 255 255
-35.05511856 6.697119713 1.701569319 -0.6028417349 0.1960505098 0.7733989954 255 255 255 255
-35.52638626 -10.83517933 1.419435978 -0.4028722048 -0.1520240009 0.9025423527 255 255 255 255
-35.75617981 -12.49692726 0.9233214259 -0.4323642552 -0.2079341263 0.8773964643 255 255 255 255
-35.8748436 -2.764880896 1.822708964 -0.284493506 -0.02704915777 0.958296299 255 255 255 255
-35.84402847 -8.61771965 1.561611652 -0.3694902062 -0.08346027136 0.9254789948 255 255 255 255
-35.54310608 -14.0172739 0.3875728846 -0.4622654021 -0.2992908955 0.8347069025 255 255 255 255
-35.23852921 0.7467544675 2.000372171 -0.2539769411 -0.006195091642 0.9671904445 255 255 255 255
-35.32462692 -6.466189861 1.825091481 -0.2387501746 -0.04004354775 0.9702550769 255 255 255 255
-34.92716217 3.985623598 2.050213575 -0.3404643834 0.06238291413 0.9381856918 255 255 255 255
-34.31532669 8.388890266 1.755866408 -0.6267184615 0.2461610585 0.7393434644 255 255 255 255
-34.49687958 5.375611305 2.114419937 -0.3646125197 0.06891656667 0.9286054969 255 255 255 255
-34.67631531 -4.423040867 1.967531919 -0.1414823234 -0.02422291599 0.9896444082 255 255 255 255
-34.65715408 -0.8047286868 2.066272736 -0.1378059387 -0.02199628949 0.9902149439 255 255 255 255
-33.91244507 10.26713562 1.392375112 -0.6385450363 0.265799433 0.7222263813 255 255 255 255
-34.10987473 2.512458801 2.247408152 -0.1593459696 -0.0208675079 0.9870022535 255 255 255 255
-34.32263184 -15.68557644 0.5290352702 -0.5017941594 -0.3248601556 0.801666081 255 255 255 255
-34.46694565 -14.50102615 0.9187207222 -0.4290286005 -0.2493466437 0.8681939244 255 255 255 255
-34.37663651 -13.0909071 1.365726829 -0.3502738774 -0.1993566006 0.9151858687 255 255 255 255
-33.87112808 -11.40032768 1.765249014 -0.2115821689 -0.1133328527 0.9707670212 255 255 255 255
-34.14097595 -9.342308044 1.86856544 -0.1396464854 -0.04774396122 0.9890497327 255 255 255 255
-32.77894211 11.99063301 1.640918732 -0.4955518544 0.2596295476 0.828867197 255 255 255 255
-33.76831055 -5.783111572 2.00533247 -0.05651490018 -0.03277255967 0.9978637099 255 255 255 255
-34.03668213 -7.531628132 1.923628926 -0.09139330685 -0.03269038349 0.9952781796 255 255 255 255
-33.81548691 -2.682340384 2.066816092 -0.07338425517 -0.02710951492 0.9969351888 255 255 255 255
-33.27316284 6.897571087 2.358725071 -0.2476127446 0.04304916039 0.9679022431 255 255 255 255
-33.26203156 4.584542751 2.37733674 -0.1391046494 -0.01288494002 0.9901938438 255 255 255 255
-33.25178909 0.7971444726 2.214359045 -0.06931127608 -0.04252516851 0.9966883063 255 255 255 255
-33.15100479 9.112727165 2.292227983 -0.375415355 0.1187037528 0.9192239642 255 255 255 255
-32.91336441 -4.231307983 2.075788975 -0.03702022135 -0.02463549189 0.9990108013 255 255 255 255
-33.24038315 -15.95004654 1.099284887 -0.3336821198 -0.267118305 0.9040486813 255 255 255 255
-32.33160019 10.93108082 2.300640821 -0.4342961013 0.1980273277 0.8787332177 255 255 255 255
-31.65507126 13.50843906 1.879107118 -0.4987024069 0.2344117314 0.8344740868 255 255 255 255
-32.30554962 2.800407887 2.369681835 -0.06023400649 -0.05514013395 0.9966601133 255 255 255 255
-33.06820297 -14.08252525 1.606027484 -0.2513507605 -0.1629055142 0.9540883303 255 255 255 255
-32.72478867 -1.087223649 2.17125845 -0.03747567534 -0.03699082881 0.9986126423 255 255 255 255
-31.95572472 7.936558723 2.592663765 -0.1734789014 -0.02444710582 0.9845340848 255 255 255 255
-32.06926727 5.701355457 2.536388159 -0.0957165584 -0.01308546215 0.9953226447 255 255 255 255
-32.84665298 -12.35100365 1.847512603 -0.1328639537 -0.07757062465 0.9880940914 255 255 255 255
-32.52150345 -17.56417084 0.714186132 -0.3163184524 -0.2972562015 0.9008781314 255 255 255 255
-32.28284454 -10.12516308 1.995216966 -0.06367511302 -0.03151705489 0.9974728823 255 255 255 255
-30.70815086 14.88129711 1.894249678 -0.5560773611 0.3437073529 0.7567319274 255 255 255 255
-31.51932716 4.271060467 2.527852774 -0.06662295759 -0.05361128971 0.9963368773 255 255 255 255
-31.79990959 -5.828831196 2.042751074 -0.02053267509 -0.0196125675 0.9995967746 255 255 255 255
-31.19173813 9.847493172 2.772233248 -0.2290788293 0.02820550464 0.9729991555 255 255 255 255
-32.08304214 -7.967664242 2.030863285 -0.03948294371 -0.009382802993 0.9991762042 255 255 255 255
-30.65151978 12.10612297 2.789925337 -0.3473607004 0.1271299422 0.9290739894 255 255 255 255
-31.84395027 -3.360227585 2.121263742 -0.01007277891 -0.03122243471 0.9994617105 255 255 255 255
-30.90896416 6.80389452 2.647150517 -0.1113353595 -0.05120046437 0.9924630523 255 255 255 255
-31.87725639 -15.33584595 1.66511488 -0.2479120791 -0.2020584047 0.9474766254 255 255 255 255
-31.38069153 0.7935812473 2.298210859 -0.02226718329 -0.06223879009 0.9978128672 255 255 255 255
-30.5818882 13.79535007 2.480268717 -0.457787782 0.2274560332 0.8594731688 255 255 255 255
-28.91116905 17.13211823 2.032092094 -0.517770946 0.4438238144 0.7313916087 255 255 255 255
-30.58711433 3.209059477 2.488296986 -0.02178060263 -0.06827094406 0.9974290133 255 255 255 255
-30.13401794 8.673350334 2.894565344 -0.1296147555 -0.06896838546 0.9891629815 255 255 255 255
-29.34994507 15.78458595 2.53918314 -0.4323115349 0.2975041866 0.8512332439 255 255 255 255
-30.72091293 -0.8884723186 2.209200859 -0.001161284163 -0.04099021107 0.9991588593 255 255 255 255
-31.3156395 -18.60120583 0.8471939564 -0.3482564688 -0.2972391546 0.8890255094 255 255 255 255
-31.16059494 -13.44538021 1.941298842 -0.1200485826 -0.04944810271 0.9915357828 255 255 255 255
-30.19071007 5.318148136 2.635126352 -0.04264258966 -0.07234273851 0.9964678288 255 255 255 255
-29.17560577 13.37294769 3.100320578 -0.311596781 0.09848365188 0.9450970292 255 255 255 255
-31.11680984 -11.1987896 2.003891706 -0.05638099089 -0.01840334572 0.998239696 255 255 255 255
-30.99782753 -16.80177498 1.562999487 -0.2880443633 -0.2337751091 0.9286440015 255 255 255 255
-29.37111473 10.3505497 3.114972591 -0.1638272852 -0.03113928437 0.9859974384 255 255 255 255
-30.75824165 -9.081658363 2.039632797 -0.02890921943 -0.007012930233 0.9995574355 255 255 255 255
-28.8891716 14.48153591 3.103789806 -0.3671717346 0.1685765237 0.9147496223 255 255 255 255
-30.38254356 -4.60562849 2.07429266 -0.00698288437 -0.01796239801 0.9998142719 255 255 255 255
-30.76799202 -14.96038151 1.962844849 -0.1578349024 -0.08880968392 0.9834637642 255 255 255 255
-29.92150116 -6.72496748 2.067223072 -0.02233244106 -0.0009804608999 0.9997501373 255 255 255 255
-29.60481834 0.4342069924 2.24402523 -0.00508328015 -0.0653488487 0.997849524 255 255 255 255
-28.81624031 12.05487347 3.254896641 -0.2069257349 -0.01546884514 0.9782343507 255 255 255 255
-29.16692162 7.193353653 2.875187397 -0.07907031476 -0.09841769934 0.9919989109 255 255 255 255
-29.89155006 -2.659228563 2.122991562 -0.002094216412 -0.03637765348 0.9993359447 255 255 255 255
-29.27862167 2.014646053 2.413523674 -0.004289689474 -0.07910393178 0.9968571663 255 255 255 255
-28.43051338 13.52260017 3.308416367 -0.2552289665 0.03388080746 0.9662868381 255 255 255 255
-27.84058189 17.31660271 2.678040028 -0.4532584846 0.3039644659 0.8379513025 255 255 255 255
-30.1527977 -17.4992466 1.674238205 -0.2926011682 -0.2267292291 0.9289663434 255 255 255 255
-29.93800926 -12.19905949 2.084926367 -0.07696720958 0.001267200685 0.9970328212 255 255 255 255
-28.72158241 3.763724804 2.519941568 -0.01139071677 -0.08109676838 0.9966411591 255 255 255 255
-28.14094162 9.291536331 3.166814804 -0.08998899907 -0.09374564886 0.9915209413 255 255 255 255
-29.86122131 -19.42913437 1.120114803 -0.3327505291 -0.3524974585 0.8746557236 255 255 255 255
-28.82246399 -0.9148643613 2.214110851 -0.009680306539 -0.04221881926 0.9990614653 255 255 255 255
-27.48230362 15.07213974 3.511839151 -0.3290725052 0.1419092119 0.9335807562 255 255 255 255
-29.5553875 -15.67667198 2.05650568 -0.1600515395 -0.08499342948 0.9834427238 255 255 255 255
-27.16404724 18.59443092 2.437839746 -0.5118789077 0.4126421213 0.7534629703 255 255 255 255
-28.96633148 -3.688642979 2.112627983 -0.01858186908 -0.02150000259 0.9995961785 255 255 255 255
-29.07121658 -20.72255516 0.6372393966 -0.3366106153 -0.5054610968 0.7944824696 255 255 255 255
-28.10401154 5.399947643 2.707034826 -0.0332779251 -0.1189966649 0.9923368096 255 255 255 255
-28.97130966 -8.441252708 2.108592987 -0.04097429663 0.004763775505 0.9991488457 255 255 255 255
-29.24778748 -13.77774334 2.137080669 -0.1057088524 -0.005240978207 0.9943833351 255 255 255 255
-29.07343674 -10.00730801 2.104351759 -0.05892425776 0.01041633915 0.9982081056 255 255 255 255
-27.40536499 11.13110828 3.401901722 -0.129015699 -0.09649953991 0.9869360328 255 255 255 255
-28.16504097 -2.301258087 2.166618586 -0.01516996603 -0.0314389728 0.9993905425 255 255 255 255
-27.81755066 0.586995542 2.304037809 -0.009898936376 -0.06794539839 0.9976399541 255 255 255 255
-28.43239975 -5.278317451 2.096050501 -0.03346449509 -0.002299539978 0.9994372725 255 255 255 255
-28.74554443 -18.29106903 1.901681542 -0.2668829858 -0.2377900034 0.9339321852 255 255 255 255
-28.84666824 -16.95173836 2.065868616 -0.1866394132 -0.09070034325 0.9782326818 255 255 255 255
-26.70168114 13.19744015 3.731794834 -0.197588712 -0.05852581561 0.9785363674 255 255 255 255
-27.31180954 7.550877571 3.035217047 -0.0491755195 -0.1264201999 0.9907571077 255 255 255 255
-27.30011559 2.597494841 2.452271461 -0.01274038665 -0.07801061124 0.9968711138 255 255 255 255
-26.47046852 16.47228432 3.678057671 -0.3680610359 0.1608958542 0.9157748818 255 255 255 255
-27.95511055 -6.744470119 2.131805658 -0.05296100304 0.01049501542 0.9985414147 255 255 255 255
-28.19375992 -12.0048275 2.205522537 -0.09169343859 0.02443477884 0.9954874516 255 255 255 255
-28.05529022 -21.74531937 0.4116715193 -0.4183340669 -0.4977098107 0.7597904801 255 255 255 255
-26.04743004 18.17380524 3.426794529 -0.4158651233 0.2998000979 0.8585895896 255 255 255 255
-26.71730804 4.235536098 2.60897398 -0.02612592466 -0.1032191813 0.9943154454 255 255 255 255
-26.88539124 -0.9583403468 2.220029593 -0.02772106975 -0.03729632869 0.9989196658 255 255 255 255
-27.97207642 -19.80655861 1.685699582 -0.304330796 -0.3398685753 0.8898719549 255 255 255 255
-27.00570297 -3.258455276 2.163968563 -0.04584938288 -0.009206965566 0.9989059567 255 255 255 255
-27.74773598 -15.33151054 2.297848701 -0.1296187937 -0.02211791463 0.9913172126 255 255 255 255
-26.2628994 9.708540916 3.350647449 -0.09529647976 -0.1373593211 0.9859264493 255 255 255 255
-27.7986908 -17.67680931 2.206091166 -0.1704986244 -0.1119939014 0.978972733 255 255 255 255
-25.65186119 14.65482807 4.022179127 -0.2439913303 -0.004298692103 0.9697678685 255 255 255 255
-26.22946548 6.016915321 2.842037916 -0.03324472904 -0.1375894099 0.9899312854 255 255 255 255
-27.37981987 -8.814409256 2.188309669 -0.07931194454 0.02179923654 0.9966114759 255 255 255 255
-27.20771027 -10.37420177 2.25358057 -0.09232059866 0.02988047898 0.9952809215 255 255 255 255
-26.34525108 0.9277700782 2.332516909 -0.02383186109 -0.06546975672 0.9975699186 255 255 255 255
-25.46861649 11.52075481 3.728080273 -0.1524163485 -0.1347746998 0.9790837765 255 255 255 255
-26.56578064 -5.337345123 2.205294132 -0.06469163299 0.009340429679 0.9978615642 255 255 255 255
-27.06794739 -13.56579304 2.3875525 -0.1172879636 0.01819601655 0.9929312468 255 255 255 255
-25.51741791 7.754064083 3.126052141 -0.06237995252 -0.1482468843 0.9869810343 255 255 255 255
-26.98117828 -21.13014984 1.497318983 -0.3658927977 -0.4211073518 0.8299343586 255 255 255 255
-24.37980843 20.31367493 3.08944726 -0.4000242651 0.4783083498 0.7817938924 255 255 255 255
-26.58630371 -22.12933159 1.014268041 -0.3562094867 -0.5200154781 0.7763367295 255 255 255 255
-24.72359085 16.91370392 4.206287861 -0.2994948924 0.09750665724 0.9491023421 255 255 255 255
-24.46134186 13.14869213 4.134593964 -0.1812744439 -0.1197322309 0.9761166573 255 255 255 255
-25.86717987 -7.143303871 2.28334713 -0.08627872169 0.0244643297 0.9959706068 255 255 255 255
-25.14363861 2.848936796 2.526961088 -0.03004436195 -0.09020140767 0.9954702854 255 255 255 255
-26.16378212 -11.63284683 2.409719944 -0.1215513796 0.04396729171 0.9916108847 255 255 255 255
-24.30542946 18.90669823 3.940542698 -0.3674375713 0.3146221638 0.8752157092 255 255 255 255
-26.33288383 -16.46612549 2.475952148 -0.1478895545 -0.02611576766 0.9886590242 255 255 255 255
-26.36296082 -18.45812798 2.348278046 -0.1926313192 -0.1236492917 0.9734495282 255 255 255 255
-24.50286674 4.854096889 2.739741325 -0.04396262765 -0.1240205392 0.9913052917 255 255 255 255
-25.20951653 -2.133827925 2.280646801 -0.05856643245 -0.0102848541 0.9982305169 255 255 255 255
-24.69450188 10.34686375 3.677667618 -0.1305802464 -0.171941787 0.9764142632 255 255 255 255
-26.13881874 -14.74195957 2.488572836 -0.1366573125 0.004186652135 0.9906095266 255 255 255 255
-25.34026718 -0.4898495376 2.316296101 -0.04493414238 -0.03045248054 0.9985256791 255 255 255 255
-25.25920868 -3.881251574 2.288599968 -0.07195681334 0.009537149221 0.9973621368 255 255 255 255
-25.86303329 -22.56000519 1.005468011 -0.2951497436 -0.5216999054 0.8004472852 255 255 255 255
-25.47356224 -9.757725716 2.414799929 -0.1207829118 0.03811272234 0.9919470549 255 255 255 255
-26.11272812 -19.95643616 2.165333986 -0.2454136163 -0.2149441838 0.9452888966 255 255 255 255
-24.56085014 6.744011402 3.027517557 -0.06629515439 -0.1630658656 0.9843853116 255 255 255 255
-24.55199432 1.323341727 2.411196947 -0.03507085145 -0.06299420446 0.9973974824 255 255 255 255
-25.12784386 -5.587806225 2.304472446 -0.08900030702 0.02098755911 0.9958104491 255 255 255 255
-25.09858322 -8.136037827 2.405225277 -0.1155268699 0.03976844251 0.9925079346 255 255 255 255
-24.02207184 8.890761375 3.460556984 -0.1013095677 -0.186402142 0.9772362113 255 255 255 255
-23.83757782 14.96460152 4.4619627 -0.2203945518 -0.05889778212 0.9736309648 255 255 255 255
-25.536623 -21.36307144 1.90593946 -0.2612087131 -0.3984463215 0.8792101741 255 255 255 255
-25.43248177 -12.99952221 2.58512044 -0.1374210417 0.03330923989 0.9899525046 255 255 255 255
-23.56988716 11.82513714 4.069607258 -0.1515333652 -0.1657858044 0.9744499326 255 255 255 255
-23.28817177 17.89147186 4.535855293 -0.3031656146 0.1708663255 0.9374941587 255 255 255 255
-25.11982727 -17.18292809 2.650636673 -0.1597144306 -0.03782463446 0.986438334 255 255 255 255
-22.83677673 21.69282913 2.922788382 -0.3892253041 0.5347984433 0.7499961853 255 255 255 255
-23.20589638 3.799965858 2.68770957 -0.05403386801 -0.1127334237 0.9921550155 255 255 255 255
-24.58798599 -22.76515198 1.336706996 -0.2563354373 -0.5012485385 0.8264635801 255 255 255 255
-24.74920464 -15.52356529 2.722717762 -0.152918905 0.00387902651 0.9882311225 255 255 255 255
-22.67738914 19.94775581 4.169705391 -0.3508116901 0.3762565553 0.8575326204 255 255 255 255
-24.593256 -14.34969997 2.728528023 -0.1505467743 0.01700278744 0.9884566665 255 255 255 255
-24.86776924 -18.60606003 2.611021996 -0.1870204061 -0.07585830241 0.9794227481 255 255 255 255
-23.60535812 -3.087150574 2.385515451 -0.06514794379 0.01442150492 0.9977713823 255 255 255 255
-22.83872032 10.28273582 3.889954567 -0.124349758 -0.198388204 0.9722033143 255 255 255 255
-23.0652504 2.391730309 2.556772232 -0.05803405121 -0.08390177041 0.9947826862 255 255 255 255
-22.59674644 16.53268433 4.814042568 -0.2430426478 -0.003841617145 0.9700080156 255 255 255 255
-23.59045029 -1.217042804 2.387059212 -0.05669762567 -0.01049028989 0.9983362556 255 255 255 255
-22.67984962 13.43373013 4.502111912 -0.1805419773 -0.1490179747 0.9722130895 255 255 255 255
-23.81097221 -6.761894226 2.492649555 -0.1287661195 0.04820392281 0.9905027151 255 255 255 255
-22.82284546 5.582874775 2.96326375 -0.07840194553 -0.1561876237 0.9846108556 255 255 255 255
-24.06483269 -11.0893383 2.670661211 -0.157447353 0.0513554588 0.9861911535 255 255 255 255
-23.59060669 -5.041069508 2.44545269 -0.1021272242 0.03908897936 0.9940030575 255 255 255 255
-23.2589798 0.6730155349 2.431550264 -0.05838422105 -0.03828086704 0.9975599647 255 255 255 255
-24.32000923 -20.02879143 2.585440874 -0.2068615854 -0.1929743886 0.9591502547 255 255 255 255
-22.67436409 7.457176685 3.300842285 -0.09658392519 -0.1879379749 0.9774205089 255 255 255 255
-23.58328247 -13.12742138 2.848644972 -0.1629507095 0.03208021075 0.986112535 255 255 255 255
-23.86988831 -21.69108772 2.169681072 -0.2116701454 -0.372882843 0.9034125209 255 255 255 255
-22.41106606 8.885624886 3.638557434 -0.1141351312 -0.2100327611 0.9710094929 255 255 255 255
-23.43139458 -8.851469994 2.655772209 -0.1572679877 0.05229980499 0.9861701131 255 255 255 255
-21.63182831 20.93250084 4.135639191 -0.3095859289 0.4890415072 0.8154722452 255 255 255 255
-21.80162239 18.26730347 4.957410812 -0.2576951981 0.1425151229 0.9556581974 255 255 255 255
-21.61289787 15.11163998 4.922608852 -0.2054410577 -0.1053938493 0.9729779363 255 255 255 255
-23.57903671 -16.59798431 2.898628235 -0.1688528955 -0.008843143471 0.985601604 255 255 255 255
-20.89369011 22.40091896 3.308494329 -0.2890332341 0.5563297868 0.7790744305 255 255 255 255
-21.66534042 11.66585732 4.347371578 -0.1637786478 -0.2040180266 0.9651700258 255 255 255 255
-22.56648064 -3.972541094 2.482606649 -0.1180912852 0.05807549879 0.9913030267 255 255 255 255
-22.88680458 -14.6249485 2.995111942 -0.1741637737 0.01210969687 0.9846422672 255 255 255 255
-21.63192177 3.963835716 2.813282728 -0.09962809086 -0.1248371303 0.98716259 255 255 255 255
-21.87912369 -2.318590403 2.48279047 -0.1031919718 0.01670478657 0.9945212007 255 255 255 255
-20.81255531 19.74473763 4.84074688 -0.2329440117 0.2836713195 0.9301976562 255 255 255 255
-23.22994232 -18.52898788 2.932402134 -0.1830602288 -0.06021761149 0.9812557101 255 255 255 255
-22.96359825 -22.31141853 2.08408761 -0.200112015 -0.4221518934 0.8841623068 255 255 255 255
-21.96614456 -0.4753445089 2.494951248 -0.08638864756 -0.01425798424 0.9961594939 255 255 255 255
-21.08577347 9.898247719 4.022015095 -0.1422820091 -0.2182178497 0.9654723406 255 255 255 255
-22.38229752 -10.32934952 2.93283391 -0.1927374303 0.05909185484 0.9794694781 255 255 255 255
-20.54359436 16.63258934 5.285707474 -0.2156086862 -0.0302171763 0.9760122299 255 255 255 255
-21.09506607 1.600523591 2.64280057 -0.09164643288 -0.0656915158 0.9936224222 255 255 255 255
-20.79544449 8.079385757 3.658646107 -0.1336066425 -0.2120149285 0.9680903554 255 255 255 255
-21.63744545 -5.536037445 2.737093925 -0.1516724676 0.07506420463 0.9855763912 255 255 255 255
-20.23808098 13.38902187 4.960791111 -0.196307838 -0.1705099046 0.9656032324 255 255 255 255
-22.22943687 -7.297635555 2.769251585 -0.179105714 0.07158138603 0.9812223315 255 255 255 255
-22.60632324 -20.49620819 2.835636854 -0.1959826499 -0.2210411131 0.9553698897 255 255 255 255
-22.01105499 -12.33184528 3.132235527 -0.2029758841 0.03832985833 0.9784332514 255 255 255 255
-20.85134315 5.925332546 3.205768824 -0.1272702068 -0.1724914461 0.9767543077 255 255 255 255
-19.79051971 21.03947258 4.563529015 -0.214405939 0.4503154755 0.8667445183 255 255 255 255
-21.89515305 -15.71705151 3.189018488 -0.19661358 0.007855898701 0.9804495573 255 255 255 255
-21.4190979 -8.9344244 3.045839548 -0.2034977227 0.06694418192 0.9767841101 255 255 255 255
-19.67545891 18.0912838 5.442468166 -0.2005478293 0.1252429485 0.9716454148 255 255 255 255
-19.83538628 10.85898113 4.455542088 -0.1841445118 -0.2379134446 0.9536707997 255 255 255 255
-20.78100967 -3.324108362 2.711721897 -0.1539555341 0.06377546489 0.986017406 255 255 255 255
-21.79318237 -17.30016708 3.22424674 -0.1993424892 -0.0117231505 0.9798597693 255 255 255 255
-21.55465698 -23.3589325 1.688187957 -0.1635215282 -0.5275245309 0.833653748 255 255 255 255
-19.57325554 12.03189278 4.825732231 -0.1912909895 -0.2190777808 0.9567720294 255 255 255 255
-19.24016762 22.47646904 3.852663994 -0.2346739471 0.5017425418 0.8325758576 255 255 255 255
-19.57175064 14.68979073 5.338051319 -0.2108999789 -0.1190570369 0.9702301621 255 255 255 255
-20.18712997 -0.02695453726 2.660063744 -0.1368673593 -0.00540324254 0.9905746579 255 255 255 255
-20.11846924 2.983384371 2.877575397 -0.1452156901 -0.1114837304 0.9830990434 255 255 255 255
-20.20016289 -1.427843809 2.712822676 -0.1665099561 0.02696702629 0.9856709242 255 255 255 255
-19.68891716 7.226066113 3.629233599 -0.1768724769 -0.2046828121 0.9627154469 255 255 255 255
-21.09906769 -13.91554356 3.351243973 -0.2218243927 0.007872983813 0.9750548601 255 255 255 255
-18.75807953 19.83224297 5.245808601 -0.1767994761 0.2833530009 0.9425778389 255 255 255 255
-21.5365715 -19.0101223 3.209157228 -0.1844137907 -0.08224289119 0.9794017076 255 255 255 255
-21.10796928 -21.85306931 2.728695154 -0.1586543024 -0.4067157805 0.8996727467 255 255 255 255
-20.8621521 -10.60458279 3.279226542 -0.2287653387 0.0634758994 0.9714099169 255 255 255 255
-19.19881058 9.208834648 4.18930912 -0.200735867 -0.2248081565 0.9535021782 255 255 255 255
-19.43590355 4.600777149 3.213231325 -0.1777973771 -0.1498154402 0.9725962281 255 255 255 255
-20.18060112 -4.84544611 2.895415306 -0.1990208924 0.0904231891 0.9758147001 255 255 255 255
-20.29925537 -7.838934422 3.199613094 -0.2206582725 0.0841595158 0.9717134833 255 255 255 255
-20.01941109 -6.170701027 3.103742599 -0.2155473381 0.1035475656 0.9709877968 255 255 255 255
-19.35683632 1.260239244 2.832540989 -0.1865885705 -0.058803197 0.9806767702 255 255 255 255
-20.87251472 -20.43734169 3.189004421 -0.1487859339 -0.1929078549 0.9698707461 255 255 255 255
-18.52690887 16.66048622 5.713042736 -0.2014295906 -0.02322826162 0.9792275429 255 255 255 255
-19.48989868 -2.646930933 2.83754015 -0.2038774788 0.04909358174 0.9777646661 255 255 255 255
-17.86636162 21.37764931 4.778454781 -0.153174907 0.4023395479 0.9025853872 255 255 255 255
-20.3850956 -15.56817245 3.527920723 -0.2257951498 0.001531342859 0.9741736054 255 255 255 255
-18.7069664 6.144108772 3.619065285 -0.2202457935 -0.1785572916 0.9589625001 255 255 255 255
-18.48913002 13.07052231 5.265944958 -0.2216337174 -0.186997816 0.9570320249 255 255 255 255
-20.08248901 -12.48077679 3.580490112 -0.2379121184 0.03513463587 0.9706510305 255 255 255 255
-19.05840111 -3.635955095 3.061764956 -0.2406558692 0.08892159164 0.9665287137 255 255 255 255
-19.67799568 -9.023591995 3.450876474 -0.2495334148 0.07837697864 0.9651891589 255 255 255 255
-18.12555313 10.88425732 4.851252079 -0.2468200922 -0.2225812972 0.9431529045 255 255 255 255
-17.74287796 18.17047501 5.801615238 -0.1697323918 0.1412173212 0.9753197432 255 255 255 255
-18.38114166 -0.3095821738 3.025951385 -0.2393094301 0.02361224778 0.9706562161 255 255 255 255
-20.03237343 -17.62813568 3.617298365 -0.1891208887 -0.05146498978 0.9806042314 255 255 255 255
-18.25561142 7.852385998 4.094352722 -0.2471460104 -0.2107819766 0.945774734 255 255 255 255
-18.2752533 3.042681217 3.222875834 -0.2555096745 -0.1086618155 0.9606807232 255 255 255 255
-19.41156006 -23.03151131 2.325157404 -0.1211745739 -0.4547837973 0.8823199272 255 255 255 255
-17.32164192 19.80339813 5.478872776 -0.1375691742 0.3151055574 0.9390331507 255 255 255 255
-17.55803108 14.99952888 5.80836153 -0.2322706878 -0.1003862172 0.9674569368 255 255 255 255
-19.51896286 -19.48386765 3.495595932 -0.1350169778 -0.1480605006 0.9797185659 255 255 255 255
-18.38520241 -5.127574921 3.38778758 -0.2874704599 0.1096292213 0.9514946938 255 255 255 255
-19.14258003 -21.26249695 3.170403957 -0.09218617529 -0.312664777 0.9453794956 255 255 255 255
-18.426157 -7.050132275 3.606865406 -0.2842237949 0.09910503775 0.9536220431 255 255 255 255
-17.90173721 -2.035848856 3.247406244 -0.2984088361 0.05621245503 0.9527813792 255 255 255 255
-18.74384689 -10.67520714 3.825380325 -0.2651877403 0.05796645209 0.9624527693 255 255 255 255
-17.30971718 9.187162399 4.671783447 -0.2937182784 -0.2222316861 0.929700315 255 255 255 255
-17.78950691 -3.628642321 3.421240807 -0.2991995811 0.08991958201 0.9499442577 255 255 255 255
-18.98635864 -14.08571529 3.878721714 -0.2278637737 -0.002182857599 0.9736905694 255 255 255 255
-17.45298958 1.227215171 3.29524684 -0.3205442429 -0.05645611137 0.9455496073 255 255 255 255
-17.25517464 4.630401134 3.721071959 -0.3193610907 -0.1410878152 0.937071383 255 255 255 255
-16.90941811 6.433208942 4.181763172 -0.3258434534 -0.1868788302 0.9267698526 255 255 255 255
-18.82886696 -16.06611633 3.88751626 -0.1790244728 -0.03550957143 0.9832035899 255 255 255 255
-16.58187485 13.56825638 5.837949753 -0.2775726914 -0.1563022286 0.9479045272 255 255 255 255
-16.70887375 12.23884773 5.562200546 -0.2943201959 -0.1900297701 0.9366238713 255 255 255 255
-16.85788345 8.229590416 4.581831455 -0.3508870006 -0.2086782157 0.9128700495 255 255 255 255
-16.21710587 21.35476303 4.994815826 -0.1057927385 0.36580351 0.9246597886 255 255 255 255
-16.51893997 16.73962212 6.111812592 -0.2171521187 0.04259975627 0.9752078056 255 255 255 255
-17.91843796 -8.935016632 3.947091341 -0.305583775 0.07547064126 0.9491695166 255 255 255 255
-17.95860863 -12.17097855 4.104632378 -0.2532612383 0.01415775903 0.9672943354 255 255 255 255
-16.75487328 -0.2531341016 3.537779808 -0.3805144131 0.0244198516 0.9244525433 255 255 255 255
-18.39213943 -18.40850639 3.80385375 -0.1081854999 -0.1051061228 0.9885588288 255 255 255 255
-15.81655216 19.04155159 5.949141502 -0.1357969493 0.2579424083 0.956569314 255 255 255 255
-16.24838448 10.25642586 5.293423653 -0.3558139503 -0.1883249581 0.9153852463 255 255 255 255
-16.0382328 3.210180044 4.042995453 -0.4111255109 -0.0954035446 0.9065726399 255 255 255 255
-16.47793579 -3.786214113 3.88874507 -0.4020718038 0.08216927946 0.9119136333 255 255 255 255
-16.57947159 -5.844529629 4.102865696 -0.3656370938 0.1047400981 0.9248453975 255 255 255 255
-17.6822319 -14.9254446 4.124576092 -0.1657640487 -0.04812666029 0.984990418 255 255 255 255
-15.67582703 5.447818756 4.526505947 -0.4449881315 -0.1438742131 0.8839036822 255 255 255 255
-16.86574745 -7.642277718 4.198981285 -0.3474224508 0.09113057703 0.9332699776 255 255 255 255
-15.47504044 8.937185287 5.363306046 -0.428989321 -0.1823737621 0.8847078681 255 255 255 255
-16.99364281 -10.60519791 4.362485886 -0.3031772375 0.03041202575 0.9524487853 255 255 255 255
-15.51115036 6.953242302 4.908912659 -0.4553610682 -0.1794727296 0.8720297217 255 255 255 255
-17.46453857 -22.48095322 2.831730127 -0.06463630497 -0.3473606706 0.9355013371 255 255 255 255
-15.14249229 14.54694843 6.438506603 -0.2857243717 -0.07028079033 0.9557312131 255 255 255 255
-17.29971504 -20.01327705 3.667187214 -0.03933936357 -0.2227094471 0.9740908146 255 255 255 255
-16.00224113 -1.823930144 3.980558395 -0.4662991762 0.05691741779 0.8827941418 255 255 255 255
-15.63578892 1.437771082 4.096924782 -0.5071480274 -0.03714418784 0.8610581756 255 255 255 255
-15.05077934 12.86517429 6.24725008 -0.3415108323 -0.1282644719 0.9310846329 255 255 255 255
-15.16932964 11.28071213 5.930484772 -0.3817787468 -0.1484179348 0.9122593403 255 255 255 255
-16.9983654 -13.41234493 4.330810547 -0.1929477602 -0.04839058593 0.9800150394 255 255 255 255
-17.1881752 -16.59047508 4.099020004 -0.08784288168 -0.09968583286 0.9911338687 255 255 255 255
-14.69659328 17.62114906 6.415068626 -0.1946679801 0.1931467503 0.9616645575 255 255 255 255
-15.05136871 4.180109978 4.69793272 -0.5273600221 -0.09787965566 0.8439851999 255 255 255 255
-14.36255932 20.24204826 5.632637978 -0.1019695699 0.3672445118 0.9245180488 255 255 255 255
-14.55665302 16.17303467 6.664888382 -0.2531898618 0.05608573928 0.9657894373 255 255 255 255
-16.00488472 -8.656528473 4.610625267 -0.3619168401 0.05303390324 0.9307006001 255 255 255 255
-15.23374176 -0.3485228121 4.313494682 -0.5606151819 0.01764277928 0.8278884888 255 255 255 255
-16.48881721 -18.41208267 3.88431716 -0.002266762313 -0.1385203451 0.9903569818 255 255 255 255
-14.57996941 2.637183905 4.894110203 -0.6082664728 -0.04619518667 0.7923874855 255 255 255 255
-16.09325981 -11.84449291 4.61493063 -0.2203232348 -0.07497793436 0.9725409746 255 255 255 255
-13.47826481 19.07234955 6.203534126 -0.1332815289 0.2947527766 0.9462329745 255 255 255 255
-13.80068588 9.991998672 6.391830921 -0.4637853503 -0.1111398563 0.8789488673 255 255 255 255
-15.15652084 -4.896778107 4.680839539 -0.5349878073 0.07207621634 0.8417797089 255 255 255 255
-14.18125534 5.986661911 5.523639679 -0.5762078762 -0.1129980013 0.8094540834 255 255 255 255
-15.83973408 -15.10141087 4.381735802 -0.07832310349 -0.124330543 0.9891448021 255 255 255 255
-15.29163361 -10.03448009 4.911880493 -0.3158052266 -0.02703118697 0.9484389424 255 255 255 255
-13.95998287 7.894345284 6.012734413 -0.5302224159 -0.1294973344 0.8379108906 255 255 255 255
-15.23774719 -6.905051231 4.796375275 -0.476388067 0.05113099515 0.8777471185 255 255 255 255
-14.66314411 -2.814825535 4.841479778 -0.5856845379 0.04128794 0.809486866 255 255 255 255
-15.60462856 -16.71938705 4.109227657 0.00319326343 -0.1505455226 0.9885979295 255 255 255 255
-13.32788944 11.6347599 6.803973675 -0.415143013 -0.08644600213 0.9056397676 255 255 255 255
-13.37786388 13.67801857 6.934866428 -0.3528141975 -0.0566524528 0.9339767694 255 255 255 255
-15.89922619 -21.2707119 3.309475422 0.004136112519 -0.2693545222 0.963032186 255 255 255 255
-14.22751999 -0.8908956647 5.162996292 -0.6602806449 0.02658491768 0.7505482435 255 255 255 255
-15.26756287 -13.58972454 4.598905087 -0.1264240146 -0.1010381356 0.9868172407 255 255 255 255
-13.25587845 15.37701607 7.026763439 -0.2870993614 0.03594590351 0.9572260976 255 255 255 255
-13.82246494 1.073452592 5.499279022 -0.6776009202 0.0001905587269 0.7354298234 255 255 255 255
-12.98137283 17.03295898 6.92974472 -0.2239699364 0.1661848724 0.9603229165 255 255 255 255
-13.54394531 3.994591475 5.873646259 -0.6552190781 -0.05408412591 0.753500402 255 255 255 255
-15.14564133 -19.48569679 3.659526825 0.04461453483 -0.1806159019 0.9825413227 255 255 255 255
-14.29646587 -8.673873901 5.371652126 -0.4142611027 -0.06788250059 0.9076231122 255 255 255 255
-14.72908211 -17.81885338 3.92421031 0.02512358315 -0.1555530429 0.9875079989 255 255 255 255
-13.55196857 -3.825262308 5.872364521 -0.6882452369 0.02498795278 0.725047648 255 255 255 255
-13.75884533 -5.316235542 5.780342102 -0.6319077611 0.0181177929 0.7748318315 255 255 255 255
-13.87034416 -10.6024065 5.284938335 -0.2447701544 -0.1592890024 0.9564071298 255 255 255 255
-13.18478012 5.411520958 6.300480366 -0.6622446775 -0.04193487391 0.7481132746 255 255 255 255
-13.09279537 2.468127728 6.225489616 -0.7178612351 -0.002159561496 0.696182847 255 255 255 255
-12.67513943 6.828365326 6.834378242 -0.6114608645 -0.06038320437 0.788967371 255 255 255 255
-14.25163746 -15.96763229 4.209403515 0.004735585302 -0.1822067499 0.9832488298 255 255 255 255
-13.64380646 -7.151263714 5.824643612 -0.5767552257 -0.05413421616 0.8151214123 255 255 255 255
-12.31255722 12.27223969 7.321581364 -0.3818573654 -0.02670780011 0.9238352776 255 255 255 255
-13.38673782 -2.120592594 6.036108494 -0.7425326705 0.0140573727 0.6696622968 255 255 255 255
-12.57224655 8.490340233 7.014039516 -0.5280691981 -0.0284588486 0.8487243652 255 255 255 255
-14.0205431 -14.24615765 4.593289852 -0.04682888836 -0.1712879688 0.9841074347 255 255 255 255
-12.81289196 -0.2912103832 6.632332325 -0.7682693005 0.02508671582 0.6396350265 255 255 255 255
-13.84901428 -12.56288719 4.885708809 -0.1430238336 -0.1588058323 0.9768955112 255 255 255 255
-11.95333958 10.35017586 7.446162224 -0.442733109 -0.03840000555 0.8958308101 255 255 255 255
-12.53662109 1.132569313 6.926768303 -0.7756125331 0.03917305171 0.6299926043 255 255 255 255
-11.5141449 15.76436234 7.466694355 -0.265768677 0.1068904623 0.9580926299 255 255 255 255
-11.45741558 13.76953888 7.716567039 -0.3379311562 0.02356232703 0.9408758283 255 255 255 255
-12.21984196 4.217922688 7.171366215 -0.7108479738 0.01769839227 0.7031229734 255 255 255 255
-12.01084232 5.861206532 7.364233017 -0.6562095284 0.008344166912 0.7545326352 255 255 255 255
-12.80556393 -8.058342934 6.232288837 -0.4921162724 -0.179066807 0.8519135118 255 255 255 255
-12.59470654 -4.685090542 6.868581295 -0.7097239494 -0.009655940346 0.704413712 255 255 255 255
-12.46463585 -3.195729494 7.171764851 -0.7691014409 -0.02008247189 0.6388111711 255 255 255 255
-12.2115593 -1.37903595 7.527442455 -0.7992995381 0.01908407547 0.6006297469 255 255 255 255
-11.84362984 2.462248087 7.695505619 -0.7645691037 0.04506236315 0.6429646015 255 255 255 255
-12.47818375 -6.146295071 6.956236839 -0.6578142047 -0.07291611284 0.7496424317 255 255 255 255
-12.83521271 -11.24852848 5.287593842 -0.1676917225 -0.2647505403 0.9496244788 255 255 255 255
-11.81238747 0.5216336846 8.034809113 -0.8185156584 0.04897066951 0.5723931789 255 255 255 255
-11.19013405 7.199032784 7.972341537 -0.5838326812 0.03594803438 0.8110777736 255 255 255 255
-10.48814297 11.9575758 7.939322948 -0.3204786181 0.00150270632 0.9472545385 255 255 255 255
-12.37815857 -9.470041275 6.007713318 -0.3315996826 -0.2198171169 0.9174541235 255 255 255 255
-10.49932289 9.192085266 8.164896965 -0.4919819832 0.02615061961 0.8702125549 255 255 255 255
-10.88830948 5.134357929 8.390731812 -0.6819788218 0.05907531455 0.7289821506 255 255 255 255
-10.88660812 3.70116663 8.639178276 -0.7235949039 0.08033493161 0.6855338812 255 255 255 255
3 41 42 24 
3 42 27 24 
3 160 169 145 
3 24 27 17 
3 195 169 176 
3 176 210 195 
3 143 145 169 
3 241 249 220 
3 241 265 270 
3 209 180 192 
3 289 262 268 
3 56 52 71 
3 105 98 118 
3 40 39 56 
3 84 79 98 
3 133 118 117 
3 233 200 218 
3 98 105 84 
3 180 153 162 
3 108 125 129 
3 131 157 141 
3 131 152 157 
3 295 280 309 
3 303 289 268 
3 262 253 229 
3 333 323 352 
3 303 338 316 
3 340 347 328 
3 318 308 333 
3 160 176 169 
3 342 348 366 
3 118 98 117 
3 99 112 83 
3 60 41 40 
3 201 177 173 
3 220 209 192 
3 112 99 124 
3 194 170 179 
3 161 137 150 
3 157 152 177 
3 194 221 189 
3 137 161 136 
3 224 238 205 
3 289 316 309 
3 287 308 318 
3 287 318 299 
3 256 287 273 
3 287 299 273 
3 318 343 324 
3 287 276 308 
3 371 343 367 
3 27 42 45 
3 65 45 67 
3 189 150 170 
3 65 88 69 
3 129 153 133 
3 42 62 67 
3 65 67 90 
3 153 129 162 
3 51 65 69 
3 86 90 67 
3 123 90 110 
3 90 86 110 
3 90 116 88 
3 187 165 148 
3 161 166 136 
3 245 217 247 
3 140 116 123 
3 228 217 245 
3 294 293 269 
3 213 242 225 
3 326 294 297 
3 225 258 246 
3 242 273 258 
3 299 314 286 
3 185 158 155 
3 273 299 286 
3 256 273 242 
3 258 273 286 
3 323 347 352 
3 339 361 348 
3 269 275 257 
3 51 46 34 
3 251 257 272 
3 69 57 46 
3 130 114 107 
3 114 94 107 
3 116 130 107 
3 228 207 204 
3 166 148 136 
3 304 288 272 
3 165 190 159 
3 286 271 258 
3 234 215 211 
3 217 228 204 
3 332 353 335 
3 293 327 304 
3 34 26 18 
3 8 14 18 
3 327 332 304 
3 321 326 342 
3 327 350 332 
3 341 363 350 
3 350 364 353 
3 5 12 21 
3 44 51 34 
3 169 162 143 
3 57 69 78 
3 1 15 4 
3 55 37 49 
3 35 49 29 
3 272 236 251 
3 88 94 69 
3 75 55 72 
3 57 72 49 
3 78 103 91 
3 130 140 159 
3 155 181 185 
3 149 121 138 
3 235 244 206 
3 311 317 337 
3 121 149 127 
3 345 337 317 
3 356 368 365 
3 365 359 345 
3 365 374 359 
3 353 364 368 
3 374 373 359 
3 214 184 200 
3 21 16 5 
3 29 37 21 
3 33 23 16 
3 48 33 31 
3 23 20 13 
3 23 32 20 
3 70 58 47 
3 58 76 66 
3 81 64 75 
3 101 132 113 
3 81 109 93 
3 47 50 32 
3 48 64 59 
3 120 132 101 
3 139 113 132 
3 93 101 76 
3 100 127 109 
3 120 109 135 
3 109 127 135 
3 120 135 142 
3 132 120 142 
3 211 236 234 
3 142 135 163 
3 135 154 163 
3 142 163 167 
3 215 183 191 
3 254 237 222 
3 154 188 163 
3 216 212 196 
3 193 222 216 
3 244 278 254 
3 216 243 212 
3 304 332 315 
3 264 292 278 
3 300 283 279 
3 263 279 283 
3 322 344 346 
3 359 360 344 
3 71 61 84 
3 369 351 346 
3 351 320 325 
3 356 365 345 
3 38 52 39 
3 63 54 73 
3 68 73 54 
3 113 92 85 
3 81 70 59 
3 76 70 93 
3 134 104 119 
3 156 171 139 
3 193 216 196 
3 156 182 171 
3 139 171 147 
3 237 263 243 
3 182 212 203 
3 171 182 203 
3 203 212 227 
3 267 233 255 
3 171 203 186 
3 259 255 231 
3 212 243 227 
3 283 274 263 
3 119 104 96 
3 302 267 281 
3 320 355 329 
3 282 306 281 
3 274 259 243 
3 329 307 320 
3 306 329 330 
3 145 143 125 
3 325 346 351 
3 293 272 275 
3 66 85 68 
3 43 36 53 
3 73 87 77 
3 239 260 266 
3 119 147 134 
3 184 172 146 
3 203 227 231 
3 202 198 223 
3 147 186 168 
3 186 218 200 
3 146 126 122 
3 267 285 250 
3 281 306 302 
3 218 255 233 
3 226 208 199 
3 319 290 310 
3 358 334 330 
3 370 349 355 
3 313 310 285 
3 357 336 334 
3 334 313 302 
3 65 51 44 
3 19 17 11 
3 266 252 239 
3 208 239 223 
3 302 330 334 
3 306 330 302 
3 245 269 257 
3 291 259 274 
3 106 97 126 
3 39 40 28 
3 28 40 25 
3 17 27 9 
3 27 14 9 
3 40 41 25 
3 41 24 25 
3 9 14 3 
3 14 8 3 
3 62 42 41 
3 19 25 24 
3 11 17 9 
3 45 65 44 
3 52 56 39 
3 153 180 173 
3 1 0 10 
3 98 79 102 
3 19 24 17 
3 247 271 269 
3 210 220 195 
3 230 265 241 
3 210 230 241 
3 124 111 141 
3 270 268 249 
3 201 173 180 
3 240 229 209 
3 249 241 270 
3 301 270 265 
3 253 280 276 
3 316 328 309 
3 79 84 61 
3 118 133 131 
3 108 129 102 
3 111 89 105 
3 131 141 111 
3 71 84 89 
3 80 71 89 
3 200 233 214 
3 157 179 170 
3 371 361 339 
3 152 131 133 
3 170 194 189 
3 280 295 276 
3 253 224 229 
3 83 112 86 
3 189 221 213 
3 352 354 333 
3 338 340 316 
3 347 323 328 
3 348 326 339 
3 131 105 118 
3 348 342 326 
3 99 111 124 
3 137 136 112 
3 83 60 80 
3 178 208 198 
3 71 80 56 
3 141 150 124 
3 86 62 83 
3 60 83 62 
3 189 197 161 
3 179 157 177 
3 225 246 219 
3 166 161 197 
3 354 343 318 
3 276 256 238 
3 258 225 242 
3 256 276 287 
3 30 18 14 
3 299 318 324 
3 105 131 111 
3 56 80 60 
3 42 67 45 
3 44 34 30 
3 165 187 190 
3 69 94 78 
3 116 107 88 
3 110 86 112 
3 205 221 194 
3 148 166 187 
3 150 189 161 
3 90 123 116 
3 123 110 136 
3 140 123 148 
3 271 286 297 
3 213 225 197 
3 247 219 246 
3 257 228 245 
3 116 140 130 
3 26 34 46 
3 342 366 362 
3 7 18 10 
3 18 7 8 
3 271 294 269 
3 339 326 314 
3 327 293 321 
3 303 301 331 
3 192 162 169 
3 12 5 2 
3 88 65 90 
3 75 95 100 
3 26 15 10 
3 129 125 143 
3 69 46 51 
3 35 26 46 
3 1 10 15 
3 94 114 103 
3 46 57 35 
3 128 103 114 
3 181 155 159 
3 164 138 158 
3 236 211 207 
3 257 251 228 
3 211 191 185 
3 248 215 234 
3 206 175 183 
3 272 261 236 
3 293 304 272 
3 191 211 215 
3 288 277 261 
3 341 321 342 
3 278 292 311 
3 350 327 341 
3 95 75 72 
3 76 58 70 
3 72 91 95 
3 12 2 4 
3 47 33 48 
3 78 91 72 
3 64 48 55 
3 100 81 75 
3 197 189 213 
3 121 95 115 
3 103 115 91 
3 175 206 188 
3 127 100 121 
3 188 154 175 
3 135 127 154 
3 174 178 198 
3 261 272 288 
3 222 188 206 
3 344 337 359 
3 337 344 322 
3 311 296 278 
3 335 317 305 
3 235 248 264 
3 91 115 95 
3 101 93 120 
3 6 5 16 
3 16 31 33 
3 50 47 58 
3 23 47 32 
3 32 50 36 
3 47 48 59 
3 109 120 93 
3 100 109 81 
3 85 66 76 
3 101 85 76 
3 138 164 149 
3 335 315 332 
3 183 215 206 
3 163 188 193 
3 167 163 193 
3 216 222 237 
3 243 216 237 
3 212 182 196 
3 222 193 188 
3 279 263 254 
3 317 311 292 
3 283 300 298 
3 302 285 267 
3 298 274 283 
3 300 279 296 
3 346 325 322 
3 356 335 353 
3 298 325 320 
3 359 373 360 
3 68 43 53 
3 43 68 54 
3 59 64 81 
3 92 113 119 
3 92 96 82 
3 53 66 68 
3 132 156 139 
3 126 146 151 
3 255 218 231 
3 282 281 255 
3 186 203 218 
3 208 223 198 
3 296 311 322 
3 320 307 291 
3 306 282 307 
3 329 306 307 
3 360 373 369 
3 330 329 349 
3 358 330 349 
3 87 82 96 
3 269 293 275 
3 184 199 172 
3 199 184 214 
3 104 77 87 
3 68 85 92 
3 186 147 171 
3 168 200 184 
3 199 178 172 
3 178 199 208 
3 260 239 226 
3 122 97 104 
3 168 146 134 
3 144 126 151 
3 146 168 184 
3 260 226 250 
3 239 208 226 
3 298 320 291 
3 338 303 331 
3 232 202 223 
3 151 172 178 
3 310 290 285 
3 252 266 284 
3 223 239 252 
3 334 358 357 
3 269 245 247 
3 175 154 149 
3 178 144 151 
3 238 253 276 
3 253 238 224 
3 220 210 241 
3 192 195 220 
3 180 209 201 
3 268 240 249 
3 162 192 180 
3 262 289 280 
3 229 201 209 
3 270 301 303 
3 268 270 303 
3 240 268 262 
3 229 240 262 
3 309 280 289 
3 328 316 340 
3 117 98 102 
3 129 117 102 
3 89 84 105 
3 129 143 162 
3 133 117 129 
3 152 173 177 
3 224 201 229 
3 253 262 280 
3 14 27 30 
3 111 99 80 
3 191 158 185 
3 158 191 164 
3 40 56 60 
3 177 201 205 
3 83 80 99 
3 41 60 62 
3 323 308 295 
3 141 157 170 
3 150 141 170 
3 124 150 137 
3 112 124 137 
3 179 177 205 
3 221 205 238 
3 256 221 238 
3 221 256 242 
3 316 289 303 
3 295 308 276 
3 294 271 297 
3 318 333 354 
3 192 169 195 
3 45 30 27 
3 30 45 44 
3 110 112 136 
3 343 354 367 
3 219 197 225 
3 123 136 148 
3 140 148 165 
3 159 140 165 
3 217 187 219 
3 187 217 190 
3 294 326 321 
3 204 190 217 
3 246 258 271 
3 234 236 261 
3 246 271 247 
3 314 299 324 
3 326 297 314 
3 321 341 327 
3 272 257 275 
3 185 207 211 
3 62 86 67 
3 339 343 371 
3 15 26 35 
3 114 130 128 
3 49 35 57 
3 130 159 155 
3 128 158 138 
3 204 181 190 
3 128 155 158 
3 288 315 305 
3 181 204 207 
3 149 183 175 
3 251 236 228 
3 183 149 164 
3 164 191 183 
3 248 261 277 
3 244 235 264 
3 353 332 350 
3 277 288 305 
3 363 341 362 
3 4 15 12 
3 21 12 29 
3 49 72 55 
3 72 57 78 
3 49 37 29 
3 115 138 121 
3 206 215 235 
3 222 206 244 
3 254 222 244 
3 305 317 292 
3 277 305 292 
3 322 311 337 
3 368 356 353 
3 335 356 345 
3 317 335 345 
3 13 16 23 
3 95 121 100 
3 55 75 64 
3 296 322 300 
3 47 59 70 
3 36 50 53 
3 167 196 182 
3 315 335 305 
3 337 345 359 
3 351 369 372 
3 278 244 264 
3 325 300 322 
3 298 300 325 
3 346 360 369 
3 320 351 355 
3 361 366 348 
3 259 291 282 
3 18 30 34 
3 50 58 66 
3 73 68 82 
3 77 63 73 
3 87 73 82 
3 142 167 132 
3 119 139 147 
3 70 81 93 
3 218 203 231 
3 227 243 259 
3 231 227 259 
3 307 282 291 
3 255 281 267 
3 255 259 282 
3 329 355 349 
3 310 313 336 
3 97 74 77 
3 146 172 151 
3 200 168 186 
3 146 122 134 
3 243 263 274 
3 233 250 214 
3 226 214 250 
3 214 226 199 
3 260 285 290 
3 266 260 290 
3 285 302 313 
3 310 336 319 
3 104 134 122 
3 174 144 178 
3 250 285 260 
3 223 252 232 
3 10 0 7 
3 201 224 205 
3 323 295 309 
3 220 249 240 
3 309 328 323 
3 80 89 111 
3 205 194 179 
3 152 133 153 
3 173 152 153 
3 333 308 323 
3 10 18 26 
3 242 213 221 
3 339 324 343 
3 207 185 181 
3 209 220 240 
3 197 219 187 
3 288 304 315 
3 197 187 166 
3 219 247 217 
3 207 228 236 
3 321 293 294 
3 314 324 339 
3 286 314 297 
3 350 363 364 
3 37 55 48 
3 29 12 15 
3 103 78 94 
3 15 35 29 
3 155 128 130 
3 115 103 128 
3 138 115 128 
3 159 190 181 
3 261 248 234 
3 362 341 342 
3 94 88 107 
3 31 21 37 
3 48 31 37 
3 154 127 149 
3 277 264 248 
3 292 264 277 
3 16 13 6 
3 16 21 31 
3 47 23 33 
3 32 22 20 
3 22 32 36 
3 248 235 215 
3 85 101 113 
3 113 139 119 
3 237 254 263 
3 156 132 167 
3 182 156 167 
3 167 193 196 
3 279 254 278 
3 296 279 278 
3 360 346 344 
3 372 355 351 
3 61 71 52 
3 66 53 50 
3 96 92 119 
3 82 68 92 
3 97 122 126 
3 87 96 104 
3 233 267 250 
3 291 274 298 
3 198 202 174 
3 147 168 134 
3 290 319 312 
3 313 334 336 
3 284 266 290 
3 312 284 290 
3 77 104 97 
