ply
format ascii 1.0
comment meshmixer generated
element vertex 67
property float x
property float y
property float z
property float nx
property float ny
property float nz
property uchar red
property uchar green
property uchar blue
property uchar alpha
element face 104
property list uchar int vertex_indices
end_header
39.94409943 -5.922420502 -0.9997518659 0.9135863781 -0.3636214435 -0.1820421964 255 255 255 255
39.33729935 6.874380112 5.587220669 0.9188057184 0.344959259 0.1918312013 255 255 255 255
39.54339981 5.416059971 7.0071702 0.917147696 0.3335249424 0.2181770951 255 255 255 255
40.40980148 -5.15225935 2.798340082 0.907558322 -0.4016243517 0.1226205528 255 255 255 255
40.37439728 -5.734460354 0.7842707634 0.9248602986 -0.3715878725 -0.08096863329 255 255 255 255
40.43170166 -4.307990074 4.491279602 0.8766853213 -0.4512445033 0.1667369306 255 255 255 255
40.31620026 -3.503410101 -2.741479635 0.9288230538 -0.2397787124 -0.2824782133 255 255 255 255
40.09019852 -2.214239836 -4.434309006 0.9280087948 -0.2259120941 -0.296248883 255 255 255 255
39.5678978 7.706510067 -0.920494318 0.9423737526 0.3286110461 -0.0628214851 255 255 255 255
40.22439957 2.863650084 7.79390049 0.9239411354 0.2945352495 0.2440937907 255 255 255 255
39.98859787 5.247069836 5.394029617 0.9223204851 0.3351226747 0.1923999339 255 255 255 255
39.84440231 6.989580154 1.92876029 0.9412882328 0.3322613537 0.05982356891 255 255 255 255
40.58850098 -4.357309818 -0.8920277357 0.9241850376 -0.3225905001 -0.2044929266 255 255 255 255
40.06299973 5.867849827 3.706030846 0.932932198 0.3383409679 0.1231375411 255 255 255 255
40.35710144 3.702480078 6.149150372 0.9240452051 0.3193047941 0.2102019787 255 255 255 255
40.11000061 6.366029739 0.199613288 0.94314152 0.3315702975 -0.02335078642 255 255 255 255
40.79589844 -1.890150309 8.286771774 0.9707491398 -0.08609230816 0.2241300046 255 255 255 255
40.60160065 1.36112988 8.048861504 0.9389200211 0.2401650846 0.2464748919 255 255 255 255
40.06129837 6.148930073 -1.666589618 0.940782249 0.328754276 -0.08276076615 255 255 255 255
41.02319717 -3.712649822 3.023700237 0.9045503736 -0.4086396396 0.1216646582 255 255 255 255
40.78030014 -3.316489697 5.669469833 0.9142870903 -0.3771962225 0.1476554573 255 255 255 255
39.87630081 5.146730423 -4.839371204 0.9528476 0.2368219793 -0.1897283196 255 255 255 255
40.66090012 4.123030186 3.99421072 0.9368900657 0.3244749904 0.1302037239 255 255 255 255
40.54330063 5.061490059 1.640690446 0.9478161335 0.3157449663 0.04415558651 255 255 255 255
40.98089981 -0.3114822209 8.091880798 0.9703269601 0.03587598726 0.2391202152 255 255 255 255
40.8647995 1.98882997 6.425460339 0.9326167703 0.2766649127 0.2316948026 255 255 255 255
40.85400009 -2.818039894 -1.535480261 0.9350939393 -0.2347747982 -0.2654808164 255 255 255 255
40.30170059 4.930680275 -2.972620964 0.9526032209 0.2634881139 -0.1520563811 255 255 255 255
40.77880096 -1.73616004 -2.641811609 0.9408023357 -0.1927556247 -0.2788121998 255 255 255 255
40.65509796 4.726860046 -0.6815842986 0.9516455531 0.3011601865 -0.06060803682 255 255 255 255
40.51449966 -0.523219645 -4.392919064 0.9548481107 -0.1319560707 -0.2661815584 255 255 255 255
41.04940033 -4.09070015 1.092538714 0.9336521029 -0.3572764695 -0.02544149756 255 255 255 255
40.40699768 0.6432840824 -5.087291241 0.9580618739 0.0009761455003 -0.2865597606 255 255 255 255
40.03350067 2.157760143 -6.054178715 0.9485332966 0.03283985332 -0.3149700761 255 255 255 255
40.24879837 4.051430225 -4.335790634 0.9531633258 0.2160386145 -0.2116765529 255 255 255 255
41.10129929 -2.070779562 6.894629478 0.9637653828 -0.1909099221 0.1863054633 255 255 255 255
41.03310013 2.803550005 4.509670734 0.9446669221 0.2925608456 0.1483663321 255 255 255 255
40.47069931 2.31291008 -4.721380711 0.9609449506 0.08611503989 -0.263000071 255 255 255 255
41.25839996 -3.05480957 3.690869808 0.9267901778 -0.3515723646 0.1321243048 255 255 255 255
40.89330292 3.464790344 -1.614661336 0.9653766155 0.2310587764 -0.1210779622 255 255 255 255
40.78110123 2.960959911 -3.060808897 0.9636110663 0.173492372 -0.2033572197 255 255 255 255
40.79779816 1.118480086 -3.726971149 0.969116807 0.01823945343 -0.2459267378 255 255 255 255
41.17650223 0.4095722735 6.674930096 0.9556595087 0.1859439462 0.2283414006 255 255 255 255
41.09009933 3.149890184 2.585909605 0.9606206417 0.273121357 0.05111426115 255 255 255 255
41.13220215 3.218600035 0.3042097688 0.9675737619 0.2502955794 -0.03395801783 255 255 255 255
41.0196991 -0.03636305779 -2.658321142 0.9640170932 -0.0746748969 -0.2551366687 255 255 255 255
41.30110168 1.385390043 5.306240559 0.9573507309 0.2265028954 0.1793766469 255 255 255 255
41.16600037 -3.161620378 -0.09714087844 0.9531803131 -0.2432827801 -0.1796127856 255 255 255 255
41.36259842 -0.8154390454 6.542739868 0.9813477993 -0.03378700092 0.1892481893 255 255 255 255
41.2010994 1.75406003 -1.921770573 0.9767200351 0.1221189201 -0.1763660312 255 255 255 255
41.45120239 -2.889639616 2.013120413 0.9631378651 -0.268540144 -0.01586220227 255 255 255 255
41.44189835 -1.721809745 5.086330414 0.9637059569 -0.2221228629 0.1480952799 255 255 255 255
41.38769913 2.078220129 1.411589861 0.9796087742 0.2007103115 -0.009058467112 255 255 255 255
41.32600021 -1.249849916 -1.056039929 0.9600278735 -0.1448593289 -0.2395042628 255 255 255 255
41.49449921 1.282400131 3.875899315 0.9718275666 0.2216014415 0.08027408272 255 255 255 255
41.41049957 1.730430126 -0.3883644044 0.9850170016 0.150670439 -0.08390458673 255 255 255 255
41.59410095 1.174460053 2.456059694 0.9763885736 0.2155430764 0.01437255461 255 255 255 255
41.5909996 0.02852134407 5.090650082 0.9811580181 0.08271274716 0.1746068299 255 255 255 255
41.6446991 0.4121992588 0.8984549642 0.9828848243 0.1741731465 -0.06000898778 255 255 255 255
41.36009979 0.4335040748 -1.489920259 0.9772114158 0.005501060747 -0.2121971101 255 255 255 255
41.63119888 -1.56493032 0.6257739663 0.9824997187 -0.1420568675 -0.120474726 255 255 255 255
41.76890182 -1.479390025 3.025389433 0.9805657268 -0.1925495267 0.03762352467 255 255 255 255
41.54700089 0.1727359146 -0.5515327454 0.9878733754 0.007305182982 -0.1550896615 255 255 255 255
41.80869675 -0.4186850488 4.197000504 0.9908975959 -0.0004822375195 0.1346169561 255 255 255 255
41.76339722 0.02713638544 0.9816166759 0.991484344 0.01112432033 -0.1297498345 255 255 255 255
41.88809967 -0.1134789661 2.03044939 0.9985029697 0.0231542103 -0.04955505207 255 255 255 255
41.87630081 -0.5117203593 3.096719265 0.9925295711 0.1115486845 0.04941617697 255 255 255 255
3 57 51 63 
3 56 65 58 
3 58 65 64 
3 47 50 31 
3 3 31 19 
3 54 36 46 
3 48 51 57 
3 66 63 61 
3 55 44 52 
3 64 62 58 
3 44 55 49 
3 54 43 36 
3 25 17 42 
3 31 3 4 
3 17 25 9 
3 28 6 7 
3 41 30 32 
3 12 6 26 
3 45 53 28 
3 53 26 28 
3 37 34 40 
3 47 26 53 
3 53 60 47 
3 52 43 56 
3 61 51 38 
3 65 61 60 
3 60 62 64 
3 51 48 35 
3 48 42 24 
3 23 13 22 
3 34 27 40 
3 36 14 25 
3 29 27 18 
3 39 49 40 
3 40 27 39 
3 44 49 39 
3 44 29 23 
3 27 29 39 
3 23 43 44 
3 42 46 25 
3 15 23 29 
3 50 61 38 
3 66 65 56 
3 15 11 23 
3 12 47 31 
3 53 45 59 
3 34 21 27 
3 55 62 59 
3 57 63 54 
3 63 66 54 
3 54 66 56 
3 46 57 54 
3 63 51 61 
3 55 58 62 
3 62 60 53 
3 35 24 16 
3 42 57 46 
3 45 49 59 
3 57 42 48 
3 64 65 60 
3 2 10 1 
3 66 61 65 
3 59 62 53 
3 38 51 20 
3 59 49 55 
3 43 23 22 
3 12 31 4 
3 19 5 3 
3 26 47 12 
3 50 19 31 
3 58 55 52 
3 56 58 52 
3 43 54 56 
3 37 40 41 
3 28 30 45 
3 6 28 26 
3 30 41 45 
3 49 45 41 
3 40 49 41 
3 32 33 37 
3 60 61 50 
3 5 19 38 
3 51 35 20 
3 43 22 36 
3 30 28 7 
3 14 36 22 
3 50 47 60 
3 8 15 18 
3 22 10 14 
3 13 1 10 
3 24 35 48 
3 10 22 13 
3 52 44 43 
3 32 37 41 
3 19 50 38 
3 5 38 20 
3 25 46 36 
3 25 14 9 
3 15 29 18 
3 10 2 14 
3 13 23 11 
3 42 17 24 
3 29 44 39 
3 0 12 4 
