ply
format ascii 1.0
comment meshmixer generated
element vertex 90
property float x
property float y
property float z
property float nx
property float ny
property float nz
property uchar red
property uchar green
property uchar blue
property uchar alpha
element face 147
property list uchar int vertex_indices
end_header
-39.36589813 -3.089569807 9.910089493 -0.9995833635 -0.02133233659 0.01944301836 255 255 255 255
-39.27930069 -2.182760239 11.35290051 -0.9968453646 -0.02477700077 0.07540138811 255 255 255 255
-39.32659912 -4.20704031 8.495471001 -0.9957274795 -0.06203114614 -0.06840267032 255 255 255 255
-39.16959763 -3.869050026 6.596479416 -0.9899271727 -0.06827312708 -0.1240282655 255 255 255 255
-39.37739944 -2.328310013 8.216989517 -0.9986289144 -0.01992371678 -0.0484074764 255 255 255 255
-39.01150131 -5.675639153 7.112320423 -0.9862383604 -0.1171355993 -0.116675362 255 255 255 255
-39.39060211 -1.192630172 10.20679951 -0.9997866154 -0.003669653786 0.02032742463 255 255 255 255
-38.6493988 -6.513380527 4.978320599 -0.9826366305 -0.126416564 -0.1358090043 255 255 255 255
-38.8696022 -4.871379375 5.22162056 -0.9856971502 -0.09090843052 -0.1419041604 255 255 255 255
-38.51560211 -5.795239449 3.396550655 -0.983264029 -0.1181136593 -0.1387118101 255 255 255 255
-38.23600006 -7.556221008 3.395249844 -0.9759417176 -0.164936468 -0.1425962895 255 255 255 255
-39.30659866 0.3360777497 11.04820061 -0.9980442524 0.01538958121 0.06058785319 255 255 255 255
-38.66270065 -4.402969837 3.711130381 -0.9889284968 -0.04878761619 -0.14014332 255 255 255 255
-38.20280075 -6.511550426 1.870379567 -0.9800384641 -0.1478222311 -0.1329406947 255 255 255 255
-39.18970108 -2.2609303 6.313509464 -0.9892863631 -0.02982338518 -0.1429091841 255 255 255 255
-38.8791008 -3.342339993 4.791100025 -0.985409677 -0.04042240232 -0.1653292775 255 255 255 255
-39.38140106 0.4410892725 9.789319992 -0.9994535446 0.004626197275 0.03272948042 255 255 255 255
-38.46649933 -4.690699577 2.166699648 -0.9887164235 -0.0671473816 -0.133906737 255 255 255 255
-39.37720108 -0.608043015 8.542450905 -0.9998199344 -0.01086400636 -0.01555874385 255 255 255 255
-38.9557991 5.058030128 -0.7255972624 -0.9760344028 0.1122993752 -0.1864020526 255 255 255 255
-39.24230194 4.660199642 1.022960544 -0.9931482077 0.0519102253 -0.1046993434 255 255 255 255
-39.31689835 -1.030009866 7.204930782 -0.9961437583 -0.02102448046 -0.08517958969 255 255 255 255
-39.21070099 5.873780251 2.50399971 -0.9765549898 0.2088010013 -0.05236867815 255 255 255 255
-38.12369919 -5.293759823 0.213114351 -0.9864466786 -0.08993974328 -0.1372362971 255 255 255 255
-38.8993988 2.872989655 -1.015980005 -0.9884831905 -0.08527714759 -0.1250149459 255 255 255 255
-38.99129868 6.173590183 0.8007465601 -0.9564169049 0.2575868666 -0.137534216 255 255 255 255
-37.81830215 -8.182060242 1.39714098 -0.9737695456 -0.1876932383 -0.1286240965 255 255 255 255
-38.56879807 2.276849747 -2.783569574 -0.9791486263 -0.08320487291 -0.1853237748 255 255 255 255
-39.14300156 3.36969018 0.981485188 -0.9894104004 -0.1017987952 -0.1034603268 255 255 255 255
-39.17089844 -0.7757919431 6.019949913 -0.9893075824 -0.04537093639 -0.138607353 255 255 255 255
-39.36940002 0.2957610786 7.231509209 -0.9969390631 -0.02640512213 -0.07358878106 255 255 255 255
-38.22610092 0.4362388551 -3.271729469 -0.9783532023 -0.1278056353 -0.1627595872 255 255 255 255
-39.33100128 3.981709957 2.481019497 -0.9983615279 -0.04376836494 -0.03685967624 255 255 255 255
-39.42219925 1.092700124 8.487059593 -0.9999748468 0.007087206468 -0.0002117619151 255 255 255 255
-39.3429985 2.072220325 10.16170025 -0.9970540404 0.05633760989 0.05205116794 255 255 255 255
-38.50419998 0.8886136413 -1.668989658 -0.9827839136 -0.1500128806 -0.1078512669 255 255 255 255
-38.66619873 4.162619591 -2.369751215 -0.9666443467 0.09045306593 -0.2396184504 255 255 255 255
-37.86310196 -7.029000759 -0.1971850395 -0.982144177 -0.1406907141 -0.1248956174 255 255 255 255
-39.33349991 4.98142004 4.031210423 -0.9993108511 0.03690890595 -0.003944421187 255 255 255 255
-38.86089706 -1.5153898 4.334300995 -0.9867088199 -0.05629397929 -0.1524358392 255 255 255 255
-38.76169968 1.414829969 0.3654170036 -0.9841230512 -0.155649066 -0.08529499173 255 255 255 255
-37.78240204 -5.961689949 -1.877580285 -0.9874973297 -0.09582259506 -0.1251679063 255 255 255 255
-39.19459915 6.092359543 4.75826025 -0.9758548141 0.2175755054 0.01919122227 255 255 255 255
-39.18030167 0.3845161498 5.401480198 -0.9912678003 -0.06474167109 -0.114876993 255 255 255 255
-39.14989853 4.644920349 8.947950363 -0.9910475016 0.1033937857 0.08446617424 255 255 255 255
-38.6013031 -2.672019958 2.91397047 -0.9906951189 -0.03946307302 -0.1302528083 255 255 255 255
-39.06929779 2.285429716 2.156460762 -0.9872843623 -0.1416389495 -0.07216632366 255 255 255 255
-39.35639954 1.616480112 7.103869915 -0.9984013438 -0.002265132032 -0.05647663772 255 255 255 255
-37.92860031 -1.180469751 -3.827889681 -0.9828959703 -0.1087811813 -0.1486007571 255 255 255 255
-39.24699783 1.767160177 5.459119797 -0.9966465235 -0.04624694213 -0.06750526279 255 255 255 255
-39.36660004 2.937260151 8.343211174 -0.997439146 0.06360497326 0.03270343319 255 255 255 255
-39.32999802 4.822370052 5.812339306 -0.9958997965 0.08734060079 0.02356234938 255 255 255 255
-38.16460037 -1.059810162 -2.121959925 -0.9855725169 -0.1242973953 -0.1148778722 255 255 255 255
-38.31539917 -3.577699661 0.822514534 -0.9897797108 -0.05104197189 -0.1331570297 255 255 255 255
-39.11249924 5.769869804 7.441119671 -0.9862030149 0.1603854895 0.0409889333 255 255 255 255
-39.30940247 4.163259983 7.542290211 -0.9964421988 0.07487390935 0.03868879378 255 255 255 255
-39.26910019 3.074779987 4.437700272 -0.9975867271 -0.06292835623 -0.02933852188 255 255 255 255
-39.084198 1.408310294 3.799260378 -0.9902999997 -0.1051439568 -0.09083332866 255 255 255 255
-38.90129852 0.176939711 3.588560104 -0.9861371517 -0.1030283645 -0.1300716549 255 255 255 255
-39.3248024 3.023639917 6.301249504 -0.9996908307 -0.003479583422 -0.02461946569 255 255 255 255
-39.09169769 3.661930084 10.42360115 -0.9890753031 0.1167164668 0.09004054219 255 255 255 255
-38.0780983 1.546929955 -4.552131653 -0.9623262286 -0.04337762669 -0.2684150338 255 255 255 255
-38.33939743 3.257859945 -3.849730968 -0.9508330226 0.0555245243 -0.3046860397 255 255 255 255
-38.48199844 -0.3102738261 -0.06730159372 -0.9871208668 -0.1274892837 -0.09663788229 255 255 255 255
-38.74020004 0.2745273113 2.04076004 -0.9868269563 -0.1315341443 -0.0941875726 255 255 255 255
-37.96689987 -4.135569572 -1.430660486 -0.9900981784 -0.06432885677 -0.1247695759 255 255 255 255
-38.64099884 -1.068029761 2.498900175 -0.9897645116 -0.08000975102 -0.1181718856 255 255 255 255
-37.85309982 -2.949190617 -3.089089155 -0.9890189767 -0.07943696529 -0.1246244535 255 255 255 255
-37.67670059 -4.897589684 -3.604361057 -0.9910601377 -0.06289646775 -0.1176598594 255 255 255 255
-38.18970108 -2.272999763 -0.6099669933 -0.9891829491 -0.08629979193 -0.1186145619 255 255 255 255
-38.49409866 -1.423260212 1.276539564 -0.9908676744 -0.07948418707 -0.1089199334 255 255 255 255
-38.74530029 7.564899921 3.656419992 -0.9304674268 0.3650178015 -0.03150143474 255 255 255 255
-37.55649948 -3.753499985 -4.898520947 -0.988967061 -0.0600541383 -0.1354164332 255 255 255 255
-37.89099884 0.08842004836 -4.802218914 -0.9750103951 -0.07604964077 -0.2087371498 255 255 255 255
-38.45059967 7.781579971 1.233040214 -0.9246637821 0.3635528684 -0.1132526323 255 255 255 255
-37.63759995 -1.92405045 -5.208611012 -0.9836316705 -0.07711836696 -0.1628542393 255 255 255 255
-38.79509735 7.384789944 5.997709751 -0.9560165405 0.2917023897 0.03069287725 255 255 255 255
-38.43260193 6.88973999 -0.7259794474 -0.9095192552 0.3505400121 -0.2233751714 255 255 255 255
-37.56399918 -7.59885025 -1.825019121 -0.9818361998 -0.1352532357 -0.1330574006 255 255 255 255
-38.27720261 6.109940052 -2.36496973 -0.9159133434 0.2853635252 -0.2822593749 255 255 255 255
-38.06200027 8.869860649 2.677330494 -0.8990045786 0.4353995025 -0.04709660634 255 255 255 255
-37.57619858 1.286859989 -6.243838787 -0.9647684097 -0.01098670345 -0.262871176 255 255 255 255
-37.96280289 9.156080246 4.628740788 -0.8972178698 0.4415877759 -0.0005903512938 255 255 255 255
-37.45260239 -0.6648683548 -6.602310658 -0.9781630635 -0.04862608761 -0.2020705342 255 255 255 255
-37.26869965 -2.091470003 -7.30783844 -0.9845743775 -0.04305168241 -0.1695872396 255 255 255 255
-38.00819778 4.858300209 -4.042460442 -0.9247403741 0.1927841455 -0.3281608522 255 255 255 255
-37.62400055 3.014609814 -5.763569832 -0.9387841225 0.06860918552 -0.3376050293 255 255 255 255
-37.82359695 8.312109947 -0.5386736989 -0.8836892843 0.4084639847 -0.228583619 255 255 255 255
-37.52410126 7.886899471 -2.160539865 -0.8720327616 0.4038321674 -0.2765473723 255 255 255 255
-37.55179977 6.699690342 -3.74131918 -0.8841367364 0.3402757943 -0.3201789856 255 255 255 255
3 12 15 45 
3 10 13 26 
3 15 12 8 
3 45 15 39 
3 67 75 72 
3 69 63 52 
3 70 64 63 
3 9 8 12 
3 8 9 7 
3 5 2 3 
3 15 3 14 
3 53 70 69 
3 9 17 13 
3 53 45 70 
3 17 9 12 
3 6 0 1 
3 30 21 18 
3 39 15 14 
3 0 6 4 
3 16 6 11 
3 31 35 27 
3 73 48 31 
3 36 27 24 
3 70 66 64 
3 49 57 43 
3 66 70 45 
3 64 46 40 
3 59 49 47 
3 43 39 29 
3 30 43 29 
3 17 12 45 
3 43 47 49 
3 18 4 6 
3 21 30 29 
3 39 14 29 
3 18 33 30 
3 33 47 30 
3 47 33 50 
3 33 34 50 
3 43 30 47 
3 59 51 56 
3 47 50 59 
3 11 34 16 
3 36 85 62 
3 64 40 63 
3 20 22 25 
3 20 19 28 
3 77 79 19 
3 79 85 36 
3 19 24 28 
3 25 77 19 
3 79 77 88 
3 86 62 85 
3 19 20 25 
3 24 40 28 
3 71 42 76 
3 22 32 38 
3 22 20 32 
3 32 20 28 
3 32 56 38 
3 54 76 51 
3 51 59 55 
3 40 46 28 
3 46 32 28 
3 46 56 32 
3 51 76 42 
3 50 34 60 
3 59 50 55 
3 74 22 71 
3 74 71 80 
3 71 76 82 
3 29 14 21 
3 14 3 4 
3 23 37 13 
3 26 13 37 
3 4 18 21 
3 52 67 69 
3 67 52 48 
3 41 65 68 
3 73 83 75 
3 58 64 66 
3 65 41 23 
3 7 9 10 
3 8 7 5 
3 3 8 5 
3 23 13 17 
3 53 23 17 
3 57 49 56 
3 3 15 8 
3 35 31 52 
3 65 69 67 
3 57 58 43 
3 27 36 62 
3 42 71 22 
3 24 27 35 
3 40 24 35 
3 40 35 63 
3 39 43 58 
3 46 64 57 
3 56 46 57 
3 34 33 16 
3 55 44 54 
3 18 16 33 
3 31 27 61 
3 62 61 27 
3 85 79 89 
3 51 42 38 
3 38 56 51 
3 80 71 82 
3 9 13 10 
3 62 86 61 
3 75 67 48 
3 23 53 65 
3 67 68 65 
3 68 67 72 
3 2 4 3 
3 83 84 75 
3 69 65 53 
3 23 41 37 
3 69 70 63 
3 73 61 81 
3 78 37 41 
3 81 61 86 
3 36 19 79 
3 35 52 63 
3 57 64 58 
3 50 60 44 
3 55 50 44 
3 66 45 39 
3 25 22 74 
3 24 19 36 
3 42 22 38 
3 88 77 87 
3 51 55 54 
3 61 73 31 
3 21 14 4 
3 83 73 81 
3 48 73 75 
3 53 17 45 
3 4 2 0 
3 6 16 18 
3 48 52 31 
3 39 58 66 
3 49 59 56 
3 77 25 74 
3 88 89 79 
3 74 87 77 
