ply
format ascii 1.0
comment meshmixer generated
element vertex 194
property float x
property float y
property float z
property float nx
property float ny
property float nz
property uchar red
property uchar green
property uchar blue
property uchar alpha
element face 337
property list uchar int vertex_indices
end_header
-19.90139961 0.1538050175 -0.2801179886 -0.8502859473 -0.5035210848 0.1532328874 255 255 255 255
-19.77429962 0.41573596 1.285859942 -0.7496858835 -0.6191969514 0.2335941046 255 255 255 255
-19.90810013 -0.4652859867 -1.847560048 -0.7748542428 -0.5884169936 0.2310116291 255 255 255 255
-19.54360008 0.7527359724 2.834769964 -0.722855866 -0.6499202251 0.2346978933 255 255 255 255
-19.16880035 0.9363130927 4.575429916 -0.7350979447 -0.6423192024 0.2169263065 255 255 255 255
-19.60619926 -1.334120035 -3.119899988 -0.8387771249 -0.5307559967 0.1214535683 255 255 255 255
-19.51030159 -0.4886470139 -0.2210130394 -0.7155203819 -0.660138905 0.2285764664 255 255 255 255
-19.39340019 -1.940440059 -4.864890099 -0.8504062295 -0.5192210674 0.08496335894 255 255 255 255
-19.15499878 -1.812109947 -2.330229998 -0.7406554222 -0.6150339246 0.2704861462 255 255 255 255
-18.93039894 -0.3326169848 1.740700126 -0.6933838129 -0.6784336567 0.2427893877 255 255 255 255
-18.71610069 1.004860044 6.319830418 -0.7586287856 -0.5935624838 0.2686372101 255 255 255 255
-18.84700012 -2.641420126 -3.679699898 -0.7796345353 -0.5990560651 0.1824878901 255 255 255 255
-18.82060051 -1.479369998 -1.079339981 -0.6968320608 -0.6593821645 0.2822060287 255 255 255 255
-18.83660126 -3.009190083 -5.653480053 -0.858291924 -0.513141036 0.004609385971 255 255 255 255
-18.54630089 -0.1569129825 3.422970057 -0.697645247 -0.6804412007 0.2242562622 255 255 255 255
-18.50909996 -1.101590037 0.644865036 -0.665430069 -0.7005799413 0.257663697 255 255 255 255
-18.3144989 0.1373820007 5.155210018 -0.7205827832 -0.6654550433 0.1947563738 255 255 255 255
-17.96299934 1.188830018 8.221539497 -0.8004020452 -0.5098955631 0.3152190447 255 255 255 255
-18.44470024 -3.525059938 -4.958060265 -0.7611452937 -0.6245896816 0.1747728437 255 255 255 255
-18.22570038 -3.448999882 -6.981070042 -0.8616694212 -0.4478904605 -0.2385790944 255 255 255 255
-18.16410065 -2.622390032 -2.153429985 -0.6457909346 -0.691742599 0.3231813908 255 255 255 255
-18.11340141 -4.14302969 -6.083739758 -0.7950341105 -0.6063916683 -0.01448816992 255 255 255 255
-18.03190041 -2.035189867 -0.5048429966 -0.6498821974 -0.7029004097 0.2891091704 255 255 255 255
-17.93050003 -3.528980017 -3.517470121 -0.6674844027 -0.6792405844 0.3051176965 255 255 255 255
-17.90169907 -1.175379992 2.166420221 -0.6637298465 -0.7107146382 0.2331252545 255 255 255 255
-17.56470108 -0.1272050142 7.104090214 -0.7620347738 -0.6053698659 0.2298484743 255 255 255 255
-17.07780075 -0.03864798695 8.791820526 -0.8021701574 -0.5312107801 0.2726502717 255 255 255 255
-17.51299858 -4.78316021 -7.103580475 -0.7698310614 -0.6340261698 -0.07328721881 255 255 255 255
-17.57499886 -0.8895019889 3.921220064 -0.6819598675 -0.704816401 0.1953576356 255 255 255 255
-17.51720047 -4.534959793 -4.929780006 -0.6576036215 -0.7169271708 0.2314581126 255 255 255 255
-17.30169868 -0.8425979614 5.472599983 -0.7069057822 -0.6894386411 0.1579828411 255 255 255 255
-17.53240013 -2.00270009 0.7039399743 -0.6506178975 -0.7142387629 0.2579909861 255 255 255 255
-16.97719955 -5.318429947 -6.279679775 -0.6489393115 -0.7526959777 0.1110249311 255 255 255 255
-17.25099945 -2.829299927 -0.8688559532 -0.6400105357 -0.7063735723 0.302362144 255 255 255 255
-16.2779007 -0.3372160196 10.29780006 -0.7906121612 -0.5414968133 0.2858558595 255 255 255 255
-16.90890121 -1.818619847 3.049530268 -0.6721172333 -0.7107067108 0.2077363878 255 255 255 255
-17.06979942 -3.709799767 -2.30347991 -0.6271426082 -0.7017203569 0.3380542696 255 255 255 255
-16.85840034 -4.488839626 -3.501110077 -0.5874203444 -0.7417572737 0.3236254454 255 255 255 255
-16.55410004 -0.9413779974 8.420929909 -0.7583581209 -0.6179687381 0.2073826194 255 255 255 255
-16.86299896 -2.264189959 1.693210006 -0.6569548845 -0.7172859907 0.2321876436 255 255 255 255
-16.47399902 -1.411900043 6.7228899 -0.7074718475 -0.6925315261 0.14100945 255 255 255 255
-16.51309967 -5.748520374 -7.912569523 -0.6278437376 -0.7767906189 -0.04907779396 255 255 255 255
-16.65610123 -2.950039864 0.3020480573 -0.6510719061 -0.7117909193 0.263550967 255 255 255 255
-16.50110054 -1.765500069 4.736410141 -0.6783903241 -0.7163221836 0.1633068919 255 255 255 255
-16.3042984 -5.390880108 -4.735750198 -0.5575490594 -0.7844939232 0.2714928091 255 255 255 255
-16.09329987 -3.972790241 -0.9582470059 -0.6133735776 -0.7316749692 0.2973626256 255 255 255 255
-16.20390129 -2.918859959 1.568710089 -0.6499849558 -0.722900033 0.2343822569 255 255 255 255
-15.86359882 -4.791739941 -2.476220131 -0.5588101745 -0.7687036991 0.3111684024 255 255 255 255
-15.60449982 -1.774989963 9.490540504 -0.7575411201 -0.6170566678 0.2130082548 255 255 255 255
-15.90679932 -2.733180046 3.070879936 -0.661013782 -0.7238717079 0.1976627856 255 255 255 255
-15.80090046 -5.37473011 -3.951049805 -0.5149799585 -0.7981575131 0.3126342893 255 255 255 255
-15.80319881 -6.223340034 -6.25535965 -0.5514336228 -0.8183556795 0.1619103998 255 255 255 255
-15.73359966 -2.254460096 5.748460293 -0.6848581433 -0.7188562751 0.119226709 255 255 255 255
-15.15320015 -1.635240078 11.07279968 -0.7818749547 -0.5731698275 0.2452507168 255 255 255 255
-15.6449995 -3.769979715 0.501406014 -0.6279919744 -0.7322028875 0.26363796 255 255 255 255
-15.47410011 -2.245810032 7.827440262 -0.7056835294 -0.6996924281 0.1115404591 255 255 255 255
-15.30119991 -2.910020113 4.6073699 -0.6686781645 -0.7265549898 0.158073768 255 255 255 255
-15.33909988 -6.025320053 -4.850479603 -0.4656537473 -0.832013607 0.3015293777 255 255 255 255
-15.26589966 -6.745129585 -7.66697979 -0.570281148 -0.8210798502 -0.02464274503 255 255 255 255
-15.1072998 -6.356029987 -9.415369987 -0.6043968797 -0.7552723885 -0.2535113394 255 255 255 255
-15.22049999 -3.763580084 1.651340127 -0.6301947832 -0.743976295 0.2221571356 255 255 255 255
-14.99310112 -5.630630016 -3.28373003 -0.475608021 -0.8304542303 0.2900737822 255 255 255 255
-14.44420052 -2.78470993 10.39999962 -0.744163096 -0.6480555534 0.1620038003 255 255 255 255
-14.67670059 -2.879800081 8.858060837 -0.7071653008 -0.6968746781 0.1195112467 255 255 255 255
-14.24139977 -2.807530165 11.38110065 -0.7496647835 -0.6238409877 0.2209641635 255 255 255 255
-14.83759975 -5.18487978 -1.680230021 -0.5150105953 -0.8096569777 0.2814598978 255 255 255 255
-14.80809975 -3.07178998 6.346280098 -0.6777100563 -0.7280116677 0.1034801304 255 255 255 255
-14.79909992 -4.575630188 0.1745969951 -0.5624360442 -0.7883808613 0.2492415011 255 255 255 255
-14.80470085 -3.699719906 3.192830086 -0.6411395669 -0.7458257079 0.1807872355 255 255 255 255
-14.34530067 -6.929339886 -5.918390274 -0.4355894327 -0.8658581972 0.2460719347 255 255 255 255
-13.53990078 -2.976320028 12.55700016 -0.7657597661 -0.5800877213 0.2776871622 255 255 255 255
-13.89680004 -7.556419849 -8.900149345 -0.5059751272 -0.8459085226 -0.1686059684 255 255 255 255
-14.05200005 -7.461120129 -7.463059902 -0.453209579 -0.8822224736 0.1276112348 255 255 255 255
-14.03690052 -3.62555027 7.71048975 -0.6750938296 -0.7334855795 0.07903944701 255 255 255 255
-13.99139977 -6.494080544 -4.265590191 -0.4110723734 -0.8623338342 0.2956347466 255 255 255 255
-13.85610008 -7.073770523 -10.00269985 -0.5247668028 -0.7667983174 -0.3696486354 255 255 255 255
-14.08909988 -3.950450182 4.80561018 -0.6472401023 -0.7494503856 0.1392994821 255 255 255 255
-13.7142992 -3.75928998 9.472839355 -0.6965047717 -0.7124711871 0.08524068445 255 255 255 255
-14.11090088 -4.529079914 2.046729803 -0.5760537386 -0.7939190865 0.1945624799 255 255 255 255
-13.29240036 -3.983030081 11.13650036 -0.7212868929 -0.6750836372 0.1549428999 255 255 255 255
-13.70230007 -6.055950642 -2.442159891 -0.4259523153 -0.8641171455 0.2680787444 255 255 255 255
-13.36969948 -7.771790028 -7.930579662 -0.3682304025 -0.926825881 0.07348580658 255 255 255 255
-13.76570034 -4.03109026 6.158289909 -0.652944088 -0.7520194054 0.09017094225 255 255 255 255
-13.57409954 -5.560110092 -0.6209369898 -0.4702233672 -0.8505689502 0.2354196757 255 255 255 255
-13.53069973 -5.238960266 0.7910640836 -0.5148177743 -0.8325155377 0.2046473324 255 255 255 255
-13.60439968 -4.591430187 3.675549984 -0.5981425047 -0.7888294458 0.1413279474 255 255 255 255
-12.58969975 -4.245390415 12.93219948 -0.7274698615 -0.6628773808 0.1771472543 255 255 255 255
-12.98359966 -7.752940655 -6.802770138 -0.3516377807 -0.9140415788 0.2021850944 255 255 255 255
-13.1147995 -4.388189793 8.314620018 -0.661603272 -0.7475816011 0.05833394825 255 255 255 255
-13.16529942 -7.271839619 -5.444759846 -0.3603936732 -0.8877903223 0.2862598598 255 255 255 255
-12.64700031 -7.334859848 -10.96259975 -0.4933728874 -0.7717818618 -0.4011682272 255 255 255 255
-12.56330013 -7.915339947 -9.948789597 -0.4330276847 -0.8681092262 -0.2426384389 255 255 255 255
-12.45419979 -8.159399986 -8.263560295 -0.3589672744 -0.9333501458 0.0001031728825 255 255 255 255
-13.03849983 -4.571199894 7.004849911 -0.6432430744 -0.7627827525 0.06633867323 255 255 255 255
-12.48160076 -4.850590229 9.859220505 -0.6546038389 -0.7539433241 0.05534689873 255 255 255 255
-12.95730114 -4.798180103 5.356760025 -0.6156485677 -0.7815712094 0.1006144881 255 255 255 255
-12.79930019 -5.373519897 2.126809835 -0.544013679 -0.8253107071 0.1513649672 255 255 255 255
-12.34819984 -7.050800323 -3.746479988 -0.3811475337 -0.88520962 0.2667030096 255 255 255 255
-11.99960041 -7.980739594 -6.326610088 -0.3154884577 -0.9154812098 0.2497223318 255 255 255 255
-12.29160023 -6.430230141 -1.519990087 -0.4198691845 -0.879142046 0.2254309058 255 255 255 255
-11.79680061 -5.332479954 11.42240047 -0.6498214006 -0.7538273931 0.09734688699 255 255 255 255
-12.18410015 -5.189329624 8.448080063 -0.6344577074 -0.7713208199 0.05027493089 255 255 255 255
-12.4762001 -5.415130138 3.557130098 -0.5723782778 -0.8129440546 0.1072616428 255 255 255 255
-11.73330021 -7.66381979 -4.972959995 -0.3384644985 -0.9026098847 0.2659646869 255 255 255 255
-12.26640034 -6.037290096 0.4554389715 -0.4703527391 -0.8669975996 0.1645706147 255 255 255 255
-11.35720062 -8.482919693 -7.620970249 -0.3187195063 -0.9371374249 0.1420961171 255 255 255 255
-11.23629951 -8.598879814 -9.278359413 -0.3674063981 -0.9282762408 -0.05758259445 255 255 255 255
-11.29739952 -5.48582983 13.16200066 -0.6333283186 -0.7653888464 0.1143469512 255 255 255 255
-11.1841011 -8.314849854 -10.90119934 -0.4099534154 -0.8794045448 -0.2420451641 255 255 255 255
-12.07089996 -5.877019405 2.14102006 -0.5207438469 -0.8461573124 0.1133295372 255 255 255 255
-11.87510014 -5.550970078 6.486960411 -0.6149374843 -0.7866478562 0.05510876328 255 255 255 255
-11.72469902 -5.798190117 4.840789795 -0.5893323421 -0.8047920465 0.07069028169 255 255 255 255
-10.90389824 -8.220239639 -5.931380272 -0.3381044269 -0.9138268232 0.2249576002 255 255 255 255
-11.41689873 -5.817890167 8.173560143 -0.604475081 -0.7953128219 0.0456876494 255 255 255 255
-11.10690022 -5.938910007 10.08710003 -0.5923092365 -0.8043084145 0.04751610383 255 255 255 255
-10.88299942 -7.826990604 -4.328799725 -0.3827934563 -0.8935441375 0.2346231043 255 255 255 255
-11.02180004 -7.351929665 -2.784749985 -0.4114654958 -0.884249866 0.2209035009 255 255 255 255
-11.05600071 -6.907369614 -0.9096400142 -0.4416569471 -0.8783460855 0.1828860193 255 255 255 255
-11.32319927 -6.207690239 3.33562994 -0.5395527482 -0.8391987085 0.06803181022 255 255 255 255
-10.91470051 -6.575960159 1.622989893 -0.4985598326 -0.8619369268 0.0922107473 255 255 255 255
-10.64950085 -6.339869976 8.710740089 -0.5860683322 -0.808801353 0.04862352461 255 255 255 255
-10.30020046 -6.444649696 11.62529945 -0.5696140528 -0.8189406395 0.06982877851 255 255 255 255
-10.7421999 -6.475510597 5.708940029 -0.5822566152 -0.8115051985 0.04936155677 255 255 255 255
-9.799039841 -9.078920364 -8.311590195 -0.3141045868 -0.9462936521 0.07659424841 255 255 255 255
-10.5156002 -6.53993988 7.216650009 -0.5809639692 -0.8126330972 0.04591620341 255 255 255 255
-9.880670547 -9.087620735 -10.01970005 -0.3388661444 -0.933254838 -0.1191851571 255 255 255 255
-9.906909943 -8.79734993 -6.80880022 -0.3187842369 -0.9307215214 0.1792598367 255 255 255 255
-10.4822998 -6.701360226 4.467790604 -0.5505847931 -0.8340624571 0.03458563983 255 255 255 255
-10.46459961 -7.019599915 0.131600976 -0.4652166367 -0.8754820228 0.1307851374 255 255 255 255
-9.733440399 -6.616270065 13.61789989 -0.5485556722 -0.8313240409 0.08936982602 255 255 255 255
-9.675900459 -8.11386013 -3.335330009 -0.3912536502 -0.8960164189 0.2099409401 255 255 255 255
-9.217189789 -8.921770096 -11.56449986 -0.3189704418 -0.9045609236 -0.2828910351 255 255 255 255
-10.05579948 -7.031139851 2.903810263 -0.5030642152 -0.8629428148 0.04749812931 255 255 255 255
-9.753840446 -8.467289925 -4.908239841 -0.355748266 -0.9127274156 0.2009273618 255 255 255 255
-9.810020447 -6.948300362 8.738369942 -0.5420930982 -0.8382861614 0.05840729922 255 255 255 255
-9.994080544 -7.024650097 4.949269772 -0.5216228962 -0.852737546 0.02735413425 255 255 255 255
-9.732580185 -7.766339779 -1.78670001 -0.4205791354 -0.8910291791 0.1708222777 255 255 255 255
-9.836170197 -7.273200035 1.422319889 -0.4762499928 -0.8765434027 0.06969664991 255 255 255 255
-9.754500389 -7.082699776 6.408380032 -0.5148547888 -0.8563297987 0.04029662535 255 255 255 255
-9.402819633 -7.267109394 7.626860142 -0.5033271313 -0.8633776307 0.03522670269 255 255 255 255
-9.317879677 -7.419830322 3.681059837 -0.4705151021 -0.8822672963 0.01483193506 255 255 255 255
-9.252719879 -7.171679974 10.3380003 -0.5035458207 -0.8623564243 0.05275404081 255 255 255 255
-8.599510193 -9.362179756 -7.670490265 -0.2897605598 -0.9479455948 0.1320529133 255 255 255 255
-8.704899788 -9.08507061 -6.190070152 -0.3089806139 -0.9363203645 0.1668387353 255 255 255 255
-8.928910255 -7.824369907 0.07633416355 -0.4237069786 -0.8992117643 0.1090439782 255 255 255 255
-8.865200043 -7.290740013 12.08600044 -0.4824763834 -0.8735620975 0.06407658756 255 255 255 255
-8.173669815 -9.656620026 -9.248529434 -0.2685416937 -0.9632482529 0.00618144311 255 255 255 255
-8.494369507 -8.894180298 -4.808569908 -0.3212524652 -0.9295309186 0.1810223907 255 255 255 255
-8.981069565 -7.582619667 5.189260006 -0.4465456605 -0.8944100142 0.02505515888 255 255 255 255
-8.489709854 -7.874279976 2.228520155 -0.4177266359 -0.90740484 0.04605337605 255 255 255 255
-8.285189629 -8.66174984 -3.271519899 -0.3558763266 -0.9188263416 0.1706172228 255 255 255 255
-8.453709602 -7.78278017 6.761719704 -0.4373555779 -0.8988699913 0.02743887343 255 255 255 255
-7.858320236 -9.590510368 -10.87529945 -0.2567478418 -0.9465329647 -0.1953352094 255 255 255 255
-8.224909782 -7.445110321 14.35039997 -0.4614998102 -0.8834210634 0.08114872873 255 255 255 255
-8.468509674 -7.708310127 8.622550011 -0.4319877028 -0.9004434347 0.05087529868 255 255 255 255
-8.058080673 -8.467419624 -1.533929944 -0.3755229115 -0.9154117107 0.1449272186 255 255 255 255
-7.519249916 -9.32172966 -5.330070019 -0.3146962225 -0.9351055622 0.1629228145 255 255 255 255
-7.396310329 -9.178619385 -12.18109989 -0.2552538514 -0.8925139308 -0.3718392253 255 255 255 255
-7.955160618 -8.077080727 3.805000067 -0.3894487023 -0.9208578467 0.018721167 255 255 255 255
-7.283150196 -9.612589836 -6.707839966 -0.2837223113 -0.9496656656 0.1328034848 255 255 255 255
-7.175690174 -9.814189911 -7.969959736 -0.2473896593 -0.964915812 0.08795328438 255 255 255 255
-7.827879906 -7.92633009 9.929450035 -0.395952791 -0.9166364074 0.05476365238 255 255 255 255
-7.721200466 -7.896260262 11.28969955 -0.3930934072 -0.9184300303 0.04431578517 255 255 255 255
-7.488130569 -8.242829323 5.476620197 -0.3786450624 -0.9254659414 0.01186239067 255 255 255 255
-7.473879814 -8.38643074 0.7356229424 -0.3693169951 -0.925109148 0.08819315583 255 255 255 255
-7.224259853 -8.03633976 13.0588007 -0.3715048134 -0.9267881513 0.05520771816 255 255 255 255
-7.178329945 -8.34526062 7.210680485 -0.3595685959 -0.9324350953 0.0357099995 255 255 255 255
-6.334890366 -10.0710001 -9.346079826 -0.1989930272 -0.9792225957 -0.03904959559 255 255 255 255
-6.45761919 -9.492609978 -4.204899788 -0.3011481762 -0.9421625733 0.1471034586 255 255 255 255
-6.529369831 -9.270629883 -2.806469917 -0.3166476488 -0.9360721111 0.1533079147 255 255 255 255
-6.609309673 -8.470020294 8.707440376 -0.3054916561 -0.9506146312 0.05483304337 255 255 255 255
-6.644839764 -8.154819489 14.3902998 -0.3083682656 -0.9481943846 0.07639686018 255 255 255 255
-6.508150101 -8.975000381 -1.152629972 -0.3219358027 -0.9372151494 0.134108454 255 255 255 255
-6.897049904 -8.529080391 2.494479895 -0.32014063 -0.9461706877 0.04765501618 255 255 255 255
-6.182569981 -9.856510162 -5.921370029 -0.2449175715 -0.9616705179 0.1233094409 255 255 255 255
-5.775320053 -9.985949516 -11.37290001 -0.1782622635 -0.9668291807 -0.1829313338 255 255 255 255
-6.403310299 -8.634479523 4.109759808 -0.3140305877 -0.9493334293 0.01227970235 255 255 255 255
-6.009529591 -10.06579971 -7.653470039 -0.203895852 -0.9760196805 0.07623726875 255 255 255 255
-6.23058033 -8.499899864 10.28900146 -0.2759881318 -0.9599401951 0.04842917994 255 255 255 255
-6.13751936 -8.436840057 11.92060089 -0.2824135721 -0.9584485888 0.0402353555 255 255 255 255
-6.496569633 -8.609479904 5.853630066 -0.2849732041 -0.9584020376 0.01599375159 255 255 255 255
-5.826689243 -9.04128933 0.319544971 -0.2765211165 -0.9556261301 0.1015615016 255 255 255 255
-5.619420528 -8.818440437 7.402989864 -0.2335978597 -0.971323669 0.04429885 255 255 255 255
-5.597789764 -8.880729675 3.338610411 -0.2479982227 -0.9686442018 0.01501016878 255 255 255 255
-4.84141016 -10.32870007 -8.889939308 -0.1246994361 -0.9920184612 0.01869210228 255 255 255 255
-5.261290073 -9.752809525 -3.598530054 -0.2235824317 -0.9642623663 0.1421585083 255 255 255 255
-5.052539825 -9.988560677 -5.107949734 -0.187861681 -0.9755523205 0.1140422523 255 255 255 255
-5.215159893 -8.978069305 4.976850033 -0.1777532548 -0.9837189317 0.02647287026 255 255 255 255
-4.542459965 -10.21280003 -6.461929798 -0.1298591346 -0.9872388244 0.09217443317 255 255 255 255
-5.012849808 -9.530889511 -1.830009937 -0.2040411979 -0.968372643 0.1436021924 255 255 255 255
-4.521679878 -10.32640076 -7.7292099 -0.08787152171 -0.994707644 0.05324770883 255 255 255 255
-4.189069748 -10.39280033 -10.08059978 -0.1030933633 -0.9863297939 -0.1285506338 255 255 255 255
-4.796210289 -9.12239933 1.777520061 -0.1703832597 -0.9828695655 0.07026313245 255 255 255 255
-4.122099876 -9.964680672 -11.84399986 -0.04878941178 -0.970187068 -0.2373955846 255 255 255 255
3 64 53 62 
3 69 72 87 
3 102 85 96 
3 157 175 152 
3 157 152 131 
3 152 146 125 
3 131 152 125 
3 184 167 191 
3 152 175 167 
3 146 152 167 
3 131 125 108 
3 91 108 106 
3 106 125 123 
3 108 125 106 
3 91 106 92 
3 87 81 92 
3 75 91 71 
3 125 146 123 
3 106 123 105 
3 92 106 105 
3 71 91 92 
3 27 41 32 
3 184 190 177 
3 87 92 105 
3 72 71 81 
3 59 58 41 
3 19 27 21 
3 19 21 13 
3 126 133 112 
3 142 143 126 
3 167 184 177 
3 126 112 105 
3 89 69 87 
3 51 41 58 
3 58 69 51 
3 51 44 32 
3 11 13 18 
3 13 21 18 
3 52 40 43 
3 56 66 52 
3 93 101 88 
3 115 97 103 
3 99 97 116 
3 96 78 84 
3 44 29 32 
3 97 80 74 
3 57 44 51 
3 18 21 29 
3 7 11 5 
3 115 112 133 
3 147 133 143 
3 61 50 57 
3 44 57 50 
3 23 37 36 
3 5 11 8 
3 142 146 160 
3 80 65 61 
3 83 67 65 
3 11 18 23 
3 69 89 74 
3 29 44 37 
3 65 47 61 
3 50 61 47 
3 36 20 23 
3 11 20 8 
3 62 79 64 
3 188 186 174 
3 185 168 186 
3 130 133 150 
3 67 45 65 
3 47 65 45 
3 42 31 33 
3 33 31 22 
3 3 1 9 
3 67 84 78 
3 65 80 83 
3 83 104 84 
3 150 136 130 
3 31 42 39 
3 45 54 42 
3 185 189 169 
3 150 155 136 
3 168 150 156 
3 49 39 46 
3 9 15 24 
3 133 130 115 
3 136 128 117 
3 169 155 150 
3 49 46 60 
3 132 119 137 
3 31 24 15 
3 85 95 76 
3 128 137 119 
3 39 49 35 
3 16 14 28 
3 49 43 35 
3 40 30 43 
3 14 9 24 
3 5 8 2 
3 173 181 192 
3 119 118 109 
3 118 119 132 
3 140 135 127 
3 119 109 104 
3 149 140 132 
3 173 158 149 
3 144 149 137 
3 173 192 183 
3 148 151 138 
3 118 111 102 
3 180 176 187 
3 111 127 122 
3 158 163 148 
3 76 68 85 
3 183 187 176 
3 38 25 40 
3 82 73 66 
3 55 40 52 
3 48 55 63 
3 73 55 66 
3 38 48 34 
3 138 139 124 
3 40 55 38 
3 62 53 48 
3 94 77 88 
3 38 34 26 
3 71 92 81 
3 55 73 63 
3 134 124 139 
3 151 163 166 
3 114 101 113 
3 48 38 55 
3 166 182 170 
3 88 77 73 
3 154 170 161 
3 63 62 48 
3 62 77 79 
3 145 141 162 
3 134 141 114 
3 161 178 162 
3 170 178 161 
3 63 77 62 
3 162 179 165 
3 141 134 154 
3 162 165 145 
3 145 153 129 
3 153 145 165 
3 79 86 70 
3 77 94 79 
3 110 113 101 
3 10 4 16 
3 174 177 188 
3 108 91 90 
3 91 75 90 
3 167 175 191 
3 98 87 105 
3 71 59 75 
3 167 160 146 
3 123 146 142 
3 6 2 12 
3 87 98 89 
3 110 101 93 
3 177 159 160 
3 12 2 8 
3 159 143 142 
3 58 72 69 
3 69 57 51 
3 114 113 120 
3 49 56 43 
3 23 18 29 
3 37 23 29 
3 97 115 116 
3 89 98 103 
3 156 159 174 
3 136 144 128 
3 47 36 37 
3 61 57 74 
3 20 11 23 
3 33 20 36 
3 97 99 80 
3 20 33 22 
3 104 99 117 
3 186 168 174 
3 130 116 115 
3 150 147 156 
3 24 31 39 
3 117 128 104 
3 83 80 99 
3 8 20 12 
3 9 1 6 
3 15 9 6 
3 84 67 83 
3 148 138 135 
3 150 133 147 
3 22 15 12 
3 60 54 67 
3 33 45 42 
3 189 172 169 
3 54 60 46 
3 39 42 46 
3 30 40 25 
3 99 104 83 
3 14 16 4 
3 164 155 172 
3 78 96 85 
3 144 136 155 
3 137 128 144 
3 109 96 104 
3 3 14 4 
3 172 181 164 
3 172 189 181 
3 140 149 158 
3 122 127 135 
3 158 148 140 
3 56 49 68 
3 135 140 148 
3 43 28 35 
3 164 149 144 
3 66 56 76 
3 82 95 93 
3 110 95 111 
3 181 173 164 
3 111 122 110 
3 176 180 163 
3 68 76 56 
3 100 107 86 
3 158 173 176 
3 163 158 176 
3 163 151 148 
3 38 26 25 
3 79 70 64 
3 81 87 72 
3 124 120 113 
3 25 10 16 
3 166 163 180 
3 182 166 180 
3 17 10 25 
3 166 170 154 
3 94 100 79 
3 114 120 134 
3 162 178 179 
3 161 162 141 
3 154 161 141 
3 111 118 127 
3 145 129 121 
3 114 94 101 
3 113 110 124 
3 122 124 110 
3 177 174 159 
3 193 191 175 
3 72 58 71 
3 32 29 21 
3 167 177 160 
3 98 105 112 
3 103 98 112 
3 156 174 168 
3 123 142 126 
3 105 123 126 
3 13 11 7 
3 43 56 52 
3 36 47 45 
3 112 115 103 
3 84 104 96 
3 33 36 45 
3 57 69 74 
3 61 74 80 
3 41 51 32 
3 22 31 15 
3 78 68 60 
3 155 169 172 
3 67 54 45 
3 20 22 12 
3 169 168 185 
3 168 169 150 
3 116 130 136 
3 147 143 156 
3 116 117 99 
3 1 0 6 
3 68 78 85 
3 149 164 173 
3 42 54 46 
3 28 43 30 
3 128 119 104 
3 9 14 3 
3 102 109 118 
3 28 30 16 
3 127 132 140 
3 24 35 28 
3 49 60 68 
3 132 137 149 
3 66 76 82 
3 73 82 93 
3 102 111 95 
3 14 24 28 
3 173 183 176 
3 25 26 17 
3 139 138 151 
3 86 79 100 
3 141 121 114 
3 94 114 100 
3 151 166 154 
3 139 151 154 
3 93 88 73 
3 94 88 101 
3 34 48 53 
3 124 134 120 
3 139 154 134 
3 114 121 100 
3 138 122 135 
3 159 156 143 
3 188 177 190 
3 95 85 102 
3 59 71 58 
3 50 47 37 
3 21 27 32 
3 66 55 52 
3 6 12 15 
3 159 142 160 
3 50 37 44 
3 89 103 97 
3 74 89 97 
3 155 164 144 
3 116 136 117 
3 133 126 143 
3 60 67 78 
3 35 24 39 
3 95 110 93 
3 25 16 30 
3 95 82 76 
3 138 124 122 
3 77 63 73 
3 121 141 145 
3 107 100 121 
3 129 107 121 
3 132 127 118 
3 109 102 96 
3 171 153 165 
