ply
format ascii 1.0
comment meshmixer generated
element vertex 325
property float x
property float y
property float z
property float nx
property float ny
property float nz
property uchar red
property uchar green
property uchar blue
property uchar alpha
element face 584
property list uchar int vertex_indices
end_header
8.189371109 4.439504623 6.827829838 0.02535907738 0.4332402945 0.9009216428 255 255 255 255
7.750725269 0.1525663435 9.107905388 0.4720435143 0.1927298903 0.8602500558 255 255 255 255
6.090339661 -9.98425293 8.89573288 0.448466599 -0.1711639911 0.8772574067 255 255 255 255
7.188680649 -4.970541 9.56712532 0.5896080136 -0.162837863 0.7911044359 255 255 255 255
7.70570612 -1.635904431 9.475309372 0.53586936 0.04589137435 0.8430528045 255 255 255 255
7.541518211 -3.280640841 9.575928688 0.5847129822 -0.07038126886 0.8081814051 255 255 255 255
6.470853329 -11.5475769 8.422117233 0.4149789214 -0.1872625053 0.8903511763 255 255 255 255
7.374952316 -6.888362408 9.004355431 0.5885531902 -0.1624730974 0.7919644117 255 255 255 255
9.112577438 2.862234831 7.560329914 0.1762465388 0.3330765665 0.926281333 255 255 255 255
7.715544701 -8.5181036 8.417235374 0.5404151082 -0.1699607968 0.8240538836 255 255 255 255
7.140277386 -14.60024357 7.309370518 0.4419901967 -0.2997032702 0.845471859 255 255 255 255
7.311290264 -11.20637035 8.10216713 0.4701340497 -0.1547766775 0.8689178228 255 255 255 255
9.035356522 1.126408339 8.126826286 0.4148994386 0.1963576674 0.8884267807 255 255 255 255
8.631774902 -4.195971489 8.660568237 0.5883572102 -0.1316575408 0.7978108525 255 255 255 255
8.946521759 -2.430689096 8.596601486 0.5674065351 -0.05314220861 0.8217211962 255 255 255 255
9.140434265 -0.6454818249 8.524127007 0.5102095604 0.09729705006 0.8545288444 255 255 255 255
9.821084023 4.79023695 6.613238335 0.06728316098 0.3787325025 0.9230572581 255 255 255 255
7.805704117 -12.76301384 7.511786938 0.4895909727 -0.1917202771 0.8506138921 255 255 255 255
8.897831917 -5.629899502 8.120222092 0.5845620632 -0.1680076867 0.7937635779 255 255 255 255
8.285764694 -9.898281097 7.761718273 0.5116539001 -0.1599886119 0.8441646099 255 255 255 255
7.168486118 -16.10806847 6.560431957 0.3709181547 -0.4447520077 0.8152394891 255 255 255 255
10.2954464 6.757789135 5.854803562 0.03667942062 0.3273257911 0.9441993833 255 255 255 255
9.229241371 -7.030297279 7.618230343 0.5728210807 -0.1436238587 0.8069995046 255 255 255 255
8.717154503 -11.23234844 7.24148035 0.5293647647 -0.1494358778 0.8351298571 255 255 255 255
7.847521782 -17.67315865 5.249283791 0.2969946563 -0.5127940178 0.8055038452 255 255 255 255
10.08051777 -3.356461763 7.70680809 0.5718958378 -0.1100551933 0.8129101992 255 255 255 255
9.472925186 -8.858459473 7.148295879 0.5499716997 -0.1372352391 0.8238310814 255 255 255 255
11.45856762 9.945504189 4.688051701 -0.08350713551 0.3119375706 0.9464256763 255 255 255 255
10.50158501 -1.556470037 7.65421629 0.5436771512 -0.06044210866 0.8371152282 255 255 255 255
10.81509018 0.006080579013 7.44040823 0.4758825302 0.06395120174 0.8771807551 255 255 255 255
8.437373161 -15.04166317 6.47615099 0.4270189404 -0.338316381 0.8385683298 255 255 255 255
10.65147209 1.955886602 7.345579624 0.3555088341 0.1412041485 0.9239452481 255 255 255 255
10.39347172 -4.500887394 7.28392601 0.5635066628 -0.1550225914 0.8114358783 255 255 255 255
10.83267593 3.660075426 6.945330143 0.2471021116 0.2291325629 0.94150877 255 255 255 255
9.762660027 -10.65238285 6.624279022 0.5277977586 -0.1371658593 0.8382213712 255 255 255 255
8.63193512 -18.7911396 4.191978931 0.2268882692 -0.5678722858 0.791228652 255 255 255 255
9.572566032 -12.17670727 6.532234192 0.5074816346 -0.1306677461 0.8516973257 255 255 255 255
9.153107643 -13.60907936 6.524384499 0.470299989 -0.2190407813 0.8548912406 255 255 255 255
11.83246326 8.344112396 5.305921555 -0.0003818620462 0.2906552553 0.9568277597 255 255 255 255
11.51853466 5.275686264 6.344728947 0.126891613 0.277083993 0.9524300694 255 255 255 255
9.114162445 -16.52241135 5.455551624 0.3595699072 -0.4185427725 0.8339852691 255 255 255 255
10.51308632 -6.439379215 6.812266827 0.5411077142 -0.1505805105 0.8273620009 255 255 255 255
12.93139267 11.12406826 4.486624241 -0.07616842538 0.2736848593 0.9587987065 255 255 255 255
11.44609261 -3.153468609 6.794529915 0.5243037343 -0.1240078136 0.8424533606 255 255 255 255
10.8714695 -7.793417931 6.35598135 0.514377892 -0.1168657988 0.8495633006 255 255 255 255
9.87633419 -19.70856667 3.109574795 0.1646147519 -0.6092882752 0.7756737471 255 255 255 255
9.85263443 -17.65722847 4.593688488 0.2812325656 -0.4785707593 0.8317921758 255 255 255 255
11.87752628 0.5077707767 6.894507885 0.4230464399 -0.003856502008 0.9060997963 255 255 255 255
12.6488266 7.096040249 5.663028717 0.08054430783 0.2679701149 0.9600545168 255 255 255 255
10.00513554 -15.03807259 5.641485214 0.4263983071 -0.2838875055 0.8588320017 255 255 255 255
11.16450882 -9.643582344 5.959537983 0.473416388 -0.1196174845 0.8726789951 255 255 255 255
11.10883236 -11.47950172 5.722277641 0.4556989074 -0.1103146449 0.883271873 255 255 255 255
13.41116428 9.537527084 4.994804382 -0.03689081222 0.2668962181 0.9630189538 255 255 255 255
12.33759117 -1.221217513 6.510688305 0.4489960372 -0.08132945001 0.889824748 255 255 255 255
10.87687874 -12.92584896 5.715026855 0.4478357136 -0.1342009306 0.8839871287 255 255 255 255
13.99381351 12.44486046 4.215088367 -0.07546394318 0.2469178736 0.9660935402 255 255 255 255
12.6699295 2.216920853 6.494174957 0.3510730267 0.06400505453 0.9341579676 255 255 255 255
12.83354282 4.000186443 6.262537479 0.2681619823 0.1203328967 0.9558290243 255 255 255 255
12.02400208 -4.811599255 6.174438953 0.4754192531 -0.145703122 0.8676100373 255 255 255 255
11.07160759 -14.13344765 5.343041897 0.4256502092 -0.2260440141 0.8761997223 255 255 255 255
10.78924084 -18.98568344 3.483658075 0.2085183859 -0.5324239731 0.8203930855 255 255 255 255
10.65675735 -16.19630051 4.965589523 0.3416967094 -0.3280055523 0.8807131648 255 255 255 255
13.38908577 5.625041485 5.91688633 0.1918502897 0.1746106148 0.9657663107 255 255 255 255
12.16819 -6.786224842 5.776371479 0.4318748713 -0.1131010354 0.894814074 255 255 255 255
14.1180582 8.121121407 5.319509029 0.04519027472 0.2019904256 0.9783443809 255 255 255 255
11.299119 -17.50690651 4.165397167 0.2667381763 -0.4132943451 0.8706540465 255 255 255 255
12.15702248 -12.11632633 5.176527977 0.4057257473 -0.1009214967 0.9084060192 255 255 255 255
14.73112488 11.21373272 4.587337971 -0.05424739048 0.2434391826 0.968397975 255 255 255 255
13.47480774 0.3127716482 6.146389008 0.3623579443 -0.04371540993 0.9310132861 255 255 255 255
12.58564854 -8.41564846 5.407404423 0.3864753246 -0.108992964 0.9158369899 255 255 255 255
11.78029442 -15.29681778 4.710767746 0.341953367 -0.2179142535 0.9141013622 255 255 255 255
13.00519943 -2.6612463 6.019974232 0.4047905207 -0.1368731409 0.904107511 255 255 255 255
11.87995243 -19.99856949 2.554247618 0.1409715265 -0.5581632853 0.8176679015 255 255 255 255
14.66401386 6.708527088 5.483827114 0.1240728721 0.1432563663 0.9818775654 255 255 255 255
12.94580269 -10.32045078 5.047095299 0.3703725636 -0.1062443256 0.9227872491 255 255 255 255
14.12727356 3.330212116 5.899472713 0.2765065432 0.04579873383 0.9599201083 255 255 255 255
13.42388439 -5.8740592 5.317764759 0.3448647559 -0.1152661368 0.9315481782 255 255 255 255
14.80328178 4.651147366 5.704721928 0.199996829 0.06811626256 0.9774259329 255 255 255 255
12.8063879 -16.49136734 4.104512691 0.2558574975 -0.3062357605 0.9169278145 255 255 255 255
12.87917995 -13.87670326 4.640492439 0.3203829825 -0.1526128948 0.9349139333 255 255 255 255
15.43241787 9.425542831 5.029564857 -0.002798159374 0.1925687492 0.9812794924 255 255 255 255
12.38938713 -20.89899826 1.686502099 0.1058099717 -0.6686452031 0.736014843 255 255 255 255
13.92907715 -4.295479298 5.379354477 0.3155680895 -0.1377921849 0.938845098 255 255 255 255
14.57600307 1.827478886 5.840778351 0.2816485465 -0.008117177524 0.9594833255 255 255 255 255
13.16805458 -12.01054096 4.78106308 0.3118012547 -0.1041677669 0.94441998 255 255 255 255
12.94990063 -18.41341782 3.314691782 0.1641649455 -0.4414225519 0.8821541667 255 255 255 255
14.5286684 0.1614035666 5.796956062 0.2910687327 -0.06103343517 0.9547533393 255 255 255 255
14.61988735 -1.245310545 5.630968571 0.2934499085 -0.1027155593 0.950440228 255 255 255 255
15.92030239 12.87011909 4.273832798 -0.08156680316 0.2142659277 0.9733637571 255 255 255 255
14.3940115 -7.344871998 4.899934292 0.2648925781 -0.09885346889 0.9591975212 255 255 255 255
15.94143867 7.973972797 5.222585201 0.04944045469 0.1127299517 0.9923948646 255 255 255 255
14.53045177 -2.612991571 5.451725483 0.2705273032 -0.1374542564 0.9528490305 255 255 255 255
16.423666 10.91014576 4.760656834 -0.04287164658 0.2020172328 0.9784432054 255 255 255 255
13.81273746 -15.55181217 4.101890564 0.2184401602 -0.1988280565 0.9553802013 255 255 255 255
14.42531013 -9.269997597 4.648768425 0.2488303334 -0.108830072 0.9624133706 255 255 255 255
15.74445534 3.32573843 5.532252789 0.2023571581 0.0060990192 0.97929281 255 255 255 255
17.0181942 14.76914597 3.954500914 -0.1076366305 0.2293026447 0.9673854709 255 255 255 255
16.41638374 6.31098175 5.349325657 0.1045871377 0.06405372173 0.9924508333 255 255 255 255
14.44799423 -11.1424675 4.470397472 0.234285906 -0.08922578394 0.968064487 255 255 255 255
15.1872263 -5.68159008 4.886522293 0.2093732208 -0.1126693785 0.9713230729 255 255 255 255
13.93985271 -19.97868538 2.299679518 0.1087253168 -0.5832117796 0.8050110936 255 255 255 255
15.74282742 0.5015804768 5.467023849 0.2444179952 -0.05195210874 0.968277216 255 255 255 255
16.45545578 4.823234558 5.376982689 0.1578890234 0.01676909626 0.9873144627 255 255 255 255
14.58716774 -12.7793169 4.303524017 0.2088739127 -0.09687770903 0.9731322527 255 255 255 255
14.28034496 -17.25815773 3.56286478 0.1494925469 -0.3020287156 0.9415044188 255 255 255 255
16.03708076 -3.865781069 4.94173336 0.1898036599 -0.1184565425 0.9746500254 255 255 255 255
16.63240051 2.158841133 5.307601929 0.1951595098 -0.03582191467 0.9801171422 255 255 255 255
14.89624023 -14.20430565 4.073865414 0.1718344241 -0.1361529827 0.9756717086 255 255 255 255
14.43196392 -21.24243355 1.057360291 0.1050895527 -0.6846321821 0.7212731838 255 255 255 255
17.47809219 9.336503983 5.049887657 -0.008191306144 0.1189907938 0.9928615689 255 255 255 255
16.47523117 -2.228006601 5.043921471 0.1802658141 -0.1068630666 0.9777957201 255 255 255 255
15.94159889 -7.06663847 4.607289791 0.1731962115 -0.09167282283 0.9806116223 255 255 255 255
15.73400784 -9.924308777 4.368527412 0.1399292797 -0.08861009777 0.9861886501 255 255 255 255
18.20381927 11.37974167 4.751689434 -0.0708752051 0.1711382419 0.982694447 255 255 255 255
17.7702446 5.551909447 5.211564064 0.08563493192 0.004509180319 0.9963163733 255 255 255 255
15.06291294 -18.59739876 2.969904423 0.1144706532 -0.4429881275 0.8891894817 255 255 255 255
17.14339638 -0.712328136 5.062466145 0.1895123422 -0.07200096548 0.9792348742 255 255 255 255
18.09164619 13.46319008 4.383494377 -0.1010406017 0.1980912387 0.9749618769 255 255 255 255
15.93364048 -11.57224655 4.191831112 0.1215450689 -0.08494917303 0.9889441133 255 255 255 255
17.31472778 0.8413988352 5.128782272 0.1714021415 -0.05535455421 0.9836448431 255 255 255 255
18.07952309 7.397956848 5.182187557 0.03698517755 0.04098913074 0.9984748363 255 255 255 255
15.63218307 -16.03302002 3.689276695 0.1251754314 -0.2101425529 0.9696242809 255 255 255 255
16.90369225 -4.988430977 4.679850578 0.1272776723 -0.106232129 0.986161828 255 255 255 255
17.68490982 3.849933386 5.21723175 0.1142524481 -0.02465402521 0.9931457639 255 255 255 255
16.71219063 -8.433015823 4.364467144 0.1161731556 -0.08837135136 0.9892898202 255 255 255 255
16.3176136 -13.36494827 3.991897106 0.09928442538 -0.0973662138 0.9902840257 255 255 255 255
18.83938789 15.25928497 4.032314301 -0.1073457375 0.2549434304 0.9609790444 255 255 255 255
17.02868462 -6.624182224 4.486559868 0.0929152593 -0.09341099858 0.9912825823 255 255 255 255
17.95827293 -3.793909311 4.688006878 0.1073931083 -0.09507381916 0.9896603823 255 255 255 255
16.46653557 -17.54001617 3.159981966 0.09396224469 -0.3062153161 0.9473137259 255 255 255 255
16.00606155 -20.21273613 1.824394822 0.09764871001 -0.6226063967 0.7764186859 255 255 255 255
18.53328896 2.185849905 5.050469875 0.1006935462 -0.05210834369 0.9935519695 255 255 255 255
17.25330925 -10.26232815 4.174459457 0.06785805523 -0.08083223552 0.9944151044 255 255 255 255
17.06853485 -14.66719246 3.778384209 0.07723974437 -0.1501692981 0.9856384993 255 255 255 255
16.35449219 -21.4207592 0.5689116716 0.1036240309 -0.7021922469 0.7044062614 255 255 255 255
19.28378868 8.643671036 5.091302395 -0.011006888 0.05438232794 0.998459518 255 255 255 255
19.31579399 5.616557598 5.131521225 0.04966041818 -0.02250380069 0.9985126257 255 255 255 255
18.48264313 0.2703665495 4.928825855 0.08962215483 -0.05931354314 0.9942080975 255 255 255 255
19.73310852 10.50532341 4.985525131 -0.04712875932 0.09959549457 0.9939112663 255 255 255 255
17.00016785 -18.73592186 2.678067923 0.07866768539 -0.4639824629 0.8823444247 255 255 255 255
19.8669548 12.3448143 4.751717091 -0.08809439093 0.1523951888 0.9843856096 255 255 255 255
18.66341782 -1.783207297 4.794413567 0.08911119401 -0.07380202413 0.993283689 255 255 255 255
17.77902603 -12.03468418 3.996124506 0.05164595693 -0.08003804833 0.9954529405 255 255 255 255
19.97184944 13.81125927 4.503491402 -0.1041242406 0.1965743899 0.9749444127 255 255 255 255
17.47946548 -16.36037064 3.446339846 0.06579163671 -0.2328063101 0.9702951312 255 255 255 255
20.46545029 16.48338699 3.797324657 -0.09928834438 0.3132030666 0.9444816709 255 255 255 255
18.74626732 -5.531904697 4.470921516 0.04506710917 -0.081525594 0.9956518412 255 255 255 255
18.46169662 -7.44860363 4.32741642 0.03796853125 -0.07819455862 0.9962148666 255 255 255 255
20.27443314 7.298380375 5.150425911 0.003927142825 -0.006677766331 0.9999700189 255 255 255 255
18.0709362 -13.54046154 3.878624201 0.02522752061 -0.1056540683 0.9940828681 255 255 255 255
18.90600777 -9.26981163 4.176822186 0.02895413898 -0.0734648183 0.9968774319 255 255 255 255
19.90715408 3.824814081 5.017791271 0.03586578369 -0.04061812535 0.9985308051 255 255 255 255
19.4360981 -3.460386753 4.608290195 0.03973865509 -0.07641615719 0.9962838292 255 255 255 255
20.13093376 1.443471074 4.906318665 0.03293594345 -0.05485258624 0.9979510903 255 255 255 255
18.05836105 -20.72956848 1.035139799 0.1010484546 -0.691881299 0.714905262 255 255 255 255
18.82449532 -15.04658413 3.639766932 0.01927627623 -0.1695824414 0.9853274822 255 255 255 255
19.28990555 -10.78301239 4.061676979 0.004925892223 -0.07407204062 0.9972407222 255 255 255 255
18.51387405 -19.60882568 2.034811974 0.09787409008 -0.5851219893 0.8050173521 255 255 255 255
21.51093674 14.69899273 4.498960495 -0.08775556087 0.2447282225 0.9656122923 255 255 255 255
20.29428291 -0.2166268826 4.80888176 0.03337385505 -0.06152286008 0.9975475669 255 255 255 255
18.43804169 -17.95901108 2.930827618 0.06704474986 -0.3841865063 0.9208179712 255 255 255 255
19.28655624 -12.50880337 3.931001425 -0.007888581604 -0.06887972355 0.9975937605 255 255 255 255
21.31730461 11.43649101 4.994338989 -0.0600297153 0.0961310789 0.9935568571 255 255 255 255
21.70833588 13.18990993 4.783727169 -0.07966849953 0.1532137245 0.9849764109 255 255 255 255
21.38199043 9.013465881 5.146660805 -0.03039379604 0.03240333125 0.9990126491 255 255 255 255
20.91582298 5.531076908 5.057060242 -0.003476274433 -0.03687629104 0.9993137717 255 255 255 255
18.7513485 -16.2097187 3.399446726 0.02934267372 -0.240467146 0.9702136517 255 255 255 255
19.95697021 -8.060102463 4.254318237 -0.00972271245 -0.07512827963 0.9971264601 255 255 255 255
20.73791313 -1.886157274 4.675673485 0.01414454542 -0.06706789136 0.9976481199 255 255 255 255
20.46153069 -6.711259365 4.370840073 -0.008857074194 -0.06922145933 0.9975619912 255 255 255 255
20.91572952 -4.980046272 4.471621037 -0.008254676126 -0.06422889978 0.9979010224 255 255 255 255
22.48916435 7.245769024 5.162725925 -0.01849032752 -0.01479819324 0.9997195005 255 255 255 255
21.50613785 0.9113652706 4.856630325 -0.002064103959 -0.06435298175 0.9979250431 255 255 255 255
20.4743042 -13.49973392 3.895876169 -0.01574832201 -0.1231815889 0.9922592044 255 255 255 255
19.65971565 -17.01522255 3.178231478 0.02333660983 -0.2904954255 0.956591785 255 255 255 255
21.76012611 2.297714233 4.965748787 -0.0146176042 -0.05861270055 0.9981737733 255 255 255 255
21.10866928 -3.209891081 4.602555275 -0.013349046 -0.06369429082 0.9978801608 255 255 255 255
20.1650486 -15.36106968 3.588911295 0.000969175424 -0.2024707198 0.9792878628 255 255 255 255
20.06219864 -20.36816025 1.08530724 0.1422550231 -0.6669562459 0.7313910723 255 255 255 255
20.78488159 -9.636707306 4.162788868 -0.03947949409 -0.06185694039 0.9973039031 255 255 255 255
22.28120232 4.057056904 5.050556183 -0.02375178784 -0.03662823886 0.9990466833 255 255 255 255
20.83922577 -11.65882015 4.047325611 -0.045358859 -0.07119467854 0.9964305758 255 255 255 255
20.23330498 -19.27480316 2.022177458 0.1215606108 -0.5793645382 0.8059526682 255 255 255 255
23.09840202 12.17409897 5.010119915 -0.03985860944 0.1071984544 0.9934383631 255 255 255 255
23.34928894 14.02570534 4.772784233 -0.04592281207 0.2043981105 0.9778100848 255 255 255 255
21.95598221 -0.6842498779 4.768929958 -0.02455984801 -0.05802841485 0.9980127811 255 255 255 255
22.50796127 5.839437008 5.142397404 -0.02884057723 -0.03306562081 0.9990369678 255 255 255 255
23.13434219 10.35852051 5.165880203 -0.02550244145 0.04934223369 0.9984562993 255 255 255 255
23.66117668 15.79791927 4.256098747 -0.04377551377 0.2867194414 0.957013905 255 255 255 255
20.50862694 -17.8862381 2.793913126 0.0655592382 -0.4336159825 0.8987097144 255 255 255 255
21.89083862 -7.630026817 4.348466396 -0.05248953402 -0.06759864837 0.9963309169 255 255 255 255
23.73618507 8.506713867 5.19029665 -0.016446786 0.005773893092 0.9998480678 255 255 255 255
22.27920532 -5.975380898 4.473629951 -0.0591061227 -0.05370887369 0.9968057871 255 255 255 255
23.01276779 -2.378102064 4.699373722 -0.04111348838 -0.06041568518 0.9973262548 255 255 255 255
21.53933907 -16.44153214 3.332799196 0.03667083383 -0.2968003154 0.9542351961 255 255 255 255
22.85793686 -4.225064278 4.590001583 -0.05096253008 -0.05090480298 0.99740237 255 255 255 255
21.80077934 -14.70549965 3.708434582 0.001876224531 -0.1935242265 0.9810937047 255 255 255 255
23.35652733 1.331894755 4.914433002 -0.04050240293 -0.05674510449 0.9975668192 255 255 255 255
23.70675278 2.999106169 5.061686039 -0.02982342988 -0.0508274585 0.9982620478 255 255 255 255
24.20301247 6.945909023 5.199439526 -0.02122840472 -0.0125226099 0.9996961951 255 255 255 255
21.86244202 -18.61375427 2.28075552 0.1323324591 -0.5876671076 0.7982077003 255 255 255 255
22.67331505 -8.856611252 4.318947792 -0.0728475228 -0.0581557788 0.9956461191 255 255 255 255
22.58338547 -12.63188171 4.057391167 -0.04111369327 -0.1236758456 0.9914705753 255 255 255 255
24.27008247 5.191733837 5.144242287 -0.02991348505 -0.03213583305 0.9990357757 255 255 255 255
24.93414688 9.883057594 5.182513714 -0.003148049582 0.03059160709 0.9995270371 255 255 255 255
24.82289314 13.05092716 4.967768669 0.006488580257 0.137423113 0.9904912114 255 255 255 255
22.11509705 -19.92076302 0.9663857222 0.1812730879 -0.6870318651 0.7036527991 255 255 255 255
25.0319252 11.29412079 5.11626482 0.000277557614 0.07433795929 0.9972330928 255 255 255 255
24.86779785 14.84003925 4.610251904 0.04722569883 0.267256707 0.962467432 255 255 255 255
22.65808296 -10.83696461 4.224083424 -0.06765903533 -0.06772944331 0.9954069257 255 255 255 255
22.77007675 -17.41351128 2.843283415 0.1045115218 -0.4551470876 0.8842615485 255 255 255 255
23.97973061 -0.8728105426 4.856752872 -0.06311640143 -0.05346956477 0.9965727925 255 255 255 255
23.74272919 -5.092378139 4.6383605 -0.07987192273 -0.03917222843 0.9960351586 255 255 255 255
23.25424576 -16.11765862 3.324776649 0.05914822221 -0.3203358054 0.9454556704 255 255 255 255
24.81733704 2.472040653 5.052517891 -0.05589755625 -0.05218284577 0.9970719218 255 255 255 255
23.1782856 -14.36588192 3.80513835 -0.001750266878 -0.2202057689 0.9754518867 255 255 255 255
25.10910034 3.754408836 5.138373852 -0.04333098978 -0.03499250859 0.9984477758 255 255 255 255
24.06875801 -7.094288349 4.555010319 -0.07548681647 -0.06289182603 0.9951614738 255 255 255 255
25.55714417 8.580209732 5.221757412 -0.004236227367 0.01609191485 0.9998615384 255 255 255 255
23.48803711 -18.65003395 1.896470547 0.1836030483 -0.6476259232 0.7395070195 255 255 255 255
26.25152016 13.68873787 4.790047169 0.1739623696 0.2678310871 0.9476305246 255 255 255 255
24.7064209 -3.176127434 4.757081509 -0.07407654077 -0.04705282301 0.9961419106 255 255 255 255
25.88822746 6.308712006 5.234534264 -0.01680669934 -0.009560949169 0.9998130202 255 255 255 255
24.27172852 -9.176528931 4.435598373 -0.0653994903 -0.06007214636 0.9960493445 255 255 255 255
26.4176712 15.30891323 4.070061684 0.2170648128 0.3777371347 0.9001097083 255 255 255 255
23.79945946 -13.84170532 3.906646252 -0.01388591062 -0.203828916 0.978908062 255 255 255 255
26.43662071 10.5782671 5.149709702 0.04191327468 0.06088919938 0.9972641468 255 255 255 255
24.11240196 -12.32234478 4.189944744 -0.02867275104 -0.1313910782 0.9909158945 255 255 255 255
25.51016617 0.7200798392 5.030623913 -0.06001676619 -0.03779520839 0.9974815845 255 255 255 255
23.76307869 -19.71215248 0.6263493299 0.2066637576 -0.7280797958 0.6535976529 255 255 255 255
26.76337624 12.04723358 5.017222881 0.1126505286 0.1714258194 0.9787354469 255 255 255 255
26.2405777 4.635165691 5.207598686 -0.02569996379 -0.02002923563 0.9994690418 255 255 255 255
25.07020187 -5.319038868 4.73303318 -0.07393186539 -0.04179462418 0.9963871241 255 255 255 255
26.12905121 2.67645216 5.160401821 -0.03531913087 -0.03863213211 0.9986290932 255 255 255 255
24.80539131 -10.7533474 4.375926018 -0.03162919357 -0.08798132837 0.9956198335 255 255 255 255
25.85451508 -1.141083956 4.98485899 -0.06583209336 -0.05338421836 0.9964016676 255 255 255 255
24.86951065 -15.32738018 3.509802103 0.06880494952 -0.3311102688 0.941080153 255 255 255 255
24.92501259 -17.25236702 2.646125078 0.1551995724 -0.5178858042 0.8412534595 255 255 255 255
27.21269798 7.427413464 5.230295658 0.02603491209 0.01754650474 0.99950701 255 255 255 255
25.78058624 -6.770786285 4.701769829 -0.05876721069 -0.06961193681 0.9958416224 255 255 255 255
25.65626526 -8.063250542 4.583007336 -0.04395873472 -0.08066292852 0.9957716465 255 255 255 255
27.83028984 14.33437061 4.108043194 0.2073385566 0.3099161685 0.927880764 255 255 255 255
27.31194878 9.411948204 5.179515362 0.06287813187 0.0524405092 0.99664253 255 255 255 255
25.36417961 -13.66597462 3.959940434 0.04716567323 -0.2203672379 0.9742760062 255 255 255 255
25.33453178 -18.78167343 1.217317343 0.1988484114 -0.6670483947 0.717987299 255 255 255 255
26.44191742 -2.622302532 4.924397945 -0.0615251027 -0.05597737804 0.996534586 255 255 255 255
25.80947495 -9.404634476 4.486905575 -0.02588897757 -0.07459051162 0.9968781471 255 255 255 255
26.41014862 -3.626374722 4.890345573 -0.05907681584 -0.0367574729 0.9975764751 255 255 255 255
26.08419991 -12.03483582 4.204602242 0.03068360314 -0.1603723764 0.9865795374 255 255 255 255
27.40901566 0.2881632447 5.133379936 -0.03165167943 -0.0210282281 0.9992777109 255 255 255 255
27.48532677 1.78604126 5.139151096 -0.01739601418 -0.03063226305 0.9993793368 255 255 255 255
27.88200378 5.777860165 5.239878654 0.0496025905 0.01131800748 0.9987049103 255 255 255 255
28.5003643 11.18301392 4.901283264 0.2106418461 0.1501533687 0.965962708 255 255 255 255
26.78907776 -5.469532967 4.834945202 -0.03428245336 -0.0539441891 0.9979552627 255 255 255 255
28.55465317 12.91754341 4.542033195 0.2030775845 0.241358161 0.9489498138 255 255 255 255
26.33678818 -10.57040787 4.390875816 -0.001375931664 -0.1153208166 0.9933273196 255 255 255 255
27.95672417 3.957033396 5.225956917 0.01512620971 -0.01476359926 0.9997766018 255 255 255 255
27.2157135 -6.983515263 4.741398335 -0.008818615228 -0.08672232181 0.9961934686 255 255 255 255
26.8558197 -14.63482761 3.547329426 0.131016627 -0.3183189034 0.938886404 255 255 255 255
28.63551903 7.992630482 5.12105751 0.1172861978 0.04504102468 0.9920762181 255 255 255 255
26.64498901 -15.9216795 3.039720058 0.1935190856 -0.471760273 0.8602282405 255 255 255 255
28.13449478 -1.077054262 5.109136581 -0.01363464445 -0.04555195197 0.9988689423 255 255 255 255
27.35933685 -8.569348335 4.582124233 0.0002922757121 -0.08759526163 0.9961560965 255 255 255 255
28.97049904 9.701594353 4.984084606 0.1977623701 0.1103575304 0.9740180969 255 255 255 255
27.94848824 -2.72483182 4.994230747 -0.01390951872 -0.05813314766 0.9982119203 255 255 255 255
26.77212143 -17.60536766 1.899215341 0.2182030231 -0.5696074367 0.7924233675 255 255 255 255
27.45971489 -13.24723816 3.855361462 0.1193577126 -0.2554536164 0.9594254494 255 255 255 255
27.52202225 -9.924911499 4.48160553 0.03338101134 -0.1108968779 0.993271172 255 255 255 255
27.99794388 -4.294092178 4.914000988 -5.061065895e-05 -0.05369404331 0.9985574484 255 255 255 255
28.82785797 2.311944485 5.177191257 0.0297414232 -0.02333908342 0.9992851019 255 255 255 255
27.68560219 -11.48757935 4.262095451 0.07099755853 -0.1832118183 0.9805063605 255 255 255 255
29.26017189 0.7010602951 5.116493225 0.03275930136 -0.01637224667 0.9993291497 255 255 255 255
28.29934502 -6.091741085 4.794723034 0.02814547904 -0.07574032247 0.996730268 255 255 255 255
30.01412392 12.13617897 4.083220005 0.3524208963 0.220821023 0.9094160795 255 255 255 255
29.41737366 3.592120647 5.151896954 0.08706297725 0.01175790001 0.9961334467 255 255 255 255
29.86779594 5.040010929 5.093617916 0.1247460321 0.02855264395 0.9917777777 255 255 255 255
30.45736885 10.73616695 4.334357738 0.2990662754 0.207588017 0.9313788414 255 255 255 255
28.88470078 -7.577632904 4.643959045 0.04757431895 -0.09440423548 0.9943965673 255 255 255 255
30.15188789 7.012684822 4.975501537 0.1855066866 0.0719435215 0.9800058007 255 255 255 255
29.43593788 -2.141199827 5.017446041 0.04119178653 -0.0654784739 0.9970034361 255 255 255 255
30.50174141 8.932218552 4.720233917 0.2361512035 0.1034839153 0.9661902785 255 255 255 255
28.98786736 -8.813790321 4.515830517 0.08397547901 -0.1198281422 0.9892367721 255 255 255 255
29.38567543 -3.567444086 4.916835308 0.04869137332 -0.06099840254 0.9969494939 255 255 255 255
28.87598038 -14.71328735 3.128705025 0.237292096 -0.3999520242 0.8852857351 255 255 255 255
29.58333397 -4.895797253 4.837907314 0.05246864632 -0.06812295318 0.9962962866 255 255 255 255
30.51212692 2.48447752 5.068989754 0.1219293028 0.002745491453 0.9925349951 255 255 255 255
29.97671318 -0.7324568629 5.069580555 0.08876864612 -0.03469516709 0.9954478145 255 255 255 255
29.31502724 -10.49526596 4.247412682 0.135859713 -0.1696941555 0.9760870934 255 255 255 255
28.66700935 -16.35531425 2.14523983 0.2618030012 -0.5236101747 0.8107352257 255 255 255 255
29.20889664 -12.19324875 3.903104544 0.1821063161 -0.2706784308 0.9452885389 255 255 255 255
31.23111534 3.957766056 4.912805557 0.1981322616 0.03209452704 0.9796497226 255 255 255 255
30.43600082 -7.71178627 4.506364346 0.1395415664 -0.1181533337 0.9831418991 255 255 255 255
30.3158741 -6.230733871 4.673388481 0.1157003865 -0.09889806062 0.9883484244 255 255 255 255
30.92101669 0.7645858526 5.013299465 0.1622146219 -0.01258150861 0.9866752625 255 255 255 255
31.9144516 8.14182663 4.28548336 0.2906623781 0.1259139478 0.9485046268 255 255 255 255
31.03107643 -4.505228996 4.74366951 0.1260598898 -0.07182693481 0.9894189239 255 255 255 255
31.0461731 -2.557204247 4.870376587 0.1385162324 -0.04895845056 0.9891492724 255 255 255 255
32.02318192 6.001914024 4.642997742 0.2244088948 0.07501402497 0.9716035724 255 255 255 255
30.84560776 -9.182041168 4.223275185 0.2152340412 -0.1691449881 0.9618026018 255 255 255 255
32.15818787 2.656224489 4.722549915 0.2659531236 0.01776719838 0.9638222456 255 255 255 255
30.60896301 -13.15517902 3.224076748 0.3230581284 -0.3646144867 0.873321116 255 255 255 255
31.79784203 -0.5132758617 4.787006855 0.2054429799 -0.02438280731 0.9783653021 255 255 255 255
30.98856544 -11.10799694 3.797369242 0.3140364587 -0.2498651296 0.9159413576 255 255 255 255
30.75219154 -15.06341934 2.220040798 0.3454771042 -0.446769923 0.825252831 255 255 255 255
32.92073822 4.356357098 4.432104111 0.2928531468 0.02376800589 0.9558619857 255 255 255 255
32.03238297 -7.313705444 4.228659153 0.2826138437 -0.153825894 0.9468194246 255 255 255 255
32.70207214 1.182991862 4.588561058 0.3054162264 0.01207756251 0.9521423578 255 255 255 255
31.95008469 -5.271330833 4.509022713 0.2484414577 -0.0956999436 0.9639078379 255 255 255 255
32.45291519 -3.409723997 4.549893856 0.2980471551 -0.06877348572 0.952070415 255 255 255 255
32.7664299 -1.886786342 4.53856945 0.3152889013 -0.04664346203 0.9478487968 255 255 255 255
32.67191696 -9.089738846 3.654909372 0.4170125425 -0.2217665464 0.8814307451 255 255 255 255
32.08703232 -12.26226234 2.971372843 0.3946050107 -0.3122059703 0.8641842008 255 255 255 255
33.57458878 2.799054861 4.182746887 0.3689842224 0.01919304952 0.9292374849 255 255 255 255
33.39645004 -0.211719647 4.378743172 0.3551567793 -0.004717112053 0.9347948432 255 255 255 255
32.33374786 -13.67679405 2.103493452 0.405490756 -0.4120833576 0.8159439564 255 255 255 255
33.147995 -5.912330627 4.111401081 0.4028764367 -0.1397478282 0.9045225978 255 255 255 255
34.13578796 1.502437234 3.956941843 0.3961093724 0.0362900272 0.9174858928 255 255 255 255
33.26567078 -10.73884106 2.756904125 0.4629656971 -0.2599833012 0.8473909497 255 255 255 255
34.32456207 -1.309353948 3.855757236 0.4451089501 -0.04362304136 0.8944132328 255 255 255 255
34.21045303 -2.720103264 3.814763308 0.4077183306 -0.05436167121 0.9114881158 255 255 255 255
34.47760773 -0.01762321778 3.723476648 0.5146045685 0.02679135837 0.857008934 255 255 255 255
34.04283524 -4.155663013 3.847815514 0.3867877424 -0.07437439263 0.9191646576 255 255 255 255
33.76381683 -7.358007431 3.423035383 0.472085923 -0.1973723471 0.8591734767 255 255 255 255
33.95035934 -9.176610947 2.759057999 0.5463511348 -0.2386839241 0.8028265238 255 255 255 255
34.36167145 -5.461611748 3.420864582 0.5317399502 -0.1567291021 0.8322791457 255 255 255 255
3 100 115 85 
3 37 54 36 
3 243 266 248 
3 24 40 20 
3 61 78 70 
3 20 40 30 
3 78 104 93 
3 60 72 85 
3 35 60 46 
3 79 54 59 
3 54 79 66 
3 157 130 154 
3 130 139 115 
3 179 209 201 
3 182 206 200 
3 174 166 160 
3 200 189 182 
3 237 210 219 
3 139 160 129 
3 288 260 265 
3 265 237 244 
3 260 236 237 
3 237 236 213 
3 30 49 37 
3 2 6 11 
3 40 61 49 
3 173 155 177 
3 34 36 51 
3 59 70 79 
3 79 93 107 
3 189 174 160 
3 103 125 118 
3 213 194 210 
3 142 132 118 
3 202 181 173 
3 149 142 125 
3 118 98 103 
3 149 173 161 
3 236 243 225 
3 243 227 225 
3 227 209 202 
3 9 2 19 
3 22 7 9 
3 11 23 19 
3 34 19 23 
3 44 26 50 
3 26 44 22 
3 51 50 34 
3 94 98 112 
3 58 63 76 
3 50 26 34 
3 66 74 51 
3 50 51 74 
3 44 41 22 
3 132 112 118 
3 41 44 63 
3 156 132 142 
3 246 223 234 
3 150 124 132 
3 223 246 240 
3 142 161 156 
3 124 150 147 
3 150 167 147 
3 283 303 300 
3 225 227 202 
3 267 246 255 
3 223 201 209 
3 240 239 217 
3 246 267 262 
3 270 287 267 
3 291 277 281 
3 270 289 287 
3 298 305 291 
3 287 298 281 
3 255 270 267 
3 322 305 310 
3 289 302 287 
3 287 302 298 
3 298 302 310 
3 302 317 310 
3 105 82 99 
3 28 25 43 
3 18 41 32 
3 89 69 94 
3 74 94 69 
3 122 127 146 
3 76 63 89 
3 94 124 89 
3 124 127 111 
3 76 89 99 
3 195 176 170 
3 147 167 169 
3 190 169 167 
3 221 235 211 
3 318 309 319 
3 212 221 195 
3 277 272 257 
3 217 239 232 
3 240 257 239 
3 232 239 253 
3 232 253 247 
3 232 247 221 
3 239 257 253 
3 247 253 268 
3 281 298 291 
3 317 302 311 
3 322 324 315 
3 315 307 305 
3 321 319 308 
3 292 295 284 
3 15 4 14 
3 128 110 105 
3 76 99 82 
3 232 212 217 
3 86 83 68 
3 47 56 31 
3 159 141 168 
3 110 91 105 
3 141 137 116 
3 137 119 116 
3 131 137 153 
3 137 159 153 
3 116 119 101 
3 192 217 212 
3 172 153 159 
3 193 185 168 
3 261 235 245 
3 168 176 193 
3 247 268 264 
3 250 228 249 
3 271 249 261 
3 301 286 296 
3 286 301 293 
3 313 316 306 
3 54 37 59 
3 153 172 175 
3 123 114 102 
3 57 39 33 
3 95 75 83 
3 75 56 83 
3 77 62 57 
3 106 101 119 
3 198 180 175 
3 153 175 151 
3 175 172 197 
3 275 274 290 
3 256 251 231 
3 214 198 197 
3 269 271 285 
3 250 271 269 
3 245 247 264 
3 285 293 299 
3 293 285 271 
3 304 297 290 
3 38 52 27 
3 39 48 21 
3 83 86 101 
3 90 80 64 
3 91 110 87 
3 135 109 120 
3 120 109 90 
3 109 135 138 
3 131 151 123 
3 90 97 120 
3 136 148 120 
3 187 162 164 
3 148 164 135 
3 162 140 138 
3 222 238 218 
3 218 191 199 
3 203 222 199 
3 204 187 191 
3 259 263 242 
3 275 297 278 
3 48 38 21 
3 92 88 67 
3 88 92 113 
3 140 143 117 
3 254 230 252 
3 205 208 184 
3 184 188 158 
3 278 259 251 
3 230 241 220 
3 220 224 208 
3 276 273 252 
3 125 107 133 
3 184 208 188 
3 236 215 213 
3 306 299 293 
3 305 307 292 
3 299 306 312 
3 130 100 108 
3 108 100 81 
3 85 65 60 
3 130 108 134 
3 45 72 60 
3 266 243 258 
3 10 20 30 
3 40 24 46 
3 35 46 24 
3 100 85 72 
3 107 121 133 
3 40 46 61 
3 93 70 78 
3 115 139 129 
3 100 130 115 
3 93 104 121 
3 178 182 157 
3 177 155 166 
3 219 200 206 
3 181 209 179 
3 260 288 283 
3 200 219 210 
3 237 265 260 
3 266 283 289 
3 303 283 288 
3 295 282 284 
3 155 173 149 
3 103 79 107 
3 93 79 70 
3 270 266 289 
3 84 79 103 
3 74 66 84 
3 196 213 215 
3 149 133 155 
3 133 149 125 
3 125 142 118 
3 36 34 23 
3 215 202 196 
3 142 149 161 
3 227 243 248 
3 112 132 124 
3 236 225 215 
3 201 223 217 
3 248 234 227 
3 270 255 248 
3 130 157 139 
3 314 300 303 
3 300 314 311 
3 302 289 300 
3 310 323 322 
3 11 19 2 
3 112 98 118 
3 19 34 26 
3 169 190 192 
3 13 14 5 
3 98 94 74 
3 18 22 41 
3 50 74 69 
3 44 50 69 
3 63 58 41 
3 124 94 112 
3 179 156 181 
3 14 13 25 
3 161 173 181 
3 161 181 156 
3 190 167 179 
3 281 267 287 
3 240 217 223 
3 234 255 246 
3 257 240 262 
3 315 305 322 
3 295 307 308 
3 298 310 305 
3 323 310 317 
3 295 292 307 
3 58 71 43 
3 82 105 91 
3 58 43 32 
3 29 15 28 
3 32 25 13 
3 58 76 82 
3 122 105 99 
3 146 128 122 
3 39 57 62 
3 170 176 152 
3 150 179 167 
3 195 170 192 
3 31 33 8 
3 176 168 152 
3 141 116 110 
3 146 147 169 
3 235 221 245 
3 309 318 313 
3 272 277 292 
3 221 212 232 
3 190 201 217 
3 247 245 221 
3 253 257 272 
3 268 253 272 
3 313 318 320 
3 321 308 307 
3 308 319 309 
3 141 159 137 
3 31 56 33 
3 110 128 141 
3 68 47 53 
3 89 63 69 
3 83 56 68 
3 282 264 268 
3 137 131 119 
3 47 68 56 
3 264 282 279 
3 228 250 233 
3 221 193 195 
3 159 168 185 
3 172 159 185 
3 185 197 172 
3 268 284 282 
3 211 228 197 
3 274 275 256 
3 293 271 286 
3 306 301 313 
3 183 207 205 
3 106 83 101 
3 114 123 136 
3 48 39 62 
3 33 16 8 
3 62 77 73 
3 119 131 106 
3 97 73 77 
3 153 151 131 
3 136 151 165 
3 180 165 151 
3 151 175 180 
3 138 164 162 
3 214 197 228 
3 216 203 198 
3 228 233 214 
3 165 180 186 
3 203 199 186 
3 187 204 207 
3 198 214 216 
3 231 222 203 
3 279 261 264 
3 312 304 299 
3 64 38 48 
3 16 33 39 
3 64 73 90 
3 80 67 52 
3 97 90 73 
3 73 64 48 
3 80 90 109 
3 164 138 135 
3 171 191 164 
3 135 120 148 
3 207 226 230 
3 226 204 218 
3 207 183 187 
3 285 274 269 
3 205 184 183 
3 238 242 218 
3 259 278 280 
3 238 222 251 
3 242 252 226 
3 273 254 252 
3 140 117 113 
3 126 96 117 
3 163 158 143 
3 233 256 231 
3 107 125 103 
3 158 145 126 
3 66 51 54 
3 43 53 28 
3 104 78 85 
3 10 30 37 
3 121 107 93 
3 79 84 66 
3 17 37 36 
3 46 60 65 
3 61 46 65 
3 65 85 78 
3 134 154 130 
3 213 196 194 
3 121 104 129 
3 144 166 155 
3 160 144 129 
3 210 237 213 
3 166 174 177 
3 154 178 157 
3 15 14 28 
3 160 182 189 
3 144 160 166 
3 194 177 174 
3 244 219 229 
3 210 194 189 
3 219 244 237 
3 236 260 258 
3 11 6 17 
3 206 182 178 
3 84 103 98 
3 74 84 98 
3 173 177 196 
3 202 173 196 
3 177 194 196 
3 202 215 225 
3 243 236 258 
3 248 266 270 
3 234 209 227 
3 206 229 219 
3 258 283 266 
3 262 277 257 
3 51 36 54 
3 9 19 26 
3 22 9 26 
3 49 30 40 
3 63 44 69 
3 122 111 127 
3 132 156 150 
3 209 234 223 
3 234 248 255 
3 29 12 15 
3 262 281 277 
3 277 291 292 
3 174 189 194 
3 282 295 296 
3 82 91 71 
3 87 101 86 
3 18 13 3 
3 12 1 15 
3 13 18 32 
3 25 28 14 
3 5 3 13 
3 43 25 32 
3 71 91 87 
3 29 53 47 
3 87 53 71 
3 99 111 122 
3 179 150 156 
3 105 122 128 
3 168 141 152 
3 77 102 97 
3 116 87 110 
3 146 169 170 
3 146 170 152 
3 128 146 152 
3 193 176 195 
3 192 212 195 
3 279 296 286 
3 307 315 321 
3 249 271 250 
3 4 15 1 
3 86 68 87 
3 87 116 101 
3 53 87 68 
3 211 185 193 
3 185 211 197 
3 235 261 249 
3 245 264 261 
3 286 261 279 
3 271 261 286 
3 309 301 296 
3 70 49 61 
3 306 316 312 
3 296 279 282 
3 123 106 131 
3 33 56 57 
3 75 95 77 
3 114 136 120 
3 102 77 95 
3 170 169 192 
3 136 123 151 
3 102 95 123 
3 180 198 203 
3 120 97 114 
3 102 114 97 
3 193 221 211 
3 175 197 198 
3 233 216 214 
3 180 203 186 
3 231 216 233 
3 269 256 250 
3 216 231 203 
3 222 231 251 
3 256 269 274 
3 297 275 290 
3 290 285 299 
3 304 290 299 
3 106 123 95 
3 52 38 64 
3 52 64 80 
3 67 42 52 
3 67 88 55 
3 92 109 113 
3 80 109 92 
3 67 80 92 
3 88 113 117 
3 148 136 165 
3 113 138 140 
3 183 184 163 
3 140 162 163 
3 164 191 187 
3 164 148 171 
3 226 207 204 
3 191 171 199 
3 278 294 280 
3 278 251 275 
3 218 242 226 
3 274 285 290 
3 252 242 263 
3 276 252 263 
3 238 251 259 
3 242 238 259 
3 96 88 117 
3 55 42 67 
3 126 117 143 
3 233 250 256 
3 218 199 222 
3 158 163 184 
3 205 230 220 
3 208 205 220 
3 224 220 241 
3 226 252 230 
3 126 143 158 
3 78 61 65 
3 7 22 18 
3 100 72 81 
3 115 104 85 
3 181 202 209 
3 111 99 89 
3 60 35 45 
3 104 115 129 
3 160 139 157 
3 182 160 157 
3 133 121 144 
3 155 133 144 
3 200 210 189 
3 283 258 260 
3 71 58 82 
3 191 218 204 
3 37 17 10 
3 23 11 17 
3 36 23 17 
3 267 281 262 
3 300 289 283 
3 302 300 311 
3 291 305 292 
3 18 3 7 
3 190 179 201 
3 128 152 141 
3 262 240 246 
3 31 29 47 
3 29 31 12 
3 53 29 28 
3 41 58 32 
3 4 5 14 
3 124 111 89 
3 127 124 147 
3 147 146 127 
3 217 192 190 
3 284 268 272 
3 292 284 272 
3 301 309 313 
3 324 321 315 
3 308 296 295 
3 296 308 309 
3 83 106 95 
3 43 71 53 
3 8 12 31 
3 228 211 235 
3 249 228 235 
3 301 306 293 
3 49 70 59 
3 0 8 16 
3 21 16 39 
3 27 52 42 
3 57 56 75 
3 77 57 75 
3 73 48 62 
3 162 187 183 
3 171 165 186 
3 199 171 186 
3 251 256 275 
3 263 280 276 
3 59 37 49 
3 138 113 109 
3 165 171 148 
3 183 163 162 
3 143 140 163 
3 230 205 207 
3 294 278 297 
3 241 230 254 
3 263 259 280 
3 129 144 121 
